<svg width="52" height="40" viewBox="0 0 52 40" fill="none" xmlns="http://www.w3.org/2000/svg">
<g opacity="0.5" clip-path="url(#clip0_3049_9236)">
<path d="M12.0006 5C8.5206 5 5.6306 7.54 5.0906 10.87C4.9906 11.46 5.4806 12 6.0906 12C6.5806 12 6.9906 11.64 7.0706 11.15C7.4806 8.79 9.5306 7 12.0006 7C14.4706 7 16.5206 8.79 16.9306 11.15C17.0106 11.64 17.4206 12 17.9106 12C18.5206 12 19.0006 11.46 18.9006 10.87C18.3706 7.54 15.4806 5 12.0006 5ZM13.0006 14.29C14.0706 13.81 14.7606 12.63 14.4106 11.3C14.1906 10.49 13.5406 9.83 12.7306 9.6C11.0406 9.12 9.5006 10.38 9.5006 12C9.5006 13.02 10.1206 13.9 11.0006 14.29V17.59L8.2906 20.29C7.9006 20.68 7.9006 21.31 8.2906 21.7C8.6806 22.09 9.3106 22.09 9.7006 21.7L12.0006 19.4L14.3006 21.7C14.6906 22.09 15.3206 22.09 15.7106 21.7C16.1006 21.31 16.1006 20.68 15.7106 20.29L13.0006 17.59V14.29ZM12.0006 1C6.3006 1 1.6106 5.34 1.0506 10.9C1.0006 11.49 1.4606 12 2.0506 12C2.5606 12 2.9906 11.62 3.0406 11.12C3.4806 6.56 7.3306 3 12.0006 3C16.6706 3 20.5206 6.56 20.9606 11.12C21.0106 11.62 21.4406 12 21.9506 12C22.5406 12 23.0106 11.49 22.9506 10.9C22.3906 5.34 17.7006 1 12.0006 1Z" fill="#232253"/>
</g>
<g filter="url(#filter0_d_3049_9236)">
<rect x="17" y="15.5" width="29" height="16" rx="8" fill="#232253" shape-rendering="crispEdges"/>
</g>
<defs>
<filter id="filter0_d_3049_9236" x="11" y="11.5" width="41" height="28" filterUnits="userSpaceOnUse" color-interpolation-filters="sRGB">
<feFlood flood-opacity="0" result="BackgroundImageFix"/>
<feColorMatrix in="SourceAlpha" type="matrix" values="0 0 0 0 0 0 0 0 0 0 0 0 0 0 0 0 0 0 127 0" result="hardAlpha"/>
<feOffset dy="2"/>
<feGaussianBlur stdDeviation="3"/>
<feComposite in2="hardAlpha" operator="out"/>
<feColorMatrix type="matrix" values="0 0 0 0 0.137255 0 0 0 0 0.133333 0 0 0 0 0.32549 0 0 0 0.14 0"/>
	<feBlend mode="normal" in2="BackgroundImageFix" result="effect1_dropShadow_3049_9236"/>
	<feBlend mode="normal" in="SourceGraphic" in2="effect1_dropShadow_3049_9236" result="shape"/>
</filter>
<clipPath id="clip0_3049_9236">
<rect width="24" height="24" fill="white"/>
</clipPath>
</defs>
</svg>
