<svg viewBox="0 0 108 111" fill="none" xmlns="http://www.w3.org/2000/svg">
<path d="M38.7423 17.977L54.0871 3.02874C55.8707 1.29126 58.6609 1.13092 60.6317 2.65265L80.7309 18.1714C80.9658 18.3529 81.2165 18.513 81.4799 18.65L98.6934 27.6006C101.092 28.8479 102.065 31.7762 100.889 34.2109L87.8433 61.2276C87.1858 62.5892 87.1798 64.1751 87.8268 65.5416L99.8031 90.8348C100.833 93.0098 100.167 95.6099 98.219 97.0225L88.9153 103.768C87.5921 104.727 85.8836 104.98 84.3398 104.443L67.115 98.4604C65.5418 97.9139 63.7997 98.1867 62.4687 99.1879L49.0741 109.264C47.6461 110.338 45.7533 110.569 44.1092 109.868L14.0749 97.0776C11.6472 96.0437 10.4408 93.3012 11.3192 90.813L21.6712 61.4877C22.2167 59.9427 21.9704 58.2284 21.0122 56.8993L4.87826 34.5205C2.3605 31.0282 5.13973 26.1985 9.42423 26.6205L16.4415 27.3117C19.3131 27.5946 21.8275 25.3947 21.9285 22.511L21.9373 22.26C22.051 19.0183 25.1735 16.7412 28.2948 17.6238L33.8927 19.2068C35.6129 19.6932 37.4618 19.2244 38.7423 17.977Z" fill="#232253"/>
<path d="M85.6999 36.3346C85.6999 49.8157 74.576 60.7878 60.7999 60.7878C47.0238 60.7878 35.8999 49.8157 35.8999 36.3346C35.8999 22.8535 47.0238 11.8813 60.7999 11.8813C74.576 11.8813 85.6999 22.8535 85.6999 36.3346Z" stroke="#CDE5F6" stroke-width="3"/>
<path d="M67.1356 36.2176C67.1356 39.6443 64.3472 42.4306 60.8973 42.4306C57.4473 42.4306 54.6589 39.6443 54.6589 36.2176C54.6589 32.7909 57.4473 30.0046 60.8973 30.0046C64.3472 30.0046 67.1356 32.7909 67.1356 36.2176Z" stroke="#CDE5F6" stroke-width="3"/>
<path d="M81.9393 93.2266C81.9393 95.9125 79.7535 98.0982 77.0468 98.0982C74.3401 98.0982 72.1543 95.9125 72.1543 93.2266C72.1543 90.5407 74.3401 88.355 77.0468 88.355C79.7535 88.355 81.9393 90.5407 81.9393 93.2266Z" stroke="#CDE5F6" stroke-width="3"/>
<path d="M75.2104 36.2176C75.2104 44.0893 68.8069 50.479 60.8973 50.479C52.9878 50.479 46.5842 44.0893 46.5842 36.2176C46.5842 28.3459 52.9878 21.9563 60.8973 21.9563C68.8069 21.9563 75.2104 28.3459 75.2104 36.2176Z" stroke="#CDE5F6" stroke-width="3"/>
<path d="M87.9953 93.2267C87.9953 99.2463 83.0981 104.135 77.0467 104.135C70.9954 104.135 66.0981 99.2463 66.0981 93.2267C66.0981 87.2071 70.9954 82.3188 77.0467 82.3188C83.0981 82.3188 87.9953 87.2071 87.9953 93.2267Z" stroke="#CDE5F6" stroke-width="3"/>
<ellipse cx="21.8692" cy="49.6315" rx="5.04673" ry="5.03021" fill="#E47170"/>
<path d="M42.2383 75.7884C42.2383 76.9927 41.2575 77.9773 40.0374 77.9773C38.8172 77.9773 37.8364 76.9927 37.8364 75.7884C37.8364 74.5842 38.8172 73.5996 40.0374 73.5996C41.2575 73.5996 42.2383 74.5842 42.2383 75.7884Z" fill="#E47170" stroke="#CDE5F6" stroke-width="3"/>
<ellipse cx="83.7757" cy="55.6676" rx="11.7757" ry="11.7372" fill="#E47170"/>
<path d="M29.1243 48.1621C29.1243 50.4776 27.2398 52.363 24.9047 52.363C22.5696 52.363 20.6851 50.4776 20.6851 48.1621C20.6851 45.8466 22.5696 43.9612 24.9047 43.9612C27.2398 43.9612 29.1243 45.8466 29.1243 48.1621Z" stroke="#CDE5F6" stroke-width="3"/>
</svg>
