<?xml version="1.0" encoding="UTF-8"?>
<svg id="Calque_1" data-name="Calque 1" xmlns="http://www.w3.org/2000/svg" viewBox="0 0 3325.28 2538.3">
  <defs>
    <style>
      .cls-1 {
        fill: #fff;
      }
    </style>
  </defs>
  <g>
    <path class="cls-1" d="M1662.64,226.49c-655.68,0-1189.12,533.44-1189.12,1189.12h151.49c0-572.15,465.48-1037.63,1037.63-1037.63s1037.64,465.48,1037.64,1037.63h151.49c0-655.68-533.44-1189.12-1189.13-1189.12Z"/>
    <path class="cls-1" d="M1662.64,622.26c-437.45,0-793.35,355.9-793.35,793.35h151.49c0-353.92,287.94-641.86,641.86-641.86s641.86,287.94,641.86,641.86h151.49c0-437.45-355.9-793.35-793.35-793.35Z"/>
    <path class="cls-1" d="M1662.64,1018.04c-219.22,0-397.57,178.35-397.57,397.57h151.49c0-135.69,110.39-246.08,246.08-246.08s246.09,110.39,246.09,246.08h151.49c0-219.22-178.35-397.57-397.58-397.57Z"/>
  </g>
  <g>
    <path class="cls-1" d="M763.35,1773.18c0-28.98-8.48-52.17-35.24-52.17-15.15,0-29.87,7.58-38.79,19.62.9,6.69,1.79,13.37,1.79,20.51v124.4h-67.33v-112.37c0-28.98-8.48-52.17-35.24-52.17-14.71,0-28.08,6.69-37,17.83v146.7h-67.33v-222.95h67.33v13.38c12.93-10.26,32.1-16.95,50.83-16.95,26.3,0,47.71,10.26,63.32,27.2,12.93-12.93,37-27.2,71.34-27.2,66.44,0,93.64,46.37,93.64,102.11v124.4h-67.33v-112.37Z"/>
    <path class="cls-1" d="M868.11,1774.08c0-63.32,51.72-115.04,115.94-115.04s115.92,51.73,115.92,115.04-51.72,115.04-115.92,115.04-115.94-51.72-115.94-115.04ZM1032.2,1774.08c0-30.77-20.52-52.17-48.15-52.17s-48.17,21.4-48.17,52.17,20.52,52.17,48.17,52.17,48.15-21.41,48.15-52.17Z"/>
    <path class="cls-1" d="M1139.64,1662.6h67.33v13.82c13.39-11.15,31.66-17.39,51.28-17.39,62.87,0,97.21,41.92,97.21,102.11v124.4h-67.33v-112.37c0-29.88-11.6-52.61-41.02-52.61-12.93,0-28.98,6.69-40.14,19.17v145.81h-67.33v-222.95Z"/>
    <path class="cls-1" d="M1503.9,1662.6h67.33v19.62c12.49-15.16,28.98-23.19,50.83-23.19,7.13,0,15.61.9,24.07,3.57v70.01c-10.25-5.36-22.74-7.58-34.32-7.58-13.83,0-29.88,5.35-40.58,14.71v145.81h-67.33v-222.95Z"/>
    <path class="cls-1" d="M1663.51,1774.08c0-65.55,46.38-115.04,115.05-115.04,56.63,0,107.46,37.01,107.46,107.46,0,6.24-.44,12.93-1.35,19.62h-156.5c3.12,29.88,28.54,41.47,48.6,41.47,23.64,0,38.79-11.59,47.71-28.09l53.51,36.11c-20.5,32.11-56.63,53.51-100.78,53.51-58.85,0-113.71-46.37-113.71-115.04ZM1728.62,1746.88h90.97c-3.57-23.63-23.2-33.89-45.05-33.89-16.05,0-39.68,7.14-45.92,33.89ZM1776.33,1568.96h77.14l-63.76,69.12h-49.04l35.67-69.12Z"/>
    <path class="cls-1" d="M1905.17,1841.85l51.28-34.78c8.92,16.06,20.96,27.21,41.02,27.21,9.36,0,17.4-2.23,17.4-10.26,0-8.47-6.24-11.15-28.09-19.62l-11.6-4.46c-38.79-15.16-58.85-40.13-58.85-71.79,0-41.02,33.88-69.12,76.69-69.12,28.54,0,53.51,10.7,70.45,35.22l-38.35,37.9c-8.48-12.03-18.29-20.06-32.1-20.06-8.92,0-16.05,3.12-16.05,10.25,0,8.92,7.13,11.59,29.42,20.07l9.36,3.57c42.35,16.05,59.75,39.24,59.75,72.24,0,45.48-35.22,70.89-80.72,70.89-38.79,0-70.45-13.82-89.62-47.27Z"/>
    <path class="cls-1" d="M2100.91,1774.08c0-65.55,46.38-115.04,115.04-115.04,56.63,0,107.46,37.01,107.46,107.46,0,6.24-.44,12.93-1.33,19.62h-156.52c3.12,29.88,28.54,41.47,48.61,41.47,23.63,0,38.79-11.59,47.71-28.09l53.51,36.11c-20.52,32.11-56.63,53.51-100.78,53.51-58.86,0-113.71-46.37-113.71-115.04ZM2166.02,1746.88h90.95c-3.57-23.63-23.18-33.89-45.03-33.89-16.05,0-39.69,7.14-45.92,33.89Z"/>
    <path class="cls-1" d="M2507.55,1872.62c-12.93,10.7-30.77,16.5-49.06,16.5-66,0-107.91-53.95-107.91-115.04s41.91-115.04,107.91-115.04c18.29,0,36.13,6.24,49.06,16.95v-13.38h67.33v222.95h-67.33v-12.93ZM2507.55,1809.3v-70c-9.36-12.04-21.41-18.73-37.9-18.73-32.1,0-51.28,24.08-51.28,53.51s19.17,53.5,51.28,53.5c16.5,0,28.54-6.24,37.9-18.28Z"/>
    <path class="cls-1" d="M2773.73,1869.05c-13.83,12.93-34.34,20.06-53.07,20.06-60.2,0-95.42-41.47-95.42-102.11v-124.41h67.33v112.37c0,30.32,12.49,52.61,39.23,52.61,16.51,0,33.01-8.03,41.93-22.29v-142.69h67.33v222.95h-67.33v-16.5Z"/>
    <path class="cls-1" d="M1263.39,2195.89c0-28.98-8.48-52.17-35.24-52.17-15.15,0-29.87,7.58-38.79,19.62.9,6.69,1.79,13.37,1.79,20.51v124.4h-67.33v-112.37c0-28.98-8.48-52.17-35.24-52.17-14.71,0-28.08,6.69-37,17.83v146.7h-67.33v-222.95h67.33v13.38c12.93-10.26,32.1-16.95,50.83-16.95,26.3,0,47.71,10.26,63.32,27.2,12.93-12.93,37-27.2,71.34-27.2,66.44,0,93.64,46.37,93.64,102.11v124.4h-67.33v-112.37Z"/>
    <path class="cls-1" d="M1368.14,2196.78c0-63.32,51.72-115.04,115.94-115.04s115.92,51.73,115.92,115.04-51.72,115.04-115.92,115.04-115.94-51.72-115.94-115.04ZM1532.23,2196.78c0-30.77-20.52-52.17-48.15-52.17s-48.17,21.4-48.17,52.17,20.52,52.17,48.17,52.17,48.15-21.41,48.15-52.17Z"/>
    <path class="cls-1" d="M1639.67,1991.66h67.33v107.02c12.93-10.7,30.77-16.95,49.06-16.95,66,0,107.91,53.95,107.91,115.04s-41.91,115.04-107.91,115.04c-18.29,0-36.13-5.79-49.06-16.5v12.93h-67.33v-316.59ZM1706.99,2162v70c8.92,12.04,21.41,18.28,37.9,18.28,32.1,0,51.28-24.08,51.28-53.5s-19.17-53.51-51.28-53.51c-16.5,0-28.98,6.69-37.9,18.73Z"/>
    <path class="cls-1" d="M1898.26,2028.23c0-22.29,17.84-40.13,40.14-40.13s40.12,17.83,40.12,40.13c0,9.82-3.12,18.73-8.91,25.42h-62.43c-5.8-6.69-8.92-15.6-8.92-25.42ZM1904.51,2085.3h67.33v222.95h-67.33v-222.95Z"/>
    <path class="cls-1" d="M2024.88,1991.66h67.33v316.59h-67.33v-316.59Z"/>
    <path class="cls-1" d="M2131.89,2196.78c0-65.55,46.38-115.04,115.05-115.04,56.63,0,107.46,37.01,107.46,107.46,0,6.24-.44,12.93-1.35,19.62h-156.5c3.12,29.88,28.54,41.47,48.6,41.47,23.64,0,38.79-11.59,47.71-28.09l53.51,36.11c-20.5,32.11-56.63,53.51-100.78,53.51-58.85,0-113.71-46.37-113.71-115.04ZM2197,2169.58h90.97c-3.57-23.63-23.2-33.89-45.05-33.89-16.05,0-39.68,7.14-45.92,33.89Z"/>
  </g>
</svg>