<?xml version="1.0" encoding="utf-8" ?>
<svg baseProfile="tiny" height="106.7" version="1.2" width="130.472" xmlns="http://www.w3.org/2000/svg" xmlns:ev="http://www.w3.org/2001/xml-events" xmlns:xlink="http://www.w3.org/1999/xlink"><defs /><polygon fill="#232253" points="40.998,64.363 54.911,76.558 72.514,76.2 69.327,92.106 59.85,93.204 62.656,105.313 79.251,98.381 91.69,106.7 103.451,83.271 125.465,75.158 130.472,59.63 99.733,42.644 96.455,31.911 74.284,39.379 64.549,23.277 52.627,33.442 38.942,17.373 40.749,7.528 32.846,10.594 40.016,1.074 22.66,0.0 17.206,16.18 6.233,16.205 0.0,25.767 6.333,27.278 2.929,34.136 19.312,34.945 16.927,51.484 28.654,52.083 31.19,64.012 40.998,64.363" stroke="none" transform="rotate(180,65.236,53.35) scale(-1,1) translate(-130.472)" /></svg>