<?xml version="1.0" encoding="utf-8" ?>
<svg baseProfile="tiny" height="90.12" version="1.2" width="126.06" xmlns="http://www.w3.org/2000/svg" xmlns:ev="http://www.w3.org/2001/xml-events" xmlns:xlink="http://www.w3.org/1999/xlink"><defs /><polygon fill="#232253" points="7.202,57.289 0.0,69.99 13.903,88.674 42.901,81.508 46.48,90.12 73.585,84.646 69.178,77.259 75.432,70.374 81.307,74.64 88.03,67.374 95.866,75.358 94.807,80.194 95.944,81.302 97.756,75.093 106.858,74.259 107.408,69.138 122.701,66.517 124.891,63.185 125.707,62.69 126.052,62.379 126.06,62.216 111.729,40.838 110.12,20.695 95.519,29.643 84.987,20.444 52.24,21.246 53.685,8.569 38.894,0.0 13.195,19.363 25.379,35.054 20.968,52.735 7.202,57.289" stroke="none" transform="rotate(180,63.03,45.06) scale(-1,1) translate(-126.06)" /></svg>