<?xml version="1.0" encoding="utf-8" ?>
<svg baseProfile="tiny" height="82.944" version="1.2" width="126.273" xmlns="http://www.w3.org/2000/svg" xmlns:ev="http://www.w3.org/2001/xml-events" xmlns:xlink="http://www.w3.org/1999/xlink"><defs /><polygon fill="#232253" points="34.425,74.275 40.075,82.944 49.243,81.728 75.492,63.221 104.686,55.238 125.058,62.283 114.957,46.531 126.273,29.41 117.797,26.751 124.751,13.942 117.761,2.336 112.35,0.0 90.408,5.247 93.138,14.309 91.148,18.746 88.615,20.265 89.097,21.033 87.84,21.574 65.635,17.509 62.242,25.467 73.593,25.444 80.908,32.96 63.766,42.633 67.276,26.078 50.201,30.574 46.932,23.032 55.83,22.822 50.981,17.475 49.333,16.964 28.923,20.06 24.605,30.138 0.0,30.655 18.364,45.247 20.173,57.473 31.631,56.228 34.425,74.275" stroke="none" transform="rotate(180,63.1365,41.472) scale(-1,1) translate(-126.273)" /></svg>