<?xml version="1.0" encoding="UTF-8" standalone="no"?>
<!-- Created with Inkscape (http://www.inkscape.org/) -->

<svg
   width="319.85065"
   height="397.05597"
   viewBox="0 0 84.627148 105.05439"
   version="1.1"
   id="svg13293"
   xml:space="preserve"
   inkscape:export-filename="Test_recentrage_Ain.svg"
   inkscape:export-xdpi="96"
   inkscape:export-ydpi="96"
   inkscape:version="1.2.2 (732a01da63, 2022-12-09)"
   sodipodi:docname="17 - CHARENTE-MARITIME.svg"
   xmlns:inkscape="http://www.inkscape.org/namespaces/inkscape"
   xmlns:sodipodi="http://sodipodi.sourceforge.net/DTD/sodipodi-0.dtd"
   xmlns="http://www.w3.org/2000/svg"
   xmlns:svg="http://www.w3.org/2000/svg"><sodipodi:namedview
     id="namedview13295"
     pagecolor="#ffffff"
     bordercolor="#000000"
     borderopacity="0.25"
     inkscape:showpageshadow="2"
     inkscape:pageopacity="0.0"
     inkscape:pagecheckerboard="0"
     inkscape:deskcolor="#d1d1d1"
     inkscape:document-units="mm"
     showgrid="false"
     inkscape:zoom="0.74564394"
     inkscape:cx="219.27356"
     inkscape:cy="241.40208"
     inkscape:window-width="1920"
     inkscape:window-height="1017"
     inkscape:window-x="-8"
     inkscape:window-y="-8"
     inkscape:window-maximized="1"
     inkscape:current-layer="layer1" /><defs
     id="defs13290" /><g
     inkscape:label="Calque 1"
     inkscape:groupmode="layer"
     id="layer1"><g
       id="g19347"
       transform="matrix(0.7295444,0,0,0.7295444,0,105.05439)"><polygon
         fill="#232253"
         points=""
         stroke="none"
         transform="scale(1,-1)"
         id="polygon19319" /><polygon
         fill="#232253"
         points=""
         stroke="none"
         transform="scale(1,-1)"
         id="polygon19321" /><polygon
         fill="#232253"
         points="32,99 33,99 33,98 "
         stroke="none"
         transform="scale(1,-1)"
         id="polygon19323" /><polygon
         fill="#232253"
         points="0,133 23,122 7,128 4,127 2,128 "
         stroke="none"
         transform="scale(1,-1)"
         id="polygon19325" /><polygon
         fill="#232253"
         points="30,106 29,106 28,105 29,106 "
         stroke="none"
         transform="scale(1,-1)"
         id="polygon19327" /><polygon
         fill="#232253"
         points="107,104 112,94 106,76 82,74 84,59 98,45 94,24 116,14 112,0 85,6 83,20 71,29 57,27 38,61 22,68 22,80 34,90 37,108 24,122 35,139 49,144 47,139 59,140 72,117 "
         stroke="none"
         transform="scale(1,-1)"
         id="polygon19329" /><polygon
         fill="#232253"
         points="24,102 23,82 22,87 12,100 10,110 "
         stroke="none"
         transform="scale(1,-1)"
         id="polygon19331" /><polygon
         fill="#232253"
         points=""
         stroke="none"
         transform="scale(1,-1)"
         id="polygon19333" /></g></g></svg>
