<?xml version="1.0" encoding="UTF-8" standalone="no"?>
<!-- Created with Inkscape (http://www.inkscape.org/) -->

<svg
   width="397.90677"
   height="316.44556"
   viewBox="0 0 105.2795 83.726218"
   version="1.1"
   id="svg13293"
   xml:space="preserve"
   inkscape:export-filename="Test_recentrage_Ain.svg"
   inkscape:export-xdpi="96"
   inkscape:export-ydpi="96"
   inkscape:version="1.2.2 (732a01da63, 2022-12-09)"
   sodipodi:docname="22 - COTES-D'ARMOR.svg"
   xmlns:inkscape="http://www.inkscape.org/namespaces/inkscape"
   xmlns:sodipodi="http://sodipodi.sourceforge.net/DTD/sodipodi-0.dtd"
   xmlns="http://www.w3.org/2000/svg"
   xmlns:svg="http://www.w3.org/2000/svg"><sodipodi:namedview
     id="namedview13295"
     pagecolor="#ffffff"
     bordercolor="#000000"
     borderopacity="0.25"
     inkscape:showpageshadow="2"
     inkscape:pageopacity="0.0"
     inkscape:pagecheckerboard="0"
     inkscape:deskcolor="#d1d1d1"
     inkscape:document-units="mm"
     showgrid="false"
     inkscape:zoom="0.74564394"
     inkscape:cx="219.27356"
     inkscape:cy="241.40208"
     inkscape:window-width="1920"
     inkscape:window-height="1017"
     inkscape:window-x="-8"
     inkscape:window-y="-8"
     inkscape:window-maximized="1"
     inkscape:current-layer="layer1" /><defs
     id="defs13290" /><g
     inkscape:label="Calque 1"
     inkscape:groupmode="layer"
     id="layer1"><g
       id="g20019"
       transform="matrix(0.82897246,0,0,0.82897246,0,83.726218)"><polygon
         fill="#232253"
         points=""
         stroke="none"
         transform="scale(1,-1)"
         id="polygon19628" /><polygon
         fill="#232253"
         points=""
         stroke="none"
         transform="scale(1,-1)"
         id="polygon19630" /><polygon
         fill="#232253"
         points="19,100 19,101 "
         stroke="none"
         transform="scale(1,-1)"
         id="polygon19632" /><polygon
         fill="#232253"
         points=""
         stroke="none"
         transform="scale(1,-1)"
         id="polygon19634" /><polygon
         fill="#232253"
         points=""
         stroke="none"
         transform="scale(1,-1)"
         id="polygon19636" /><polygon
         fill="#232253"
         points="51,87 52,87 51,86 "
         stroke="none"
         transform="scale(1,-1)"
         id="polygon19638" /><polygon
         fill="#232253"
         points=""
         stroke="none"
         transform="scale(1,-1)"
         id="polygon19640" /><polygon
         fill="#232253"
         points=""
         stroke="none"
         transform="scale(1,-1)"
         id="polygon19642" /><polygon
         fill="#232253"
         points=""
         stroke="none"
         transform="scale(1,-1)"
         id="polygon19644" /><polygon
         fill="#232253"
         points=""
         stroke="none"
         transform="scale(1,-1)"
         id="polygon19646" /><polygon
         fill="#232253"
         points="52,93 52,94 "
         stroke="none"
         transform="scale(1,-1)"
         id="polygon19648" /><polygon
         fill="#232253"
         points=""
         stroke="none"
         transform="scale(1,-1)"
         id="polygon19650" /><polygon
         fill="#232253"
         points="15,98 15,99 "
         stroke="none"
         transform="scale(1,-1)"
         id="polygon19652" /><polygon
         fill="#232253"
         points="15,99 16,99 "
         stroke="none"
         transform="scale(1,-1)"
         id="polygon19654" /><polygon
         fill="#232253"
         points="15,99 14,99 "
         stroke="none"
         transform="scale(1,-1)"
         id="polygon19656" /><polygon
         fill="#232253"
         points=""
         stroke="none"
         transform="scale(1,-1)"
         id="polygon19658" /><polygon
         fill="#232253"
         points=""
         stroke="none"
         transform="scale(1,-1)"
         id="polygon19660" /><polygon
         fill="#232253"
         points=""
         stroke="none"
         transform="scale(1,-1)"
         id="polygon19662" /><polygon
         fill="#232253"
         points=""
         stroke="none"
         transform="scale(1,-1)"
         id="polygon19664" /><polygon
         fill="#232253"
         points=""
         stroke="none"
         transform="scale(1,-1)"
         id="polygon19666" /><polygon
         fill="#232253"
         points="108,63 108,64 "
         stroke="none"
         transform="scale(1,-1)"
         id="polygon19668" /><polygon
         fill="#232253"
         points=""
         stroke="none"
         transform="scale(1,-1)"
         id="polygon19670" /><polygon
         fill="#232253"
         points=""
         stroke="none"
         transform="scale(1,-1)"
         id="polygon19672" /><polygon
         fill="#232253"
         points=""
         stroke="none"
         transform="scale(1,-1)"
         id="polygon19674" /><polygon
         fill="#232253"
         points=""
         stroke="none"
         transform="scale(1,-1)"
         id="polygon19676" /><polygon
         fill="#232253"
         points="57,75 57,76 "
         stroke="none"
         transform="scale(1,-1)"
         id="polygon19678" /><polygon
         fill="#232253"
         points="53,84 54,85 54,84 "
         stroke="none"
         transform="scale(1,-1)"
         id="polygon19680" /><polygon
         fill="#232253"
         points=""
         stroke="none"
         transform="scale(1,-1)"
         id="polygon19682" /><polygon
         fill="#232253"
         points="53,84 53,85 "
         stroke="none"
         transform="scale(1,-1)"
         id="polygon19684" /><polygon
         fill="#232253"
         points=""
         stroke="none"
         transform="scale(1,-1)"
         id="polygon19686" /><polygon
         fill="#232253"
         points=""
         stroke="none"
         transform="scale(1,-1)"
         id="polygon19688" /><polygon
         fill="#232253"
         points=""
         stroke="none"
         transform="scale(1,-1)"
         id="polygon19690" /><polygon
         fill="#232253"
         points="6,90 6,91 7,90 "
         stroke="none"
         transform="scale(1,-1)"
         id="polygon19692" /><polygon
         fill="#232253"
         points="5,90 6,90 "
         stroke="none"
         transform="scale(1,-1)"
         id="polygon19694" /><polygon
         fill="#232253"
         points=""
         stroke="none"
         transform="scale(1,-1)"
         id="polygon19696" /><polygon
         fill="#232253"
         points="7,89 7,90 "
         stroke="none"
         transform="scale(1,-1)"
         id="polygon19698" /><polygon
         fill="#232253"
         points=""
         stroke="none"
         transform="scale(1,-1)"
         id="polygon19700" /><polygon
         fill="#232253"
         points="7,88 7,87 "
         stroke="none"
         transform="scale(1,-1)"
         id="polygon19702" /><polygon
         fill="#232253"
         points="7,88 7,87 "
         stroke="none"
         transform="scale(1,-1)"
         id="polygon19704" /><polygon
         fill="#232253"
         points=""
         stroke="none"
         transform="scale(1,-1)"
         id="polygon19706" /><polygon
         fill="#232253"
         points=""
         stroke="none"
         transform="scale(1,-1)"
         id="polygon19708" /><polygon
         fill="#232253"
         points=""
         stroke="none"
         transform="scale(1,-1)"
         id="polygon19710" /><polygon
         fill="#232253"
         points="11,94 12,94 12,93 "
         stroke="none"
         transform="scale(1,-1)"
         id="polygon19712" /><polygon
         fill="#232253"
         points=""
         stroke="none"
         transform="scale(1,-1)"
         id="polygon19714" /><polygon
         fill="#232253"
         points=""
         stroke="none"
         transform="scale(1,-1)"
         id="polygon19716" /><polygon
         fill="#232253"
         points=""
         stroke="none"
         transform="scale(1,-1)"
         id="polygon19718" /><polygon
         fill="#232253"
         points="36,93 36,94 "
         stroke="none"
         transform="scale(1,-1)"
         id="polygon19720" /><polygon
         fill="#232253"
         points="38,96 38,95 37,95 37,96 "
         stroke="none"
         transform="scale(1,-1)"
         id="polygon19722" /><polygon
         fill="#232253"
         points="28,94 28,93 28,94 "
         stroke="none"
         transform="scale(1,-1)"
         id="polygon19724" /><polygon
         fill="#232253"
         points="47,94 48,94 "
         stroke="none"
         transform="scale(1,-1)"
         id="polygon19726" /><polygon
         fill="#232253"
         points="29,94 29,94 30,94 30,93 30,94 29,94 "
         stroke="none"
         transform="scale(1,-1)"
         id="polygon19728" /><polygon
         fill="#232253"
         points="36,96 37,95 36,95 "
         stroke="none"
         transform="scale(1,-1)"
         id="polygon19730" /><polygon
         fill="#232253"
         points=""
         stroke="none"
         transform="scale(1,-1)"
         id="polygon19732" /><polygon
         fill="#232253"
         points=""
         stroke="none"
         transform="scale(1,-1)"
         id="polygon19734" /><polygon
         fill="#232253"
         points="32,94 31,95 "
         stroke="none"
         transform="scale(1,-1)"
         id="polygon19736" /><polygon
         fill="#232253"
         points="29,94 28,94 "
         stroke="none"
         transform="scale(1,-1)"
         id="polygon19738" /><polygon
         fill="#232253"
         points=""
         stroke="none"
         transform="scale(1,-1)"
         id="polygon19740" /><polygon
         fill="#232253"
         points=""
         stroke="none"
         transform="scale(1,-1)"
         id="polygon19742" /><polygon
         fill="#232253"
         points=""
         stroke="none"
         transform="scale(1,-1)"
         id="polygon19744" /><polygon
         fill="#232253"
         points="45,94 44,94 "
         stroke="none"
         transform="scale(1,-1)"
         id="polygon19746" /><polygon
         fill="#232253"
         points=""
         stroke="none"
         transform="scale(1,-1)"
         id="polygon19748" /><polygon
         fill="#232253"
         points=""
         stroke="none"
         transform="scale(1,-1)"
         id="polygon19750" /><polygon
         fill="#232253"
         points=""
         stroke="none"
         transform="scale(1,-1)"
         id="polygon19752" /><polygon
         fill="#232253"
         points=""
         stroke="none"
         transform="scale(1,-1)"
         id="polygon19754" /><polygon
         fill="#232253"
         points=""
         stroke="none"
         transform="scale(1,-1)"
         id="polygon19756" /><polygon
         fill="#232253"
         points=""
         stroke="none"
         transform="scale(1,-1)"
         id="polygon19758" /><polygon
         fill="#232253"
         points=""
         stroke="none"
         transform="scale(1,-1)"
         id="polygon19760" /><polygon
         fill="#232253"
         points=""
         stroke="none"
         transform="scale(1,-1)"
         id="polygon19762" /><polygon
         fill="#232253"
         points=""
         stroke="none"
         transform="scale(1,-1)"
         id="polygon19764" /><polygon
         fill="#232253"
         points=""
         stroke="none"
         transform="scale(1,-1)"
         id="polygon19766" /><polygon
         fill="#232253"
         points=""
         stroke="none"
         transform="scale(1,-1)"
         id="polygon19768" /><polygon
         fill="#232253"
         points=""
         stroke="none"
         transform="scale(1,-1)"
         id="polygon19770" /><polygon
         fill="#232253"
         points=""
         stroke="none"
         transform="scale(1,-1)"
         id="polygon19772" /><polygon
         fill="#232253"
         points="9,90 7,90 7,91 9,91 "
         stroke="none"
         transform="scale(1,-1)"
         id="polygon19774" /><polygon
         fill="#232253"
         points="51,92 51,91 50,91 50,93 "
         stroke="none"
         transform="scale(1,-1)"
         id="polygon19776" /><polygon
         fill="#232253"
         points="50,93 52,94 51,93 "
         stroke="none"
         transform="scale(1,-1)"
         id="polygon19778" /><polygon
         fill="#232253"
         points="20,94 21,94 21,93 "
         stroke="none"
         transform="scale(1,-1)"
         id="polygon19780" /><polygon
         fill="#232253"
         points="49,91 49,92 "
         stroke="none"
         transform="scale(1,-1)"
         id="polygon19782" /><polygon
         fill="#232253"
         points="9,90 9,91 10,90 "
         stroke="none"
         transform="scale(1,-1)"
         id="polygon19784" /><polygon
         fill="#232253"
         points="51,92 51,91 "
         stroke="none"
         transform="scale(1,-1)"
         id="polygon19786" /><polygon
         fill="#232253"
         points=""
         stroke="none"
         transform="scale(1,-1)"
         id="polygon19788" /><polygon
         fill="#232253"
         points=""
         stroke="none"
         transform="scale(1,-1)"
         id="polygon19790" /><polygon
         fill="#232253"
         points="30,93 31,93 "
         stroke="none"
         transform="scale(1,-1)"
         id="polygon19792" /><polygon
         fill="#232253"
         points=""
         stroke="none"
         transform="scale(1,-1)"
         id="polygon19794" /><polygon
         fill="#232253"
         points="10,93 11,93 "
         stroke="none"
         transform="scale(1,-1)"
         id="polygon19796" /><polygon
         fill="#232253"
         points=""
         stroke="none"
         transform="scale(1,-1)"
         id="polygon19798" /><polygon
         fill="#232253"
         points="9,92 9,91 "
         stroke="none"
         transform="scale(1,-1)"
         id="polygon19800" /><polygon
         fill="#232253"
         points=""
         stroke="none"
         transform="scale(1,-1)"
         id="polygon19802" /><polygon
         fill="#232253"
         points="12,93 11,93 "
         stroke="none"
         transform="scale(1,-1)"
         id="polygon19804" /><polygon
         fill="#232253"
         points=""
         stroke="none"
         transform="scale(1,-1)"
         id="polygon19806" /><polygon
         fill="#232253"
         points=""
         stroke="none"
         transform="scale(1,-1)"
         id="polygon19808" /><polygon
         fill="#232253"
         points=""
         stroke="none"
         transform="scale(1,-1)"
         id="polygon19810" /><polygon
         fill="#232253"
         points="51,92 52,92 "
         stroke="none"
         transform="scale(1,-1)"
         id="polygon19812" /><polygon
         fill="#232253"
         points="49,91 48,91 "
         stroke="none"
         transform="scale(1,-1)"
         id="polygon19814" /><polygon
         fill="#232253"
         points="10,90 10,91 11,90 "
         stroke="none"
         transform="scale(1,-1)"
         id="polygon19816" /><polygon
         fill="#232253"
         points=""
         stroke="none"
         transform="scale(1,-1)"
         id="polygon19818" /><polygon
         fill="#232253"
         points=""
         stroke="none"
         transform="scale(1,-1)"
         id="polygon19820" /><polygon
         fill="#232253"
         points=""
         stroke="none"
         transform="scale(1,-1)"
         id="polygon19822" /><polygon
         fill="#232253"
         points=""
         stroke="none"
         transform="scale(1,-1)"
         id="polygon19824" /><polygon
         fill="#232253"
         points=""
         stroke="none"
         transform="scale(1,-1)"
         id="polygon19826" /><polygon
         fill="#232253"
         points=""
         stroke="none"
         transform="scale(1,-1)"
         id="polygon19828" /><polygon
         fill="#232253"
         points=""
         stroke="none"
         transform="scale(1,-1)"
         id="polygon19830" /><polygon
         fill="#232253"
         points=""
         stroke="none"
         transform="scale(1,-1)"
         id="polygon19832" /><polygon
         fill="#232253"
         points=""
         stroke="none"
         transform="scale(1,-1)"
         id="polygon19834" /><polygon
         fill="#232253"
         points=""
         stroke="none"
         transform="scale(1,-1)"
         id="polygon19836" /><polygon
         fill="#232253"
         points="45,90 44,90 "
         stroke="none"
         transform="scale(1,-1)"
         id="polygon19838" /><polygon
         fill="#232253"
         points=""
         stroke="none"
         transform="scale(1,-1)"
         id="polygon19840" /><polygon
         fill="#232253"
         points=""
         stroke="none"
         transform="scale(1,-1)"
         id="polygon19842" /><polygon
         fill="#232253"
         points=""
         stroke="none"
         transform="scale(1,-1)"
         id="polygon19844" /><polygon
         fill="#232253"
         points=""
         stroke="none"
         transform="scale(1,-1)"
         id="polygon19846" /><polygon
         fill="#232253"
         points=""
         stroke="none"
         transform="scale(1,-1)"
         id="polygon19848" /><polygon
         fill="#232253"
         points=""
         stroke="none"
         transform="scale(1,-1)"
         id="polygon19850" /><polygon
         fill="#232253"
         points=""
         stroke="none"
         transform="scale(1,-1)"
         id="polygon19852" /><polygon
         fill="#232253"
         points=""
         stroke="none"
         transform="scale(1,-1)"
         id="polygon19854" /><polygon
         fill="#232253"
         points=""
         stroke="none"
         transform="scale(1,-1)"
         id="polygon19856" /><polygon
         fill="#232253"
         points=""
         stroke="none"
         transform="scale(1,-1)"
         id="polygon19858" /><polygon
         fill="#232253"
         points=""
         stroke="none"
         transform="scale(1,-1)"
         id="polygon19860" /><polygon
         fill="#232253"
         points=""
         stroke="none"
         transform="scale(1,-1)"
         id="polygon19862" /><polygon
         fill="#232253"
         points=""
         stroke="none"
         transform="scale(1,-1)"
         id="polygon19864" /><polygon
         fill="#232253"
         points=""
         stroke="none"
         transform="scale(1,-1)"
         id="polygon19866" /><polygon
         fill="#232253"
         points=""
         stroke="none"
         transform="scale(1,-1)"
         id="polygon19868" /><polygon
         fill="#232253"
         points=""
         stroke="none"
         transform="scale(1,-1)"
         id="polygon19870" /><polygon
         fill="#232253"
         points=""
         stroke="none"
         transform="scale(1,-1)"
         id="polygon19872" /><polygon
         fill="#232253"
         points=""
         stroke="none"
         transform="scale(1,-1)"
         id="polygon19874" /><polygon
         fill="#232253"
         points=""
         stroke="none"
         transform="scale(1,-1)"
         id="polygon19876" /><polygon
         fill="#232253"
         points="30,93 29,93 "
         stroke="none"
         transform="scale(1,-1)"
         id="polygon19878" /><polygon
         fill="#232253"
         points="31,92 34,96 35,91 32,87 34,86 31,84 31,83 31,83 35,84 37,93 46,97 43,95 45,91 39,82 39,81 40,79 39,78 49,89 71,51 99,71 105,54 112,63 124,53 121,48 127,53 125,31 106,22 101,10 79,13 69,0 70,11 61,7 41,22 29,15 3,22 8,61 0,74 15,82 7,86 7,89 11,90 11,93 21,89 "
         stroke="none"
         transform="scale(1,-1)"
         id="polygon19880" /><polygon
         fill="#232253"
         points=""
         stroke="none"
         transform="scale(1,-1)"
         id="polygon19882" /><polygon
         fill="#232253"
         points=""
         stroke="none"
         transform="scale(1,-1)"
         id="polygon19884" /></g></g></svg>
