<?xml version="1.0" encoding="utf-8" ?>
<svg baseProfile="tiny" height="129.131" version="1.2" width="127.684" xmlns="http://www.w3.org/2000/svg" xmlns:ev="http://www.w3.org/2001/xml-events" xmlns:xlink="http://www.w3.org/1999/xlink"><defs /><polygon fill="#232253" points="43.903,129.131 76.981,81.61 90.442,76.966 95.012,88.417 111.348,78.098 109.763,51.49 119.374,50.296 115.124,35.913 124.601,34.816 127.684,18.76 110.185,19.267 83.286,0.0 72.36,2.277 57.175,10.211 58.141,41.786 32.516,39.035 30.317,64.744 1.002,66.606 0.0,81.417 8.935,90.162 1.321,96.217 21.527,99.532 30.814,110.385 22.726,119.455 35.774,117.321 43.903,129.131" stroke="none" transform="rotate(180,63.842,64.5655) scale(-1,1) translate(-127.684)" /></svg>