<?xml version="1.0" encoding="utf-8" ?>
<svg baseProfile="tiny" height="123.061" version="1.2" width="95.688" xmlns="http://www.w3.org/2000/svg" xmlns:ev="http://www.w3.org/2001/xml-events" xmlns:xlink="http://www.w3.org/1999/xlink"><defs /><polygon fill="#232253" points="17.684,67.644 16.1,84.219 0.0,97.874 3.406,105.69 12.597,105.06 9.813,112.159 16.715,114.517 10.952,120.597 25.209,123.061 27.338,114.618 62.354,94.576 59.543,84.179 66.741,86.298 82.547,70.169 75.543,57.181 95.688,38.645 81.03,27.975 81.626,13.034 61.308,11.599 49.357,0.0 43.192,11.433 27.477,11.559 23.396,21.602 28.979,26.481 3.198,54.72 16.291,57.898 17.684,67.644" stroke="none" transform="rotate(180,47.844,61.5305) scale(-1,1) translate(-95.688)" /></svg>