<?xml version="1.0" encoding="utf-8" ?>
<svg baseProfile="tiny" height="88.561" version="1.2" width="122.356" xmlns="http://www.w3.org/2000/svg" xmlns:ev="http://www.w3.org/2001/xml-events" xmlns:xlink="http://www.w3.org/1999/xlink"><defs /><polygon fill="#232253" points="22.111,61.615 3.952,66.981 0.0,84.876 37.291,81.747 47.693,88.561 69.339,73.076 78.036,77.381 76.586,70.02 77.647,66.464 87.803,79.696 106.009,75.672 107.581,67.788 114.184,68.813 104.707,60.019 115.338,58.466 122.356,41.185 114.96,34.53 120.041,31.292 114.383,29.387 115.469,8.296 86.128,0.0 85.166,6.044 90.513,4.828 93.638,6.544 61.272,6.865 54.013,14.244 68.154,12.564 69.547,18.705 65.096,21.654 68.257,20.498 67.767,22.568 59.07,22.191 54.348,18.009 50.634,26.918 53.378,14.929 40.885,16.947 38.708,20.954 37.524,7.137 37.868,31.571 32.753,26.537 22.154,32.083 28.108,31.631 22.028,34.831 26.778,38.639 28.838,41.654 28.192,43.125 29.433,43.504 29.465,44.024 22.504,40.388 19.993,33.898 10.21,41.942 22.111,61.615" stroke="none" transform="rotate(180,61.178,44.2805) scale(-1,1) translate(-122.356)" /></svg>