<?xml version="1.0" encoding="utf-8" ?>
<svg baseProfile="tiny" height="106.632" version="1.2" width="129.465" xmlns="http://www.w3.org/2000/svg" xmlns:ev="http://www.w3.org/2001/xml-events" xmlns:xlink="http://www.w3.org/1999/xlink"><defs /><polygon fill="#232253" points="11.502,67.429 0.0,103.538 11.061,98.601 25.17,106.632 47.331,98.445 63.062,69.188 77.276,76.426 86.221,64.671 103.78,65.84 108.668,72.472 114.447,74.154 129.465,59.96 122.65,46.559 107.246,46.926 87.798,59.934 80.302,39.994 90.814,36.996 89.949,28.425 97.44,36.028 107.344,27.325 104.884,7.674 92.44,0.0 85.945,8.843 37.061,25.249 33.056,40.846 19.865,41.817 4.929,56.272 11.502,67.429" stroke="none" transform="rotate(180,64.7325,53.316) scale(-1,1) translate(-129.465)" /></svg>