<?xml version="1.0" encoding="UTF-8" standalone="no"?>
<!-- Created with Inkscape (http://www.inkscape.org/) -->

<svg
   width="396.15442"
   height="257.50037"
   viewBox="0 0 104.81585 68.130303"
   version="1.1"
   id="svg13293"
   xml:space="preserve"
   inkscape:export-filename="Test_recentrage_Ain.svg"
   inkscape:export-xdpi="96"
   inkscape:export-ydpi="96"
   inkscape:version="1.2.2 (732a01da63, 2022-12-09)"
   sodipodi:docname="85 - VENDEE.svg"
   xmlns:inkscape="http://www.inkscape.org/namespaces/inkscape"
   xmlns:sodipodi="http://sodipodi.sourceforge.net/DTD/sodipodi-0.dtd"
   xmlns="http://www.w3.org/2000/svg"
   xmlns:svg="http://www.w3.org/2000/svg"><sodipodi:namedview
     id="namedview13295"
     pagecolor="#ffffff"
     bordercolor="#000000"
     borderopacity="0.25"
     inkscape:showpageshadow="2"
     inkscape:pageopacity="0.0"
     inkscape:pagecheckerboard="0"
     inkscape:deskcolor="#d1d1d1"
     inkscape:document-units="mm"
     showgrid="false"
     inkscape:zoom="0.74564394"
     inkscape:cx="219.27356"
     inkscape:cy="241.40208"
     inkscape:window-width="1920"
     inkscape:window-height="1017"
     inkscape:window-x="-8"
     inkscape:window-y="-8"
     inkscape:window-maximized="1"
     inkscape:current-layer="layer1" /><defs
     id="defs13290" /><g
     inkscape:label="Calque 1"
     inkscape:groupmode="layer"
     id="layer1"><g
       id="g28975"
       transform="matrix(0.74868471,0,0,0.74868471,0,68.130309)"><polygon
         fill="#232253"
         points="6,91 5,91 "
         stroke="none"
         transform="scale(1,-1)"
         id="polygon28944" /><polygon
         fill="#232253"
         points="83,3 83,4 "
         stroke="none"
         transform="scale(1,-1)"
         id="polygon28946" /><polygon
         fill="#232253"
         points=""
         stroke="none"
         transform="scale(1,-1)"
         id="polygon28948" /><polygon
         fill="#232253"
         points=""
         stroke="none"
         transform="scale(1,-1)"
         id="polygon28950" /><polygon
         fill="#232253"
         points=""
         stroke="none"
         transform="scale(1,-1)"
         id="polygon28952" /><polygon
         fill="#232253"
         points="9,52 1,53 0,56 2,57 5,55 6,55 "
         stroke="none"
         transform="scale(1,-1)"
         id="polygon28954" /><polygon
         fill="#232253"
         points=""
         stroke="none"
         transform="scale(1,-1)"
         id="polygon28956" /><polygon
         fill="#232253"
         points="114,81 116,78 116,76 118,76 119,74 117,74 119,74 119,73 123,71 120,67 125,61 130,58 128,54 133,46 131,45 134,42 132,39 136,37 135,32 136,29 136,27 134,27 133,26 135,19 133,16 133,12 134,12 135,14 140,11 138,8 135,8 132,3 128,5 126,2 124,2 120,5 120,7 117,7 116,4 113,5 110,4 107,5 110,11 107,8 101,9 97,5 96,7 94,5 92,7 92,6 89,5 88,0 79,10 83,3 81,3 84,2 81,3 77,10 69,10 66,16 55,19 56,20 45,27 45,29 45,27 43,28 41,41 34,50 35,50 35,51 33,51 29,57 20,66 20,73 23,74 30,82 29,83 30,86 34,88 37,84 39,84 40,80 45,79 45,77 51,76 53,71 56,71 57,69 66,67 66,69 70,70 66,74 69,75 66,80 67,85 71,87 73,86 73,74 80,77 81,80 80,81 81,87 86,86 88,91 93,86 100,83 107,81 108,83 110,83 111,80 "
         stroke="none"
         transform="scale(1,-1)"
         id="polygon28958" /><polygon
         fill="#232253"
         points="14,86 14,86 15,85 14,85 14,85 14,85 14,85 14,85 14,85 14,84 14,84 14,84 14,85 14,85 14,85 14,85 14,85 14,85 15,85 15,83 20,80 20,74 17,80 15,82 12,82 9,85 9,89 14,89 16,88 16,85 "
         stroke="none"
         transform="scale(1,-1)"
         id="polygon28960" /></g></g></svg>
