<?xml version="1.0" encoding="utf-8" ?>
<svg baseProfile="tiny" height="126.252" version="1.2" width="97.532" xmlns="http://www.w3.org/2000/svg" xmlns:ev="http://www.w3.org/2001/xml-events" xmlns:xlink="http://www.w3.org/1999/xlink"><defs /><polygon fill="#232253" points="0.0,111.227 8.983,126.252 30.198,111.786 31.227,98.176 52.185,100.349 49.936,106.012 59.38,102.084 75.357,74.081 74.803,60.319 97.532,41.038 65.669,18.986 67.528,7.887 48.935,2.306 41.123,9.615 35.646,0.0 17.969,6.044 20.252,12.727 11.672,16.131 17.567,31.976 5.153,31.969 2.466,40.347 8.382,61.27 0.08,65.86 8.598,76.905 2.263,87.002 8.773,90.479 0.0,111.227" stroke="none" transform="rotate(180,48.766,63.126) scale(-1,1) translate(-97.532)" /></svg>