<?xml version="1.0" encoding="utf-8" ?>
<svg baseProfile="tiny" height="78.856" version="1.2" width="133.961" xmlns="http://www.w3.org/2000/svg" xmlns:ev="http://www.w3.org/2001/xml-events" xmlns:xlink="http://www.w3.org/1999/xlink"><defs /><polygon fill="#232253" points="19.448,45.427 0.0,60.039 33.006,73.971 43.592,56.769 66.53,67.224 87.36,65.868 90.536,72.546 102.784,63.785 108.544,69.355 110.667,67.325 116.844,74.409 127.218,78.856 124.65,60.803 133.961,56.578 108.887,0.0 91.909,13.811 82.715,6.815 75.842,14.866 62.119,11.12 56.195,21.13 43.009,10.759 30.848,12.224 29.751,21.197 18.586,26.434 25.736,38.41 19.448,45.427" stroke="none" transform="rotate(180,66.9805,39.428) scale(-1,1) translate(-133.961)" /></svg>