<?xml version="1.0" encoding="UTF-8" standalone="no"?>
<!-- Created with Inkscape (http://www.inkscape.org/) -->

<svg
   width="397.89282"
   height="204.4727"
   viewBox="0 0 105.27581 54.100067"
   version="1.1"
   id="svg13293"
   xml:space="preserve"
   inkscape:export-filename="Test_recentrage_Ain.svg"
   inkscape:export-xdpi="96"
   inkscape:export-ydpi="96"
   inkscape:version="1.2.2 (732a01da63, 2022-12-09)"
   sodipodi:docname="95 - VAL-D'OISE.svg"
   xmlns:inkscape="http://www.inkscape.org/namespaces/inkscape"
   xmlns:sodipodi="http://sodipodi.sourceforge.net/DTD/sodipodi-0.dtd"
   xmlns="http://www.w3.org/2000/svg"
   xmlns:svg="http://www.w3.org/2000/svg"><sodipodi:namedview
     id="namedview13295"
     pagecolor="#ffffff"
     bordercolor="#000000"
     borderopacity="0.25"
     inkscape:showpageshadow="2"
     inkscape:pageopacity="0.0"
     inkscape:pagecheckerboard="0"
     inkscape:deskcolor="#d1d1d1"
     inkscape:document-units="mm"
     showgrid="false"
     inkscape:zoom="0.74564394"
     inkscape:cx="219.27356"
     inkscape:cy="241.40208"
     inkscape:window-width="1920"
     inkscape:window-height="1017"
     inkscape:window-x="-8"
     inkscape:window-y="-8"
     inkscape:window-maximized="1"
     inkscape:current-layer="layer1" /><defs
     id="defs13290" /><g
     inkscape:label="Calque 1"
     inkscape:groupmode="layer"
     id="layer1"><polygon
       fill="#232253"
       points="69,21 72,19 70,17 72,15 68,13 69,11 62,5 58,5 55,7 53,5 50,6 43,0 43,5 41,5 41,8 37,9 37,12 30,10 28,13 24,13 22,16 18,12 19,17 16,19 8,16 5,19 0,19 4,25 5,34 8,37 10,36 8,33 11,30 14,31 17,29 20,30 20,29 27,31 29,30 35,34 36,31 41,30 41,28 45,30 46,29 45,27 50,28 51,31 55,27 56,28 59,27 61,26 60,25 62,26 65,24 64,22 67,21 68,23 69,24 "
       stroke="none"
       transform="matrix(1.462164,0,0,-1.462164,0,54.100067)"
       id="polygon29101" /></g></svg>
