<?xml version='1.0' encoding='UTF-8' standalone='no'?>
<svg height="291.931mm" width="338.667mm" version="1.2" viewBox="0 0 4000 3448" xmlns="http://www.w3.org/2000/svg" baseProfile="tiny" xmlns:xlink="http://www.w3.org/1999/xlink">
 <title>Qt SVG Document</title>
 <desc>Generated with Qt</desc>
 <defs/>
 <g stroke-width="1" stroke-linecap="square" stroke-linejoin="bevel" fill="none" stroke="black" fill-rule="evenodd">
  <g stroke-width="1" stroke-linecap="square" stroke-linejoin="bevel" transform="matrix(1,0,0,1,0,0)" font-family="MS Shell Dlg 2" font-weight="400" stroke-opacity="1" fill="none" stroke="#000000" font-size="34.375" font-style="normal"/>
  <g stroke-width="1" stroke-linecap="square" stroke-linejoin="bevel" transform="matrix(1,0,0,1,0,0)" font-family="MS Shell Dlg 2" font-weight="400" stroke-opacity="1" fill="none" stroke="#000000" font-size="34.375" font-style="normal"/>
  <g stroke-width="1" stroke-linecap="square" stroke-linejoin="bevel" transform="matrix(11.811,0,0,11.811,0,0)" font-family="MS Shell Dlg 2" font-weight="400" stroke-opacity="1" fill="none" stroke="#000000" font-size="34.375" font-style="normal"/>
  <g stroke-width="1" stroke-linecap="square" stroke-linejoin="bevel" transform="matrix(1,0,0,1,0,0)" font-family="MS Shell Dlg 2" font-weight="400" stroke-opacity="1" fill="none" stroke="#000000" font-size="34.375" font-style="normal"/>
  <g stroke-width="1" stroke-linecap="square" stroke-linejoin="bevel" transform="matrix(1,0,0,1,0,0)" font-family="MS Shell Dlg 2" font-weight="400" stroke-opacity="1" fill="none" stroke="#000000" font-size="34.375" font-style="normal"/>
  <g stroke-width="1" stroke-linecap="square" stroke-linejoin="bevel" transform="matrix(11.811,0,0,11.811,0,0)" font-family="MS Shell Dlg 2" font-weight="400" stroke-opacity="1" fill="none" stroke="#000000" font-size="34.375" font-style="normal"/>
  <g stroke-width="1" stroke-linecap="square" stroke-linejoin="bevel" transform="matrix(11.811,0,0,11.811,0,0)" font-family="MS Shell Dlg 2" font-weight="400" stroke-opacity="1" fill="none" stroke="#000000" font-size="34.375" font-style="normal"/>
  <g stroke-width="1" stroke-linecap="square" stroke-linejoin="bevel" transform="matrix(11.811,0,0,11.811,0,0)" font-family="MS Shell Dlg 2" font-weight="400" stroke-opacity="1" fill="none" stroke="#000000" font-size="34.375" font-style="normal"/>
  <g stroke-width="1" stroke-linecap="square" stroke-linejoin="bevel" transform="matrix(11.811,0,0,11.811,0,0)" font-family="MS Shell Dlg 2" font-weight="400" stroke-opacity="1" fill="none" stroke="#000000" font-size="34.375" font-style="normal"/>
  <g stroke-width="1" stroke-linecap="square" stroke-linejoin="bevel" transform="matrix(11.811,0,0,11.811,0,0)" font-family="MS Shell Dlg 2" font-weight="400" stroke-opacity="1" fill="none" stroke="#000000" font-size="34.375" font-style="normal"/>
  <g stroke-width="1" stroke-linecap="square" stroke-linejoin="bevel" transform="matrix(11.811,0,0,11.811,0,0)" font-family="MS Shell Dlg 2" font-weight="400" stroke-opacity="1" fill="none" stroke="#000000" font-size="34.375" font-style="normal"/>
  <g stroke-width="1" stroke-linecap="square" stroke-linejoin="bevel" transform="matrix(11.811,0,0,11.811,0,0)" font-family="MS Shell Dlg 2" font-weight="400" stroke-opacity="1" fill="none" stroke="#000000" font-size="34.375" font-style="normal"/>
  <g transform="matrix(1,0,0,1,0,0)" font-family="MS Shell Dlg 2" font-weight="400" fill="#000000" stroke="none" fill-opacity="0" font-size="34.375" font-style="normal">
   <rect y="0" height="3448" width="4000" x="0"/>
  </g>
  <g stroke-width="1" stroke-linecap="square" stroke-linejoin="bevel" transform="matrix(1,0,0,1,0,0)" font-family="MS Shell Dlg 2" font-weight="400" stroke-opacity="1" fill="none" stroke="#000000" font-size="34.375" font-style="normal"/>
  <g transform="matrix(1,0,0,1,0,0)" font-family="MS Shell Dlg 2" font-weight="400" fill="#232253" stroke="none" fill-opacity="1" font-size="34.375" font-style="normal">
   <path d="M1325.32,2300.65 L1307.61,2292.37 L1308.38,2292.56 L1298.06,2287.97 L1291.15,2283.99 L1283.93,2281.09 L1277.94,2277.61 L1277.85,2277.89 L1275.78,2276.93 L1274.57,2276.21 L1274.65,2276.09 L1273.52,2275.36 L1272.41,2274.14 L1267.86,2271.02 L1262.69,2267.85 L1260.28,2266.07 L1259.91,2265.12 L1260.53,2264.12 L1262.69,2263.3 L1262.31,2261.39 L1261.76,2260.27 L1260.88,2259.07 L1259.91,2258.73 L1259.29,2257.63 L1258.85,2257.12 L1257.72,2256.66 L1256.72,2256.58 L1255.67,2256.8 L1255.23,2257.5 L1256.48,2258.73 L1257,2259.6 L1257.01,2260.2 L1256.53,2260.57 L1254.85,2259.86 L1254.04,2259.22 L1253.23,2258.34 L1252.67,2257.15 L1252.66,2255.95 L1252.93,2254.66 L1253.16,2253.52 L1253.5,2252.49 L1253.86,2251.41 L1254.89,2250.92 L1255.02,2249.78 L1255.66,2248.39 L1256.81,2247.1 L1258.61,2245.99 L1260.19,2245.07 L1262.12,2244.2 L1263.63,2243.27 L1264.75,2242.38 L1265.88,2242.04 L1267.28,2242.44 L1269.65,2243.56 L1270.99,2243.52 L1275.9,2241.71 L1277.91,2241.2 L1279.93,2240.39 L1282,2239.79 L1286.03,2238.63 L1293.77,2236.89 L1296.37,2236.21 L1300.96,2234.77 L1313.45,2232.75 L1316.57,2231.69 L1321.51,2230.83 L1325.18,2229.16 L1326.77,2227.82 L1327.5,2225.44 L1327.54,2222.22 L1328.26,2222.03 L1329.78,2224.77 L1337.93,2223.32 L1341.05,2222.9 L1343.28,2222.01 L1341.51,2218.28 L1342.11,2217.31 L1343.02,2217.34 L1346.22,2223.02 L1349.76,2222.59 L1353.95,2220.92 L1356.35,2218.89 L1357.19,2216.52 L1356.79,2215.53 L1354.56,2215.6 L1353.65,2213.55 L1356.53,2212.65 L1358.38,2217.41 L1365.73,2213.13 L1369.48,2211.9 L1370.37,2213.26 L1373.39,2211.79 L1373.71,2210.41 L1376.7,2208.72 L1382.23,2206.37 L1384.08,2206.74 L1385.71,2205.93 L1390.04,2204.46 L1396.31,2200.97 L1394.82,2198.08 L1394.3,2195.07 L1394.88,2192.8 L1396.01,2191.1 L1398.14,2189.34 L1401.2,2188.4 L1404.36,2187.58 L1406.69,2187.49 L1410.99,2186.02 L1431.14,2175.38 L1433.97,2172.83 L1442.58,2163.08 L1443.14,2161.16 L1443.28,2159.02 L1446.93,2156.38 L1455.38,2148.08 L1462.72,2138.73 L1464.47,2135.47 L1466.07,2132.92 L1466.78,2130.4 L1466.96,2128.27 L1466.57,2127.29 L1467.24,2126.45 L1465.81,2125.4 L1466.29,2124.36 L1467.95,2122.55 L1476.01,2113.53 L1477.42,2108.43 L1479.43,2100.66 L1477.29,2098.9 L1471.78,2095.37 L1467.47,2092.68 L1461.77,2089.29 L1460.11,2087.72 L1458.38,2085.79 L1455.88,2080.39 L1455.49,2076.86 L1455.68,2071.39 L1456.36,2067.86 L1455.63,2065.39 L1456.58,2063.23 L1458.39,2062.37 L1460.35,2059.52 L1461.59,2058.28 L1462.86,2057.07 L1462.9,2056.2 L1461.01,2054.37 L1450.67,2047.28 L1446.02,2045.25 L1445.91,2043.69 L1447.68,2041.97 L1458.85,2049.69 L1460.1,2049.8 L1462.1,2050.65 L1463.53,2049.21 L1466.3,2049.08 L1476.83,2045.36 L1483.76,2038.97 L1495.34,2027.65 L1505.69,2018 L1511.18,2014.73 L1517.02,2013.58 L1519.34,2006.65 L1537.95,1986.37 L1538.36,1985.99 L1542.09,1980.36 L1542.55,1979.54 L1552.24,1965.59 L1569.21,1940.54 L1582.66,1914.68 L1584.01,1912.11 L1584.92,1905.9 L1586.15,1894.89 L1588.14,1886.09 L1587.44,1884.07 L1587.96,1879 L1587.02,1874.85 L1585.49,1873.52 L1584.41,1869.6 L1582.11,1866.15 L1581.09,1862.05 L1581.91,1857.87 L1581.9,1853.85 L1581.35,1852.13 L1579.84,1851.05 L1579.64,1849.86 L1579.01,1848.55 L1577.19,1847.57 L1575.85,1847.68 L1574.74,1847.39 L1575.32,1844.51 L1573.85,1842.62 L1570.5,1840.06 L1568.53,1839.66 L1566.39,1837.26 L1563.44,1833.17 L1552.83,1829.03 L1545.93,1826.25 L1540.9,1824.26 L1538.68,1823.42 L1536.97,1822.42 L1535.36,1820.63 L1534.41,1818.89 L1532.63,1815.39 L1530.49,1810.56 L1528.02,1805.98 L1525.39,1801.65 L1523.08,1798.17 L1522.29,1798.72 L1510.52,1782.8 L1507.03,1776.05 L1488.8,1785.12 L1487.12,1781.57 L1481.93,1784.77 L1479.64,1786.02 L1477.94,1786.52 L1476.49,1786.38 L1475.34,1785.39 L1474.65,1783.68 L1474.83,1782.34 L1475.49,1781.26 L1482.19,1777.35 L1487.53,1775.14 L1495.29,1771.91 L1502.66,1768.3 L1501.45,1766.92 L1503.18,1764.33 L1503.71,1763.13 L1504.54,1761.44 L1505.17,1759.14 L1501.36,1757.15 L1500.26,1755.04 L1500.81,1750.97 L1502.39,1749.35 L1502.74,1746.34 L1500.52,1744.28 L1498.73,1745.24 L1497.4,1745.75 L1500.39,1741.76 L1499.68,1740.32 L1499.32,1739.13 L1497.59,1736.8 L1496.6,1736.05 L1495.46,1735.03 L1492.51,1737.49 L1491.97,1736.75 L1492.3,1734.96 L1491.55,1732.16 L1492.11,1729.53 L1491.53,1728.74 L1490.58,1729.21 L1489.5,1724.84 L1488.81,1723.14 L1489.46,1721.47 L1488.25,1721.11 L1487.34,1721.76 L1486.78,1721.75 L1486.65,1720.71 L1487.86,1719.95 L1488.19,1719.19 L1487.61,1718.96 L1486.37,1719.12 L1485.92,1718.47 L1485.43,1718.5 L1485.19,1719.94 L1483.45,1720.68 L1482.76,1720.52 L1482.64,1719.79 L1483.89,1717.76 L1485.84,1713.49 L1487.59,1711.06 L1488.83,1709.95 L1488.24,1709.37 L1489.64,1708.33 L1490.56,1706.65 L1491.35,1706.6 L1491.22,1705.49 L1492.51,1703.35 L1494.08,1701.85 L1494.87,1700.76 L1495.63,1700.55 L1496.89,1698.85 L1497.48,1698.51 L1498.19,1698.78 L1499.34,1698.27 L1498.66,1699.96 L1499.99,1698.94 L1501.28,1698.25 L1502.62,1699 L1506.01,1695.54 L1507.63,1692.31 L1508.46,1691.89 L1509.05,1692.34 L1509.84,1692.12 L1510.37,1691.59 L1511.32,1691.47 L1512.07,1692.26 L1513.2,1691.16 L1515.13,1690.32 L1517.26,1690.7 L1517.74,1691.89 L1519.96,1691.47 L1517.43,1688.88 L1518.15,1688.45 L1519.43,1688.4 L1520.12,1689.24 L1521.8,1692.21 L1522.63,1691.37 L1523.2,1690.45 L1521.12,1688.45 L1521.26,1687.94 L1522.21,1687.75 L1522.24,1686.57 L1523.52,1685.25 L1526.45,1683.59 L1527.09,1683.98 L1527.13,1684.91 L1528.04,1685.68 L1528.87,1683.59 L1531.17,1683.17 L1532.42,1683.83 L1533.73,1685.8 L1534.25,1684.95 L1535.53,1684.11 L1536.94,1683.82 L1538.3,1684.32 L1540.02,1685.65 L1542.06,1685.1 L1543.57,1686.08 L1546.2,1683.72 L1549.01,1684.03 L1550.58,1682.44 L1552.75,1680.83 L1554.09,1682.3 L1555.64,1682.87 L1562.36,1677.52 L1576.03,1666.6 L1584.28,1658.61 L1588.17,1652.16 L1590.54,1646.06 L1590.74,1645.01 L1591.29,1641.99 L1591.05,1637.79 L1592.32,1634.39 L1591.83,1626.05 L1591.82,1623.57 L1591.95,1621.1 L1592.7,1618.63 L1593.8,1616.21 L1595.81,1614.06 L1598.65,1612.7 L1602.73,1611.35 L1609.45,1609.15 L1615.34,1607.18 L1618.66,1605.44 L1621.82,1603.27 L1627.46,1599.31 L1631.66,1595.47 L1644.22,1588.93 L1647,1587.53 L1649.27,1584.77 L1650.32,1582.64 L1650.23,1580.82 L1645.93,1569.12 L1645.93,1567.14 L1644.7,1565.5 L1645.43,1563.42 L1649.44,1559.8 L1654.31,1558.38 L1657.61,1554.96 L1660.02,1555.18 L1665.99,1552.01 L1673.38,1552.19 L1685.94,1563.06 L1693.28,1563.73 L1699.88,1559.93 L1705.57,1555.04 L1714.82,1544.57 L1724.39,1533.74 L1728.94,1526.96 L1730.84,1522.76 L1731.72,1520.81 L1732.86,1513.98 L1730.86,1506.32 L1731.55,1503.44 L1730.33,1502.02 L1731.81,1497.44 L1730.82,1495.69 L1732.23,1494.38 L1732.98,1491.09 L1735.91,1489.99 L1737.81,1485.42 L1738.2,1484 L1736.41,1482.46 L1738.39,1482.22 L1740.16,1477.51 L1739.53,1476.11 L1741,1473.95 L1739.08,1473.81 L1741.15,1471.11 L1740.9,1466.83 L1739.54,1464.24 L1736.16,1462.77 L1737.04,1460.72 L1736.42,1458.31 L1734.26,1459.08 L1737.17,1457.95 L1737.62,1456.8 L1737.5,1450.04 L1736.36,1446.26 L1734.01,1443.67 L1731.56,1442.72 L1730.78,1439 L1728.41,1438.73 L1728.72,1436.88 L1726.5,1433.57 L1723.37,1431.29 L1718.5,1430.73 L1718.74,1429.49 L1715.64,1427.86 L1715.06,1425.14 L1713.88,1424.19 L1718.64,1420.84 L1720.99,1420.48 L1722.3,1418.77 L1723.44,1420.16 L1723.7,1417.75 L1725.58,1417.23 L1729.39,1418.71 L1730.8,1418.91 L1744.51,1422.23 L1750.14,1422.16 L1758.72,1420.23 L1770.86,1414.25 L1782.31,1409.04 L1783.24,1402.65 L1783.99,1398.8 L1782.7,1395.38 L1782.98,1389.48 L1784.53,1384.32 L1783.59,1370.24 L1784.22,1365.03 L1786.25,1359.65 L1787.9,1362.04 L1789.93,1362.24 L1794.09,1360.31 L1796.67,1361.57 L1806.72,1357.18 L1812.81,1351.66 L1814.17,1348.37 L1814.71,1342.11 L1818.42,1337.99 L1823.61,1334.5 L1831.87,1330.92 L1835.97,1331.54 L1840.78,1333.9 L1842.53,1335.92 L1842.23,1337.93 L1840.39,1340.38 L1838.66,1343.03 L1836.07,1346.71 L1834.7,1351.15 L1835.08,1353.31 L1836.98,1357.34 L1841.75,1360.95 L1846.25,1363.8 L1848.41,1365.31 L1851.24,1367.97 L1855.39,1369.6 L1859.57,1372.63 L1859.71,1376.06 L1861.69,1376.37 L1862.38,1378.47 L1863.82,1378.29 L1865.18,1380.14 L1869.47,1381.56 L1872.89,1386.36 L1874.7,1386.74 L1874.27,1387.85 L1875.3,1389.2 L1877.5,1390.46 L1879.07,1390.15 L1879.39,1391.36 L1877.88,1393.1 L1879.18,1394.75 L1882.3,1395.81 L1884.24,1396.28 L1886.5,1398.42 L1887.4,1398.82 L1888.16,1400.03 L1887.76,1402.38 L1888.45,1403.41 L1889.22,1403.89 L1892.56,1404.52 L1905.24,1407.5 L1906.8,1407.91 L1935.9,1413.15 L1978.8,1414.57 L1998.53,1413.18 L2030.32,1408.16 L2051.02,1401.7 L2074.11,1385.23 L2099.43,1364.21 L2128.94,1332 L2142.65,1316.54 L2171.37,1280.31 L2185.02,1251.6 L2187.88,1242.6 L2188.21,1241.55 L2188.95,1236.79 L2188.37,1229.76 L2186.69,1224.44 L2184.36,1222.01 L2182.51,1221.51 L2178.83,1222.62 L2176.11,1225.48 L2168.05,1220.5 L2166.7,1218.04 L2169.2,1214.26 L2177.3,1210.47 L2182.02,1205.5 L2191.57,1172 L2191.53,1166.95 L2189.85,1163.61 L2180.44,1154.26 L2178.35,1140.74 L2178.89,1138 L2181.07,1134.91 L2192.08,1124.48 L2197.66,1111.26 L2195.53,1101.79 L2194.91,1087.06 L2193.1,1081.38 L2194.76,1073.32 L2193.86,1066.4 L2191.17,1062.86 L2190.35,1048.46 L2195.64,1034.86 L2197.88,1012.62 L2203.29,999.059 L2202.3,995.95 L2203.56,993.021 L2219.09,986.064 L2223.07,986.876 L2229.71,983.679 L2232.96,983.567 L2237.38,986.024 L2243.69,987.625 L2252.11,987.425 L2252.63,988.642 L2250.93,990.466 L2259.78,991.572 L2258.77,995.583 L2259.78,997.994 L2267.86,1005.23 L2277.92,1008.54 L2285.5,1012.67 L2286.77,1011.92 L2288.13,1008.48 L2293.51,1006.34 L2294.01,1006.79 L2290.86,1009.74 L2293.51,1011.84 L2294.89,1008.79 L2298.01,1007.38 L2298.6,1007.62 L2296.18,1010.69 L2297.95,1011.95 L2300.49,1012.76 L2303.29,1010.28 L2308.25,1012.9 L2308.78,1014.99 L2311.74,1016.05 L2315.57,1019.43 L2321.11,1030.24 L2325.96,1034.99 L2334.85,1040.07 L2345.2,1043.61 L2349.92,1043.57 L2354.71,1038.75 L2354.99,1036.77 L2363.41,1032.96 L2365.33,1030.55 L2368.71,1031.79 L2373.39,1028.98 L2379.44,1029.75 L2391.28,1041.92 L2396.84,1049.22 L2407.95,1073.87 L2416.67,1090.52 L2423.33,1092.83 L2429.86,1093.23 L2447.02,1090.6 L2461.93,1085.37 L2479.16,1076.42 L2491.29,1066.14 L2494.59,1060.34 L2495.34,1057.24 L2492.96,1052.66 L2490.44,1049.76 L2489.72,1046.81 L2486.47,1044.6 L2481.91,1043.57 L2481.21,1042.49 L2483.26,1042.36 L2488.4,1043.66 L2485.91,1038.35 L2481.98,1029.95 L2461.42,982.092 L2461.01,976.572 L2464.42,971.03 L2465.62,964.835 L2469.16,958.054 L2469.98,939.016 L2471.71,937.214 L2473.75,939.513 L2481.74,937.374 L2481.68,931.899 L2482.71,931.404 L2483.27,932.891 L2485.28,932.373 L2492.06,929.153 L2496.46,924.535 L2498.46,914.036 L2499.35,899.572 L2501.83,889.412 L2499.18,888.037 L2503.99,885.582 L2503.1,884.072 L2510.92,884.389 L2517.17,887.657 L2522.79,882.702 L2523.5,883.919 L2521.48,887.636 L2524,888.876 L2527.7,884.933 L2535.52,881.533 L2539.77,883.246 L2542.63,886.221 L2549.59,884.96 L2561.93,889.221 L2563.96,888.974 L2565.08,886.878 L2569.19,888.975 L2573.43,888.345 L2574.1,889.832 L2579.7,890.148 L2594.57,886.546 L2599.33,883.776 L2602.58,883.979 L2612.26,880.218 L2613.1,877.853 L2616.37,876.928 L2618.98,878.054 L2620.2,881.322 L2623.35,879.993 L2624.4,882.291 L2631.79,887.745 L2634.46,894.572 L2637.33,898.29 L2642.75,899.305 L2655.01,898.743 L2665.46,896.492 L2674.08,891.627 L2676.17,887.189 L2675.46,878.582 L2673.8,873.963 L2674.08,871.688 L2675.46,870.539 L2677.53,870.494 L2680.03,872.32 L2682.14,876.939 L2688.06,878.765 L2716.24,877.44 L2726.71,873.273 L2747.71,858.542 L2758.1,855.998 L2767.83,855.976 L2776.06,858.997 L2847.04,892.418 L2860.5,905.622 L2867.76,910.039 L2886.54,909.207 L2903.11,904.568 L2905.18,907.362 L2910.45,906.281 L2913.83,909.886 L2914.11,911.103 L2911.9,913.626 L2906.3,915.788 L2906.86,919.911 L2901.86,926.017 L2904.25,929.396 L2900.63,935.434 L2885.61,950.009 L2882.77,955.349 L2884.75,974.792 L2886.21,1013.14 L2884.59,1035.35 L2892.79,1064.6 L2892.53,1070.75 L2889.54,1085.84 L2889.88,1095.76 L2898.8,1113.06 L2899.85,1128.47 L2901.71,1135.37 L2904.79,1141.79 L2911.64,1150.08 L2921.83,1157.04 L2926.41,1158.37 L2940.35,1154.43 L2947.05,1154.99 L2948.49,1157.04 L2953.54,1157.02 L2955.93,1166.64 L2955.88,1180.41 L2960.71,1193.05 L2960.04,1196.54 L2957.78,1200.44 L2946.98,1210.8 L2938.77,1221.73 L2931.84,1237.02 L2927.25,1241.35 L2920.14,1244.55 L2914.49,1245.31 L2908.85,1244.84 L2904.08,1243.85 L2894.84,1239.39 L2883.04,1237.56 L2875.84,1230.42 L2869.1,1228.55 L2868.84,1226.92 L2872.16,1219.44 L2870.87,1213.79 L2866.88,1211.47 L2855.68,1209.48 L2843.16,1213.11 L2834.29,1219.15 L2826.25,1222.48 L2821.48,1226.61 L2805.11,1243.05 L2803.63,1246.74 L2800.64,1253.58 L2798.74,1257.39 L2790.45,1277.04 L2791.24,1298.47 L2793.65,1306.18 L2795.44,1312.88 L2798.71,1316.85 L2801.25,1315.19 L2804.35,1318.64 L2812.59,1321.41 L2814.06,1319.92 L2815.64,1319.6 L2816.44,1320.36 L2815.83,1321.58 L2817.28,1324.86 L2820.1,1328.66 L2837.48,1342.9 L2845.26,1351.51 L2849.72,1354.82 L2851.83,1357.91 L2854.05,1365.01 L2853.1,1370.98 L2853.66,1377.38 L2852.6,1380.98 L2849.26,1383.82 L2843.49,1385.15 L2839.55,1388.64 L2829.52,1420.45 L2829.85,1424.33 L2832.24,1430.39 L2841.48,1442.1 L2839.24,1454.86 L2834.28,1466.28 L2835.91,1477.39 L2837.57,1480.7 L2835.68,1482.34 L2828.61,1483.22 L2825.1,1485.38 L2821.71,1486.15 L2820.79,1486.55 L2819.02,1488.2 L2817.73,1488.9 L2817.12,1489.57 L2816.63,1492.01 L2818.05,1497.95 L2818.13,1503.11 L2818.58,1508.31 L2819.96,1518.65 L2821.3,1531.54 L2821.94,1535.96 L2823.3,1542.42 L2824.4,1546.7 L2827.93,1559.03 L2829.05,1563.4 L2831.83,1570.52 L2836.2,1583.52 L2839.14,1589.77 L2841.02,1594.42 L2841.71,1597.07 L2844.64,1602.03 L2848.15,1608.42 L2850,1611.91 L2851.68,1615.21 L2854.25,1620.69 L2857.37,1624.77 L2861.13,1630.72 L2864.67,1636.45 L2869.68,1644.82 L2875.38,1650.42 L2878.16,1655.6 L2881.71,1658.44 L2887.2,1665.56 L2892.91,1672.47 L2907.83,1690.23 L2912.57,1694.99 L2919.38,1703.17 L2928.72,1712.36 L2946.03,1725.08 L2966.89,1738.01 L2977.05,1744.92 L2989.98,1752.87 L2999.16,1759.5 L3009.07,1769.35 L3015.08,1774.6 L3021.19,1779.51 L3039.75,1793.91 L3045.52,1798.18 L3052.29,1801.75 L3056.52,1803.89 L3057.78,1804.43 L3061.32,1805.47 L3063.34,1805.76 L3066.38,1805.31 L3071.77,1802.52 L3076.89,1798.66 L3081.16,1794.21 L3081.58,1792.47 L3082.81,1791 L3084.73,1790.38 L3088.9,1789.67 L3093.62,1787.46 L3098.07,1785.48 L3102.03,1784.1 L3107.49,1784.46 L3110.84,1786.67 L3110.75,1788.26 L3097.29,1805.31 L3081.32,1817.67 L3073,1825.03 L3068.43,1831.8 L3067.01,1832.19 L3064.08,1837.48 L3059.95,1845.86 L3057.9,1848.5 L3055.71,1850.6 L3055.82,1851.97 L3054.54,1855.13 L3053.37,1856.48 L3052,1860.2 L3049.78,1863.85 L3044.3,1875.34 L3037.99,1884.55 L3036.8,1890.61 L3035.09,1896.15 L3032.34,1904.37 L3031.57,1908.62 L3030.05,1913.02 L3029.13,1914.77 L3028.74,1915.39 L3028.69,1918.65 L3028.41,1920.75 L3026.44,1928.37 L3023.95,1934.74 L3020.28,1939.06 L3017.64,1939.76 L3015.63,1938.56 L3013.29,1935.63 L3011.28,1931.22 L3011.28,1923.54 L3012.75,1908.61 L3012.04,1904.88 L3008.18,1901.9 L3004.11,1899.11 L2989.83,1894.7 L2975.59,1895.88 L2967.62,1900.4 L2959.11,1906.19 L2946.65,1916.12 L2942.35,1919.95 L2940.02,1922.14 L2934.5,1927.73 L2925.06,1943.72 L2919.63,1954.81 L2917.52,1961.34 L2912.71,1966.66 L2901.73,1986.22 L2900.67,1991.13 L2899.03,1998.56 L2897.73,2008.33 L2896.99,2016.09 L2897.28,2020.46 L2898.92,2031.16 L2904.43,2049.55 L2919.71,2067.64 L2925.12,2075.3 L2940.97,2092.92 L2954.14,2102.36 L2964.78,2110.02 L2969.55,2116.85 L2973.1,2119.91 L2975.9,2130.83 L2974.2,2136.91 L2979.44,2148.3 L2973.48,2155.22 L2969.18,2159.06 L2963.71,2155.83 L2954.11,2153.88 L2950.44,2150.58 L2945.93,2148.38 L2934.74,2148.34 L2932.47,2149.71 L2928.08,2149.65 L2923.8,2143.85 L2916.4,2139.2 L2905.83,2129.59 L2907.1,2119.14 L2901.78,2118.86 L2899.78,2114.49 L2895.15,2114.71 L2891.43,2110.72 L2890.85,2107.83 L2889.58,2102.6 L2895.68,2098.97 L2898.78,2099.56 L2911.54,2111.27 L2915.33,2114.07 L2918.47,2114.68 L2911.56,2108.08 L2908.31,2100.05 L2904,2096.52 L2899,2082.01 L2895.69,2073.77 L2893.77,2069.79 L2879.8,2029.87 L2878.26,2019.43 L2876.98,2010.8 L2876.41,2007.12 L2878,1991.27 L2880.49,1973.96 L2882.61,1964.01 L2882.83,1959.08 L2879.75,1954.73 L2878.33,1948.68 L2878.98,1943.74 L2883.7,1937.03 L2885.43,1931.99 L2884.82,1930.14 L2881.58,1923.96 L2882.92,1917.93 L2884.84,1916.48 L2886.89,1912.07 L2890.19,1908.37 L2891.9,1905.18 L2893.45,1904.37 L2893.99,1901.76 L2895.47,1898.64 L2898.12,1896.4 L2899.38,1895.37 L2900.85,1892.66 L2900.81,1892.06 L2900.56,1889.99 L2899.38,1889.47 L2897.57,1890.75 L2894.92,1890.01 L2893.22,1891.37 L2892.13,1891.34 L2891.28,1890.25 L2890.3,1890.33 L2888.86,1890.81 L2887.56,1890.99 L2885.7,1890.46 L2882.38,1891.3 L2879.4,1891.81 L2872.23,1892.24 L2869.96,1891.9 L2867.78,1892.82 L2865.81,1892.55 L2864.29,1891.81 L2862.29,1891.57 L2861.14,1892.7 L2858.74,1893.91 L2857.88,1895.33 L2857.44,1896.85 L2856.05,1897.76 L2853.77,1897.82 L2851.26,1898.66 L2852.06,1900.34 L2851.76,1902.24 L2849.37,1903.09 L2847.25,1904.69 L2847.59,1905.93 L2849.23,1905.99 L2850.43,1906.97 L2850.22,1908.73 L2848.34,1910.23 L2844.96,1913.29 L2845.35,1915.87 L2838.55,1927.2 L2833.6,1935.31 L2831.57,1941.39 L2825.13,1946.19 L2820.39,1954.64 L2820.54,1955.9 L2822.13,1956.42 L2819.31,1962.22 L2806.63,1971.53 L2801.17,1974.73 L2791.14,1982.68 L2786.95,1986.62 L2759.89,2000.4 L2747.52,2005.46 L2733.31,2012.69 L2717.01,2015.91 L2699.17,2018.78 L2689.7,2030.14 L2687.35,2036.46 L2685.74,2046.91 L2681.63,2060.56 L2678.95,2068.18 L2678.43,2073.06 L2679.06,2076.93 L2682.4,2082.21 L2673.35,2093.15 L2669.62,2094.86 L2667.07,2097.66 L2660.41,2106.49 L2658.28,2112.68 L2656.86,2114.45 L2656.11,2116.33 L2652.45,2123.1 L2650.28,2127.12 L2648.98,2130.28 L2648.81,2130.81 L2648.06,2133.19 L2646.04,2135.87 L2643.29,2138.08 L2640.77,2140.31 L2639.2,2142.65 L2640.94,2141.76 L2642.97,2140.05 L2644.7,2137.97 L2645.91,2138.53 L2647.59,2143.69 L2649.89,2145.71 L2651.66,2145.73 L2652.27,2144.72 L2649.68,2142.03 L2647.86,2136.16 L2651.54,2127.83 L2654.96,2122.17 L2657.3,2117.38 L2664.66,2110.76 L2668.39,2107.58 L2671.31,2105.89 L2677.12,2097.28 L2679.95,2093.24 L2682.59,2089.84 L2686.45,2086.2 L2696.08,2082.3 L2702.44,2081.4 L2708,2078.13 L2714.18,2079.79 L2720.06,2081.38 L2732.78,2084.8 L2732,2088.93 L2739.06,2094.1 L2739.13,2094.15 L2741.58,2092.76 L2743.07,2091.9 L2745.7,2093.62 L2745.8,2095.69 L2745.98,2099.81 L2747.04,2102.1 L2747.47,2103.03 L2749.95,2105.29 L2750.31,2103.62 L2752.99,2106.46 L2755.05,2106.89 L2757.68,2106.68 L2762.75,2102.79 L2767.58,2100.14 L2777.56,2096.3 L2790.12,2097.63 L2799.1,2096.3 L2813.78,2096.47 L2817.63,2100.15 L2820.98,2106.21 L2826.41,2109.83 L2831.77,2105.75 L2841.24,2114.77 L2845.08,2116.32 L2847.11,2120.19 L2856.2,2123.58 L2858.43,2126.09 L2860.51,2127.21 L2872.64,2132.67 L2880.42,2139.15 L2886.58,2144.54 L2887.39,2152.02 L2887.06,2156.62 L2894.45,2155.29 L2899.52,2155.12 L2907.82,2155.55 L2912.94,2159.26 L2915.51,2163.86 L2927.82,2167.94 L2932.02,2168.93 L2936.83,2171.68 L2940.13,2174.56 L2943.69,2177.44 L2945.01,2173.96 L2942.35,2161.95 L2936.55,2159.13 L2937.84,2151.38 L2943.15,2150.29 L2947.21,2150.75 L2951.51,2156.37 L2958.35,2158.33 L2965.52,2162.13 L2969.78,2162.27 L2972.06,2160.76 L2973.55,2159.81 L2974.65,2160.45 L2974.83,2161.93 L2974.67,2163.88 L2972.46,2166.54 L2969.4,2169.95 L2967.86,2169.07 L2964.9,2165.04 L2961.15,2161.88 L2956.81,2162.19 L2955.66,2164.13 L2953.99,2165.31 L2952.61,2166.82 L2951.19,2169.09 L2949.29,2174.43 L2949.3,2175.54 L2949.52,2176.63 L2950.97,2176.91 L2952.18,2176.49 L2952.81,2174.97 L2953.53,2172.01 L2954.78,2169.57 L2956.26,2167.74 L2958.27,2166.79 L2960.65,2168.06 L2964.12,2169.65 L2968.44,2171.83 L2967.91,2176.35 L2968.72,2178.37 L2967.33,2179.63 L2968.97,2181.39 L2970.66,2180.74 L2972.69,2180.78 L2976.92,2177.78 L2976.88,2176.54 L2977.45,2175.29 L2978.49,2174.3 L2977.5,2173.49 L2975.68,2174.55 L2973.89,2174.56 L2972.83,2173.26 L2972.22,2171.26 L2972.46,2169.23 L2975.67,2165.66 L2975.41,2163.69 L2976.09,2161.46 L2975.25,2159.45 L2976.1,2157.33 L2980.11,2156.02 L2984.79,2160.2 L2991.61,2164.73 L3012.01,2154.43 L3019.21,2148.64 L3021.9,2148.64 L3038.28,2156.08 L3047.38,2156.23 L3057.87,2152.58 L3060.65,2153.91 L3067.69,2162.9 L3071.66,2175.07 L3076.03,2181.22 L3079.59,2189.96 L3078.68,2197.15 L3075.6,2209.34 L3073.36,2217.74 L3072.91,2221.81 L3075.67,2221 L3073.67,2225.61 L3069.38,2228.61 L3064.37,2227.68 L3058.78,2227.48 L3048.26,2236.72 L3044.3,2240.35 L3043.57,2244.14 L3045.45,2244.68 L3044.57,2245.59 L3041.37,2245.23 L3036.99,2251.93 L3034.83,2261.96 L3034.64,2272.2 L3037.39,2286.43 L3048.28,2310.35 L3049.02,2311.36 L3059.3,2325.48 L3069.82,2333.16 L3073.63,2337.17 L3075.51,2339.03 L3078.61,2340.62 L3081.52,2343.14 L3084.23,2348.98 L3086.8,2356.39 L3089.68,2357.88 L3094.49,2362.88 L3098.17,2369.69 L3098.05,2371.08 L3094.62,2373.47 L3093.97,2375.05 L3095.46,2378.54 L3100.46,2381.29 L3100.74,2385.1 L3103.43,2386.13 L3106.08,2394.42 L3105.67,2399.74 L3106.94,2401.9 L3105.26,2406.7 L3111.43,2412.58 L3112.91,2417.25 L3111.19,2422.07 L3112.03,2427.05 L3107.74,2431.4 L3104.1,2444.21 L3100.56,2449.28 L3087.8,2453.74 L3068.97,2450.41 L3064.4,2448.61 L3057.51,2442.93 L3056.36,2441.04 L3054.09,2437.28 L3054.75,2432.2 L3056.78,2429.63 L3059.62,2426.03 L3062.53,2420.29 L3062.66,2417.49 L3064,2412.08 L3061.02,2408.77 L3051.16,2402.9 L3041.65,2403.28 L3037.43,2404.9 L3036.04,2407.24 L3032.33,2409.2 L3030.23,2409.67 L3028.97,2410.78 L3027.01,2412.5 L3025.24,2413.74 L3021.71,2415.44 L3018,2417.26 L3016.08,2417.76 L3013.83,2415.86 L3011.21,2409.24 L3012.97,2408.59 L3012.96,2408.51 L3012.91,2408.36 L3012.82,2408.09 L3009.61,2398.05 L3013.98,2396.59 L3013.44,2395.33 L3013.28,2394.96 L3014.2,2394.63 L3012.53,2391.34 L3010.18,2387.71 L3008.16,2385.62 L3007.38,2386.42 L2994,2380.04 L2989.58,2378.78 L2986.45,2378.81 L2985.64,2379.43 L2981.29,2378.24 L2981.68,2377.35 L2978.87,2376.29 L2972.24,2374.2 L2968.81,2373.89 L2965.45,2374.59 L2961.94,2373.81 L2952.81,2371.79 L2952.29,2371.63 L2926.73,2387.02 L2898.16,2383.74 L2886.69,2382.47 L2826.81,2358.16 L2741.92,2417.8 L2710.89,2429.82 L2681.71,2421.16 L2537.64,2355.59 L2467.17,2403.25 L2457.27,2397.22 L2431.55,2377.5 L2426.04,2374.15 L2402.7,2356.92 L2391.93,2348.63 L2384.35,2342.96 L2382.9,2343.18 L2367.75,2331.55 L2347.01,2314.98 L2336.9,2307.25 L2330.37,2302.79 L2311.54,2288.95 L2302.58,2281.76 L2297.13,2277.8 L2288.4,2272.95 L2282.13,2269.07 L2275.8,2266.12 L2269.64,2262.63 L2264.14,2259.25 L2248.95,2249.49 L2245.46,2247.46 L2234.39,2241.6 L2231.33,2239.77 L2221.22,2233.12 L2219.15,2231.61 L2214.05,2227.26 L2212.3,2226.11 L2207.37,2223.43 L2206.31,2221.99 L2205.82,2221.65 L2203.56,2220.82 L2201.16,2220.39 L2195.04,2219.96 L2191.73,2219.33 L2187.5,2218.24 L2184.29,2217.79 L2178.84,2217.97 L2175.37,2218.35 L2172.07,2219.19 L2166.41,2221.19 L2160.26,2223.08 L2158.07,2224.03 L2155.61,2225.58 L2153.84,2226.21 L2150.18,2226.88 L2148.75,2227.31 L2147.48,2228.01 L2146.32,2228.98 L2142.5,2232.9 L2140.15,2234.61 L2138.36,2235.6 L2135.54,2236.86 L2131.84,2238.03 L2128,2238.82 L2124.16,2239.29 L2097.44,2240.66 L2063.89,2242.76 L2059.32,2243.53 L2054.64,2243.62 L2048.46,2243.05 L2042.45,2242.01 L2036.55,2240.5 L2030.73,2238.65 L2018.62,2234.32 L2006.94,2230.9 L1991.49,2226.61 L1986.32,2225.53 L1976.26,2224.1 L1971.62,2222.79 L1970.42,2222.75 L1968.43,2223.33 L1966.39,2224.48 L1964.9,2225.92 L1963.65,2227.66 L1960.82,2232.16 L1959.27,2234.1 L1955.93,2237.73 L1953.6,2240.63 L1952.44,2242.61 L1951.64,2244.57 L1949.59,2250.54 L1948.4,2252.77 L1948.73,2257.51 L1943.77,2259.22 L1942.99,2260.66 L1942.86,2261.31 L1943.51,2263.9 L1944.24,2268.59 L1944.41,2270.84 L1944.47,2273.8 L1943.68,2275.12 L1942.71,2276.63 L1942.19,2277.35 L1941.25,2278.48 L1939.58,2280.44 L1939.13,2281.11 L1936.6,2284.19 L1933.74,2287.35 L1928.22,2295.15 L1925.87,2298.19 L1923.91,2300.42 L1918.37,2304.99 L1916.71,2306.65 L1913.82,2309.54 L1906.98,2315.12 L1903.76,2319.54 L1898.41,2326.88 L1894.35,2335.13 L1888.6,2355.87 L1865.23,2371.05 L1759.59,2383.65 L1718.23,2414.46 L1714.04,2417.58 L1687.26,2523.28 L1665.54,2548.2 L1639.31,2552.89 L1609.45,2565.7 L1545.49,2570.27 L1523.77,2578.61 L1510.54,2584.01 L1500.48,2586.9 L1488.36,2590.93 L1471.97,2596.36 L1457.42,2600.84 L1437.46,2606.65 L1433.12,2608.04 L1432.62,2609.4 L1431.64,2607.87 L1429.84,2606.03 L1429.22,2603.14 L1427.5,2602.47 L1422.52,2596.78 L1421.43,2591.46 L1416.34,2585.54 L1397.1,2569.74 L1383.77,2561.75 L1372.57,2557.94 L1366.83,2558.36 L1360.58,2556.62 L1356.39,2557.14 L1351.88,2557.97 L1347.23,2560.92 L1330.2,2566.19 L1322.76,2564.87 L1317.2,2558.86 L1308.93,2559.44 L1299.62,2559.01 L1286.75,2555.95 L1279.7,2550.61 L1275.84,2547.15 L1274.62,2543.97 L1272.93,2537.43 L1270.47,2529.36 L1269.72,2513.15 L1275.24,2497.62 L1276.12,2478.75 L1290.38,2469.44 L1299.29,2469.36 L1311.6,2480.64 L1316.94,2485.53 L1326.49,2501.14 L1334.53,2509.69 L1355.38,2516.84 L1365.72,2518.06 L1375.46,2517.74 L1376.89,2515.36 L1381.25,2515.23 L1382.65,2511.17 L1382.05,2500.42 L1379.56,2497.28 L1379.53,2488.03 L1378.47,2481.22 L1380.24,2477.88 L1381.23,2472.89 L1382.31,2457.85 L1384,2450.89 L1388.57,2441.59 L1393.93,2431.87 L1398.14,2421.17 L1398.26,2409.31 L1399.87,2393.41 L1403.43,2375.53 L1408.88,2362.45 L1419.51,2354.3 L1434.57,2333.07 L1435.13,2330.54 L1434.11,2327.32 L1434.28,2326.05 L1434.95,2324.88 L1434.75,2324.1 L1435.39,2322.09 L1435.56,2319.65 L1434.15,2314.45 L1434.41,2313.68 L1433.55,2312.07 L1432.65,2300.98 L1432.1,2300.6 L1428.66,2303.3 L1427.59,2302.96 L1426.67,2301.92 L1426.64,2300.89 L1428,2299.71 L1428,2299.05 L1428.63,2298.28 L1429.47,2292.1 L1431.56,2291.82 L1433.8,2291.21 L1433.52,2290.32 L1431.9,2289.69 L1430.7,2287.68 L1430.79,2286.33 L1433.06,2281.16 L1432.2,2281.04 L1432.26,2280.12 L1432.36,2278.33 L1432.36,2276.27 L1431.98,2276.26 L1431.69,2275.6 L1430.54,2275.45 L1430.09,2274.59 L1430.19,2273.39 L1431.29,2272.34 L1432.67,2271.75 L1432.56,2270.82 L1431.96,2270.27 L1431.8,2268.49 L1432.23,2266.62 L1433.06,2264.65 L1434.42,2262.73 L1437.54,2263.36 L1437.96,2262.39 L1436.98,2261.88 L1437.99,2259.67 L1438.62,2259.7 L1439.4,2259.03 L1439.17,2258.26 L1439.84,2257.35 L1440.24,2255.77 L1440.63,2253.59 L1438.72,2252.6 L1444.56,2240.69 L1449.55,2233.57 L1452.37,2225.59 L1452.72,2223.02 L1461.07,2214.82 L1462.05,2214.6 L1461.45,2212.85 L1462.91,2211.18 L1461.36,2209.72 L1459.67,2211.44 L1451.8,2203.92 L1453.34,2201.61 L1460.05,2205.86 L1463.86,2198.93 L1453.54,2187.43 L1446.89,2193.41 L1446.83,2195.48 L1440.85,2200.51 L1440.78,2202.06 L1440.26,2203.06 L1433.88,2205.79 L1433.31,2207.74 L1418,2214.64 L1420.27,2220.58 L1412.5,2227.71 L1407.11,2221.86 L1406.36,2222.55 L1407.2,2223.65 L1406.79,2224.02 L1407.15,2224.41 L1398.11,2232.95 L1391.57,2238.74 L1390.64,2237.84 L1389.09,2239.31 L1389.91,2240.23 L1382.29,2247.45 L1387.55,2251.51 L1380.4,2263.07 L1377.67,2261.23 L1376.86,2262.4 L1379.29,2264.39 L1373.7,2273.43 L1363.93,2287.44 L1347.64,2297.74 L1345.8,2296.99 L1341.66,2290.12 L1336.84,2283.18 L1333.21,2278.92 L1331.91,2275.05 L1331.79,2272.42 L1329.4,2267.96 L1325.94,2268.03 L1319.58,2275.11 L1319.77,2275.27 L1319.09,2275.94 L1316.75,2274.35 L1316.38,2274.62 L1318.59,2276.62 L1317.78,2277.45 L1319.96,2279.93 L1319.47,2280.2 L1320.86,2282.05 L1329.85,2288.09 L1334.45,2291.54 L1336.76,2294.12 L1337.88,2297.23 L1336.41,2298.35 L1335.02,2297.4 L1332.54,2297.74 L1325.32,2300.65" vector-effect="none" fill-rule="evenodd"/>
   <path d="M1323.57,2315.07 L1325.25,2316.8 L1324.89,2318.81 L1323.79,2320.87 L1322.03,2323.57 L1319.29,2327.49 L1318.32,2329.13 L1317.74,2331.49 L1314.41,2335.97 L1313.52,2337.17 L1313.08,2336.83 L1312.1,2337.78 L1311.55,2338.83 L1310.56,2341.07 L1311.06,2343.57 L1310.05,2344.82 L1308.31,2346.63 L1306.49,2345.48 L1304.52,2345.91 L1303,2347.45 L1300.96,2347.48 L1298.93,2345.24 L1297.64,2344.96 L1297.65,2346.62 L1298.11,2347.59 L1295.25,2350.86 L1293.9,2347.83 L1292.22,2346.97 L1288.66,2343.87 L1287.45,2343.36 L1285.91,2341.82 L1284.64,2343.06 L1285.72,2345.2 L1286.44,2345.91 L1286.83,2346.81 L1286.62,2347.66 L1284.59,2349.72 L1283.77,2349.91 L1281.23,2346.88 L1280.44,2346.4 L1279.83,2346.95 L1280.15,2347.29 L1280.34,2347.63 L1279.98,2348.03 L1279.44,2347.42 L1279.21,2347.67 L1279.15,2348.23 L1279.93,2348.98 L1279.77,2349.29 L1280.06,2349.57 L1278.98,2350.96 L1278.75,2351.31 L1278.02,2350.97 L1276.08,2353.12 L1274.89,2352.38 L1273.73,2351.5 L1272.4,2352.25 L1273.11,2353.51 L1272.96,2354.3 L1272.32,2355.02 L1272.11,2355.27 L1272.91,2357.21 L1270.7,2359.21 L1269.62,2357.82 L1268.93,2358.27 L1267.13,2359.77 L1266.69,2359.17 L1266.21,2358.51 L1262.95,2361.38 L1263.39,2362.41 L1262.75,2363.18 L1261.97,2362.66 L1261.33,2363.16 L1262.31,2364.66 L1261.69,2365.21 L1261.49,2365.4 L1259.19,2367 L1259.41,2367.28 L1257.88,2368.49 L1257.62,2368.17 L1255.34,2369.86 L1253.55,2366.91 L1252.58,2367.72 L1253.35,2369.06 L1253.61,2369.8 L1252.05,2370.72 L1250.26,2370.32 L1249.84,2370.55 L1249.26,2370.09 L1247.57,2370.92 L1246.39,2372.44 L1246,2374.57 L1242.86,2376.27 L1242.28,2375.24 L1240.41,2374.62 L1238.6,2374.7 L1237.83,2375.2 L1236.49,2375.16 L1235.57,2374.64 L1235.24,2374.18 L1234.64,2373.97 L1232.78,2374.26 L1231.29,2375.25 L1230.71,2376.21 L1229.85,2376.62 L1228.54,2378.03 L1226.76,2378.48 L1225.88,2379.1 L1225.01,2379.41 L1220.29,2380.12 L1219.71,2379.83 L1219.6,2378.25 L1219.08,2378.87 L1218.54,2379.79 L1217.93,2380.88 L1217.02,2381.59 L1216.16,2382.02 L1214.56,2382.2 L1212.31,2381.69 L1210.87,2381.62 L1208.44,2381.37 L1206.64,2381.21 L1205.18,2381.11 L1205.13,2383.57 L1203.12,2383.46 L1203.05,2381.73 L1200.05,2381.8 L1199.22,2380.35 L1198.76,2379.07 L1197.56,2377.57 L1193.17,2377.95 L1192.05,2379.13 L1191.22,2379.49 L1191.44,2379.91 L1190.05,2380.52 L1189.52,2379.23 L1188.62,2379.75 L1187.57,2382.72 L1187.19,2383.07 L1185,2383.46 L1184.07,2383.42 L1182.94,2383.06 L1181.87,2381.87 L1181.13,2382.23 L1180.66,2382.8 L1179.22,2383.64 L1178.37,2383.57 L1177.73,2384.16 L1177.05,2384.55 L1174.45,2384.57 L1174.1,2384.27 L1173.25,2381.79 L1171.65,2380.21 L1170.84,2379.98 L1170.26,2380.63 L1169.36,2380.92 L1168.3,2380.49 L1167.51,2379.52 L1166.55,2378.9 L1165.73,2378.57 L1163.72,2379.47 L1162.62,2380.37 L1161.97,2383.03 L1161.25,2383.8 L1159.51,2383.65 L1146.1,2379.37 L1145.16,2379.31 L1143.82,2379.23 L1142.62,2378.65 L1142.43,2378.47 L1141.34,2377.39 L1138.73,2374.91 L1136.51,2373.54 L1135.33,2372.11 L1133.73,2371.14 L1130.34,2370.45 L1128.03,2368.2 L1122.3,2365.44 L1116.49,2365.13 L1113.22,2365.59 L1111.11,2365.35 L1109.84,2365.67 L1107.88,2366.12 L1106.1,2366.21 L1105.67,2365.85 L1105.29,2365.18 L1104.51,2364.89 L1103.81,2365.29 L1103.56,2365.96 L1103.14,2366.48 L1102.3,2366.87 L1101.23,2366.3 L1100.8,2365.33 L1099.67,2363.86 L1097.66,2362.85 L1096.34,2361.35 L1094.95,2359.47 L1092.95,2358.31 L1090.97,2357.84 L1089.87,2358.17 L1088.83,2359.22 L1087.9,2360.55 L1087.16,2360.97 L1086.92,2361.53 L1086.8,2362.4 L1086.59,2363.05 L1086.06,2363.56 L1084.84,2364.12 L1084.43,2364.76 L1084.41,2365.72 L1084.02,2366.6 L1082.76,2367.21 L1081.16,2367.22 L1079.4,2366.82 L1077.44,2365.84 L1076.35,2364.48 L1075.48,2362.83 L1074.58,2362.53 L1073.7,2362.59 L1073.33,2362.9 L1072.81,2363.42 L1072.14,2363.37 L1071.69,2362.95 L1070.82,2361.64 L1069.65,2359.39 L1065.68,2358.52 L1062.74,2357.7 L1058.29,2354.74 L1053.91,2352.86 L1049.8,2351.85 L1046.4,2350.25 L1043.36,2351.1 L1041.62,2351 L1038.38,2353.34 L1036.67,2353.97 L1031.09,2356.27 L1025.37,2359.68 L1019.8,2364.58 L1017.59,2368.43 L1014.38,2372.2 L1010.08,2376.75 L1005.5,2380.11 L999.834,2383.69 L995.268,2385.56 L989.451,2387.08 L983.886,2387.95 L979.022,2388.27 L975.41,2387.41 L973.189,2386.05 L971.998,2384.35 L968.813,2381.53 L966.918,2378.69 L964.952,2375.97 L963.451,2373.83 L961.51,2372.48 L960.981,2371.49 L960.078,2370.27 L960.24,2369.47 L960.993,2368.3 L963.595,2368.09 L966.206,2369.61 L968.584,2370.39 L970.781,2370.05 L972.43,2369.18 L974.086,2367.06 L975.469,2364.51 L976.94,2362.3 L978.969,2361.16 L981.912,2358.11 L984.756,2355.97 L988.223,2352.88 L991.304,2350.82 L994.404,2348.68 L998.753,2345.32 L999.532,2343.93 L999.85,2341.67 L1000.62,2339.34 L1000.94,2338 L1000.7,2336.69 L1000.18,2335.39 L999.464,2334.37 L998.04,2333.89 L996.623,2332.01 L995.214,2331.52 L993.573,2329.64 L991.152,2327.79 L987.646,2326 L986.608,2324.78 L984.551,2323.58 L983.094,2323.13 L981.409,2322.82 L980.657,2323.08 L979.825,2322.93 L977.819,2322.04 L975.092,2320.91 L972.78,2319.8 L970.574,2319.32 L967.223,2318.69 L965.792,2318.44 L964.559,2318.52 L963.792,2319.19 L962.975,2319.55 L961.848,2319.73 L960.949,2320.29 L959.574,2320.29 L958.824,2319.69 L957.221,2318.99 L955.672,2317.84 L953.501,2316.69 L950.082,2315.08 L946.546,2313.9 L943.378,2313.12 L940.056,2312.62 L938.278,2312.11 L937.298,2311.33 L934.781,2310.41 L932.422,2309.89 L932.006,2309.31 L931.765,2309.66 L929.397,2308.24 L930.012,2307.05 L929.187,2306.34 L928.216,2305.79 L926.875,2305.49 L926.078,2305.7 L925.845,2305.6 L925.421,2305.41 L925.544,2304.53 L925.271,2303.69 L924.429,2302.63 L923.193,2301.65 L921.598,2300.91 L919.138,2300.48 L918.166,2300.16 L916.513,2299.39 L914.574,2298.94 L912.299,2298.67 L909.836,2298.09 L906.694,2297.19 L903.648,2296.24 L903.176,2296.02 L901.321,2295.17 L900.832,2295 L900.112,2294.83 L898.511,2294.97 L897.741,2294.91 L896.793,2294.42 L895.407,2292.26 L894.263,2291.53 L893.333,2289.77 L892.011,2288.37 L889.566,2286.63 L888.181,2285.26 L887.69,2284.24 L887.49,2283.76 L887.333,2283.08 L887.563,2281.83 L887.023,2280.35 L885.554,2279.05 L884.082,2278.33 L883.82,2277.87 L883.915,2277 L881.169,2274.84 L877.819,2272.61 L875.83,2272.41 L874.886,2272.65 L874.356,2272.93 L873.782,2273.15 L873.392,2272.96 L872.998,2272.77 L873.404,2272.08 L873.199,2271.4 L869.284,2267.19 L867.505,2265.44 L865.429,2263.97 L863.121,2263.21 L860.951,2262.81 L858.718,2263.03 L858.376,2263.15 L857.617,2263.41 L856.91,2263.49 L855.542,2262.55 L855.23,2261.91 L855.248,2261.26 L855.754,2260.89 L855.919,2260.27 L855.723,2259.13 L854.972,2258 L853.6,2256.94 L852.93,2256.87 L852.374,2256.76 L852.255,2256.44 L851.973,2256.01 L851.836,2254.73 L852.106,2253.61 L850.42,2251.82 L848.77,2250.79 L847.445,2249.47 L844.849,2248.22 L841.323,2246.58 L839.472,2246.1 L837.873,2245.98 L835.759,2246.13 L834.064,2244.72 L833.398,2243.71 L833.765,2242.78 L830.402,2238.71 L824.415,2232.22 L797.27,2208.53 L782.414,2184.51 L768.623,2169.8 L759.158,2160.5 L756.833,2157.48 L754.198,2153.19 L750.98,2150.28 L749.572,2148.78 L747.4,2147.93 L746.452,2147.38 L742.972,2144.29 L741.001,2142.3 L738.551,2142.11 L736.213,2142.37 L731.247,2143.83 L727.109,2145.43 L723.502,2147.29 L720.449,2149.59 L716.125,2151.35 L713.883,2153.01 L710.878,2154.85 L708.172,2156.89 L703.547,2160.47 L700.558,2164.59 L695.916,2168.23 L687.335,2173.63 L687.218,2174.44 L687.593,2175.5 L687.631,2176.34 L687.551,2177.09 L687.136,2177.97 L681.735,2182.22 L680.838,2182.77 L680.352,2182.37 L680.218,2181.85 L684.16,2178.92 L683.974,2178.53 L684.884,2177.82 L685.026,2177.96 L685.617,2177.19 L685.726,2176.29 L685.246,2175.25 L683.988,2174.76 L681.567,2175.2 L678.446,2176.72 L678.069,2176.72 L677.099,2176.69 L675.013,2177.17 L672.737,2174.77 L671.017,2175.2 L669.35,2176.6 L668.454,2179.07 L670.273,2181.99 L670.3,2183.04 L670.058,2184.33 L667.838,2188.43 L667.35,2189.11 L666.228,2188.79 L666.244,2187.97 L668.947,2183.71 L668.158,2183.56 L666.822,2183.51 L662.785,2184.01 L660.536,2186.12 L659.141,2187.64 L656.137,2190.7 L654.754,2189.32 L654.528,2189.5 L654.226,2189.73 L656.276,2192.52 L655.989,2192.87 L654.953,2192.44 L653.298,2192.14 L651.578,2192.61 L651.709,2193.48 L648.955,2195.91 L647.927,2195.9 L645.728,2197.76 L645.474,2197.89 L646.004,2200.09 L645.137,2202.07 L635.567,2207.37 L623.701,2215.44 L605.849,2220.94 L599.571,2228.61 L600.034,2229.35 L599.889,2229.64 L598.32,2229.42 L597.438,2231.13 L592.949,2243.34 L589.9,2251.94 L589.945,2253.37 L589.7,2254.49 L587.843,2256.89 L585.099,2258.36 L582.589,2262.77 L581.768,2263.43 L579.645,2263.15 L577.867,2263.35 L575.233,2264.6 L574.612,2264.71 L573.839,2264.49 L573.931,2265.05 L571.306,2265.99 L570.317,2265.33 L570.628,2264.83 L568.191,2263.34 L568.69,2262.59 L566.098,2261.16 L565.695,2261.77 L564.346,2260.95 L564.681,2260.28 L561.51,2258.11 L560.595,2259.77 L556.395,2256.85 L555.88,2253.03 L554.07,2253.09 L554.316,2255.57 L554.215,2255.64 L551.08,2251.88 L548.812,2253.7 L551.077,2256.31 L550.159,2256.14 L549.101,2255.44 L548.191,2256.63 L548.352,2257.12 L548.009,2257.83 L547.715,2258.69 L547.577,2259.56 L547.83,2260.68 L548.39,2261.06 L550.941,2262.07 L559.578,2265.99 L560.158,2265.7 L560.675,2266.4 L561.306,2266.88 L561.676,2266.92 L568.301,2269.46 L568.89,2269.43 L569.476,2269.82 L569.921,2270.6 L569.927,2271.36 L569.315,2271.8 L568.653,2272.11 L566.802,2271.36 L563.592,2270.27 L562.062,2270.77 L561.329,2270.88 L560.624,2271.3 L559.199,2272.26 L559.273,2273.86 L559.305,2274.73 L559.705,2275.48 L559.956,2276.79 L560.367,2277.48 L562.04,2276.49 L562.518,2277.46 L565.892,2275.4 L566.316,2276.08 L567.278,2275.41 L567.543,2275.47 L568.976,2278.33 L566.467,2279.19 L564.292,2283.75 L563.615,2290.31 L567.425,2293.87 L568.593,2296.55 L567.038,2300.95 L553.55,2313.33 L537.704,2322.65 L526.545,2328.45 L522.325,2329.28 L520.181,2328.29 L514.522,2336.98 L513.871,2337.93 L512.767,2338.11 L512.259,2337.38 L512.626,2336.57 L517.048,2330.63 L518.005,2327.42 L512.947,2325.26 L506.84,2324.12 L498.778,2324.39 L490.761,2327.81 L485.627,2326.04 L478.185,2322.98 L475.902,2323.72 L473.6,2325.54 L472.536,2326.45 L473.553,2327.74 L474.616,2329.3 L471.263,2329.43 L466.865,2338.03 L466.766,2340.12 L467.587,2342.74 L467.073,2344.47 L465.566,2345.81 L463.065,2347.17 L461.469,2354.89 L461.726,2369.76 L466.277,2412.23 L463.256,2432.82 L452.157,2432.71 L421.488,2431.95 L370.19,2455.14 L359.052,2455.59 L344.627,2459.63 L340.701,2464.22 L339.315,2467.15 L337.595,2466.95 L336.219,2465.54 L334.493,2466 L333.545,2466.07 L329.666,2465.53 L326.519,2465.32 L325.162,2465.03 L323.007,2464.03 L320.314,2463.49 L319.581,2463.13 L318.677,2462.41 L316.933,2460.33 L314.952,2457.2 L313.187,2455.28 L312.799,2454.43 L312.284,2452.15 L312.092,2449.29 L312.352,2447.74 L312.87,2446.18 L318.202,2435.12 L319,2434.29 L322.363,2432.72 L324.326,2430.83 L324.908,2430.49 L323.011,2430.35 L327.194,2427.79 L329.371,2427.92 L331.526,2427.52 L335.709,2424.59 L338.334,2421.86 L339.224,2419.66 L331.434,2406.7 L321.275,2388.9 L320.436,2387.79 L319.682,2387.09 L316.15,2384.72 L312.704,2381.79 L308.655,2377.8 L299.977,2368.35 L297.199,2365.63 L294.27,2363.03 L291.277,2360.71 L288.175,2358.52 L274.025,2349.64 L264.87,2344.29 L258.173,2340.66 L255.543,2339.24 L246.107,2334.43 L236.542,2329.83 L206.234,2315.77 L193.416,2309.97 L180.492,2304.41 L173.986,2301.75 L164.937,2298.34 L139.019,2290.12 L123.078,2285.4 L115.903,2283.48 L108.663,2281.78 L101.402,2280.29 L64.8604,2273.66 L57.5992,2272.14 L50.3597,2270.45 L46.6324,2269.29 L43.0348,2267.71 L39.6747,2265.68 L36.6597,2263.2 L35.3247,2261.8 L33.1075,2258.83 L32.2898,2257.36 L31.6446,2255.85 L31.258,2254.25 L31.1733,2252.5 L31.3467,2251.19 L31.671,2250 L32.7933,2247.9 L34.3249,2246.08 L37.9051,2242.59 L39.0052,2241.33 L41.0117,2238.51 L43.3854,2234.62 L44.9395,2231.6 L58.8622,2203.7 L66.6245,2198.48 L68.9739,2197.87 L73.7372,2196.93 L76.063,2196.28 L77.5719,2195.67 L111.447,2170.37 L119.619,2164.43 L122.207,2162.32 L125.073,2159.64 L128.201,2156.33 L137.023,2145.79 L149.49,2131.49 L151.086,2129.24 L166.668,2098.28 L167.229,2096.41 L167.296,2094.38 L166.869,2088.93 L166.786,2084.78 L166.593,2083.43 L166.142,2081.81 L159.648,2067.52 L158.786,2066.48 L158.183,2066.19 L157.644,2066.37 L156.674,2067.31 L156.092,2067.56 L153.076,2066.57 L151.676,2065.69 L150.642,2065.46 L148.724,2065.39 L148.121,2065.14 L147.173,2064.4 L145.149,2062.17 L143.663,2061.06 L142.995,2060.83 L140.237,2060.74 L139.849,2060.58 L138.084,2059.12 L135.671,2057.95 L134.594,2057.22 L133.841,2056.23 L133.648,2055.06 L134.08,2053.66 L134.167,2052.87 L133.866,2051.41 L133.888,2050.82 L134.169,2050.24 L134.665,2049.77 L136.174,2048.84 L136.467,2048.37 L136.554,2047.82 L136.477,2046.53 L136.106,2045.02 L137.878,2043.8 L138.684,2043.92 L139.567,2046.75 L141.277,2048.24 L143.442,2047.31 L144.487,2046.3 L145.096,2045.07 L144.524,2043.77 L143.434,2042.74 L143.88,2040.7 L144.995,2038.96 L146.549,2036.44 L146.83,2035.51 L146.466,2032.56 L146.876,2031.5 L147.804,2030.45 L148.989,2029.64 L152.374,2027.81 L152.633,2027.41 L152.957,2026.26 L153.216,2025.85 L154.38,2024.93 L159.964,2022.32 L161.212,2022.03 L161.083,2023.29 L160.308,2023.54 L161.383,2023.34 L162.417,2023.5 L164.485,2024.15 L165.843,2024.26 L166.36,2023.95 L167.266,2022.98 L167.848,2022.69 L168.538,2022.8 L168.99,2023.23 L169.613,2024.81 L170.109,2025.24 L170.841,2025.35 L174.031,2024.45 L174.936,2024.52 L177.091,2025.13 L177.996,2025.2 L179.095,2025 L180.474,2024.52 L183.298,2023.11 L184.937,2021.85 L185.218,2021.4 L185.585,2020.16 L185.887,2019.77 L187.331,2019.14 L192.849,2017.75 L195.91,2016.02 L199.699,2014.67 L200.582,2013.68 L202.164,2013.02 L203.519,2012.87 L204.36,2012.71 L205.2,2012.76 L207.473,2013.5 L208.412,2013.69 L209.251,2013.62 L211.94,2013.15 L212.716,2012.93 L213.277,2012.48 L213.502,2011.29 L215.74,2010 L217.684,2009.7 L218.501,2008.64 L219.365,2009.34 L220.037,2009.12 L220.785,2006.98 L221.82,2006.1 L223.406,2005.97 L223.385,2007.61 L224.438,2008.97 L225.444,2009.17 L226.534,2009.24 L227.59,2009.44 L232.898,2009.16 L233.793,2008.17 L233.433,2007.53 L233.412,2006.61 L233.769,2005.73 L235.206,2005.58 L237.129,2004.83 L238.826,2005.87 L240.112,2006.79 L240.931,2006.73 L241.97,2006.5 L242.201,2005.48 L244.99,2004.36 L246.626,2004.24 L248.873,2004.31 L249.758,2003.18 L251.047,2002.11 L252.755,2003.59 L253.756,2002.58 L255.163,2001.87 L256.878,2003.05 L258.663,2002.15 L258.82,1999.74 L260.311,1999.32 L261.547,2000.47 L263.274,1999.55 L264.406,1998.38 L266.946,1999.25 L267.633,1999.42 L270.224,1998.81 L272.775,1999.2 L275.26,2000.76 L276.489,2000.92 L277.739,2000.72 L280.463,1999.62 L280.513,1999.01 L280.917,1998.46 L283.302,1998.48 L286.271,1998.89 L290.871,2000 L293.698,2000.21 L299.366,2002.39 L302.939,2002.21 L307.574,2001.79 L309.804,2002.77 L312.026,2002.53 L315.443,2002.98 L316.75,2003.9 L318.194,2004.21 L321.88,2005.89 L322.709,2005.6 L323.83,2005.31 L326.251,2004.23 L328.391,2003.68 L329.856,2003.97 L331.472,2004.54 L336.731,2009.01 L343.215,2011.26 L345.261,2012.62 L346.511,2012.87 L352.459,2012.49 L353.946,2012.6 L355.281,2012.96 L356.143,2013.39 L357.605,2014.5 L360.9,2017.77 L371.192,2020.46 L374.776,2025.23 L384.099,2030.63 L390.431,2034.21 L397.797,2039.11 L411.905,2046.24 L417.376,2049.69 L424.075,2052.87 L424.463,2053.37 L425.022,2054.45 L425.431,2054.9 L427.133,2055.73 L430.08,2056.78 L436.117,2058.92 L440.447,2060.83 L453.651,2068.46 L457.636,2070.06 L471.333,2078.81 L480.811,2084.05 L491.021,2089.24 L502.808,2093.98 L525.602,2101.18 L528.622,2105.47 L536.182,2108.58 L536.83,2108.64 L537.572,2108.28 L538.552,2108.19 L539.596,2109.96 L542.974,2110.92 L544.534,2111.38 L546.351,2111.86 L547.066,2111.69 L547.942,2112.7 L548.914,2113.8 L550.069,2113.91 L550.683,2114.16 L551.572,2114.3 L551.906,2114.55 L552.576,2114.7 L553.673,2114.67 L554.24,2114.76 L554.945,2114.71 L555.604,2114.88 L556.783,2114.72 L557.494,2114.76 L557.709,2115.15 L557.545,2115.48 L557.78,2115.73 L558.099,2115.73 L558.7,2115.38 L559.524,2115.16 L560.11,2115.16 L562.059,2115.94 L562.925,2116.88 L563.695,2116.5 L564.464,2116.56 L565.344,2117.99 L566.342,2118.17 L567.372,2117.64 L569.35,2119.03 L570.839,2119.16 L573.655,2119.34 L579.173,2120.24 L579.669,2119.81 L580.753,2120.03 L581.798,2120.18 L583.388,2120.19 L584.337,2119.73 L585.011,2120.53 L586.491,2121.19 L587.439,2121.17 L591.083,2121.58 L591.311,2122.1 L592.966,2122.25 L594.041,2121.53 L595.037,2121.95 L596.659,2122.32 L597.771,2122.41 L598.545,2122.33 L598.896,2121.88 L599.567,2121.57 L601.362,2121.69 L605.432,2122.18 L607.559,2121.7 L611.41,2121.93 L613.568,2120.97 L616.367,2121.18 L619.668,2121.1 L622.074,2120.29 L624.039,2120.56 L625.692,2120.3 L627.149,2119.65 L627.484,2118.79 L628.361,2118.5 L629.395,2118.51 L630.535,2118.84 L631.52,2118.94 L632.528,2118.73 L633.645,2118.46 L634.428,2117.34 L635.109,2117.15 L635.639,2116.71 L636.081,2116.81 L636.579,2116.8 L637.021,2116.56 L637.273,2115.95 L637.285,2114.88 L637.724,2114.85 L638.149,2115.18 L638.377,2115.05 L638.419,2114.56 L639.359,2113.62 L640.187,2113.15 L640.904,2112.96 L641.818,2113.11 L642.811,2112.88 L643.851,2111.71 L645.493,2110.95 L646.344,2111.3 L647.06,2110.97 L647.565,2110.63 L648.664,2109.68 L650.845,2109.05 L652.491,2107.19 L654.362,2105.88 L655.914,2105.99 L658.686,2105.01 L661.629,2102.83 L664.243,2102.22 L666.667,2102.06 L668.625,2101.25 L669.246,2099.59 L670.915,2098.19 L672.288,2098.42 L673.867,2099.32 L674.539,2098.77 L673.758,2097.68 L673.465,2096.64 L673.826,2096.1 L674.61,2095.86 L675.787,2095.45 L677.29,2094.79 L678.244,2094.96 L679.337,2094.51 L679.359,2093.64 L679.267,2092.53 L680.24,2091.52 L681.928,2090.72 L682.597,2091.3 L683.081,2092.4 L683.821,2092.1 L684.632,2091.07 L684.217,2089.04 L686.112,2087.37 L687.638,2087.65 L690.922,2085.12 L692.262,2084.78 L693.115,2085.08 L693.585,2084.76 L693.119,2083.45 L693.522,2082.7 L695.246,2082.07 L696.769,2080.92 L697.549,2080.17 L698.067,2079.32 L697.621,2078.83 L696.82,2078.12 L696.752,2077.33 L697.028,2076.74 L696.862,2076.15 L696.899,2075.62 L697.466,2075.02 L698.206,2074.22 L698.172,2074.01 L698.012,2073.94 L697.723,2074.29 L697.359,2074.39 L697.019,2074.27 L696.314,2074.71 L696.012,2074.66 L695.894,2074.49 L696.118,2074.18 L696.54,2073.9 L697.422,2073.15 L698.004,2072.73 L698.155,2072.44 L698.584,2072.14 L698.933,2072.25 L699.045,2072.54 L699.149,2072.86 L699.496,2072.59 L699.739,2072.43 L699.793,2072.17 L700.048,2071.72 L700.763,2071.62 L701.852,2071.54 L703.412,2071.67 L704.097,2071.89 L704.758,2071.85 L704.931,2071.39 L705.416,2070.86 L706.009,2070.09 L706.904,2069.21 L707.681,2068.16 L708.241,2067.73 L709.983,2067.43 L710.97,2066.79 L712.341,2066.52 L712.85,2065.37 L712.814,2064.9 L712.827,2064.21 L713.457,2063.15 L713.669,2062.39 L714.249,2061.56 L715.086,2059.6 L715.719,2058.48 L716.805,2057.49 L717.614,2056.49 L718.192,2055.65 L718.891,2054.83 L719.413,2053.21 L719.198,2052.53 L719.954,2050.93 L719.373,2049.56 L718.167,2047.98 L717.155,2047.17 L715.452,2046.9 L715.022,2046.27 L715.13,2045.52 L715.432,2045.05 L716.316,2044.24 L717.243,2043.88 L718.191,2043.84 L719.161,2044.08 L721.84,2046.08 L723.227,2046.79 L724.055,2046.86 L724.913,2046.9 L726.044,2046.26 L727.588,2045.43 L728.905,2044.55 L730.623,2043.29 L732.747,2040.91 L734.559,2038.24 L735.849,2036.44 L736.363,2035.2 L737.083,2034.83 L738.206,2034.42 L738.672,2033.45 L738.675,2032.41 L739.21,2031.48 L738.928,2030.1 L737.606,2029.3 L737.236,2028.42 L737.008,2027.58 L737.336,2026.92 L739.019,2026.05 L739.516,2024.61 L741.155,2022.49 L742.599,2021.16 L744.669,2019.84 L745.919,2019.63 L747.276,2019.75 L749.968,2020.27 L756.238,2020.75 L759.104,2020.7 L761.927,2020.43 L764.686,2019.8 L765.957,2019.33 L767.574,2018.43 L768.286,2017.87 L770.097,2015.91 L770.569,2015.51 L771.043,2015.51 L771.603,2015.99 L774.14,2021.57 L774.679,2022.2 L775.519,2022.67 L776.661,2022.83 L780.682,2019.4 L782.285,2019.84 L784.947,2018.99 L786.343,2018.24 L788.758,2016.78 L791.215,2016.19 L791.969,2015.83 L795.699,2013.18 L803.328,2009.15 L807.273,2006.56 L809.601,2005.46 L814.386,2003.55 L817.382,2001.72 L819.495,2000.19 L825.575,1995.26 L840.601,1983.76 L844.027,1980.74 L847.089,1977.37 L848.405,1975.5 L850.045,1972.34 L850.736,1970.05 L851.017,1967.63 L850.954,1965.2 L849.882,1963.11 L850.693,1961.78 L849.607,1959.01 L849.488,1956.56 L849.474,1955.09 L850.384,1954.13 L849.69,1953.44 L848.661,1952.21 L849.692,1949.93 L849.348,1948.42 L849.543,1947.51 L850.147,1946.25 L850.924,1945.15 L853.36,1942.72 L854.115,1941.64 L854.396,1940.62 L854.267,1940.26 L852.694,1938.89 L852.565,1938.55 L852.587,1938.12 L853.213,1937.15 L854.075,1936.32 L855.088,1935.64 L856.813,1934.92 L858.321,1934.75 L858.903,1935.22 L859.377,1935.38 L859.937,1935.29 L861.079,1934.72 L861.575,1934.16 L861.791,1933.15 L861.641,1932.29 L861.211,1931.57 L858.432,1929.18 L857.937,1928.5 L857.722,1927.72 L857.852,1926.79 L858.413,1925.44 L859.556,1923.68 L860.251,1922.72 L861.884,1922.09 L862.285,1922.41 L864.828,1921.84 L867.531,1920.79 L868.412,1920.52 L869.367,1920.81 L870.399,1920.38 L871.3,1919.71 L872.054,1919.91 L872.767,1920.52 L872.465,1921.84 L873.634,1923.35 L872.95,1924.83 L873.079,1924.97 L873.769,1924.88 L877.109,1923.98 L878.617,1922.24 L880.712,1921.11 L881.953,1921.03 L884.733,1920.33 L886.429,1919.91 L889.228,1920.34 L891.755,1921.67 L893.939,1923.13 L895.533,1924.69 L896.918,1925.64 L895.617,1928.52 L897.454,1929.54 L897.454,1929.97 L897.078,1930.98 L896.817,1931.67 L896.409,1932.2 L895.843,1932.29 L895.364,1932.52 L895.196,1932.97 L895.208,1933.77 L895.656,1934.27 L896.257,1934.89 L896.638,1935.52 L896.588,1935.76 L896.773,1936.17 L896.413,1936.76 L895.586,1936.59 L895.17,1936.77 L894.993,1937.04 L895.088,1937.22 L895.529,1937.26 L896.072,1937.49 L896.027,1937.99 L895.466,1938.35 L894.101,1940.26 L894.174,1941.44 L894.125,1943.16 L894.402,1945.47 L893.421,1946.34 L892.33,1947.45 L891.777,1948.7 L891.707,1950.14 L891.254,1951.36 L891.008,1952.72 L889.39,1955.22 L889.102,1956.74 L887.669,1957.61 L886.222,1958.84 L885.405,1960.42 L885.078,1962.07 L884.479,1962.78 L883.252,1963.61 L882.702,1965.16 L880.362,1967.31 L879.784,1968.5 L878.578,1970.15 L876.925,1970.8 L873.534,1973.53 L870.246,1976.03 L868.641,1976.46 L867.054,1976.87 L865.141,1976.31 L864.405,1975.47 L862.903,1974.87 L863.196,1975.91 L863.654,1976.7 L863.682,1977.74 L863.612,1978.7 L863.308,1979.76 L862.814,1980.25 L861.869,1981.03 L860.658,1981.22 L859.624,1980.93 L858.224,1980.69 L857.083,1981.13 L856.689,1980.7 L857.002,1979.82 L858.484,1977.13 L859.608,1975.73 L859.999,1974.71 L859.57,1973.92 L856.77,1972.82 L854.118,1971.89 L853.051,1971.07 L852.325,1971.58 L851.779,1972.51 L850.361,1975.84 L847.159,1980.01 L845.52,1981.7 L844.521,1984.03 L843.186,1985.43 L842.28,1987.91 L841.503,1988.69 L838.787,1990.36 L833.958,1994.23 L832.018,1995.58 L828.331,1997.72 L826.952,1998.69 L825.766,1999.79 L824.838,2001.21 L824.277,2002.85 L824.082,2004.63 L824.167,2006.41 L824.812,2008.71 L825.63,2010.09 L826.233,2010.49 L827.284,2011.26 L828.458,2012.04 L830.049,2011.79 L832.314,2010.71 L834.448,2009.83 L837.118,2010.12 L839.323,2009.38 L841.241,2008.81 L842.879,2008.09 L844.409,2007.13 L847.354,2005.07 L848.627,2003.74 L849.726,2002.34 L851.228,1999.24 L852.081,1996.08 L852.356,1994.4 L852.785,1993.67 L853.159,1992.33 L853.496,1990.09 L854.102,1987.26 L854.993,1984.37 L855.362,1983.88 L855.61,1983.86 L855.998,1984.19 L856.234,1984.58 L855.798,1985.97 L855.464,1989.11 L855.154,1992.43 L855.609,1995.24 L856.465,1998.32 L857.411,2002.24 L859.681,2007.19 L861.547,2011.31 L864.086,2016.32 L867.469,2020.95 L869.924,2023.52 L873.607,2025.96 L876.441,2030.02 L879.77,2033.75 L880.731,2036.38 L882.249,2038.45 L882.711,2041.02 L882.805,2042.51 L882.769,2044.73 L882.662,2049.97 L882.744,2054.11 L882.241,2055.83 L881.196,2057.91 L879.437,2060.18 L877.181,2062.69 L874.629,2064.59 L871.182,2066.51 L866.664,2067.99 L864.909,2069.22 L863.672,2069.63 L862.429,2069.65 L860.268,2068.71 L859.161,2068.11 L858.368,2068.06 L856.247,2068.52 L853.941,2069.25 L851.593,2070.95 L849.461,2072.14 L846.458,2073.82 L844.811,2074.86 L842.433,2076.99 L840.141,2079.07 L837.997,2082.24 L835.202,2082.45 L832.612,2082.32 L830.792,2083.5 L828.137,2086.94 L826.108,2089.09 L824.302,2092.55 L823.918,2094.26 L822.336,2097.1 L820.634,2100.75 L819.992,2102.84 L819.263,2105.27 L818.375,2107.7 L816.718,2114.33 L816.275,2123.02 L816.918,2126.23 L817.794,2130.06 L818.592,2133.13 L819.411,2137.11 L820.781,2140.81 L823.742,2147.32 L827.231,2153.49 L828.715,2155.91 L830.82,2159.12 L833.104,2163.03 L836.731,2166.79 L842.554,2172.36 L846.21,2177.32 L850.32,2184.17 L852.805,2187.52 L853.222,2188.02 L858.698,2195.46 L863.554,2200.21 L873.447,2209.42 L880.264,2214.74 L898.059,2226.97 L901.229,2226.42 L903.641,2226.43 L904.647,2226.97 L905.053,2228.08 L905.126,2229.61 L909.386,2232.48 L913.199,2234.55 L914.578,2235.89 L915.942,2235.51 L918.159,2235.98 L919.325,2237.14 L919.26,2239.91 L921.529,2241.14 L936.476,2247.9 L950.624,2255.68 L966.256,2263.66 L966.106,2265.4 L966.927,2266.15 L967.976,2266.18 L971.035,2263.74 L972.399,2264.12 L972.243,2266.75 L978.492,2270.36 L980.853,2271.55 L983.081,2272.05 L985.165,2272.24 L987.39,2267.58 L984.798,2266.24 L985.695,2264.97 L992.105,2267.76 L991.516,2268.99 L989.37,2268.16 L987.212,2273.01 L987.427,2273.15 L991.426,2275.87 L997.422,2278.17 L999.23,2274.03 L997.644,2273.41 L997.507,2272.93 L997.774,2272.45 L1000.24,2273.48 L1002.84,2274.24 L1002.73,2274.92 L1002.42,2275.24 L1000.94,2274.75 L1000.3,2274.82 L999.962,2275.85 L1001.44,2277.88 L1003.12,2279.48 L1008.28,2281.86 L1009.63,2281.62 L1010.73,2280.91 L1011.72,2281.15 L1011.95,2280.69 L1010.48,2280.03 L1010.44,2279.61 L1011.15,2278.71 L1012.52,2279.65 L1014.89,2280.43 L1015.43,2280.79 L1015.71,2281.21 L1015.38,2281.62 L1014.88,2281.76 L1013.63,2281.36 L1012.06,2284 L1013.43,2284.7 L1018.27,2287.68 L1024.84,2290.47 L1029.57,2292.47 L1041.43,2297.31 L1070.69,2305.03 L1078.61,2306.44 L1086.34,2308.34 L1115.13,2309.14 L1128.28,2309.46 L1133.28,2309.4 L1134.87,2309.51 L1136.14,2310.16 L1139.5,2310.5 L1153.16,2310.85 L1160.06,2310.43 L1165.26,2310.29 L1169.58,2309.71 L1178.1,2309.32 L1183,2308.71 L1190.21,2307.47 L1192.33,2306.42 L1195.85,2304.78 L1199.12,2304.56 L1201.16,2303.39 L1205.37,2302.9 L1207.33,2302.23 L1209.61,2302.1 L1212.4,2301.14 L1218.84,2298.95 L1220.59,2299.08 L1227.05,2297.25 L1229.07,2295.78 L1231.71,2295.02 L1234.55,2292.83 L1241.68,2286.07 L1247.65,2281.38 L1250,2279.98 L1250.79,2278.71 L1250.88,2278.57 L1252.26,2277.09 L1251.62,2275.95 L1251.52,2274.48 L1252.43,2273.14 L1253.62,2272.1 L1255.13,2271.63 L1256.14,2271.64 L1265.23,2277.42 L1273.86,2282.57 L1274.19,2282.77 L1274.42,2282.62 L1275.99,2283.61 L1283.23,2287.54 L1285.17,2288.93 L1287.6,2290.36 L1290.99,2292.69 L1293.98,2294.74 L1298.07,2297.55 L1298.4,2297.16 L1307.01,2302.47 L1317.61,2310.69 L1323.57,2315.07" vector-effect="none" fill-rule="evenodd"/>
   <path d="M3951.87,840.769 L3953.94,841.262 L3954.93,842.046 L3955.44,841.613 L3956.59,839.572 L3960.02,839.143 L3961.21,838.889 L3962.24,838.699 L3964.86,838.737 L3966.39,839.208 L3968.48,839.029 L3970.26,839.856 L3969.9,840.928 L3969.37,841.683 L3966.25,840.082 L3964.96,841.391 L3962.74,841.461 L3961.98,842.822 L3960.34,842.777 L3958.75,844.283 L3957.66,844.312 L3956.71,845.209 L3954.75,844.932 L3953.4,844.869 L3952.16,845.561 L3951.2,846.026 L3952.52,847.143 L3953.28,848.722 L3952.09,848.393 L3949.86,846.857 L3947.36,846.957 L3948.15,848.493 L3947.71,848.955 L3945.22,847.39 L3944.05,848.392 L3942.06,850.01 L3939.6,849.287 L3938.12,848.328 L3937.31,848.513 L3937.48,848.889 L3938.39,850.277 L3938.39,851.257 L3937.3,851.279 L3936.92,852.282 L3937.51,853.724 L3938.06,854.497 L3936.43,854.055 L3936.03,854.833 L3936.5,856.171 L3937.49,856.714 L3939.6,857.234 L3941.76,857.968 L3940.35,860.944 L3937.01,863.34 L3934.06,863.243 L3932.75,861.712 L3929.25,861.96 L3927.75,862.798 L3926.07,862.909 L3924.54,864.594 L3923.41,864.689 L3921.15,866.451 L3920,866.003 L3917.79,867.849 L3915.85,867.862 L3915.28,869.845 L3912.68,870.251 L3911.85,870.898 L3911.16,871.946 L3910.37,875.557 L3908.67,877.675 L3907.45,878.027 L3907.36,878.964 L3906.83,879.413 L3904.32,878.64 L3902.5,878.472 L3902.21,879.907 L3900.37,879.776 L3899.53,881.23 L3899.07,882.232 L3898.45,883.244 L3899.16,884.452 L3900.54,885.49 L3901.4,886.837 L3902.88,887.704 L3903.86,888.155 L3903.65,889.081 L3901.91,889.331 L3900.9,889.381 L3900.53,890.681 L3899.99,891.492 L3899.88,892.929 L3898.47,893.313 L3896.71,891.745 L3895.79,892.295 L3895.18,892.056 L3894.08,892.712 L3893.39,893.223 L3893.39,894.194 L3894.11,895.485 L3894.91,895.145 L3895.44,895.224 L3895.12,897.515 L3894.31,897.549 L3893.67,896.47 L3892.75,895.391 L3891.19,895.393 L3888.98,894.864 L3887.04,896.428 L3886.08,898.42 L3885.18,899.954 L3885.9,901.157 L3886.12,903.827 L3888.29,903.626 L3889.85,905.383 L3889.42,907.206 L3888.93,907.301 L3887.91,906.733 L3886.7,907.745 L3885.79,910.541 L3888.5,911.606 L3891.07,911.737 L3893.35,912.858 L3899.1,912.585 L3901.22,916.16 L3903.3,915.984 L3906.47,919.778 L3912.58,919.682 L3913.65,920.581 L3915.55,920.421 L3918.19,921.648 L3919.1,923.257 L3919.62,924.599 L3923.15,925.48 L3925.28,925.486 L3927.18,924.999 L3930.61,925.492 L3930.5,927.218 L3929.71,928.888 L3929.16,930.156 L3928.15,930.848 L3922.61,928.539 L3922.12,930.069 L3922.94,932.232 L3925.36,933.865 L3927.28,933.09 L3927.84,933.57 L3928.95,933.222 L3933.16,933.837 L3933.69,934.709 L3934.17,935.531 L3934.57,936.903 L3931.52,938.449 L3929.87,938.228 L3928.83,937.249 L3927.88,937.4 L3926.2,937.051 L3926.76,939.078 L3927.49,940.218 L3926.42,942.76 L3924.7,943.787 L3924.71,945.768 L3930.21,945.794 L3931.24,946.923 L3932.06,949.112 L3934.24,949.901 L3936.41,947.226 L3939.84,944.702 L3945.84,943.072 L3948.52,943.387 L3950.89,944.385 L3953.52,944.382 L3958.36,943.438 L3959.4,944.201 L3958.72,944.778 L3956.47,946.081 L3954.67,946.673 L3953.43,946.818 L3952.22,946.221 L3950.74,946.424 L3947.65,947.224 L3946.75,948.47 L3947.48,949.139 L3948.38,949.283 L3952.07,950.499 L3956.68,951.179 L3957.95,953.691 L3957.63,954.387 L3955.55,955.985 L3952.91,958.085 L3947.84,962.959 L3944.17,964.125 L3937.72,962.416 L3936.13,962.35 L3934.68,964.441 L3934.9,965.926 L3934.73,968.193 L3935.2,969.364 L3936.31,970.459 L3933.99,972.338 L3932.59,975.538 L3927.12,978.375 L3921.49,978.455 L3919.79,980.312 L3918.31,982.306 L3916.88,983.993 L3914.47,987.303 L3910.92,987.849 L3909.21,990.992 L3912.47,992.24 L3912.46,992.839 L3908.97,998.727 L3905.38,1000.19 L3903.18,1000.25 L3903.24,1001.9 L3905.03,1005.85 L3904.35,1008.39 L3902.64,1009.78 L3900.4,1010.46 L3897.53,1011.77 L3892.89,1011.65 L3892.92,1014.14 L3891.67,1015.34 L3892.55,1017.96 L3898.88,1016.45 L3900.38,1017.41 L3900.21,1019.5 L3898.87,1020.63 L3897,1021.76 L3896.11,1024.23 L3896.63,1026.18 L3895.99,1029.58 L3891.41,1028.45 L3887.56,1026.54 L3887.2,1024.43 L3887.3,1022.59 L3885.15,1020.35 L3884.4,1020.03 L3883.55,1020.71 L3883.9,1022.15 L3883.86,1023.43 L3883.41,1023.46 L3882.19,1020.99 L3882.06,1022.02 L3881.73,1022.33 L3882.16,1023.25 L3882.01,1024.14 L3880.38,1024.36 L3879.72,1022.26 L3878.27,1022.47 L3878.61,1020.39 L3874.39,1016.07 L3869.88,1015.54 L3864.57,1016.39 L3863.48,1016.83 L3860.94,1019.57 L3859.45,1019.21 L3856.37,1016.36 L3852.25,1016.19 L3848.46,1017.09 L3842.4,1019.21 L3839.34,1017.95 L3836.64,1017.79 L3832.79,1018.53 L3829.34,1019.94 L3824.59,1022.42 L3817.38,1024 L3811.29,1027.02 L3801.49,1031.37 L3794.52,1034.42 L3790.53,1036.19 L3773.86,1040.25 L3759.27,1041.81 L3747.62,1042.56 L3745.25,1043.08 L3743.18,1044 L3738.96,1046.25 L3735.77,1047.62 L3732.29,1048.79 L3721.3,1051.2 L3715.94,1052.06 L3710.91,1053.39 L3703.16,1055.22 L3698.14,1055 L3691.53,1052.65 L3685.89,1052.12 L3680.18,1052.02 L3677.17,1050.53 L3673.04,1050.88 L3665.11,1053.17 L3663.53,1055.1 L3660.32,1055.14 L3656.67,1057.18 L3651.36,1060.05 L3648.56,1063.35 L3646.61,1066.75 L3637.85,1072.09 L3625.78,1080.46 L3618.63,1084.74 L3619.18,1087.48 L3618.75,1089 L3613.84,1095.46 L3613.27,1098.72 L3611.59,1099.22 L3608.24,1102.25 L3603.73,1105.28 L3602.1,1104.19 L3599.95,1104.02 L3597.68,1105.81 L3592.89,1106.06 L3581.27,1111.45 L3562.62,1122.43 L3554.14,1125.24 L3551.21,1123.4 L3550.66,1121.87 L3550.52,1121.07 L3549.46,1120.33 L3548.19,1121.37 L3547.54,1120.8 L3547.92,1119.08 L3547.19,1117.47 L3549.66,1116.34 L3552.56,1115.98 L3554.32,1116.98 L3555.82,1117.11 L3554.61,1115.09 L3552.88,1114.2 L3553.26,1113.6 L3554.7,1113.86 L3555.55,1113.2 L3555.53,1111.81 L3556.79,1111.13 L3556.91,1109.71 L3557.99,1108.34 L3560.32,1108.47 L3561.81,1106.27 L3559.07,1104.68 L3558.89,1102.96 L3560.13,1101.07 L3561.49,1099.67 L3566.34,1095.58 L3567.82,1091.36 L3574.23,1085.89 L3578.6,1082.9 L3586.47,1072.36 L3586.83,1068.03 L3586.67,1062.92 L3584.87,1056.53 L3584.34,1050.88 L3584.76,1046.66 L3585.5,1043.31 L3587.59,1037.85 L3590.84,1028.75 L3593.5,1020.35 L3595.06,1011.38 L3595.02,1006.06 L3594.15,1000.81 L3590.1,997.499 L3588.75,996.758 L3587.61,995.586 L3587.14,995.221 L3584.38,993.345 L3584.73,991.795 L3586.48,986.369 L3587.07,980.417 L3588.87,979.768 L3590.76,976.264 L3596.78,967.511 L3604.38,965.107 L3605.43,964.949 L3609.43,964.349 L3615.79,963.393 L3635.15,958.498 L3648.61,955.627 L3657.6,957.039 L3668.79,951.858 L3668.9,948.454 L3673.47,946.151 L3679.32,944.396 L3683.33,945.943 L3689.61,945.436 L3706.65,940.685 L3725.44,930.402 L3731.16,927.189 L3732.75,923.061 L3733.81,918.404 L3738.61,909.349 L3744.87,899.226 L3745.54,892.532 L3745.69,885.507 L3742.24,881.988 L3742.2,879.616 L3741.33,878.363 L3739.05,877.111 L3737.59,874.97 L3735.93,873.29 L3740.29,871.316 L3742.31,868.596 L3743.13,867.202 L3743.15,865.874 L3740.29,859.796 L3738.13,853.488 L3745.72,855.152 L3749.32,853.726 L3752.73,850.868 L3752.73,846.344 L3753.53,845.216 L3758.88,843.913 L3762.64,845.395 L3766.19,848.486 L3767.48,855.778 L3767.41,861.323 L3767.46,862.911 L3769.02,864.09 L3772.28,864.267 L3773.89,863.519 L3779.1,861.101 L3784.5,859.694 L3791.65,861.444 L3797.75,860.497 L3803.62,857.167 L3810.43,850.35 L3813.24,848.099 L3811.63,845.63 L3811.88,843.044 L3814.62,843.724 L3818.87,842.207 L3822.57,841.684 L3824.29,842.972 L3825.37,844.714 L3829.58,848.676 L3831.67,846.842 L3832.85,843.406 L3835.66,843.787 L3837.69,841.966 L3840.07,840.542 L3844.43,841.906 L3846.57,844.423 L3846.33,848.582 L3849.96,847.68 L3858.44,846.499 L3864.3,845.838 L3865.5,848.953 L3870.02,857.284 L3871.18,856.083 L3872.19,855.624 L3872.71,855.549 L3873.48,854.589 L3873.62,853.826 L3874.58,853.605 L3875.61,853.713 L3876.51,853.449 L3878.41,851.743 L3880.95,850.51 L3882.17,849.629 L3885.26,848.867 L3887.7,848.256 L3889.49,848.076 L3891.6,848.094 L3892.56,847.744 L3894.21,845.978 L3895.84,844.572 L3896.97,843.267 L3898.57,842.478 L3899.41,841.18 L3899.93,840.502 L3902.12,840.053 L3902.63,840.707 L3902.62,841.468 L3903.91,841.774 L3904.3,842.072 L3904.68,842.826 L3905.69,843.473 L3907.43,845.874 L3908.29,845.856 L3908.73,845.847 L3909.48,845.829 L3910.68,846.165 L3912.15,846.813 L3912.06,847.221 L3916.34,847.874 L3919.78,848.468 L3924,849.306 L3927.28,849.174 L3931.52,848.665 L3932.67,847.38 L3934,845.546 L3936.35,844.793 L3936.93,845.408 L3936.82,846.381 L3937.18,846.519 L3937.54,845.44 L3938.27,844.396 L3939.51,843.997 L3943.01,843.916 L3943.5,843.195 L3944.29,842.922 L3944.92,842.291 L3945.45,842.516 L3945.75,841.541 L3946.27,840.984 L3947.27,841.229 L3949.16,841.804 L3950.64,841.598 L3951.87,840.769" vector-effect="none" fill-rule="evenodd"/>
   <path d="M3032.22,1236.24 L3036.66,1238.18 L3039.38,1238.78 L3043.55,1235.22 L3046.54,1231.94 L3048.79,1228.83 L3052.67,1224.44 L3055.49,1223.08 L3058.35,1222.38 L3062.03,1223.08 L3067.95,1225.63 L3070.84,1222.94 L3073.39,1223.07 L3074.56,1222.21 L3075.62,1223.68 L3076.97,1222.48 L3076.2,1226.02 L3077.63,1226.24 L3077.89,1228.19 L3075.71,1233.48 L3075.4,1236.12 L3077.1,1238.12 L3076.4,1242.07 L3078.26,1246.15 L3077.49,1251.91 L3077.98,1259.45 L3074.85,1266.63 L3066.2,1271.96 L3043.25,1277.59 L3036.57,1279.87 L3029.96,1285.09 L3026.1,1291.4 L3025.18,1299.11 L3025.36,1301.15 L3027.15,1302.47 L3028.05,1306.32 L3027.75,1309.88 L3026.07,1312.88 L3014.26,1319.87 L3004.03,1321.99 L2993.77,1328.24 L2989.63,1324.95 L2990.69,1320.33 L2994.28,1317.04 L2996.45,1310.76 L2998.84,1307.21 L2999.43,1302.77 L2997.58,1298 L2995.86,1293.58 L2989.9,1289.14 L2985.64,1284.68 L2980.21,1281.11 L2973.16,1277.55 L2966.97,1278.64 L2965.24,1276.52 L2968.3,1271.23 L2973.16,1266.81 L2976.52,1262.44 L2977.26,1261.47 L2972.89,1252.83 L2972.48,1249.53 L2970.95,1247.22 L2969.81,1238.66 L2973.43,1232.14 L2979.19,1225.55 L2980.18,1221.72 L2983.76,1220.13 L2985.29,1221.49 L2989.63,1222.14 L2992.38,1225.25 L2992.23,1227.75 L2997.37,1230.74 L3005.65,1230.89 L3017.01,1234.34 L3026.69,1234.65 L3032.22,1236.24" vector-effect="none" fill-rule="evenodd"/>
   <path d="M3073.52,1689.08 L3074.8,1687.09 L3074.14,1684.52 L3073.17,1682.04 L3072.9,1679.98 L3073.1,1677.63 L3073.02,1675.85 L3073.31,1674.22 L3072.92,1672.04 L3072.2,1670.57 L3072.18,1668.33 L3072.29,1666.89 L3072.88,1664.3 L3073.71,1663.11 L3074.37,1663.05 L3074.03,1662.15 L3074.45,1661.12 L3075.02,1660.5 L3075.88,1660.24 L3076.21,1658.44 L3077.11,1657.59 L3077.92,1655.85 L3079.11,1652.18 L3081,1650.59 L3082.82,1647.76 L3083.49,1645.41 L3084.47,1644.66 L3085.11,1643.07 L3086.51,1639.47 L3087.91,1637.89 L3089.12,1635.52 L3089.89,1635.01 L3090.36,1633.08 L3091.89,1632.07 L3093.07,1629.85 L3094.31,1626.72 L3095.87,1625.2 L3096.88,1623.47 L3098.45,1621.63 L3099.86,1620.26 L3101.3,1619.68 L3102.11,1618.31 L3103.46,1616.43 L3105.54,1615.3 L3107.53,1613.64 L3109.72,1612.27 L3110.68,1611.8 L3111.27,1610.82 L3112.3,1610.13 L3114.12,1609.59 L3115.86,1608.58 L3117.91,1607.6 L3122.68,1606.1 L3124.46,1605.36 L3125.81,1605.23 L3126.46,1604.4 L3125.63,1603.89 L3126.14,1602.88 L3128.01,1602.88 L3128.72,1604.44 L3128.26,1605.94 L3127.81,1607.33 L3127.11,1608.16 L3127.37,1609.8 L3128.44,1612.09 L3128.12,1613.68 L3128.53,1617.24 L3127.66,1618.7 L3125.54,1621.24 L3124.51,1624.33 L3122.18,1626.94 L3118.76,1629.9 L3116.95,1632.71 L3114.42,1634.6 L3112.97,1637.04 L3112.66,1638.66 L3112.27,1641.41 L3112.04,1643.33 L3111.07,1645.12 L3110.6,1647.03 L3110.09,1648.39 L3109.07,1650.31 L3108.51,1652.06 L3107.6,1652.49 L3107.21,1653.8 L3106.01,1654.27 L3105.18,1658.98 L3105.05,1662.37 L3103.88,1666.13 L3103.42,1667.61 L3102.94,1668.17 L3102.21,1672.49 L3101.05,1676.58 L3101.06,1679.47 L3100.68,1683.3 L3100.63,1687.79 L3100.44,1690.51 L3100.71,1692.07 L3101.95,1693.05 L3102.68,1694.12 L3102.81,1695.83 L3101.75,1697 L3101.57,1698.97 L3100.62,1700.78 L3095.13,1701.31 L3091.84,1698.12 L3087.39,1695.04 L3079.39,1691.32 L3078.2,1689.95 L3076.17,1690.63 L3073.41,1691.7 L3067.94,1696.08 L3066.48,1697.55 L3064.65,1698.14 L3062.9,1698.25 L3061.63,1698.39 L3060.91,1697.73 L3060.92,1696.93 L3062.47,1696.3 L3064.72,1694.87 L3069.49,1691.56 L3073.52,1689.08" vector-effect="none" fill-rule="evenodd"/>
   <path d="M3081.52,2130.8 L3079.63,2131.07 L3077.09,2130.39 L3074.84,2129.46 L3073.46,2130.55 L3071.62,2131.45 L3069.12,2132.34 L3067.91,2133.4 L3065.95,2134.2 L3065.21,2135.23 L3063.88,2134.92 L3062.22,2135.43 L3060.82,2135.86 L3060.14,2136.55 L3060.08,2137.87 L3059.65,2138.86 L3058.86,2139.5 L3057.58,2139.59 L3056.18,2139.21 L3055.78,2138.38 L3057.17,2136.6 L3060.03,2134.34 L3062.55,2133.2 L3066.02,2132.03 L3068.31,2131.16 L3069.87,2129.91 L3072.88,2128.5 L3075.73,2125.77 L3077.75,2122.86 L3080.54,2116.46 L3081.91,2111.55 L3082.18,2107.17 L3082.02,2105.55 L3081.4,2103.97 L3083.03,2102.98 L3083.78,2102.02 L3083.53,2100.55 L3086.1,2097.12 L3088.3,2095.37 L3089.23,2095.51 L3090.1,2096.21 L3091.14,2095.85 L3092.67,2095.47 L3094.44,2094.81 L3094.85,2095.9 L3096.25,2096.05 L3098.77,2097.82 L3100.07,2098.09 L3102.76,2099.91 L3105.15,2102.03 L3106.78,2102.59 L3109.97,2102.11 L3112.07,2102.43 L3113.72,2101.16 L3115.26,2101.67 L3116.02,2103.91 L3115.44,2105.27 L3113.57,2105.46 L3114.03,2109.1 L3113.68,2110.6 L3114,2111.61 L3115.21,2113.03 L3117.82,2113.31 L3121.34,2113.84 L3125.13,2115.28 L3127.32,2116.59 L3129.05,2116.69 L3130.48,2117.35 L3135.82,2117.13 L3141.05,2115.49 L3144.17,2113.06 L3148.07,2109.26 L3149.77,2108.7 L3151.37,2108.74 L3153.42,2107.87 L3155.58,2107.71 L3155.9,2106.98 L3157.92,2107.36 L3160.08,2108.65 L3163.82,2109.59 L3166.02,2110.89 L3167.67,2111.09 L3168.5,2110.38 L3169.17,2110.39 L3169.97,2109.6 L3171.23,2109.84 L3172.23,2109.6 L3173.28,2109.62 L3174.73,2109.15 L3179.59,2108.72 L3180.81,2109.62 L3180.93,2110.6 L3181.86,2111.17 L3181.71,2111.44 L3181.14,2111.71 L3180.9,2112.24 L3178.99,2112.5 L3177.21,2112.81 L3175.08,2113.45 L3174.54,2114.33 L3174.41,2116.07 L3173.7,2116.88 L3171.48,2117.94 L3169.86,2119.55 L3168.71,2119.77 L3167.53,2119.71 L3165.34,2118.67 L3162.54,2119.3 L3161.39,2120.53 L3158.75,2121.18 L3155.6,2119.61 L3153.78,2120.04 L3151.26,2118.83 L3148.55,2120.41 L3145.25,2119.82 L3143.72,2120.15 L3141.47,2119.3 L3138.19,2118.9 L3133.79,2119.89 L3131.97,2120.61 L3128.15,2121.02 L3124.43,2119.16 L3119.59,2118.46 L3117.49,2119.75 L3116.84,2121.72 L3117,2122.71 L3116.53,2123.29 L3115.18,2123.74 L3113.74,2124.48 L3108.83,2126.2 L3101.87,2128.39 L3091.47,2130.19 L3086.41,2131.39 L3081.52,2130.8" vector-effect="none" fill-rule="evenodd"/>
   <path d="M1141.2,2526.08 L1140.09,2532.29 L1143,2535 L1145.93,2539.24 L1145.7,2540.1 L1144.83,2543.38 L1141.7,2546.42 L1139.17,2546.23 L1137.31,2545.15 L1134.17,2543.31 L1123.58,2541.55 L1115.64,2540.37 L1102.41,2537.15 L1090.07,2532.17 L1088.3,2530.88 L1083.27,2529.84 L1081.48,2525.53 L1081.31,2522.31 L1084.61,2516.91 L1087.62,2513.12 L1090.83,2509.32 L1093.32,2505.13 L1095.57,2502.71 L1102.34,2500.99 L1110.54,2500.32 L1116.84,2500.79 L1124.7,2502.46 L1130.86,2505.45 L1136.21,2509.4 L1139.38,2514.08 L1142.18,2520.33 L1141.2,2526.08" vector-effect="none" fill-rule="evenodd"/>
   <path d="M2137.94,1007.67 L2137.43,1009.22 L2137.31,1010.65 L2137.38,1012.09 L2137.58,1013.6 L2137.27,1014.3 L2136.09,1014.57 L2135.04,1013.92 L2133.79,1012.89 L2132.75,1011.88 L2131.44,1010.81 L2131.05,1009.92 L2130.93,1009.63 L2130.87,1008.46 L2130.53,1007.32 L2130.47,1006.09 L2129.57,1005.19 L2128.31,1004.8 L2126.76,1004.78 L2125.19,1005.16 L2123.41,1005.36 L2122.06,1005.09 L2120.5,1004.37 L2118.31,1004.47 L2116.87,1004.41 L2115.75,1004 L2114.18,1004.35 L2112.45,1004.21 L2111.21,1004.86 L2110.43,1005.09 L2109.47,1005.48 L2109.04,1005.48 L2108.88,1005.48 L2108.32,1005.24 L2107.72,1005.31 L2107.19,1005.07 L2106.79,1004.53 L2106.49,1003.74 L2105.85,1002.67 L2105.16,1002.29 L2104.25,1001.54 L2103.84,1000.91 L2103.1,1000.97 L2102.75,1000.2 L2102.58,999.969 L2102.45,999.383 L2102.5,998.786 L2102.37,998.162 L2102.54,997.558 L2102.89,997.13 L2102.78,996.49 L2102.75,995.965 L2103,995.407 L2103.74,995.292 L2104.61,995.364 L2105.13,995.642 L2105.56,995.628 L2106.06,995.227 L2106.79,994.926 L2107.63,994.906 L2108.54,995.228 L2109.37,995.179 L2109.79,994.692 L2110.35,994.424 L2111.3,994.562 L2112.19,994.603 L2112.53,994.75 L2112.99,994.441 L2113.53,994.669 L2114.18,994.795 L2115.11,995.151 L2116.24,995.904 L2117.13,995.968 L2116.91,995.483 L2117.31,994.945 L2118.19,995.06 L2119.86,995.491 L2121.01,994.716 L2122.06,994.574 L2123.16,994.052 L2124.01,994.69 L2125.07,995.407 L2125.75,996.256 L2126.48,996.34 L2127.37,996.692 L2127.72,997.185 L2127.77,997.318 L2127.92,997.753 L2128.97,997.868 L2130.32,997.542 L2131.09,996.452 L2131.03,994.595 L2131.77,994.485 L2132.86,994.589 L2133.33,994.99 L2134,995.141 L2134.86,995.576 L2135.76,995.935 L2135.44,995.586 L2135.11,995.362 L2134.65,995.218 L2134.16,994.407 L2134.04,994.033 L2134.06,993.456 L2134.31,993.229 L2134.16,992.888 L2134.14,992.555 L2134.26,992.244 L2134.67,992.224 L2135.28,992.449 L2135.99,992.508 L2136.33,992.682 L2136.35,992.709 L2136.52,992.968 L2136.79,993.135 L2137.21,993.227 L2137.86,993.613 L2138.26,993.635 L2138.57,993.973 L2139.1,994.309 L2138.72,993.816 L2138.73,993.597 L2138.92,993.516 L2139.31,993.512 L2139.47,993.386 L2139.6,993.372 L2139.79,993.471 L2140.01,993.548 L2140.09,993.541 L2140.11,993.465 L2139.81,993.343 L2139.45,993.138 L2139.11,992.978 L2139.07,992.843 L2139.13,992.705 L2139.27,992.647 L2139.46,992.653 L2139.66,992.735 L2139.9,992.895 L2140.21,993.131 L2140.36,993.174 L2140.42,993.107 L2140.4,993.021 L2140.26,992.908 L2140.11,992.762 L2140.12,992.647 L2140.22,992.627 L2140.28,992.5 L2140.1,992.273 L2140.18,991.951 L2140.4,991.811 L2140.83,991.861 L2141.31,992.192 L2141.41,992.537 L2141.63,992.69 L2141.78,992.699 L2141.96,992.6 L2142.49,992.686 L2142.66,992.992 L2143.1,993.105 L2143.12,992.659 L2143.57,992.335 L2144.02,992.098 L2144.5,992.123 L2144.9,992.432 L2145.45,992.953 L2145.53,993.374 L2145.3,993.592 L2145.63,994.027 L2145.71,994.383 L2146.12,994.753 L2146.38,994.951 L2146.82,995.542 L2146.81,996.308 L2146.92,996.722 L2146.89,997.087 L2147.08,997.362 L2147,997.569 L2146.77,997.77 L2146.47,997.851 L2146.18,997.761 L2145.87,997.517 L2145.83,997.134 L2145.38,997.112 L2144.92,997.506 L2144.5,997.395 L2144.17,997.663 L2143.9,998.028 L2142.99,997.843 L2142.45,998.478 L2142.55,998.972 L2142.28,999.499 L2142.45,1000.01 L2142.34,1000.73 L2142.07,1001.53 L2141.7,1002.25 L2141.3,1003.41 L2140.59,1004.36 L2139.94,1004.95 L2139.09,1004.98 L2138.9,1005.36 L2139.05,1005.73 L2139.83,1005.82 L2139.6,1006.96 L2138.96,1007.15 L2137.94,1007.67" vector-effect="none" fill-rule="evenodd"/>
   <path d="M2920.41,1304.09 L2921.92,1301.59 L2923.93,1300.99 L2926.15,1301.34 L2926.86,1303.74 L2927.81,1308.78 L2927,1313.89 L2927.05,1319.45 L2923.88,1323.8 L2915.78,1334.25 L2910.14,1336.94 L2908.48,1336.34 L2906.82,1334.64 L2906.67,1332.64 L2907.63,1331.69 L2906.67,1329.84 L2907.38,1327.49 L2906.07,1324.79 L2906.42,1322.94 L2905.36,1321.24 L2906.47,1316.49 L2915.48,1305.94 L2920.41,1304.09" vector-effect="none" fill-rule="evenodd"/>
   <path d="M2353.16,947.012 L2357.88,945.812 L2363.92,951.491 L2364.41,959.242 L2361.45,960.496 L2361.5,964.536 L2360.35,966.338 L2359.14,971.632 L2358.15,974.689 L2356.78,971.577 L2355.3,958.476 L2355.46,955.038 L2352.5,949.524 L2353.16,947.012" vector-effect="none" fill-rule="evenodd"/>
   <path d="M3101.46,2166.44 L3102.8,2165.65 L3104.12,2165.41 L3105.09,2166.51 L3105.88,2168.54 L3106.12,2170.03 L3106.06,2171.31 L3105.33,2172.88 L3105.07,2174.71 L3104.67,2175.17 L3103.27,2175.34 L3100.44,2175 L3099.12,2174.2 L3098.26,2172.98 L3097.84,2171.14 L3098.18,2170.37 L3099.06,2169.84 L3099.3,2168.5 L3101.46,2166.44" vector-effect="none" fill-rule="evenodd"/>
  </g>
  <g stroke-width="1" stroke-linecap="square" stroke-linejoin="bevel" transform="matrix(1,0,0,1,0,0)" font-family="MS Shell Dlg 2" font-weight="400" stroke-opacity="1" fill="none" stroke="#000000" font-size="34.375" font-style="normal"/>
  <g stroke-width="1" stroke-linecap="square" stroke-linejoin="bevel" transform="matrix(11.811,0,0,11.811,0,0)" font-family="MS Shell Dlg 2" font-weight="400" stroke-opacity="1" fill="none" stroke="#000000" font-size="34.375" font-style="normal"/>
  <g stroke-width="1" stroke-linecap="square" stroke-linejoin="bevel" transform="matrix(11.811,0,0,11.811,0,0)" font-family="MS Shell Dlg 2" font-weight="400" stroke-opacity="1" fill="none" stroke="#000000" font-size="34.375" font-style="normal"/>
  <g stroke-width="1" stroke-linecap="square" stroke-linejoin="bevel" transform="matrix(11.811,0,0,11.811,0,0)" font-family="MS Shell Dlg 2" font-weight="400" stroke-opacity="1" fill="none" stroke="#000000" font-size="34.375" font-style="normal"/>
  <g stroke-width="1" stroke-linecap="square" stroke-linejoin="bevel" transform="matrix(1,0,0,1,0,0)" font-family="MS Shell Dlg 2" font-weight="400" stroke-opacity="1" fill="none" stroke="#000000" font-size="34.375" font-style="normal"/>
  <g stroke-width="1" stroke-linecap="square" stroke-linejoin="bevel" transform="matrix(11.811,0,0,11.811,0,0)" font-family="MS Shell Dlg 2" font-weight="400" stroke-opacity="1" fill="none" stroke="#000000" font-size="34.375" font-style="normal"/>
  <g stroke-width="1" stroke-linecap="square" stroke-linejoin="bevel" transform="matrix(11.811,0,0,11.811,0,0)" font-family="MS Shell Dlg 2" font-weight="400" stroke-opacity="1" fill="none" stroke="#000000" font-size="34.375" font-style="normal"/>
  <g stroke-width="1" stroke-linecap="square" stroke-linejoin="bevel" transform="matrix(11.811,0,0,11.811,0,0)" font-family="MS Shell Dlg 2" font-weight="400" stroke-opacity="1" fill="none" stroke="#000000" font-size="34.375" font-style="normal"/>
  <g stroke-width="1" stroke-linecap="square" stroke-linejoin="bevel" transform="matrix(11.811,0,0,11.811,0,0)" font-family="MS Shell Dlg 2" font-weight="400" stroke-opacity="1" fill="none" stroke="#000000" font-size="34.375" font-style="normal"/>
  <g stroke-width="1" stroke-linecap="square" stroke-linejoin="bevel" transform="matrix(1,0,0,1,0,0)" font-family="MS Shell Dlg 2" font-weight="400" stroke-opacity="1" fill="none" stroke="#000000" font-size="34.375" font-style="normal"/>
 </g>
</svg>
