<?xml version="1.0" encoding="UTF-8" standalone="no"?>
<svg
   version="1.1"
   x="0px"
   y="0px"
   viewBox="0 0 92.879997 57.395"
   xml:space="preserve"
   id="svg12"
   sodipodi:docname="Accessibility.svg"
   width="92.879997"
   height="57.395"
   inkscape:version="1.2.2 (732a01da63, 2022-12-09)"
   inkscape:export-filename="Ressources générées\accessibility.jpg"
   inkscape:export-xdpi="96"
   inkscape:export-ydpi="96"
   xmlns:inkscape="http://www.inkscape.org/namespaces/inkscape"
   xmlns:sodipodi="http://sodipodi.sourceforge.net/DTD/sodipodi-0.dtd"
   xmlns="http://www.w3.org/2000/svg"
   xmlns:svg="http://www.w3.org/2000/svg"><defs
     id="defs16" /><sodipodi:namedview
     id="namedview14"
     pagecolor="#ffffff"
     bordercolor="#000000"
     borderopacity="0.25"
     inkscape:showpageshadow="2"
     inkscape:pageopacity="0.0"
     inkscape:pagecheckerboard="0"
     inkscape:deskcolor="#d1d1d1"
     showgrid="false"
     inkscape:zoom="6.696"
     inkscape:cx="36.66368"
     inkscape:cy="15.681004"
     inkscape:window-width="1920"
     inkscape:window-height="1017"
     inkscape:window-x="-8"
     inkscape:window-y="-8"
     inkscape:window-maximized="1"
     inkscape:current-layer="g6" /><g
     id="g6"
     transform="translate(-3.57,-21.295)"><path
       d="m 96.44,47.83 v 0 -0.03 l -0.03,-0.34 c 0,-0.02 0,-0.03 -0.01,-0.05 L 96.38,47.29 C 96.26,46.55 95.97,45.84 95.53,45.23 95.4,45.04 95.25,44.87 95.08,44.7 92.48,41.63 89.28,38.61 85,35.2 84.28,34.63 83.55,34.07 82.81,33.51 L 82.47,33.26 C 81.71,32.7 80.95,32.15 80.19,31.62 l -0.1,-0.07 C 78.9,30.73 77.71,29.97 76.51,29.23 l 5.59,-5.59 c 0.54,-0.54 0.54,-1.41 0,-1.94 -0.54,-0.54 -1.4,-0.54 -1.94,0 L 25.51,76.35 c -0.54,0.54 -0.54,1.41 0,1.94 0.27,0.27 0.62,0.4 0.97,0.4 0.35,0 0.7,-0.13 0.97,-0.4 l 5.92,-5.92 c 0.93,0.34 1.86,0.66 2.79,0.94 l 0.1,0.03 c 0.55,0.16 1.1,0.31 1.73,0.48 l 0.17,0.05 c 0.63,0.16 1.26,0.31 1.9,0.45 3.02,0.64 6.1,0.96 9.19,0.96 1.24,0 2.49,-0.05 3.74,-0.16 1.43,-0.12 2.88,-0.31 4.31,-0.57 3.08,-0.55 6.29,-1.49 9.54,-2.8 1.75,-0.7 3.57,-1.53 5.39,-2.46 2.67,-1.36 5.34,-2.96 7.94,-4.75 1.66,-1.14 3.33,-2.39 4.95,-3.7 2.33,-1.89 4.64,-3.96 6.86,-6.16 0.97,-0.96 2.08,-2.08 3.11,-3.3 0.34,-0.35 0.62,-0.74 0.84,-1.17 0.23,-0.45 0.38,-0.93 0.46,-1.42 l 0.05,-0.51 c 0,-0.08 0.01,-0.16 0.01,-0.24 0,-0.07 -0.01,-0.14 -0.01,-0.21 z m -47.66,9.13 0.89,-0.89 c 4,-0.38 7.18,-3.56 7.56,-7.56 l 0.89,-0.89 6.06,-6.06 c 0.89,2.04 1.37,4.25 1.37,6.47 0,8.95 -7.28,16.24 -16.24,16.24 -2.22,0 -4.43,-0.47 -6.47,-1.37 z M 78.61,33.87 c 0.75,0.52 1.49,1.05 2.22,1.6 l 0.33,0.25 c 0.72,0.54 1.43,1.08 2.13,1.64 4.16,3.31 7.25,6.22 9.73,9.16 l 0.08,0.08 c 0.08,0.08 0.15,0.16 0.21,0.24 0.18,0.25 0.3,0.54 0.36,0.84 l 0.02,0.14 0.01,0.07 v 0.03 0 l -0.04,0.51 c -0.04,0.18 -0.1,0.35 -0.18,0.52 -0.1,0.19 -0.22,0.37 -0.37,0.52 l -0.08,0.08 c -0.87,1.03 -1.82,2.01 -2.98,3.16 -2.15,2.14 -4.39,4.15 -6.65,5.97 -1.57,1.27 -3.18,2.47 -4.78,3.57 -2.5,1.72 -5.07,3.26 -7.63,4.57 -1.75,0.89 -3.49,1.69 -5.16,2.36 -3.08,1.24 -6.1,2.13 -9,2.64 -1.35,0.24 -2.71,0.42 -4.06,0.53 -4.08,0.34 -8.16,0.09 -12.13,-0.76 -0.6,-0.13 -1.2,-0.27 -1.79,-0.42 L 38.62,71.11 C 38.1,70.97 37.58,70.83 37.06,70.68 H 37 l -0.04,-0.03 c -0.45,-0.14 -0.9,-0.28 -1.35,-0.43 l 5.24,-5.24 c 2.63,1.32 5.54,2.01 8.47,2.01 10.47,0 18.98,-8.52 18.98,-18.98 0,-2.93 -0.69,-5.84 -2.01,-8.47 l 8.31,-8.31 c 1.31,0.79 2.63,1.64 3.94,2.55"
       id="path2"
       style="fill:#232253;fill-opacity:1" /><path
       d="M 65.59,25.33 C 63.21,24.42 60.76,23.67 58.25,23.14 52.7,21.96 47.12,21.91 41.54,22.91 36.47,23.82 31.57,25.7 27,28.04 19.84,31.7 13.29,36.75 7.59,42.41 c -1.06,1.05 -2.1,2.12 -3.06,3.25 -1.28,1.51 -1.28,3.31 0,4.82 2.92,3.46 6.39,6.54 9.92,9.35 3.11,2.48 6.4,4.78 9.86,6.79 z"
       id="path4"
       style="fill:#232253;fill-opacity:1" /></g></svg>
