<svg width="28" height="22" viewBox="0 0 28 22" fill="currentColor" xmlns="http://www.w3.org/2000/svg">
<g id="_Icon/CoverLevels//Default">
<g id="Intersect">
<path d="M0 20.0868C0 21.0803 0.936654 21.8857 2.09208 21.8857H5.75321C6.90863 21.8857 7.84528 21.0803 7.84528 20.0868V16.7941C7.84528 15.2729 5.78587 14.4383 4.42147 15.4067L0.760332 18.0052C0.278836 18.3469 0 18.8557 0 19.3926V20.0868Z" />
<path d="M10.6977 10.9522C10.2162 11.2939 9.93736 11.8027 9.93736 12.3396V20.0868C9.93736 21.0803 10.874 21.8857 12.0294 21.8857H15.6906C16.846 21.8857 17.7826 21.0803 17.7826 20.0868V9.74111C17.7826 8.21986 15.7232 7.38535 14.3588 8.35373L10.6977 10.9522Z" />
<path d="M20.6351 3.8992C20.1536 4.24094 19.8747 4.74973 19.8747 5.28658V20.0868C19.8747 21.0803 20.8114 21.8857 21.9668 21.8857H25.6279C26.7833 21.8857 27.72 21.0803 27.72 20.0868V2.68811C27.72 1.16686 25.6606 0.332345 24.2962 1.30072L20.6351 3.8992Z" />
</g>
</g>
</svg>
