<svg width="24" height="24" viewBox="0 0 24 24" fill="currentColor" xmlns="http://www.w3.org/2000/svg">
<g id="Solid/Interface/Cross">
<path id="Union" d="M16.0658 8.99481C16.3586 8.70191 16.3586 8.22704 16.0658 7.93415C15.7729 7.64125 15.298 7.64125 15.0051 7.93415L11.9999 10.9393L8.99469 7.93415C8.7018 7.64125 8.22693 7.64125 7.93403 7.93415C7.64114 8.22704 7.64114 8.70191 7.93403 8.99481L10.9392 12L7.93403 15.0052C7.64113 15.2981 7.64113 15.773 7.93403 16.0659C8.22692 16.3588 8.70179 16.3588 8.99469 16.0659L11.9999 13.0607L15.0051 16.0659C15.298 16.3588 15.7729 16.3588 16.0658 16.0659C16.3587 15.773 16.3587 15.2981 16.0658 15.0052L13.0606 12L16.0658 8.99481Z" />
</g>
</svg>
