<svg width="24" height="25" viewBox="0 0 24 25" fill="currentColor" xmlns="http://www.w3.org/2000/svg">
<g id="Outline/Navigation/Current-location">
<g id="Icon">
<path d="M12 8.31689C9.92893 8.31689 8.25 9.99583 8.25 12.0669C8.25 14.138 9.92893 15.8169 12 15.8169C14.0711 15.8169 15.75 14.138 15.75 12.0669C15.75 9.99583 14.0711 8.31689 12 8.31689Z" fill="#232253"/>
<path fill-rule="evenodd" clip-rule="evenodd" d="M12 1.31689C12.4142 1.31689 12.75 1.65268 12.75 2.06689V3.34859C16.9842 3.70803 20.3589 7.08271 20.7183 11.3169H22C22.4142 11.3169 22.75 11.6527 22.75 12.0669C22.75 12.4811 22.4142 12.8169 22 12.8169H20.7183C20.3589 17.0511 16.9842 20.4258 12.75 20.7852V22.0669C12.75 22.4811 12.4142 22.8169 12 22.8169C11.5858 22.8169 11.25 22.4811 11.25 22.0669V20.7852C7.01581 20.4258 3.64113 17.0511 3.28169 12.8169H2C1.58579 12.8169 1.25 12.4811 1.25 12.0669C1.25 11.6527 1.58579 11.3169 2 11.3169H3.28169C3.64113 7.08271 7.01581 3.70803 11.25 3.34859V2.06689C11.25 1.65268 11.5858 1.31689 12 1.31689ZM4.75 12.0669C4.75 16.071 7.99594 19.3169 12 19.3169C16.0041 19.3169 19.25 16.071 19.25 12.0669C19.25 8.06283 16.0041 4.81689 12 4.81689C7.99594 4.81689 4.75 8.06283 4.75 12.0669Z"/>
</g>
</g>
</svg>
