<svg width="24" height="24" viewBox="0 0 24 24" fill="currentColor" xmlns="http://www.w3.org/2000/svg">
<g id="_icon/region" clip-path="url(#clip0_2195_5756)">
<path id="Vector 1" d="M4.5 14.1183L6.70051 17.1469C6.88866 17.4059 7.18942 17.5591 7.50952 17.5591H11.7516C11.9147 17.5591 12.0754 17.599 12.2195 17.6753L17.0321 20.223C17.6981 20.5755 18.5 20.0927 18.5 19.3392V19.0338V14.466C18.5 14.2408 18.576 14.0222 18.7158 13.8456L21.7842 9.96703C21.924 9.79041 22 9.57179 22 9.34658V6.57916C22 6.10363 21.6651 5.69387 21.1991 5.59918L18.3485 5.02002C18.283 5.00671 18.2163 5 18.1494 5H10.9656C10.8235 5 10.683 5.03029 10.5536 5.08884L7 6.69585L2.10062 9.14429C1.53304 9.42793 1.36973 10.1616 1.76341 10.6593L4.5 14.1183Z"/>
</g>
<defs>
<clipPath id="clip0_2195_5756">
<rect width="24" height="24" fill="white"/>
</clipPath>
</defs>
</svg>
