<svg width="34" height="41" viewBox="0 0 34 41" fill="currentColor" xmlns="http://www.w3.org/2000/svg">
<g id="Ellipse 25" filter="url(#filter0_d_2760_14094)">
<path d="M29.7489 15.6337C29.7489 22.4528 24.8906 27.6477 17.7077 34.845C17.3176 35.2359 16.6842 35.2359 16.294 34.845C9.11122 27.6477 4.25293 22.4528 4.25293 15.6337C4.25293 8.5932 9.96039 2.88574 17.0009 2.88574C24.0414 2.88574 29.7489 8.5932 29.7489 15.6337Z"/>
<path d="M28.7489 15.6337C28.7489 18.7797 27.6361 21.5874 25.5997 24.5283C23.547 27.4928 20.6027 30.5286 17.0009 34.1376C13.3991 30.5286 10.4548 27.4928 8.40207 24.5283C6.36572 21.5874 5.25293 18.7797 5.25293 15.6337C5.25293 9.14549 10.5127 3.88574 17.0009 3.88574C23.4891 3.88574 28.7489 9.14549 28.7489 15.6337Z" stroke="white" stroke-width="2"/>
</g>
<defs>
<filter id="filter0_d_2760_14094" x="0.25293" y="0.219075" width="33.4958" height="40.2524" filterUnits="userSpaceOnUse" color-interpolation-filters="sRGB">
<feFlood flood-opacity="0" result="BackgroundImageFix"/>
<feColorMatrix in="SourceAlpha" type="matrix" values="0 0 0 0 0 0 0 0 0 0 0 0 0 0 0 0 0 0 127 0" result="hardAlpha"/>
<feOffset dy="1.33333"/>
<feGaussianBlur stdDeviation="2"/>
<feComposite in2="hardAlpha" operator="out"/>
<feColorMatrix type="matrix" values="0 0 0 0 0.101961 0 0 0 0 0.101961 0 0 0 0 0.101961 0 0 0 0.2 0"/>
<feBlend mode="normal" in2="BackgroundImageFix" result="effect1_dropShadow_2760_14094"/>
<feBlend mode="normal" in="SourceGraphic" in2="effect1_dropShadow_2760_14094" result="shape"/>
</filter>
</defs>
</svg>
