<svg width="13" height="13" viewBox="6 3 16 17" fill="currentColor" xmlns="http://www.w3.org/2000/svg">
<g id="_Map/Item/Test">
<g id="Intersect">
<path fill-rule="evenodd" clip-rule="evenodd" d="M20.8072 9.22137C21.1977 8.83084 21.1977 8.19768 20.8072 7.80715L18.1928 5.1928C17.8023 4.80227 17.1691 4.80227 16.7786 5.1928L14.7071 7.26431C14.3166 7.65484 13.6834 7.65484 13.2929 7.26431L11.2214 5.19281C10.8308 4.80229 10.1977 4.80229 9.80715 5.19281L7.1928 7.80717C6.80227 8.1977 6.80227 8.83086 7.1928 9.22139L9.2643 11.2929C9.65482 11.6834 9.65482 12.3166 9.2643 12.7071L7.19288 14.7785C6.80235 15.169 6.80235 15.8022 7.19287 16.1927L9.80723 18.8071C10.1978 19.1976 10.8309 19.1976 11.2214 18.8071L13.2929 16.7357C13.6834 16.3451 14.3166 16.3451 14.7071 16.7357L16.7785 18.8071C17.169 19.1976 17.8022 19.1976 18.1927 18.8071L20.8071 16.1928C21.1976 15.8022 21.1976 15.1691 20.8071 14.7785L18.7357 12.7071C18.3451 12.3166 18.3451 11.6834 18.7357 11.2929L20.8072 9.22137Z" fill="#E67FA3"/>
</g>
</g>
</svg>
