<svg width="36" height="36" viewBox="0 0 36 36" fill="currentColor" xmlns="http://www.w3.org/2000/svg">
<g id="Group 79">
<g id="Icon">
<path d="M23.8871 6.88086C24.4569 7.1237 24.9089 7.73995 24.8966 8.25729L24.6826 20.9139C24.6535 22.1341 24.1539 23.1814 23.4047 23.9259C22.6555 24.6704 21.6051 25.1634 20.3848 25.1848L7.82707 25.3405C7.3097 25.3496 6.69636 24.8937 6.45712 24.3223C6.21788 23.7509 6.44335 23.2803 6.96072 23.2712L19.5184 23.1155C20.3196 23.1014 21.0947 22.7672 21.6777 22.1878C22.2607 21.6085 22.5998 20.8355 22.6189 20.0345L22.8329 7.37787C22.8452 6.86053 23.3172 6.63802 23.8871 6.88086Z"/>
<path d="M27.6588 10.407C28.2286 10.6497 28.6807 11.266 28.6684 11.7833L28.4841 23.2361C28.4472 24.7935 27.8077 26.1444 26.8363 27.1097C25.865 28.075 24.51 28.706 22.9524 28.7331L11.5988 28.8667C11.0814 28.8757 10.4681 28.4197 10.2289 27.8483C9.98971 27.2769 10.2152 26.8064 10.7326 26.7974L22.0863 26.6637C23.2246 26.6439 24.3042 26.1718 25.1093 25.3717C25.9145 24.5716 26.3935 23.495 26.4204 22.3569L26.6047 10.9041C26.617 10.3868 27.0889 10.1642 27.6588 10.407Z"/>
</g>
<rect id="Rectangle 66" x="0.90625" y="1.26099" width="19.1544" height="19.1544" rx="1.5" fill="white" stroke="#232253"/>
</g>
</svg>
