<?xml version="1.0" standalone="no"?>
<!DOCTYPE svg PUBLIC "-//W3C//DTD SVG 20010904//EN"
 "http://www.w3.org/TR/2001/REC-SVG-20010904/DTD/svg10.dtd">
<svg version="1.0" xmlns="http://www.w3.org/2000/svg"
 width="531.000000pt" height="456.000000pt" viewBox="0 0 531.000000 456.000000"
 preserveAspectRatio="xMidYMid meet" fill="currentColor">

<g transform="translate(0.000000,456.000000) scale(0.100000,-0.100000)"
 stroke="none">
<path d="M2348 4465 c-23 -19 -52 -43 -63 -54 -11 -10 -31 -25 -45 -32 -58
-32 -121 -85 -126 -106 -5 -16 -16 -24 -43 -29 -65 -11 -71 -15 -116 -77 -44
-59 -45 -63 -45 -135 0 -40 4 -81 9 -90 5 -10 14 -50 19 -90 13 -94 30 -120
84 -128 23 -4 54 -19 72 -34 27 -25 31 -35 34 -98 5 -80 -5 -105 -51 -128 -18
-9 -42 -25 -54 -37 -16 -14 -30 -18 -51 -14 -35 7 -40 3 -80 -57 -20 -31 -32
-62 -32 -83 0 -19 -6 -36 -14 -39 -8 -3 -17 -19 -20 -36 -12 -60 -127 -138
-203 -138 -13 0 -35 -11 -48 -24 -14 -14 -40 -37 -60 -52 l-35 -26 0 24 c0 42
-19 50 -56 22 l-33 -26 -33 38 c-39 44 -41 58 -11 62 12 2 42 26 68 53 45 48
46 51 29 70 -21 23 -33 24 -70 4 -53 -27 -124 -14 -124 24 0 10 -7 24 -16 32
-9 7 -23 29 -32 48 -16 33 -20 36 -54 33 -39 -4 -152 31 -179 54 -8 8 -29 14
-45 14 -22 0 -34 7 -47 30 -10 17 -24 30 -31 30 -7 0 -31 9 -54 20 -31 15 -48
33 -64 64 -16 34 -32 49 -75 70 -54 26 -107 34 -118 17 -3 -5 -41 -21 -85 -36
-73 -24 -82 -31 -105 -68 -15 -27 -36 -47 -56 -54 -25 -10 -30 -17 -26 -33 6
-24 -16 -50 -44 -50 -11 0 -24 -11 -31 -25 -9 -21 -8 -28 7 -45 18 -20 18 -21
-3 -43 -12 -13 -22 -29 -22 -36 0 -7 -8 -25 -19 -39 -10 -15 -21 -44 -25 -66
-4 -21 -14 -53 -23 -71 -15 -31 -15 -36 0 -59 10 -14 17 -41 17 -60 0 -24 8
-43 28 -63 15 -15 48 -68 71 -117 35 -73 41 -93 32 -108 -6 -10 -21 -47 -33
-83 -19 -61 -20 -68 -6 -98 39 -81 40 -84 30 -104 -13 -23 -15 -180 -3 -187 5
-3 11 -33 15 -67 6 -47 4 -66 -8 -84 -20 -31 -20 -87 0 -145 13 -37 13 -51 4
-81 -10 -31 -10 -45 5 -88 9 -29 15 -64 12 -79 -5 -25 42 -134 64 -148 5 -3 9
-25 9 -49 0 -24 5 -47 11 -50 7 -5 8 -25 4 -55 -6 -45 -4 -51 21 -72 84 -72
131 -119 167 -167 37 -51 39 -56 30 -95 -8 -38 -3 -77 17 -116 14 -29 180 -10
208 24 29 35 73 53 103 43 19 -7 42 -5 82 8 52 16 58 16 81 1 14 -9 29 -16 35
-16 20 0 181 155 181 175 0 25 90 97 162 130 42 19 81 35 87 35 17 0 29 32 49
132 11 53 28 107 37 122 17 25 17 29 0 69 -9 23 -21 51 -25 62 -5 11 -11 55
-14 98 -3 43 -13 91 -21 107 -22 43 -19 53 30 88 62 43 63 75 3 88 -55 12 -71
40 -63 110 5 40 2 55 -10 68 -15 15 -15 20 0 67 17 49 16 54 -1 105 -15 44
-16 59 -6 91 6 21 11 52 11 68 -1 100 3 139 16 151 20 20 30 18 86 -21 28 -19
59 -35 70 -35 10 0 26 -13 36 -30 9 -17 23 -30 29 -30 16 0 25 41 18 79 -4 19
-2 31 4 31 13 0 56 -52 92 -112 24 -38 41 -53 94 -78 36 -16 69 -30 74 -30 5
0 14 -10 21 -23 12 -23 75 -47 124 -47 13 0 32 -7 43 -15 26 -20 53 -19 104 6
62 30 172 59 224 59 24 0 60 7 79 15 20 8 57 15 82 15 33 0 57 7 83 25 20 14
46 25 58 25 11 0 34 6 50 14 62 31 184 48 353 48 92 0 182 -3 201 -7 29 -5 46
1 104 35 71 41 94 48 113 29 6 -6 39 -15 74 -20 118 -17 154 -25 197 -48 57
-29 145 -45 172 -31 31 17 25 25 -37 55 -32 15 -79 40 -105 57 -40 25 -54 29
-86 23 -38 -6 -40 -5 -123 80 -66 67 -86 95 -95 130 -7 27 -23 54 -41 69 -16
13 -63 59 -104 100 -47 47 -84 76 -97 76 -11 0 -24 5 -27 10 -3 6 -17 10 -30
10 -13 0 -42 16 -65 35 l-42 35 -133 0 -134 0 -78 79 c-86 86 -152 193 -158
254 -2 21 -9 45 -15 52 -20 24 -1 113 32 151 50 56 46 180 -8 285 -8 15 -11
40 -8 60 5 30 2 37 -19 48 -13 7 -39 33 -56 57 -17 25 -42 49 -56 56 -14 6
-25 19 -25 28 0 9 -16 33 -35 53 -27 27 -44 37 -68 37 -42 0 -53 9 -62 48 -9
43 -40 43 -97 -3z"/>
<path d="M1544 3512 c-6 -4 -14 -19 -18 -34 -6 -27 -5 -28 33 -28 45 0 66 22
50 52 -10 18 -45 24 -65 10z"/>
<path d="M5065 3129 c-66 -33 -131 -68 -144 -76 -13 -8 -54 -21 -90 -29 -36
-7 -88 -24 -116 -38 -27 -14 -58 -27 -67 -30 -14 -4 -18 -16 -18 -51 0 -57 16
-65 78 -37 51 23 101 37 174 47 32 4 68 20 110 49 70 47 139 76 181 76 16 0
41 7 57 15 26 13 30 21 30 55 0 43 -27 80 -57 80 -10 0 -72 -28 -138 -61z"/>
<path d="M1772 2578 c3 -27 41 -36 64 -17 21 17 -1 39 -38 39 -25 0 -29 -4
-26 -22z"/>
<path d="M4488 2128 c-17 -6 -25 -14 -21 -24 5 -15 -10 -18 -73 -14 -20 1 -33
-4 -37 -14 -10 -24 18 -37 75 -34 45 3 53 6 56 24 2 12 12 24 23 27 19 5 26
32 12 40 -5 2 -20 0 -35 -5z"/>
<path d="M3264 1070 c-12 -4 -39 -29 -60 -55 -69 -84 -109 -123 -129 -126 -15
-3 -21 -15 -27 -53 -9 -63 -27 -106 -44 -106 -8 0 -37 -22 -64 -49 l-50 -49
21 -54 c15 -35 24 -84 28 -144 6 -89 7 -94 46 -139 112 -135 256 -175 463
-131 82 18 105 28 124 55 7 10 30 26 51 36 20 9 37 23 37 29 0 7 19 20 43 30
57 25 87 54 87 86 0 14 7 36 16 49 21 29 14 100 -12 137 -22 31 -23 33 -55 98
-13 27 -36 57 -51 65 -39 23 -66 78 -61 126 4 39 3 41 -54 77 -75 47 -247 128
-270 127 -10 0 -27 -4 -39 -9z"/>
<path d="M1390 400 c-14 -11 -35 -20 -46 -20 -22 0 -34 -17 -34 -49 0 -13 -15
-20 -61 -30 -69 -16 -84 -35 -48 -62 24 -19 79 -25 93 -11 4 4 22 7 39 7 24 0
32 5 35 20 2 11 14 30 26 42 24 22 43 100 29 114 -4 4 -19 -1 -33 -11z"/>
<path d="M1225 390 c-10 -17 14 -40 42 -40 36 0 29 44 -9 48 -14 2 -29 -2 -33
-8z"/>
<path d="M985 340 c-37 -15 -86 -76 -91 -112 -5 -44 6 -54 72 -61 48 -5 54 -4
80 25 16 16 39 34 52 39 27 11 29 35 2 51 -11 7 -20 18 -20 24 0 27 -60 48
-95 34z"/>
<path d="M1230 125 c-26 -27 -22 -31 43 -37 31 -3 37 -1 37 15 0 20 -26 46
-46 47 -6 0 -21 -11 -34 -25z"/>
</g>
</svg>
