<svg width="40" height="35" viewBox="0 0 40 35" fill="currentColor" xmlns="http://www.w3.org/2000/svg">
<g id="_illuRegion">
<path id="Vector" d="M33.1036 30.9546C32.9331 30.9606 32.768 31.1308 32.6054 31.1233C32.4685 31.0717 32.3314 30.9114 32.169 31.0085C32.038 31.1317 31.8937 31.0641 31.7342 31.088C31.4868 31.3531 30.9929 31.2973 30.7477 31.0641C30.4632 31.0865 30.0988 31.1047 29.9667 30.8281C29.9049 30.3494 29.297 30.8006 29.0532 30.9223C28.8296 30.8862 28.6306 30.6692 28.423 30.8908C28.151 31.1825 28.0354 30.9874 27.8978 31.4575C27.3713 32.4948 26.5741 31.7724 25.6644 32.2249C25.2657 32.5429 24.9594 31.9814 25.0461 32.6094C24.8861 33.1464 24.1833 33.0207 23.9739 32.6989C23.7571 32.7896 23.4008 32.7641 23.2838 32.5531C23.0985 32.6158 23.1535 32.7956 22.8871 32.8709C23.0204 33.1925 22.5451 33.1661 22.3057 33.2133C22.1286 33.5639 22.666 33.6745 22.1983 34.1C22.097 34.1157 22.0555 34.0011 21.9711 34.0164C21.87 34.1563 21.3774 33.9861 21.2413 34.0355C21.0202 34.2739 20.7108 34.6192 20.3077 34.4262C19.982 33.481 18.424 34.047 18.0502 33.2379C17.8153 33.0974 17.9494 32.8421 17.5881 32.9055C17.2606 32.6094 16.9884 32.3074 16.6711 31.9858C16.4871 31.9047 16.2563 32.0758 16.0955 31.9226C15.8049 31.742 16.1937 31.6434 16.1624 31.4287C15.5993 31.3097 15.3482 31.4568 15.6466 30.8175C15.6721 30.6224 15.624 30.4629 15.609 30.2809C15.7639 30.1484 15.5996 29.9521 15.6309 29.7918C15.6851 29.6052 15.6899 29.2921 15.384 29.3251C15.1878 29.2651 14.9838 29.0816 14.7884 29.0045C14.797 28.4883 14.5532 27.9915 14.2886 27.5336C14.2492 26.9576 14.3754 26.2496 14.4871 25.7051C14.6319 25.4201 14.8275 25.4815 14.697 25.3432C14.6955 25.3255 14.6828 25.3106 14.7067 25.302C14.8942 25.2953 14.6723 25.1952 14.7158 25.109C14.8716 24.9687 14.8998 24.6972 15.0527 24.543C15.1253 24.3566 15.0545 24.4248 15.2237 24.3506C15.1797 24.2881 15.1973 24.0789 15.2115 24C15.1909 23.9785 15.0759 24.1104 15.1339 23.947C15.3031 23.7206 15.1571 23.6137 15.0026 23.4362C14.9774 23.0781 15.6754 23.0548 15.9018 22.8257C16.0611 22.4946 15.983 22.4534 16.4184 22.2683C16.1993 21.7139 17.2614 21.6119 16.5158 21.4985C16.3337 21.5222 16.5858 21.3679 16.1235 21.0448C16.0512 20.5992 16.3339 20.7651 15.7324 20.52C15.5535 20.3507 15.8085 20.1568 15.6795 20.0261C15.6912 19.8669 16.0008 19.7668 15.9466 19.5627C15.7685 19.5558 15.3525 19.1358 15.2456 19.2088C15.1675 19.2274 15.0594 19.1831 14.9782 19.1848C14.9329 19.1299 15.0158 19.0596 14.8807 19.0785C14.6497 19.2478 14.554 18.7815 14.3522 19.0596C14.209 19.0053 14.0588 19.0368 13.9148 19.0337C13.9181 18.9515 13.7792 18.8161 13.7135 18.9229C13.4387 19.2287 13.2123 18.4794 13.7013 18.5612C14.1858 18.1539 14.0634 17.484 14.2502 16.9496C14.3904 15.9118 14.5581 16.5439 13.781 15.9273C13.4723 15.2279 13.6163 15.7159 13.2471 15.5448C12.9169 15.0976 12.6034 16.0269 12.1339 15.6927C11.9917 15.6563 11.9489 15.8482 11.8265 15.8502C11.6937 15.6805 11.41 15.8041 11.2273 15.78C10.9728 15.6381 10.5924 15.655 10.309 15.7217C9.97233 15.1905 6.14662 12.2555 7.02779 12.1003C7.32907 11.9494 7.31482 11.4036 7.72321 11.4189C7.93034 11.4131 7.92245 11.2081 8.054 11.1266C8.35426 11.1837 8.36215 10.8012 8.22551 10.6554C7.74357 10.3035 8.5451 9.85141 7.79395 9.44675C7.81049 8.53348 8.53874 8.59487 9.30006 8.53193C9.62652 8.38988 9.23823 8.1255 9.48098 8.16428C9.8367 8.38611 9.95706 8.14544 10.3273 8.39608C10.6247 8.49803 10.6817 8.04948 10.9471 8.01536C11.3711 8.04904 11.952 7.42498 12.2497 7.58011C12.2314 7.34453 12.4718 7.18231 12.6446 7.03738C12.9515 6.58751 11.8433 6.25376 11.5242 6.51548C11.4046 6.9545 10.7609 6.36678 10.8247 6.11392C10.9779 5.79835 11.1868 5.95192 10.94 5.54571C10.8675 5.39945 10.7138 5.47989 10.7565 5.27645C10.7227 5.20221 10.5945 5.18714 10.5189 5.16033C10.0962 4.70469 10.7085 4.71865 10.8881 4.35565C11.1311 4.37227 11.0207 4.17149 11.1405 4.05493C11.2586 3.10177 11.9011 3.63298 12.3937 3.3338C12.4163 3.15429 12.7044 3.06587 12.8349 2.95972C13.5759 2.16125 14.2074 2.80481 14.3054 1.79559C14.6726 1.47625 15.6774 1.5609 15.0423 0.930417C14.8649 0.756452 13.738 -0.336317 14.44 0.103583C15.1128 1.041 15.5703 0.872798 16.3583 1.44899C16.6754 1.39935 17.0548 1.81509 17.3008 1.97554C16.941 1.44212 16.0927 1.28189 15.5474 0.914904C14.8983 0.0014194 18.7726 2.39838 19.0624 2.52469C19.71 3.1 20.6085 3.90356 21.0476 4.49638C21.0008 3.83619 22.099 5.45108 22.3548 5.52399C22.5586 5.76843 22.453 5.92932 22.4469 6.14295C22.627 7.30863 22.1896 7.09899 21.9031 7.90965C21.6856 8.34822 21.7064 9.09217 21.7034 9.59323C21.7141 9.74947 20.9652 10.5382 21.6097 9.99878C22.0258 10.1734 21.7906 9.23622 21.941 8.99754C22.4751 8.16849 22.8255 7.25168 24.0464 8.15874C24.6728 7.68028 27.28 9.95247 27.3978 10.5437C27.4879 10.5898 27.4683 10.8739 27.5525 10.6377C27.8146 9.84742 29.6319 11.4304 29.5158 11.9474C29.58 12.154 29.5543 12.0445 29.4415 11.9576C29.8917 12.4383 29.1286 12.9764 29.4746 13.4234C29.5255 13.7669 29.2138 14.1004 29.0031 14.3652C28.8721 14.7703 28.9993 14.7725 28.594 15.083C28.539 15.1231 28.4957 15.241 28.6008 15.2282C28.8647 15.0879 28.7642 15.4795 28.8008 15.5878C28.9281 15.6995 29.01 15.5506 28.8879 15.4666C28.9935 15.1748 29.6265 15.9712 29.08 16.0029C28.9008 15.5375 28.5507 16.1791 28.6324 16.3923C28.6102 16.4291 28.9484 16.5534 28.7739 16.5733C28.4876 16.5366 28.0784 16.6895 27.7736 16.7034C27.566 16.7172 27.6672 16.5441 27.2978 16.6352C27.1499 16.7054 26.9912 16.7123 26.8527 16.6287C26.2326 16.5866 26.3955 17.1879 25.8845 16.9816C25.7413 16.9924 25.6935 17.195 25.5957 17.2661C25.1003 17.6054 25.7095 17.8571 25.8535 18.2131C25.6375 18.8079 25.1777 19.3207 25.223 19.9472C24.3008 20.6096 24.5377 21.2325 25.3728 21.8759C25.6161 22.13 25.8156 22.503 25.827 22.8354C25.9298 23.0413 26.3303 23.0307 26.4614 23.214C26.4812 23.3239 26.5538 23.4347 26.6823 23.4599C27.1787 23.5996 26.3952 24.213 27.0464 24.2571C27.1741 24.3012 27.4069 24.5091 27.4637 24.2985C27.6665 24.3832 28.0415 24.4838 28.0538 24.2066C28.2525 24.3065 28.5151 24.353 28.6779 24.1718C28.9576 24.4978 28.6848 24.8885 28.8571 25.2269C28.6993 25.4919 28.968 25.3414 29.0797 25.3545C28.8591 25.5484 29.2935 25.6956 29.2087 25.9037C29.1242 25.8941 29.1062 25.9076 29.126 25.9732C29.1957 26.0504 29.0036 26.1543 29.1413 26.1887C29.6387 26.2195 28.9591 26.3992 29.2461 26.7338C29.37 27.029 29.8044 26.5743 29.5599 26.9962L29.5952 27.0842C29.64 27.0627 29.9046 27.0064 29.8357 27.1221C29.6728 27.3656 30.0497 27.3395 30.0293 27.6854C30.2856 27.667 30.1968 27.6817 30.183 27.913C30.408 28.017 30.2255 28.5056 30.5451 28.2344C30.651 28.2999 30.5036 28.4026 30.5624 28.4894C30.6242 28.5736 30.769 28.6516 30.6583 28.7629C30.7466 28.9355 31.0283 29.0348 30.9477 29.2655C30.9703 29.3546 31.1253 29.3251 31.1917 29.371C31.6774 31.0198 32.3535 30.2592 33.1031 30.9549L33.1036 30.9546Z"/>
</g>
</svg>
