<svg width="22" height="16" viewBox="0 0 22 16" fill="none" xmlns="http://www.w3.org/2000/svg">
<path d="M13 3C12.4477 3 12 3.44772 12 4V12C12 12.5523 12.4477 13 13 13H18C18.5523 13 19 12.5523 19 12V4C19 3.44772 18.5523 3 18 3H13Z" fill="#C9C0B1"/>
<path fill-rule="evenodd" clip-rule="evenodd" d="M3 0C1.34315 0 0 1.34315 0 3V13C0 14.6569 1.34315 16 3 16H19C20.6569 16 22 14.6569 22 13V3C22 1.34315 20.6569 0 19 0H3ZM2 3C2 2.44772 2.44772 2 3 2H19C19.5523 2 20 2.44772 20 3V13C20 13.5523 19.5523 14 19 14C18.4477 14 3 14 3 14C2.44772 14 2 13.5523 2 13V3Z" fill="#C9C0B1"/>
<path d="M4 3C3.44771 3 3 3.44772 3 4V12C3 12.5523 3.44771 13 4 13H9C9.55228 13 10 12.5523 10 12V4C10 3.44772 9.55228 3 9 3H4Z" fill="#C9C0B1"/>
</svg>
