<svg width="16" height="16" viewBox="0 0 16 16" fill="currentColor" xmlns="http://www.w3.org/2000/svg">
<g id="Outline/General/Home">
<path id="Icon" fill-rule="evenodd" clip-rule="evenodd" d="M9.03851 3.68953C8.45813 3.13262 7.54179 3.13262 6.96141 3.68953L3.87712 6.64908C3.80155 6.7216 3.75072 6.81605 3.73183 6.91907C3.36241 8.93364 3.33514 10.9961 3.65117 13.0197L3.72618 13.5H5.71049V9.35914C5.71049 9.083 5.93434 8.85914 6.21049 8.85914H9.78943C10.0656 8.85914 10.2894 9.083 10.2894 9.35914V13.5H12.2737L12.3488 13.0197C12.6648 10.9961 12.6375 8.93364 12.2681 6.91907C12.2492 6.81605 12.1984 6.7216 12.1228 6.64909L9.03851 3.68953ZM6.26905 2.96798C7.23634 2.03981 8.76358 2.03981 9.73087 2.96798L12.8152 5.92754C13.0422 6.1454 13.1949 6.4292 13.2517 6.7387C13.6414 8.86378 13.6701 11.0393 13.3368 13.174L13.2163 13.9456C13.1664 14.2648 12.8916 14.5 12.5686 14.5H9.78943C9.51329 14.5 9.28943 14.2762 9.28943 14V9.85914H6.71049V14C6.71049 14.2762 6.48663 14.5 6.21049 14.5H3.43134C3.10835 14.5 2.83349 14.2648 2.78365 13.9456L2.66314 13.174C2.32978 11.0393 2.35854 8.86379 2.74823 6.7387C2.80498 6.4292 2.95771 6.1454 3.18475 5.92754L6.26905 2.96798Z"/>
</g>
</svg>
