<?xml version="1.0" encoding="UTF-8" standalone="no"?>
<svg
   viewBox="0 0 1080 1080"
   fill="none"
   version="1.1"
   id="svg10016"
   sodipodi:docname="Signalements.svg"
   xmlns:inkscape="http://www.inkscape.org/namespaces/inkscape"
   xmlns:sodipodi="http://sodipodi.sourceforge.net/DTD/sodipodi-0.dtd"
   xmlns="http://www.w3.org/2000/svg"
   xmlns:svg="http://www.w3.org/2000/svg">
  <defs
     id="defs10020" />
  <sodipodi:namedview
     id="namedview10018"
     pagecolor="#ffffff"
     bordercolor="#000000"
     borderopacity="0.25"
     inkscape:showpageshadow="2"
     inkscape:pageopacity="0.0"
     inkscape:pagecheckerboard="0"
     inkscape:deskcolor="#d1d1d1"
     showgrid="false" />
  <rect
     width="1080"
     height="1080"
     fill="#ffffff"
     id="rect9973"
     x="0"
     y="0" />
  <path
     d="M 432.667,928.885 444.814,866 471.42,881.577 436.716,952.538 362.103,986 371.357,961.769 305.42,945.038 h 56.683 l -46.272,-16.153 z"
     fill="#232253"
     id="path9975" />
  <path
     d="M 700.145,948.86 680.42,879.413 710.008,858 v 72.34 l 113.71,21.992 -49.313,8.102 58.015,8.102 H 758.16 L 765.702,994 Z"
     fill="#232253"
     id="path9977" />
  <mask
     id="path-3-outside-1_1645_588"
     maskUnits="userSpaceOnUse"
     x="175"
     y="223"
     width="730"
     height="694"
     fill="#000000">
    <rect
       fill="#ffffff"
       x="175"
       y="223"
       width="730"
       height="694"
       id="rect9979" />
    <path
       fill-rule="evenodd"
       clip-rule="evenodd"
       d="M 454.722,317.827 484.271,236 523.05,301.626 c 8.114,-0.978 16.403,-1.671 24.864,-2.067 l 59.213,-41.538 v 43.33 c 8.555,0.911 16.882,2.1 24.985,3.556 l 53.249,-16.172 -8.304,27.68 c 61.472,20.865 106.944,59.35 137.561,108.218 5.514,-3.576 11.164,-5.508 16.78,-5.508 33.285,0 61.428,62.65 61.428,138.503 0,50.935 -17.654,101.926 -39.331,129.931 -32.192,125.538 -140.724,217.196 -278.241,217.196 -103.086,0 -198.046,-51.507 -254.722,-130.181 -30.693,54.823 -96.064,92.034 -127.175,71.651 -26.889,-17.617 38.057,-173.66 73.021,-247.451 l 0.139,0.15 c 3.472,-124.911 70.2,-237.857 188.205,-281.097 z"
       id="path9981" />
  </mask>
  <path
     fill-rule="evenodd"
     clip-rule="evenodd"
     d="M 454.722,317.827 484.271,236 523.05,301.626 c 8.114,-0.978 16.403,-1.671 24.864,-2.067 l 59.213,-41.538 v 43.33 c 8.555,0.911 16.882,2.1 24.985,3.556 l 53.249,-16.172 -8.304,27.68 c 61.472,20.865 106.944,59.35 137.561,108.218 5.514,-3.576 11.164,-5.508 16.78,-5.508 33.285,0 61.428,62.65 61.428,138.503 0,50.935 -17.654,101.926 -39.331,129.931 -32.192,125.538 -140.724,217.196 -278.241,217.196 -103.086,0 -198.046,-51.507 -254.722,-130.181 -30.693,54.823 -96.064,92.034 -127.175,71.651 -26.889,-17.617 38.057,-173.66 73.021,-247.451 l 0.139,0.15 c 3.472,-124.911 70.2,-237.857 188.205,-281.097 z"
     fill="#ec565b"
     id="path9984" />
  <path
     d="m 484.271,236 10.331,-6.105 c -2.364,-4.001 -6.826,-6.277 -11.452,-5.842 -4.627,0.434 -8.587,3.5 -10.166,7.871 z m -29.549,81.827 4.129,11.267 c 3.332,-1.221 5.953,-3.854 7.158,-7.191 z m 68.328,-16.201 -10.331,6.105 c 2.423,4.1 7.04,6.379 11.767,5.809 z m 24.864,-2.067 0.561,11.987 c 2.273,-0.107 4.468,-0.857 6.33,-2.163 z m 59.213,-41.538 h 12 c 0,-4.476 -2.492,-8.581 -6.463,-10.646 -3.972,-2.065 -8.763,-1.748 -12.428,0.823 z m 0,43.33 h -12 c 0,6.136 4.629,11.283 10.73,11.933 z m 24.985,3.556 -2.122,11.811 c 1.869,0.336 3.792,0.224 5.609,-0.328 z m 53.249,-16.172 11.494,3.449 c 1.271,-4.236 0.109,-8.827 -3.023,-11.948 -3.132,-3.122 -7.727,-4.268 -11.958,-2.983 z m -8.304,27.68 -11.494,-3.448 c -1.856,6.188 1.52,12.735 7.637,14.811 z m 137.561,108.218 -10.169,6.371 c 1.707,2.724 4.436,4.65 7.575,5.345 3.139,0.695 6.425,0.101 9.123,-1.648 z m 38.877,262.926 -9.489,-7.345 c -1.002,1.294 -1.728,2.779 -2.135,4.364 z m -532.963,87.015 9.737,-7.014 c -2.397,-3.327 -6.326,-5.2 -10.42,-4.966 -4.093,0.233 -7.784,2.54 -9.787,6.118 z m -127.175,71.651 6.576,-10.038 v 0 z m 73.021,-247.451 8.802,-8.157 c -2.708,-2.921 -6.688,-4.309 -10.624,-3.704 -3.937,0.605 -7.317,3.123 -9.022,6.722 z m 0.139,0.15 -8.801,8.157 c 3.314,3.576 8.463,4.792 13.026,3.075 4.564,-1.717 7.635,-6.024 7.771,-10.898 z m 206.467,-367 -29.548,81.827 22.573,8.152 29.549,-81.827 z m 60.397,63.598 -38.779,-65.627 -20.662,12.21 38.779,65.626 z m -8.895,18.018 c 7.819,-0.942 15.816,-1.612 23.989,-1.994 l -1.122,-23.974 c -8.749,0.41 -17.33,1.127 -25.739,2.141 z m 75.75,-65.342 -59.213,41.537 13.782,19.648 59.214,-41.538 z m 18.891,53.153 v -43.33 h -24 v 43.33 z m -13.27,11.933 c 8.276,0.881 16.319,2.03 24.133,3.434 l 4.245,-23.621 c -8.392,-1.509 -17.004,-2.738 -25.837,-3.679 z m 76.017,-36.031 -53.249,16.172 6.974,22.965 53.249,-16.172 z m 6.677,42.61 8.304,-27.679 -22.988,-6.897 -8.304,27.68 z m -15.351,7.915 c 58.752,19.942 102.04,56.605 131.249,103.226 l 20.338,-12.743 C 792.763,367.147 745.105,326.839 680.914,305.052 Z m 147.947,106.923 c 4.051,-2.627 7.466,-3.576 10.251,-3.576 v -24 c -8.446,0 -16.332,2.915 -23.309,7.439 z m 10.251,-3.576 c 4.312,0 9.481,1.991 15.31,7.612 5.866,5.657 11.725,14.401 16.924,26.076 10.38,23.313 17.194,56.214 17.194,92.815 h 24 c 0,-39.251 -7.258,-75.601 -19.27,-102.577 -5.997,-13.469 -13.415,-25.128 -22.188,-33.589 -8.809,-8.496 -19.64,-14.337 -31.97,-14.337 z m 49.428,126.503 c 0,48.7 -17.013,96.995 -36.82,122.586 l 18.979,14.69 c 23.546,-30.42 41.841,-84.106 41.841,-137.276 z m -38.955,126.95 C 810.97,805.085 707.011,892.755 575.254,892.755 v 24 c 143.276,0 256.383,-95.646 289.865,-226.215 z M 575.254,892.755 c -99.122,0 -190.501,-49.564 -244.985,-125.195 l -19.473,14.028 c 58.868,81.718 157.407,135.167 264.458,135.167 z M 310.062,768.712 c -14.238,25.43 -36.646,46.881 -58.867,59.444 -11.092,6.271 -21.677,10.067 -30.759,11.289 -9.093,1.225 -15.848,-0.208 -20.503,-3.258 l -13.152,20.075 c 10.9,7.142 23.984,8.702 36.857,6.969 12.884,-1.735 26.394,-6.847 39.369,-14.183 25.916,-14.652 51.54,-39.219 67.996,-68.612 z m -110.129,67.475 c 1.126,0.738 -0.09,0.863 -0.678,-4.051 -0.54,-4.519 -0.248,-11.107 1.107,-19.778 2.691,-17.217 9.112,-39.898 17.665,-64.911 17.05,-49.864 41.828,-106.881 59.195,-143.535 l -21.688,-10.277 c -17.597,37.138 -42.774,95.037 -60.216,146.047 -8.693,25.424 -15.652,49.669 -18.668,68.97 -1.499,9.589 -2.143,18.659 -1.225,26.334 0.871,7.279 3.508,16.135 11.356,21.276 z m 57.643,-229.257 0.14,0.151 17.603,-16.313 -0.139,-0.151 z m 20.937,-7.672 c 3.362,-120.989 67.811,-228.931 180.338,-270.164 l -8.257,-22.535 C 327.111,351.807 258.102,469.758 254.522,598.591 Z"
     fill="#232253"
     mask="url(#path-3-outside-1_1645_588)"
     id="path9986" />
  <path
     d="m 558.42,553.5 c 0,49.131 -37.983,81.5 -84.838,81.5 -49.973,0 -87.162,-38.223 -87.162,-83.234 0,-58.957 40.307,-79.766 87.162,-79.766 46.855,0 84.838,36.489 84.838,81.5 z"
     fill="#ffffff"
     id="path9988" />
  <path
     d="m 741.42,556.417 c 0,58.856 -36.395,81.583 -81.29,81.583 -44.896,0 -80.71,-33.029 -80.71,-78.086 0,-45.057 35.814,-83.914 80.71,-83.914 44.895,0 81.29,35.36 81.29,80.417 z"
     fill="#ffffff"
     id="path9990" />
  <path
     d="m 396.42,561.5 c 0,-44.309 34.008,-73.5 75.959,-73.5 44.744,0 78.041,34.471 78.041,75.064 0,53.17 -36.089,71.936 -78.041,71.936 -41.951,0 -75.959,-32.907 -75.959,-73.5 z"
     fill="#232253"
     id="path9992" />
  <path
     d="M 719.42,564.496 C 719.42,615.36 687.968,635 649.169,635 610.371,635 579.42,606.456 579.42,567.518 579.42,528.58 610.371,495 649.169,495 c 38.799,0 70.251,30.558 70.251,69.496 z"
     fill="#232253"
     id="path9994" />
  <path
     d="m 522.42,530.36 c 0,14.169 -8.537,19.64 -19.068,19.64 -10.531,0 -18.932,-7.952 -18.932,-18.799 0,-10.847 8.401,-20.201 18.932,-20.201 10.531,0 19.068,8.513 19.068,19.36 z"
     fill="#ffffff"
     id="path9996" />
  <path
     d="m 676.365,513.809 c 13.629,2.709 17.415,11.183 15.594,20.345 -1.82,9.162 -10.922,14.951 -21.355,12.878 -10.434,-2.074 -17.98,-11.171 -16.159,-20.334 1.821,-9.162 11.486,-14.962 21.92,-12.889 z"
     fill="#ffffff"
     id="path9998" />
  <path
     d="m 461.074,429 c -34.287,0 -54.055,13.425 -59.654,20.137 20.85,-3.452 48.882,-1.841 68.342,0 19.46,1.841 55.213,15.342 70.658,21.863 -12.163,-14 -45.059,-42 -79.346,-42 z"
     fill="#232253"
     id="path10000" />
  <path
     d="m 671.744,480.906 c 34.233,-2.254 53.082,-17.046 58.228,-24.16 -20.589,4.84 -48.683,5.064 -68.234,4.492 -19.552,-0.571 -56.143,-11.79 -71.995,-17.328 13.07,13.271 47.768,39.25 82.001,36.996 z"
     fill="#232253"
     id="path10002" />
  <path
     fill-rule="evenodd"
     clip-rule="evenodd"
     d="m 511.12,662.507 c 8.676,-16.081 31.78,-34.758 58.92,-34.758 27.208,0 50.361,18.772 58.985,34.88 l 45.327,25.969 -102.574,92.142 -110.686,-85.768 z"
     fill="#232253"
     id="path10004" />
  <path
     d="m 772.05,540.888 c -2.271,2.414 -2.155,6.211 0.258,8.482 2.414,2.271 6.211,2.155 8.482,-0.258 z m 39.546,-130.182 c -3.955,2.11 -6.303,5.892 -7.816,9.619 -1.541,3.797 -2.558,8.386 -3.329,13.277 -1.524,9.655 -2.332,22.347 -3.658,35.045 -2.745,26.307 -7.857,54.296 -24.743,72.241 l 8.74,8.224 c 19.962,-21.216 25.214,-53.12 27.938,-79.219 1.41,-13.505 2.112,-25.144 3.576,-34.421 0.722,-4.576 1.568,-8.103 2.595,-10.633 1.055,-2.599 1.981,-3.351 2.345,-3.545 z"
     fill="#232253"
     id="path10006" />
  <path
     d="m 746.462,220.35 c -0.322,0.043 -0.644,0.08 -0.967,0.112 0.264,-0.112 0.524,-0.228 0.782,-0.35 0.061,0.08 0.123,0.16 0.185,0.238 z m 12.47,13.205 -0.869,-6.338 c 0.142,0.032 0.285,0.062 0.429,0.091 4.872,0.982 9.644,0.575 14.096,-1.425 4.427,-1.988 7.99,-5.32 10.78,-9.589 2.888,-4.315 4.84,-9.544 6.036,-15.473 l -5.881,-1.186 5.881,1.186 c 1.295,-6.421 1.348,-12.7 0.066,-18.774 -1.256,-6.077 -3.689,-11.657 -7.283,-16.688 -3.602,-5.043 -8.205,-9.253 -13.722,-12.646 -5.565,-3.491 -11.886,-5.906 -18.877,-7.317 -7.238,-1.46 -14.205,-1.691 -20.847,-0.584 l 0.987,5.918 -0.987,-5.918 c -6.568,1.094 -12.579,3.341 -17.957,6.784 -5.336,3.415 -9.814,7.775 -13.407,13.04 l -0.017,0.025 -0.017,0.026 c -3.554,5.324 -5.973,11.346 -7.312,17.984 -1.35,6.691 -1.467,13.232 -0.273,19.569 l 0.006,0.03 0.006,0.03 c 1.252,6.285 3.64,12.063 7.173,17.277 l 0.013,0.019 0.013,0.02 c 3.609,5.237 8.231,9.625 13.789,13.168 5.633,3.66 12.095,6.173 19.287,7.624 4.056,0.818 8.213,1.202 12.462,1.161 4.32,0.032 8.355,-0.409 12.045,-1.406 l 5.098,-1.376 z m -15.771,-45.453 0.033,0.03 0.035,0.029 c 0.656,0.555 1.107,1.225 1.387,2.158 0.251,0.833 0.365,2.136 -0.034,4.112 -0.38,1.882 -0.986,3.086 -1.614,3.868 -0.659,0.822 -1.376,1.313 -2.218,1.608 -0.79,0.255 -1.756,0.34 -3.027,0.084 -1.224,-0.247 -2.039,-0.699 -2.647,-1.258 -0.663,-0.609 -1.144,-1.351 -1.453,-2.355 -0.267,-0.961 -0.352,-2.295 0.023,-4.153 0.381,-1.89 0.977,-3.026 1.544,-3.713 l 0.026,-0.031 0.025,-0.032 c 0.687,-0.856 1.369,-1.291 2.077,-1.525 0.796,-0.263 1.771,-0.354 3.059,-0.094 1.288,0.26 2.152,0.721 2.784,1.272 z"
     fill="#d0d0e7"
     stroke="#232253"
     stroke-width="12"
     id="path10008" />
  <path
     d="m 940.003,153.563 -46.154,9.638 c -12.067,2.52 -19.806,14.345 -17.286,26.411 l 22.979,110.037 c 2.519,12.066 14.344,19.806 26.411,17.286 l 46.154,-9.639 c 12.067,-2.52 19.806,-14.344 17.286,-26.411 L 966.414,170.849 c -2.52,-12.067 -14.344,-19.806 -26.411,-17.286 z"
     fill="#D0D0E7"
     stroke="#232253"
     stroke-width="12"
     stroke-miterlimit="10"
     id="path10010"
     style="fill:#cde5f6;fill-opacity:1" />
  <circle
     cx="940.73499"
     cy="290.90799"
     r="10.1038"
     transform="rotate(-0.325012)"
     fill="#232253"
     id="circle10012" />
  <path
     d="m 808.657,279.863 -1.619,5.777 5.777,1.619 11.492,3.22 c -5.509,-0.516 -10.828,0.455 -15.803,3.057 -6.761,3.421 -11.267,9.004 -13.326,16.351 -2.035,7.263 -1.055,14.372 2.758,20.964 3.895,6.735 9.97,11.156 17.712,13.325 7.911,2.217 15.505,1.685 22.294,-2.149 6.66,-3.651 11.177,-9.207 13.208,-16.455 2.055,-7.332 1.114,-14.429 -2.864,-20.855 -2.828,-4.843 -6.91,-8.433 -11.968,-10.872 l 11.326,3.174 5.778,1.619 1.619,-5.777 c 0.551,-1.967 1.482,-3.399 2.76,-4.504 1.825,-1.579 4.019,-3.071 6.619,-4.454 3.04,-1.507 6.23,-3.045 9.57,-4.613 l 0.073,-0.035 0.072,-0.036 c 3.684,-1.852 7.218,-3.973 10.6,-6.359 3.835,-2.572 7.235,-5.792 10.212,-9.604 l -4.729,-3.693 4.729,3.693 c 3.217,-4.119 5.555,-9.119 7.153,-14.82 2.563,-9.148 2.272,-17.959 -1.224,-26.142 l -5.517,2.357 5.517,-2.357 c -3.391,-7.938 -9.15,-14.615 -16.933,-20.091 -7.57,-5.538 -16.708,-9.734 -27.275,-12.695 -15.036,-4.214 -28.854,-5.046 -41.258,-2.072 -12.098,2.78 -22.442,8.239 -30.842,16.444 l -4.415,4.312 4.435,4.292 24.736,23.939 4.172,4.038 4.173,-4.039 c 3.171,-3.068 6.647,-5.06 10.467,-6.107 3.918,-1.003 7.94,-0.952 12.177,0.236 4.269,1.196 6.831,2.923 8.334,4.79 l 0.036,0.045 0.037,0.044 c 1.369,1.635 1.688,3.134 1.119,5.164 -0.368,1.311 -1.048,2.381 -2.168,3.321 l -0.1,0.084 -0.096,0.088 c -1.484,1.362 -3.358,2.716 -5.677,4.038 -2.566,1.347 -5.364,2.772 -8.396,4.275 -3.257,1.602 -6.423,3.523 -9.501,5.75 -3.311,2.396 -6.309,5.318 -9.006,8.718 l -0.037,0.046 -0.036,0.047 c -2.776,3.642 -4.791,7.996 -6.165,12.902 z"
     fill="#EE5557"
     stroke="#232253"
     stroke-width="12"
     id="path10014"
     style="fill:#f1ede6;fill-opacity:1" />
</svg>
