<svg width="24" height="24" viewBox="0 0 24 24" fill="currentColor" xmlns="http://www.w3.org/2000/svg">
<g id="Icon-right">
<path id="Union" fill-rule="evenodd" clip-rule="evenodd" d="M16.4701 15.453V15.587C16.4701 16.0834 16.0677 16.4858 15.5713 16.4858H8.48229C7.93 16.4858 7.48229 16.0381 7.48229 15.4858V8.40148C7.48229 7.90248 7.8868 7.49797 8.3858 7.49797H8.53871C8.94928 7.49797 9.28333 7.16742 9.28765 6.75687C9.29204 6.34016 8.95544 6 8.53871 6H7C6.44772 6 6 6.44772 6 7L6.00001 16.9995C6.00001 17.5518 6.44772 17.9995 7.00001 17.9995H16.9996C17.5519 17.9995 17.9996 17.5518 17.9996 16.9995V15.453C17.9996 15.0306 17.6572 14.6882 17.2348 14.6882C16.8125 14.6882 16.4701 15.0306 16.4701 15.453ZM16.9999 6.00026H13.7202C13.3022 6.00026 12.9633 6.33912 12.9633 6.75713C12.9633 7.17514 13.3022 7.514 13.7202 7.514H15.3351L10.8421 12.0775C10.5506 12.3737 10.5542 12.85 10.8502 13.1417C11.1464 13.4335 11.623 13.4299 11.9148 13.1337L16.4862 8.49162V10.2642C16.4862 10.6822 16.825 11.0211 17.243 11.0211C17.661 11.0211 17.9999 10.6822 17.9999 10.2642V7.00026C17.9999 6.44798 17.5522 6.00026 16.9999 6.00026Z"/>
</g>
</svg>
