<?xml version="1.0" encoding="UTF-8" standalone="no"?>
<svg
   viewBox="0 0 1080 1080"
   fill="none"
   version="1.1"
   id="svg105"
   sodipodi:docname="Couverture.svg"
   xmlns:inkscape="http://www.inkscape.org/namespaces/inkscape"
   xmlns:sodipodi="http://sodipodi.sourceforge.net/DTD/sodipodi-0.dtd"
   xmlns="http://www.w3.org/2000/svg"
   xmlns:svg="http://www.w3.org/2000/svg">
  <sodipodi:namedview
     id="namedview107"
     pagecolor="#ffffff"
     bordercolor="#000000"
     borderopacity="0.25"
     inkscape:showpageshadow="2"
     inkscape:pageopacity="0.0"
     inkscape:pagecheckerboard="0"
     inkscape:deskcolor="#d1d1d1"
     showgrid="false" />
  <rect
     width="1080"
     height="1080"
     fill="#ffffff"
     id="rect2"
     x="0"
     y="0" />
  <g
     clip-path="url(#clip0_1638_18394)"
     id="g74">
    <path
       d="m 117.01,571.01 c -71.4897,51.89 -27.9897,130 326.32,130 354.31,0 394.09,-81.57 276.65,-134.64 -117.45,-53.07 -602.97,4.64 -602.97,4.64 z"
       fill="#68678e"
       id="path4" />
    <path
       d="m 330.12,777.87 c -71.49,51.89 -27.99,130 326.32,130 354.31,0 394.09,-81.57 276.65,-134.64 -117.45,-53.07 -602.97,4.64 -602.97,4.64 z"
       fill="#D0D0E7"
       id="path6"
       style="fill:#cdccff;fill-opacity:1" />
    <path
       d="M 743.19,571.01 C 658.95,529.33 554.39,430.52 424.56,430.52 c -129.83,0 -234.39,98.81 -318.63,140.49"
       fill="#68678e"
       id="path8" />
    <path
       d="M 743.19,571.01 C 658.95,529.33 554.39,430.52 424.56,430.52 c -129.83,0 -234.39,98.81 -318.63,140.49"
       stroke="#232253"
       stroke-width="12"
       stroke-miterlimit="10"
       id="path10" />
    <path
       d="m 157.67,542.34 c 0,0 0.17,0.03 0.49,0.08"
       stroke="#232253"
       stroke-width="6"
       stroke-miterlimit="10"
       stroke-linecap="round"
       id="path12" />
    <path
       d="m 169.729,545.3 c 33,9.85 126.46,49.57 188.36,193.54"
       stroke="#232253"
       stroke-width="6"
       stroke-miterlimit="10"
       stroke-linecap="round"
       stroke-dasharray="1, 15"
       id="path14" />
    <path
       d="m 360.42,744.34 c 0.06,0.15 0.13,0.31 0.19,0.46"
       stroke="#232253"
       stroke-width="6"
       stroke-miterlimit="10"
       stroke-linecap="round"
       id="path16" />
    <path
       d="m 252.98,482.59 c 0,0 0.17,0.03 0.49,0.08"
       stroke="#232253"
       stroke-width="6"
       stroke-miterlimit="10"
       stroke-linecap="round"
       id="path18" />
    <path
       d="m 265.021,485.52 c 33.89,9.99 131.86,51.01 196.58,201.74"
       stroke="#232253"
       stroke-width="6"
       stroke-miterlimit="10"
       stroke-linecap="round"
       stroke-dasharray="1, 15"
       id="path20" />
    <path
       d="m 463.91,692.75 c 0.06,0.15 0.13,0.31 0.19,0.46"
       stroke="#232253"
       stroke-width="6"
       stroke-miterlimit="10"
       stroke-linecap="round"
       id="path22" />
    <path
       d="m 349.03,441.07 c 0,0 0.17,0.03 0.49,0.08"
       stroke="#232253"
       stroke-width="6"
       stroke-miterlimit="10"
       stroke-linecap="round"
       id="path24" />
    <path
       d="m 361.311,443.97 c 38.36,10.84 158.04,58.34 236.37,241.66"
       stroke="#232253"
       stroke-width="6"
       stroke-miterlimit="10"
       stroke-linecap="round"
       stroke-dasharray="1, 15"
       id="path26" />
    <path
       d="m 600.05,691.22 c 0.06,0.15 0.13,0.31 0.19,0.46"
       stroke="#232253"
       stroke-width="6"
       stroke-miterlimit="10"
       stroke-linecap="round"
       id="path28" />
    <path
       d="M 157.67,659.07 C 215.4,601.55 391.1,453.04 524.24,449.05"
       stroke="#232253"
       stroke-width="6"
       stroke-miterlimit="10"
       stroke-linecap="round"
       stroke-dasharray="1, 15"
       id="path30" />
    <path
       d="M 266.88,716.84 C 324.61,659.32 500.31,510.81 633.45,506.82"
       stroke="#232253"
       stroke-width="6"
       stroke-miterlimit="10"
       stroke-linecap="round"
       stroke-dasharray="1, 15"
       id="path32" />
    <path
       d="m 664.859,209.32 h -56.33 v 457.51 h 56.33 z"
       fill="#EE5557"
       stroke="#232253"
       stroke-width="12"
       stroke-miterlimit="10"
       id="path34"
       style="fill:#f1ede6;fill-opacity:1" />
    <path
       d="M 954.94,777.69 C 870.7,736.01 766.14,637.2 636.31,637.2 c -129.83,0 -234.39,98.81 -318.63,140.49"
       fill="#D0D0E7"
       id="path36"
       style="fill:#cdccff;fill-opacity:1" />
    <path
       d="M 954.94,777.69 C 870.7,736.01 766.14,637.2 636.31,637.2 c -129.83,0 -234.39,98.81 -318.63,140.49"
       stroke="#232253"
       stroke-width="12"
       stroke-miterlimit="10"
       id="path38" />
    <path
       d="m 608.529,353.79 56.33,94.47"
       stroke="#232253"
       stroke-width="12"
       stroke-miterlimit="10"
       id="path40" />
    <path
       d="m 664.859,353.79 -56.33,94.47"
       stroke="#232253"
       stroke-width="12"
       stroke-miterlimit="10"
       id="path42" />
    <path
       d="m 608.529,259.32 56.33,94.47"
       stroke="#232253"
       stroke-width="12"
       stroke-miterlimit="10"
       id="path44" />
    <path
       d="m 664.859,259.32 -56.33,94.47"
       stroke="#232253"
       stroke-width="12"
       stroke-miterlimit="10"
       id="path46" />
    <path
       d="m 608.529,542.73 56.33,94.47"
       stroke="#232253"
       stroke-width="12"
       stroke-miterlimit="10"
       id="path48" />
    <path
       d="m 664.859,542.73 -56.33,94.47"
       stroke="#232253"
       stroke-width="12"
       stroke-miterlimit="10"
       id="path50" />
    <path
       d="m 608.529,448.26 56.33,94.47"
       stroke="#232253"
       stroke-width="12"
       stroke-miterlimit="10"
       id="path52" />
    <path
       d="m 664.859,448.26 -56.33,94.47"
       stroke="#232253"
       stroke-width="12"
       stroke-miterlimit="10"
       id="path54" />
    <path
       d="m 572.58,179 h -5.47 c -7.566,0 -13.7,6.134 -13.7,13.7 v 91.64 c 0,7.566 6.134,13.7 13.7,13.7 h 5.47 c 7.566,0 13.7,-6.134 13.7,-13.7 V 192.7 c 0,-7.566 -6.134,-13.7 -13.7,-13.7 z"
       fill="#68678e"
       stroke="#232253"
       stroke-width="12"
       stroke-miterlimit="10"
       id="path56" />
    <path
       d="m 608.54,209.32 h -22.25 v 58.41 h 22.25 z"
       fill="#f1ede6"
       stroke="#232253"
       stroke-width="12"
       stroke-miterlimit="10"
       id="path58" />
    <path
       d="m 700.809,298.04 h 5.47 c 7.567,0 13.7,-6.134 13.7,-13.7 V 192.7 c 0,-7.566 -6.133,-13.7 -13.7,-13.7 h -5.47 c -7.566,0 -13.7,6.134 -13.7,13.7 v 91.64 c 0,7.566 6.134,13.7 13.7,13.7 z"
       fill="#68678e"
       stroke="#232253"
       stroke-width="12"
       stroke-miterlimit="10"
       id="path60" />
    <path
       d="M 664.85,267.72 H 687.1 V 209.31 H 664.85 Z"
       fill="#f1ede6"
       stroke="#232253"
       stroke-width="12"
       stroke-miterlimit="10"
       id="path62" />
    <path
       d="m 418.22,716.84 c 59.41,77.86 361.47,59.55 427.25,-5.57"
       stroke="#232253"
       stroke-width="6"
       stroke-miterlimit="10"
       stroke-linecap="round"
       stroke-dasharray="1, 15"
       id="path64" />
    <path
       d="m 613.199,681.36 c -36.07,54.48 -25.58,110.94 -122.5,166.04"
       stroke="#232253"
       stroke-width="6"
       stroke-miterlimit="10"
       stroke-linecap="round"
       stroke-dasharray="1, 15"
       id="path66" />
    <path
       d="m 546.64,652.29 c 11.64,29.53 136.19,47.02 179.34,0"
       stroke="#232253"
       stroke-width="6"
       stroke-miterlimit="10"
       stroke-linecap="round"
       stroke-dasharray="1, 15"
       id="path68" />
    <path
       opacity="0.8"
       d="M 639.04,179 424.56,723.94 c 50.07,53.76 150.09,40.45 150.09,40.45 L 613.2,681.37 655.499,265.5 Z"
       fill="#EE5557"
       id="path70"
       style="fill:#cde5f6;fill-opacity:1" />
    <path
       d="m 633.58,298.04 h 5.47 c 7.566,0 13.7,-6.134 13.7,-13.7 V 192.7 c 0,-7.566 -6.134,-13.7 -13.7,-13.7 h -5.47 c -7.566,0 -13.7,6.134 -13.7,13.7 v 91.64 c 0,7.566 6.134,13.7 13.7,13.7 z"
       fill="#68678e"
       stroke="#232253"
       stroke-width="12"
       stroke-miterlimit="10"
       id="path72" />
  </g>
  <path
     d="m 501,729.573 c 0,1.893 1.554,3.427 3.472,3.427 h 6.075 c 1.918,0 3.472,-1.534 3.472,-3.427 v -6.271 c 0,-2.898 -3.418,-4.488 -5.682,-2.643 l -6.075,4.95 c -0.799,0.65 -1.262,1.62 -1.262,2.642 z"
     fill="#232253"
     id="path76" />
  <path
     d="m 518.752,712.174 c -0.799,0.651 -1.261,1.62 -1.261,2.643 v 14.756 c 0,1.893 1.554,3.427 3.471,3.427 h 6.076 c 1.917,0 3.471,-1.534 3.471,-3.427 v -19.706 c 0,-2.897 -3.417,-4.487 -5.681,-2.642 z"
     fill="#232253"
     id="path78" />
  <path
     d="m 535.243,698.74 c -0.799,0.651 -1.262,1.62 -1.262,2.643 v 28.19 c 0,1.893 1.554,3.427 3.472,3.427 h 6.075 c 1.918,0 3.472,-1.534 3.472,-3.427 v -33.14 c 0,-2.898 -3.418,-4.487 -5.682,-2.643 z"
     fill="#232253"
     id="path80" />
  <path
     d="m 395,543.573 c 0,1.893 1.554,3.427 3.472,3.427 h 6.075 c 1.918,0 3.472,-1.534 3.472,-3.427 v -6.271 c 0,-2.898 -3.418,-4.488 -5.682,-2.643 l -6.075,4.95 c -0.799,0.65 -1.262,1.62 -1.262,2.642 z"
     fill="#232253"
     id="path82" />
  <path
     d="m 412.752,526.174 c -0.799,0.651 -1.261,1.62 -1.261,2.643 v 14.756 c 0,1.893 1.554,3.427 3.471,3.427 h 6.076 c 1.917,0 3.471,-1.534 3.471,-3.427 v -19.706 c 0,-2.897 -3.417,-4.487 -5.681,-2.642 z"
     fill="#232253"
     id="path84" />
  <path
     d="m 429.243,512.74 c -0.799,0.651 -1.262,1.62 -1.262,2.643 v 28.19 c 0,1.893 1.554,3.427 3.472,3.427 h 6.075 c 1.918,0 3.472,-1.534 3.472,-3.427 v -33.14 c 0,-2.898 -3.418,-4.487 -5.682,-2.643 z"
     fill="#232253"
     id="path86" />
  <path
     d="m 301,601.573 c 0,1.893 1.554,3.427 3.472,3.427 h 6.075 c 1.918,0 3.472,-1.534 3.472,-3.427 v -6.271 c 0,-2.898 -3.418,-4.488 -5.682,-2.643 l -6.075,4.95 c -0.799,0.65 -1.262,1.62 -1.262,2.642 z"
     fill="#232253"
     id="path88" />
  <path
     d="m 318.752,584.174 c -0.799,0.651 -1.261,1.62 -1.261,2.643 v 14.756 c 0,1.893 1.554,3.427 3.471,3.427 h 6.076 c 1.917,0 3.471,-1.534 3.471,-3.427 v -19.706 c 0,-2.897 -3.417,-4.487 -5.681,-2.642 z"
     fill="#d0d0e7"
     id="path90" />
  <path
     d="m 335.243,570.74 c -0.799,0.651 -1.262,1.62 -1.262,2.643 v 28.19 c 0,1.893 1.554,3.427 3.472,3.427 h 6.075 c 1.918,0 3.472,-1.534 3.472,-3.427 v -33.14 c 0,-2.898 -3.418,-4.487 -5.682,-2.643 z"
     fill="#d0d0e7"
     id="path92" />
  <path
     d="m 221,544.573 c 0,1.893 1.554,3.427 3.472,3.427 h 6.075 c 1.918,0 3.472,-1.534 3.472,-3.427 v -6.271 c 0,-2.898 -3.418,-4.488 -5.682,-2.643 l -6.075,4.95 c -0.799,0.65 -1.262,1.62 -1.262,2.642 z"
     fill="#232253"
     id="path94" />
  <path
     d="m 238.752,527.174 c -0.799,0.651 -1.261,1.62 -1.261,2.643 v 14.756 c 0,1.893 1.554,3.427 3.471,3.427 h 6.076 c 1.917,0 3.471,-1.534 3.471,-3.427 v -19.706 c 0,-2.897 -3.417,-4.487 -5.681,-2.642 z"
     fill="#d0d0e7"
     id="path96" />
  <path
     d="m 255.243,513.74 c -0.799,0.651 -1.262,1.62 -1.262,2.643 v 28.19 c 0,1.893 1.554,3.427 3.472,3.427 h 6.075 c 1.918,0 3.472,-1.534 3.472,-3.427 v -33.14 c 0,-2.898 -3.418,-4.487 -5.682,-2.643 z"
     fill="#d0d0e7"
     id="path98" />
  <defs
     id="defs103">
    <clipPath
       id="clip0_1638_18394">
      <rect
         width="904.38"
         height="734.87"
         fill="#ffffff"
         transform="translate(88,173)"
         id="rect100"
         x="0"
         y="0" />
    </clipPath>
  </defs>
</svg>
