<?xml version="1.0" encoding="UTF-8" standalone="no"?>
<svg
   viewBox="0 0 1080 1080"
   fill="none"
   version="1.1"
   id="svg1321"
   sodipodi:docname="Antennes.svg"
   xmlns:inkscape="http://www.inkscape.org/namespaces/inkscape"
   xmlns:sodipodi="http://sodipodi.sourceforge.net/DTD/sodipodi-0.dtd"
   xmlns="http://www.w3.org/2000/svg"
   xmlns:svg="http://www.w3.org/2000/svg">
  <sodipodi:namedview
     id="namedview1323"
     pagecolor="#ffffff"
     bordercolor="#000000"
     borderopacity="0.25"
     inkscape:showpageshadow="2"
     inkscape:pageopacity="0.0"
     inkscape:pagecheckerboard="0"
     inkscape:deskcolor="#d1d1d1"
     showgrid="false" />
  <rect
     width="1080"
     height="1080"
     fill="#ffffff"
     id="rect1207"
     x="0"
     y="0" />
  <g
     clip-path="url(#clip0_1638_18324)"
     id="g1281">
    <path
       d="m 431.68,670.83 29.65,14.71 186.18,-277.29 -29.64,-14.72 z"
       fill="#9695b1"
       stroke="#232253"
       stroke-width="12"
       stroke-miterlimit="10"
       id="path1209" />
    <path
       d="M 647.51,670.83 617.87,685.54 431.68,408.25 461.33,393.53 Z"
       fill="#9695b1"
       stroke="#232253"
       stroke-width="12"
       stroke-miterlimit="10"
       id="path1211" />
    <path
       d="m 647.51,421.73 -29.64,14.72 -186.19,-277.3 29.65,-14.71 z"
       fill="#9695b1"
       stroke="#232253"
       stroke-width="12"
       stroke-miterlimit="10"
       id="path1213" />
    <path
       d="m 431.68,421.73 29.65,14.72 186.18,-277.3 -29.64,-14.71 z"
       fill="#9695b1"
       stroke="#232253"
       stroke-width="12"
       stroke-miterlimit="10"
       id="path1215" />
    <path
       d="m 647.51,919.92 -29.64,14.72 -186.19,-277.3 29.65,-14.71 z"
       fill="#9695b1"
       stroke="#232253"
       stroke-width="12"
       stroke-miterlimit="10"
       id="path1217" />
    <path
       d="m 431.68,919.92 29.65,14.72 186.18,-277.3 -29.64,-14.71 z"
       fill="#9695b1"
       stroke="#232253"
       stroke-width="12"
       stroke-miterlimit="10"
       id="path1219" />
    <path
       d="m 455.55,94 h -34.23 v 297.02 h 34.23 z"
       fill="#68678e"
       stroke="#232253"
       stroke-width="12"
       stroke-miterlimit="10"
       id="path1221" />
    <path
       d="m 455.55,688.05 h -34.23 v 297.02 h 34.23 z"
       fill="#68678e"
       stroke="#232253"
       stroke-width="12"
       stroke-miterlimit="10"
       id="path1223" />
    <path
       d="m 455.55,391.02 h -34.23 v 297.02 h 34.23 z"
       fill="#9695b1"
       stroke="#232253"
       stroke-width="12"
       stroke-miterlimit="10"
       id="path1225" />
    <path
       d="m 657.88,94 h -34.23 v 297.02 h 34.23 z"
       fill="#68678e"
       stroke="#232253"
       stroke-width="12"
       stroke-miterlimit="10"
       id="path1227" />
    <path
       d="m 657.88,688.05 h -34.23 v 297.02 h 34.23 z"
       fill="#68678e"
       stroke="#232253"
       stroke-width="12"
       stroke-miterlimit="10"
       id="path1229" />
    <path
       d="m 657.88,391.02 h -34.23 v 297.02 h 34.23 z"
       fill="#9695b1"
       stroke="#232253"
       stroke-width="12"
       stroke-miterlimit="10"
       id="path1231" />
    <path
       d="m 623.651,191.96 h -168.1 v 281.03 h 168.1 z"
       fill="#d0d0e7"
       stroke="#232253"
       stroke-width="12"
       stroke-miterlimit="10"
       id="path1233" />
    <path
       d="m 551.98,442.73 c 20.33,-9.63 33.3,-30.12 33.3,-52.62 V 192.79 c 0,-22.5 -12.96,-42.99 -33.3,-52.62 -7.84,-3.71 -16.93,-3.71 -24.77,0 -20.33,9.63 -33.3,30.12 -33.3,52.62 v 197.32 c 0,22.5 12.96,42.99 33.3,52.62 7.84,3.71 16.93,3.71 24.77,0 z"
       fill="#f1ede6"
       stroke="#232253"
       stroke-width="12"
       stroke-miterlimit="10"
       id="path1235" />
    <path
       d="m 361.41,448.59 c 11.49,2.07 22.05,-6.75 22.05,-18.42 V 152.73 c 0,-11.67 -10.56,-20.5 -22.05,-18.42 -28.03,5.06 -48.41,29.46 -48.41,57.94 v 198.41 c 0,28.48 20.38,52.87 48.41,57.94 z"
       fill="#f1ede6"
       stroke="#232253"
       stroke-width="12"
       stroke-miterlimit="10"
       id="path1237" />
    <path
       d="m 383.45,314.52 h 85.48 v -46.15 h -85.48 z"
       fill="#EE5557"
       stroke="#232253"
       stroke-width="12"
       stroke-miterlimit="10"
       id="path1239"
       style="fill:#cde5f6;fill-opacity:1" />
    <path
       d="m 426.199,296.02 c 2.524,0 4.57,-2.046 4.57,-4.57 0,-2.524 -2.046,-4.57 -4.57,-4.57 -2.524,0 -4.57,2.046 -4.57,4.57 0,2.524 2.046,4.57 4.57,4.57 z"
       fill="#232253"
       id="path1241" />
    <path
       d="m 444.259,296.02 c 2.524,0 4.57,-2.046 4.57,-4.57 0,-2.524 -2.046,-4.57 -4.57,-4.57 -2.523,0 -4.57,2.046 -4.57,4.57 0,2.524 2.047,4.57 4.57,4.57 z"
       fill="#232253"
       id="path1243" />
    <path
       d="m 408.129,296.02 c 2.524,0 4.57,-2.046 4.57,-4.57 0,-2.524 -2.046,-4.57 -4.57,-4.57 -2.524,0 -4.57,2.046 -4.57,4.57 0,2.524 2.046,4.57 4.57,4.57 z"
       fill="#232253"
       id="path1245" />
    <path
       d="m 717.78,448.59 c -11.49,2.07 -22.05,-6.75 -22.05,-18.42 V 152.73 c 0,-11.67 10.56,-20.5 22.05,-18.42 28.03,5.06 48.41,29.46 48.41,57.94 v 198.41 c 0,28.48 -20.38,52.87 -48.41,57.94 z"
       fill="#f1ede6"
       stroke="#232253"
       stroke-width="12"
       stroke-miterlimit="10"
       id="path1247" />
    <path
       d="m 695.74,268.38 h -85.48 v 46.15 h 85.48 z"
       fill="#EE5557"
       stroke="#232253"
       stroke-width="12"
       stroke-miterlimit="10"
       id="path1249"
       style="fill:#cde5f6;fill-opacity:1" />
    <path
       d="m 653,296.02 c 2.524,0 4.57,-2.046 4.57,-4.57 0,-2.524 -2.046,-4.57 -4.57,-4.57 -2.524,0 -4.57,2.046 -4.57,4.57 0,2.524 2.046,4.57 4.57,4.57 z"
       fill="#232253"
       id="path1251" />
    <path
       d="m 634.929,296.02 c 2.524,0 4.57,-2.046 4.57,-4.57 0,-2.524 -2.046,-4.57 -4.57,-4.57 -2.524,0 -4.57,2.046 -4.57,4.57 0,2.524 2.046,4.57 4.57,4.57 z"
       fill="#232253"
       id="path1253" />
    <path
       d="m 671.06,296.02 c 2.524,0 4.57,-2.046 4.57,-4.57 0,-2.524 -2.046,-4.57 -4.57,-4.57 -2.524,0 -4.57,2.046 -4.57,4.57 0,2.524 2.046,4.57 4.57,4.57 z"
       fill="#232253"
       id="path1255" />
    <path
       d="m 623.651,576.955 h -168.1 v 281.03 h 168.1 z"
       fill="#d0d0e7"
       stroke="#232253"
       stroke-width="12"
       stroke-miterlimit="10"
       id="path1257" />
    <path
       d="m 551.98,827.725 c 20.33,-9.63 33.3,-30.12 33.3,-52.62 v -197.32 c 0,-22.5 -12.96,-42.99 -33.3,-52.62 -7.84,-3.71 -16.93,-3.71 -24.77,0 -20.33,9.63 -33.3,30.12 -33.3,52.62 v 197.32 c 0,22.5 12.96,42.99 33.3,52.62 7.84,3.71 16.93,3.71 24.77,0 z"
       fill="#f1ede6"
       stroke="#232253"
       stroke-width="12"
       stroke-miterlimit="10"
       id="path1259" />
    <path
       d="m 361.41,833.585 c 11.49,2.07 22.05,-6.75 22.05,-18.42 v -277.44 c 0,-11.67 -10.56,-20.5 -22.05,-18.42 -28.03,5.06 -48.41,29.46 -48.41,57.94 v 198.41 c 0,28.48 20.38,52.87 48.41,57.94 z"
       fill="#f1ede6"
       stroke="#232253"
       stroke-width="12"
       stroke-miterlimit="10"
       id="path1261" />
    <path
       d="m 383.45,699.515 h 85.48 v -46.15 h -85.48 z"
       fill="#EE5557"
       stroke="#232253"
       stroke-width="12"
       stroke-miterlimit="10"
       id="path1263"
       style="fill:#cde5f6;fill-opacity:1" />
    <path
       d="m 426.199,681.015 c 2.524,0 4.57,-2.046 4.57,-4.57 0,-2.524 -2.046,-4.57 -4.57,-4.57 -2.524,0 -4.57,2.046 -4.57,4.57 0,2.524 2.046,4.57 4.57,4.57 z"
       fill="#232253"
       id="path1265" />
    <path
       d="m 444.259,681.015 c 2.524,0 4.57,-2.046 4.57,-4.57 0,-2.524 -2.046,-4.57 -4.57,-4.57 -2.523,0 -4.57,2.046 -4.57,4.57 0,2.524 2.047,4.57 4.57,4.57 z"
       fill="#232253"
       id="path1267" />
    <path
       d="m 408.129,681.015 c 2.524,0 4.57,-2.046 4.57,-4.57 0,-2.524 -2.046,-4.57 -4.57,-4.57 -2.524,0 -4.57,2.046 -4.57,4.57 0,2.524 2.046,4.57 4.57,4.57 z"
       fill="#232253"
       id="path1269" />
    <path
       d="m 717.78,833.585 c -11.49,2.07 -22.05,-6.75 -22.05,-18.42 v -277.44 c 0,-11.67 10.56,-20.5 22.05,-18.42 28.03,5.06 48.41,29.46 48.41,57.94 v 198.41 c 0,28.48 -20.38,52.87 -48.41,57.94 z"
       fill="#f1ede6"
       stroke="#232253"
       stroke-width="12"
       stroke-miterlimit="10"
       id="path1271" />
    <path
       d="m 695.74,653.375 h -85.48 v 46.15 h 85.48 z"
       fill="#EE5557"
       stroke="#232253"
       stroke-width="12"
       stroke-miterlimit="10"
       id="path1273"
       style="fill:#cde5f6;fill-opacity:1" />
    <path
       d="m 653,681.015 c 2.524,0 4.57,-2.046 4.57,-4.57 0,-2.524 -2.046,-4.57 -4.57,-4.57 -2.524,0 -4.57,2.046 -4.57,4.57 0,2.524 2.046,4.57 4.57,4.57 z"
       fill="#232253"
       id="path1275" />
    <path
       d="m 634.929,681.015 c 2.524,0 4.57,-2.046 4.57,-4.57 0,-2.524 -2.046,-4.57 -4.57,-4.57 -2.524,0 -4.57,2.046 -4.57,4.57 0,2.524 2.046,4.57 4.57,4.57 z"
       fill="#232253"
       id="path1277" />
    <path
       d="m 671.06,681.015 c 2.524,0 4.57,-2.046 4.57,-4.57 0,-2.524 -2.046,-4.57 -4.57,-4.57 -2.524,0 -4.57,2.046 -4.57,4.57 0,2.524 2.046,4.57 4.57,4.57 z"
       fill="#232253"
       id="path1279" />
  </g>
  <path
     d="m 932.234,299.227 c 0,1.692 -0.416,3.151 -1.25,4.375 -0.82,1.224 -2.005,2.161 -3.554,2.812 -1.537,0.651 -3.373,0.977 -5.508,0.977 -1.042,0 -2.038,-0.059 -2.988,-0.176 -0.951,-0.117 -1.849,-0.287 -2.696,-0.508 -0.833,-0.234 -1.595,-0.514 -2.285,-0.84 v -4.414 c 1.159,0.508 2.455,0.97 3.887,1.387 1.432,0.403 2.89,0.605 4.375,0.605 1.211,0 2.213,-0.156 3.008,-0.468 0.807,-0.326 1.406,-0.782 1.797,-1.368 0.39,-0.599 0.585,-1.295 0.585,-2.089 0,-0.847 -0.227,-1.563 -0.683,-2.149 -0.456,-0.586 -1.146,-1.12 -2.07,-1.601 -0.912,-0.495 -2.058,-1.023 -3.438,-1.582 -0.937,-0.378 -1.836,-0.808 -2.695,-1.29 -0.847,-0.481 -1.602,-1.048 -2.266,-1.699 -0.664,-0.651 -1.191,-1.419 -1.582,-2.304 -0.378,-0.899 -0.566,-1.954 -0.566,-3.165 0,-1.614 0.384,-2.994 1.152,-4.14 0.781,-1.146 1.875,-2.025 3.281,-2.637 1.42,-0.612 3.073,-0.918 4.961,-0.918 1.498,0 2.904,0.156 4.219,0.469 1.328,0.312 2.63,0.755 3.906,1.328 l -1.484,3.77 c -1.172,-0.482 -2.311,-0.866 -3.418,-1.153 -1.094,-0.286 -2.214,-0.429 -3.36,-0.429 -0.989,0 -1.829,0.149 -2.519,0.449 -0.69,0.299 -1.217,0.722 -1.582,1.269 -0.352,0.534 -0.527,1.172 -0.527,1.914 0,0.834 0.201,1.537 0.605,2.11 0.417,0.56 1.055,1.074 1.914,1.543 0.873,0.468 1.992,0.989 3.359,1.562 1.576,0.651 2.911,1.335 4.004,2.051 1.107,0.716 1.954,1.575 2.539,2.578 0.586,0.99 0.879,2.233 0.879,3.731 z m 10.429,-13.848 V 307 h -4.59 v -21.621 z m -2.265,-8.281 c 0.703,0 1.308,0.188 1.816,0.566 0.521,0.378 0.781,1.029 0.781,1.953 0,0.912 -0.26,1.563 -0.781,1.953 -0.508,0.378 -1.113,0.567 -1.816,0.567 -0.73,0 -1.348,-0.189 -1.856,-0.567 -0.495,-0.39 -0.742,-1.041 -0.742,-1.953 0,-0.924 0.247,-1.575 0.742,-1.953 0.508,-0.378 1.126,-0.566 1.856,-0.566 z m 17.694,26.582 c 0.599,0 1.192,-0.052 1.778,-0.157 0.585,-0.117 1.119,-0.253 1.601,-0.41 v 3.477 c -0.508,0.221 -1.165,0.41 -1.973,0.566 -0.807,0.156 -1.647,0.235 -2.519,0.235 -1.224,0 -2.324,-0.202 -3.301,-0.606 -0.976,-0.417 -1.751,-1.126 -2.324,-2.129 -0.573,-1.002 -0.859,-2.389 -0.859,-4.16 v -11.621 h -2.95 v -2.051 l 3.164,-1.621 1.504,-4.629 h 2.891 v 4.805 h 6.191 v 3.496 h -6.191 v 11.563 c 0,1.093 0.273,1.907 0.82,2.441 0.547,0.534 1.27,0.801 2.168,0.801 z m 17.187,-18.711 c 1.927,0 3.581,0.397 4.961,1.191 1.38,0.794 2.441,1.921 3.183,3.379 0.743,1.458 1.114,3.203 1.114,5.234 v 2.461 h -14.434 c 0.052,2.097 0.612,3.711 1.68,4.844 1.081,1.133 2.591,1.699 4.531,1.699 1.38,0 2.617,-0.13 3.711,-0.39 1.107,-0.274 2.246,-0.671 3.418,-1.192 v 3.731 c -1.081,0.508 -2.181,0.879 -3.301,1.113 -1.12,0.234 -2.461,0.352 -4.023,0.352 -2.123,0 -3.991,-0.411 -5.606,-1.231 -1.601,-0.833 -2.858,-2.07 -3.769,-3.711 -0.899,-1.64 -1.348,-3.678 -1.348,-6.113 0,-2.422 0.41,-4.479 1.231,-6.172 0.82,-1.693 1.972,-2.982 3.457,-3.867 1.484,-0.886 3.216,-1.328 5.195,-1.328 z m 0,3.457 c -1.445,0 -2.617,0.469 -3.516,1.406 -0.885,0.938 -1.406,2.311 -1.562,4.121 h 9.844 c -0.013,-1.081 -0.196,-2.038 -0.547,-2.871 -0.339,-0.833 -0.86,-1.484 -1.563,-1.953 -0.69,-0.469 -1.575,-0.703 -2.656,-0.703 z m 44.591,18.574 -2.8,-7.93 h -10.91 l -2.8,7.93 h -4.938 l 10.628,-28.672 h 5.19 L 1024.85,307 Z m -4.01,-11.953 -2.71,-7.813 c -0.11,-0.338 -0.26,-0.813 -0.45,-1.425 -0.2,-0.625 -0.39,-1.257 -0.59,-1.895 -0.19,-0.651 -0.35,-1.198 -0.49,-1.641 -0.13,0.534 -0.29,1.133 -0.48,1.797 -0.19,0.651 -0.37,1.263 -0.55,1.836 -0.17,0.573 -0.3,1.016 -0.39,1.328 l -2.74,7.813 z"
     fill="#232253"
     id="path1283" />
  <path
     d="m 901.445,689 -2.793,-7.93 H 887.734 L 884.941,689 H 880 l 10.625,-28.672 h 5.195 L 906.426,689 Z m -4.004,-11.953 -2.714,-7.813 c -0.105,-0.338 -0.254,-0.813 -0.45,-1.425 -0.195,-0.625 -0.39,-1.257 -0.586,-1.895 -0.195,-0.651 -0.358,-1.198 -0.488,-1.641 -0.13,0.534 -0.293,1.133 -0.488,1.797 -0.182,0.651 -0.365,1.263 -0.547,1.836 -0.169,0.573 -0.3,1.016 -0.391,1.328 l -2.734,7.813 z m 24.355,-10.078 c 2.435,0 4.33,0.631 5.684,1.894 1.367,1.25 2.05,3.262 2.05,6.035 V 689 h -4.589 v -13.242 c 0,-1.68 -0.345,-2.936 -1.036,-3.77 -0.69,-0.846 -1.757,-1.269 -3.203,-1.269 -2.096,0 -3.554,0.644 -4.375,1.933 -0.807,1.289 -1.211,3.158 -1.211,5.606 V 689 h -4.589 v -21.621 h 3.574 l 0.644,2.93 h 0.254 c 0.469,-0.756 1.048,-1.374 1.738,-1.856 0.704,-0.495 1.485,-0.866 2.344,-1.113 0.873,-0.248 1.778,-0.371 2.715,-0.371 z m 23.007,18.711 c 0.599,0 1.192,-0.052 1.777,-0.157 0.586,-0.117 1.12,-0.253 1.602,-0.41 v 3.477 c -0.508,0.221 -1.165,0.41 -1.973,0.566 -0.807,0.156 -1.647,0.235 -2.519,0.235 -1.224,0 -2.324,-0.202 -3.301,-0.606 -0.977,-0.417 -1.751,-1.126 -2.324,-2.129 -0.573,-1.002 -0.86,-2.389 -0.86,-4.16 v -11.621 h -2.949 v -2.051 l 3.164,-1.621 1.504,-4.629 h 2.891 v 4.805 h 6.191 v 3.496 h -6.191 v 11.563 c 0,1.093 0.273,1.907 0.82,2.441 0.547,0.534 1.27,0.801 2.168,0.801 z m 17.187,-18.711 c 1.927,0 3.581,0.397 4.961,1.191 1.38,0.794 2.441,1.921 3.183,3.379 0.743,1.458 1.114,3.203 1.114,5.234 v 2.461 h -14.434 c 0.052,2.097 0.612,3.711 1.68,4.844 1.08,1.133 2.591,1.699 4.531,1.699 1.38,0 2.617,-0.13 3.711,-0.39 1.107,-0.274 2.246,-0.671 3.418,-1.192 v 3.731 c -1.081,0.508 -2.181,0.879 -3.301,1.113 -1.12,0.234 -2.461,0.352 -4.023,0.352 -2.123,0 -3.991,-0.411 -5.606,-1.231 -1.601,-0.833 -2.858,-2.07 -3.769,-3.711 -0.899,-1.64 -1.348,-3.678 -1.348,-6.113 0,-2.422 0.41,-4.479 1.231,-6.172 0.82,-1.693 1.972,-2.982 3.457,-3.867 1.484,-0.886 3.216,-1.328 5.195,-1.328 z m 0,3.457 c -1.445,0 -2.617,0.469 -3.516,1.406 -0.885,0.938 -1.406,2.311 -1.562,4.121 h 9.843 c -0.013,-1.081 -0.195,-2.038 -0.546,-2.871 -0.339,-0.833 -0.86,-1.484 -1.563,-1.953 -0.69,-0.469 -1.575,-0.703 -2.656,-0.703 z m 26.503,-3.457 c 2.435,0 4.329,0.631 5.684,1.894 1.367,1.25 2.05,3.262 2.05,6.035 V 689 h -4.59 v -13.242 c 0,-1.68 -0.345,-2.936 -1.035,-3.77 -0.69,-0.846 -1.757,-1.269 -3.203,-1.269 -2.096,0 -3.554,0.644 -4.375,1.933 -0.807,1.289 -1.211,3.158 -1.211,5.606 V 689 h -4.59 v -21.621 h 3.575 l 0.644,2.93 h 0.254 c 0.469,-0.756 1.048,-1.374 1.738,-1.856 0.703,-0.495 1.485,-0.866 2.344,-1.113 0.873,-0.248 1.777,-0.371 2.715,-0.371 z m 26.227,0 c 2.44,0 4.33,0.631 5.69,1.894 1.36,1.25 2.05,3.262 2.05,6.035 V 689 h -4.59 v -13.242 c 0,-1.68 -0.35,-2.936 -1.04,-3.77 -0.69,-0.846 -1.76,-1.269 -3.2,-1.269 -2.1,0 -3.56,0.644 -4.38,1.933 -0.8,1.289 -1.21,3.158 -1.21,5.606 V 689 h -4.59 v -21.621 h 3.58 l 0.64,2.93 h 0.26 c 0.46,-0.756 1.04,-1.374 1.73,-1.856 0.71,-0.495 1.49,-0.866 2.35,-1.113 0.87,-0.248 1.78,-0.371 2.71,-0.371 z m 23.58,0 c 1.92,0 3.58,0.397 4.96,1.191 1.38,0.794 2.44,1.921 3.18,3.379 0.74,1.458 1.11,3.203 1.11,5.234 v 2.461 h -14.43 c 0.05,2.097 0.61,3.711 1.68,4.844 1.08,1.133 2.59,1.699 4.53,1.699 1.38,0 2.62,-0.13 3.71,-0.39 1.11,-0.274 2.25,-0.671 3.42,-1.192 v 3.731 c -1.08,0.508 -2.18,0.879 -3.3,1.113 -1.12,0.234 -2.46,0.352 -4.02,0.352 -2.13,0 -3.99,-0.411 -5.61,-1.231 -1.6,-0.833 -2.86,-2.07 -3.77,-3.711 -0.9,-1.64 -1.35,-3.678 -1.35,-6.113 0,-2.422 0.41,-4.479 1.23,-6.172 0.82,-1.693 1.98,-2.982 3.46,-3.867 1.49,-0.886 3.22,-1.328 5.2,-1.328 z m 0,3.457 c -1.45,0 -2.62,0.469 -3.52,1.406 -0.88,0.938 -1.41,2.311 -1.56,4.121 h 9.84 c -0.01,-1.081 -0.19,-2.038 -0.55,-2.871 -0.33,-0.833 -0.85,-1.484 -1.56,-1.953 -0.69,-0.469 -1.57,-0.703 -2.65,-0.703 z"
     fill="#232253"
     id="path1285" />
  <line
     x1="837"
     y1="293"
     x2="896"
     y2="293"
     stroke="#EE5557"
     stroke-width="2"
     id="line1287"
     style="stroke:#232253;stroke-opacity:1" />
  <path
     d="m 75.2344,681.227 c 0,1.692 -0.4167,3.151 -1.25,4.375 -0.8203,1.224 -2.0052,2.161 -3.5547,2.812 -1.5365,0.651 -3.3724,0.977 -5.5078,0.977 -1.0417,0 -2.0378,-0.059 -2.9883,-0.176 -0.9505,-0.117 -1.849,-0.287 -2.6953,-0.508 -0.8334,-0.234 -1.5951,-0.514 -2.2852,-0.84 v -4.414 c 1.1589,0.508 2.4545,0.97 3.8867,1.387 1.4323,0.403 2.8907,0.605 4.375,0.605 1.211,0 2.2136,-0.156 3.0079,-0.468 0.8072,-0.326 1.4062,-0.782 1.7968,-1.368 0.3907,-0.599 0.586,-1.295 0.586,-2.089 0,-0.847 -0.2279,-1.563 -0.6836,-2.149 -0.4558,-0.586 -1.1459,-1.12 -2.0703,-1.601 -0.9115,-0.495 -2.0573,-1.023 -3.4375,-1.582 -0.9375,-0.378 -1.836,-0.808 -2.6953,-1.29 -0.8464,-0.481 -1.6016,-1.048 -2.2657,-1.699 -0.664,-0.651 -1.1914,-1.419 -1.582,-2.304 -0.3776,-0.899 -0.5664,-1.954 -0.5664,-3.165 0,-1.614 0.3841,-2.994 1.1523,-4.14 0.7813,-1.146 1.875,-2.025 3.2813,-2.637 1.4193,-0.612 3.0729,-0.918 4.9609,-0.918 1.4974,0 2.9037,0.156 4.2188,0.469 1.3281,0.312 2.6302,0.755 3.9062,1.328 l -1.4844,3.77 c -1.1718,-0.482 -2.3112,-0.866 -3.4179,-1.153 -1.0938,-0.286 -2.2136,-0.429 -3.3594,-0.429 -0.9896,0 -1.8294,0.149 -2.5195,0.449 -0.6901,0.299 -1.2175,0.722 -1.5821,1.269 -0.3515,0.534 -0.5273,1.172 -0.5273,1.914 0,0.834 0.2018,1.537 0.6055,2.11 0.4166,0.56 1.0547,1.074 1.914,1.543 0.8724,0.468 1.9922,0.989 3.3594,1.562 1.5755,0.651 2.9102,1.335 4.0039,2.051 1.1068,0.716 1.9531,1.575 2.5391,2.578 0.5859,0.99 0.8789,2.233 0.8789,3.731 z M 85.6633,667.379 V 689 h -4.5899 v -21.621 z m -2.2656,-8.281 c 0.7031,0 1.3085,0.188 1.8164,0.566 0.5208,0.378 0.7812,1.029 0.7812,1.953 0,0.912 -0.2604,1.563 -0.7812,1.953 -0.5079,0.378 -1.1133,0.567 -1.8164,0.567 -0.7292,0 -1.3477,-0.189 -1.8555,-0.567 -0.4948,-0.39 -0.7422,-1.041 -0.7422,-1.953 0,-0.924 0.2474,-1.575 0.7422,-1.953 0.5078,-0.378 1.1263,-0.566 1.8555,-0.566 z m 17.6943,26.582 c 0.599,0 1.192,-0.052 1.778,-0.157 0.585,-0.117 1.119,-0.253 1.601,-0.41 v 3.477 c -0.508,0.221 -1.165,0.41 -1.973,0.566 -0.807,0.156 -1.647,0.235 -2.5191,0.235 -1.224,0 -2.3242,-0.202 -3.3008,-0.606 -0.9765,-0.417 -1.7513,-1.126 -2.3242,-2.129 -0.5729,-1.002 -0.8594,-2.389 -0.8594,-4.16 v -11.621 h -2.9492 v -2.051 l 3.1641,-1.621 1.5039,-4.629 h 2.8906 v 4.805 h 6.1911 v 3.496 h -6.1911 v 11.563 c 0,1.093 0.2734,1.907 0.8203,2.441 0.5469,0.534 1.2698,0.801 2.1678,0.801 z m 17.187,-18.711 c 1.927,0 3.581,0.397 4.961,1.191 1.38,0.794 2.441,1.921 3.183,3.379 0.743,1.458 1.114,3.203 1.114,5.234 v 2.461 h -14.434 c 0.052,2.097 0.612,3.711 1.68,4.844 1.081,1.133 2.591,1.699 4.531,1.699 1.38,0 2.617,-0.13 3.711,-0.39 1.107,-0.274 2.246,-0.671 3.418,-1.192 v 3.731 c -1.081,0.508 -2.181,0.879 -3.301,1.113 -1.12,0.234 -2.461,0.352 -4.023,0.352 -2.123,0 -3.991,-0.411 -5.606,-1.231 -1.601,-0.833 -2.858,-2.07 -3.769,-3.711 -0.899,-1.64 -1.348,-3.678 -1.348,-6.113 0,-2.422 0.41,-4.479 1.231,-6.172 0.82,-1.693 1.972,-2.982 3.457,-3.867 1.484,-0.886 3.216,-1.328 5.195,-1.328 z m 0,3.457 c -1.445,0 -2.617,0.469 -3.516,1.406 -0.885,0.938 -1.406,2.311 -1.562,4.121 h 9.844 c -0.013,-1.081 -0.196,-2.038 -0.547,-2.871 -0.339,-0.833 -0.86,-1.484 -1.563,-1.953 -0.69,-0.469 -1.575,-0.703 -2.656,-0.703 z m 26.893,-9.981 h 8.496 c 3.685,0 6.465,0.534 8.34,1.602 1.875,1.068 2.812,2.91 2.812,5.527 0,1.094 -0.195,2.084 -0.586,2.969 -0.377,0.872 -0.931,1.595 -1.66,2.168 -0.729,0.56 -1.627,0.937 -2.695,1.133 v 0.195 c 1.107,0.195 2.09,0.54 2.949,1.035 0.873,0.495 1.556,1.205 2.051,2.129 0.508,0.925 0.762,2.123 0.762,3.594 0,1.745 -0.417,3.229 -1.25,4.453 -0.821,1.224 -1.999,2.155 -3.536,2.793 -1.523,0.638 -3.333,0.957 -5.429,0.957 h -10.254 z m 4.687,11.778 h 4.493 c 2.122,0 3.593,-0.345 4.414,-1.035 0.82,-0.691 1.23,-1.7 1.23,-3.028 0,-1.354 -0.488,-2.331 -1.465,-2.93 -0.963,-0.598 -2.5,-0.898 -4.609,-0.898 h -4.063 z m 0,3.789 v 9.062 h 4.942 c 2.187,0 3.724,-0.423 4.609,-1.269 0.886,-0.847 1.328,-1.993 1.328,-3.438 0,-0.885 -0.202,-1.653 -0.605,-2.305 -0.391,-0.651 -1.035,-1.152 -1.934,-1.503 -0.898,-0.365 -2.109,-0.547 -3.633,-0.547 z"
     fill="#232253"
     id="path1289" />
  <line
     y1="675"
     x2="184"
     y2="675"
     stroke="#EE5557"
     stroke-width="2"
     id="line1291"
     style="stroke:#232253;stroke-opacity:1"
     x1="243" />
  <line
     x1="731"
     y1="675"
     x2="864"
     y2="675"
     stroke="#EE5557"
     stroke-width="2"
     id="line1293"
     style="stroke:#232253;stroke-opacity:1" />
  <line
     x1="643.01532"
     y1="918.85022"
     x2="776.01532"
     y2="918.85022"
     stroke="#EE5557"
     stroke-width="2"
     id="line1293-9"
     style="stroke:#232253;stroke-opacity:1" />
  <mask
     id="path-43-inside-1_1638_18324"
     fill="#ffffff">
    <path
       d="m 246,534 c 0,-9.941 8.059,-18 18,-18 h 14 v 319 h -14 c -9.941,0 -18,-8.059 -18,-18 z"
       id="path1295" />
  </mask>
  <path
     d="m 246,534 c 0,-9.941 8.059,-18 18,-18 h 14 v 319 h -14 c -9.941,0 -18,-8.059 -18,-18 z"
     fill="#ffffff"
     id="path1298" />
  <path
     d="m 244,534 c 0,-11.046 8.954,-20 20,-20 h 14 v 4 h -14 c -8.837,0 -16,7.163 -16,16 z m 34,303 h -14 c -11.046,0 -20,-8.954 -20,-20 h 4 c 0,8.837 7.163,16 16,16 h 14 z m -14,0 c -11.046,0 -20,-8.954 -20,-20 V 534 c 0,-11.046 8.954,-20 20,-20 v 4 c -8.837,0 -16,7.163 -16,16 v 283 c 0,8.837 7.163,16 16,16 z m 14,-321 v 319 z"
     fill="#ee5557"
     mask="url(#path-43-inside-1_1638_18324)"
     id="path1300" />
  <mask
     id="path-45-inside-2_1638_18324"
     fill="#ffffff">
    <path
       d="m 243,534 c 0,-9.941 8.059,-18 18,-18 h 14 v 319 h -14 c -9.941,0 -18,-8.059 -18,-18 z"
       id="path1302" />
  </mask>
  <path
     d="m 243,534 c 0,-9.941 8.059,-18 18,-18 h 14 v 319 h -14 c -9.941,0 -18,-8.059 -18,-18 z"
     fill="#ffffff"
     id="path1305" />
  <path
     d="m 241,534 c 0,-11.046 8.954,-20 20,-20 h 14 v 4 h -14 c -8.837,0 -16,7.163 -16,16 z m 34,303 h -14 c -11.046,0 -20,-8.954 -20,-20 h 4 c 0,8.837 7.163,16 16,16 h 14 z m -14,0 c -11.046,0 -20,-8.954 -20,-20 V 534 c 0,-11.046 8.954,-20 20,-20 v 4 c -8.837,0 -16,7.163 -16,16 v 283 c 0,8.837 7.163,16 16,16 z m 14,-321 v 319 z"
     fill="#EE5557"
     mask="url(#path-45-inside-2_1638_18324)"
     id="path1307"
     style="fill:#232253;fill-opacity:1" />
  <mask
     id="path-47-inside-3_1638_18324"
     fill="#ffffff">
    <path
       d="m 837,428 c 0,9.941 -8.059,18 -18,18 H 805 V 127 h 14 c 9.941,0 18,8.059 18,18 z"
       id="path1309" />
  </mask>
  <path
     d="m 837,428 c 0,9.941 -8.059,18 -18,18 H 805 V 127 h 14 c 9.941,0 18,8.059 18,18 z"
     fill="#ffffff"
     id="path1312" />
  <path
     d="m 839,428 c 0,11.046 -8.954,20 -20,20 h -14 v -4 h 14 c 8.837,0 16,-7.163 16,-16 z M 805,125 h 14 c 11.046,0 20,8.954 20,20 h -4 c 0,-8.837 -7.163,-16 -16,-16 h -14 z m 14,0 c 11.046,0 20,8.954 20,20 v 283 c 0,11.046 -8.954,20 -20,20 v -4 c 8.837,0 16,-7.163 16,-16 V 145 c 0,-8.837 -7.163,-16 -16,-16 z M 805,446 V 127 Z"
     fill="#EE5557"
     mask="url(#path-47-inside-3_1638_18324)"
     id="path1314"
     style="fill:#232253;fill-opacity:1" />
  <defs
     id="defs1319">
    <clipPath
       id="clip0_1638_18324">
      <rect
         width="465.19"
         height="903.07001"
         fill="#ffffff"
         transform="translate(307,88)"
         id="rect1316"
         x="0"
         y="0" />
    </clipPath>
  </defs>
  <text
     xml:space="preserve"
     style="font-style:normal;font-variant:normal;font-weight:600;font-stretch:normal;font-size:40px;font-family:'Open Sans';-inkscape-font-specification:'Open Sans Semi-Bold';opacity:1;fill:#232253;fill-opacity:1;stroke:#4a488d;stroke-width:10.8472;stroke-opacity:0"
     x="793.5484"
     y="931.61292"
     id="text4064"><tspan
       sodipodi:role="line"
       id="tspan4062"
       x="793.5484"
       y="931.61292"
       style="font-size:40px">Support</tspan></text>
</svg>
