<?xml version="1.0" encoding="UTF-8" standalone="no"?>
<svg
   viewBox="0 0 1080 1080"
   fill="none"
   version="1.1"
   id="svg84"
   sodipodi:docname="Tests.svg"
   xmlns:inkscape="http://www.inkscape.org/namespaces/inkscape"
   xmlns:sodipodi="http://sodipodi.sourceforge.net/DTD/sodipodi-0.dtd"
   xmlns="http://www.w3.org/2000/svg"
   xmlns:svg="http://www.w3.org/2000/svg">
  <sodipodi:namedview
     id="namedview86"
     pagecolor="#ffffff"
     bordercolor="#000000"
     borderopacity="0.25"
     inkscape:showpageshadow="2"
     inkscape:pageopacity="0.0"
     inkscape:pagecheckerboard="0"
     inkscape:deskcolor="#d1d1d1"
     showgrid="false" />
  <rect
     width="1080"
     height="1080"
     fill="#ffffff"
     id="rect2"
     x="0"
     y="0" />
  <g
     clip-path="url(#clip0_1638_18461)"
     id="g6">
    <path
       d="m 206.891,498.16 34.95,52.75 92.64,71.19 40.19,78.31 -17.47,114.13 -29.72,95.74 26.22,28.88 227.21,48.23 29.71,-64.54 50.69,-26.35 115.35,36.66 87.39,-75.98 -50.69,-25.92 -10.48,-66.89 -10.49,-94.3 -29.71,-4.19 61.17,-71.26 31.46,-117.55 -148.56,-52.46 -118.85,-98.81 h -43.69 l -31.46,84.53 -73.41,37 -76.9,-26.22 -17.48,43.88 17.48,38.45 -78.65,-24.73 z"
       fill="#f1ede6"
       stroke="#232253"
       stroke-width="12"
       stroke-miterlimit="10"
       id="path4" />
  </g>
  <g
     clip-path="url(#clip1_1638_18461)"
     id="g74">
    <path
       d="m 651.33,333.18 c 44.38,0 44.84,21.18 71.83,81.78 14.41,-27.45 25.13,-68.37 25.13,-68.37 l 37.59,22.77 c 0,0 -10.84,120.67 -40.93,120.82 -30.09,0.15 -81.53,-59 -81.53,-59 l -12.09,-98.01 z"
       fill="#EE5557"
       stroke="#232253"
       stroke-width="12"
       stroke-miterlimit="10"
       id="path8"
       style="fill:#cde5f6;fill-opacity:1" />
    <path
       d="m 768.82,373.42 c 20.932,0 37.9,-16.968 37.9,-37.9 0,-20.931 -16.968,-37.9 -37.9,-37.9 -20.932,0 -37.9,16.969 -37.9,37.9 0,20.932 16.968,37.9 37.9,37.9 z"
       fill="#f1ede6"
       stroke="#232253"
       stroke-width="12"
       stroke-miterlimit="10"
       id="path10" />
    <path
       d="m 830.288,184.92 h -47.15 c -12.327,0 -22.32,9.993 -22.32,22.32 v 112.41 c 0,12.327 9.993,22.32 22.32,22.32 h 47.15 c 12.327,0 22.32,-9.993 22.32,-22.32 V 207.24 c 0,-12.327 -9.993,-22.32 -22.32,-22.32 z"
       fill="#d0d0e7"
       stroke="#232253"
       stroke-width="12"
       stroke-miterlimit="10"
       id="path12" />
    <path
       d="m 783.189,262.33 16.43,16.43 30.63,-30.63"
       stroke="#232253"
       stroke-width="12"
       stroke-linecap="round"
       stroke-linejoin="round"
       id="path14" />
    <path
       d="m 771.709,163.26 c 19.34,-19.34 50.69,-19.34 70.03,0"
       stroke="#232253"
       stroke-width="12"
       stroke-miterlimit="10"
       id="path16" />
    <path
       d="m 751.289,142.84 c 30.61,-30.61 80.25,-30.61 110.86,0"
       stroke="#232253"
       stroke-width="12"
       stroke-miterlimit="10"
       id="path18" />
    <path
       d="m 730.869,122.42 c 41.89,-41.8901 109.81,-41.8901 151.7,0"
       stroke="#232253"
       stroke-width="12"
       stroke-miterlimit="10"
       id="path20" />
    <path
       d="m 747.48,327.55 20.08,-12.11 c 7.04,-4.25 16.2,-1.98 20.44,5.06 4.25,7.04 1.98,16.2 -5.06,20.44 l -20.08,12.11"
       fill="#f1ede6"
       id="path22" />
    <path
       d="m 747.48,327.55 20.08,-12.11 c 7.04,-4.25 16.2,-1.98 20.44,5.06 4.25,7.04 1.98,16.2 -5.06,20.44 l -20.08,12.11"
       stroke="#232253"
       stroke-width="12"
       stroke-miterlimit="10"
       id="path24" />
    <path
       d="M 589.38,298.83 H 476.41 c -33.916,0 -61.41,27.494 -61.41,61.41 v 186.59 c 0,33.916 27.494,61.41 61.41,61.41 h 112.97 c 33.916,0 61.41,-27.494 61.41,-61.41 V 360.24 c 0,-33.916 -27.494,-61.41 -61.41,-61.41 z"
       fill="#9695b1"
       stroke="#232253"
       stroke-width="12"
       stroke-miterlimit="10"
       id="path26" />
    <path
       d="M 516.41,608.24 C 482.5,608.24 455,580.75 455,546.83 V 360.24 c 0,-33.91 27.49,-61.41 61.41,-61.41"
       stroke="#232253"
       stroke-width="12"
       stroke-miterlimit="10"
       id="path28" />
    <path
       d="m 608.089,297.62 h -37.9 v 37.9 h 37.9 z"
       fill="#f1ede6"
       stroke="#232253"
       stroke-width="12"
       stroke-miterlimit="10"
       id="path30" />
    <path
       d="m 530.3,333.18 c -61.15,0 -115.49,73.89 -92.66,111.1 22.83,37.21 59.43,52.79 59.43,52.79 l 22.17,-21.67 -30.67,-50.29 c 22.48,-12.25 30.67,-16.04 30.67,-16.04 4.18,16.82 16.77,81.12 16.77,81.12 h 136.53 c 4.52,-76.86 -7.99,-134.48 -21.2,-157 H 530.31 Z"
       fill="#EE5557"
       stroke="#232253"
       stroke-width="12"
       stroke-miterlimit="10"
       id="path32"
       style="fill:#cde5f6;fill-opacity:1" />
    <path
       d="m 569.119,484.26 c 22.67,-33.69 27.5,-125.57 3.67,-151.08 h -28.35 c 21.27,22.76 19.71,98.38 3.02,138.34"
       fill="#68678e"
       id="path34" />
    <path
       d="m 569.119,484.26 c 22.67,-33.69 27.5,-125.57 3.67,-151.08 h -28.35 c 21.27,22.76 19.71,98.38 3.02,138.34"
       stroke="#232253"
       stroke-width="12"
       stroke-miterlimit="10"
       id="path36" />
    <path
       d="m 640.219,490.18 c 26.66,-27.06 33.86,-129.8 8.44,-157 h -28.35 c 25.42,27.21 18.22,129.94 -8.44,157"
       fill="#68678e"
       id="path38" />
    <path
       d="m 640.219,490.18 c 26.66,-27.06 33.86,-129.8 8.44,-157 h -28.35 c 25.42,27.21 18.22,129.94 -8.44,157"
       stroke="#232253"
       stroke-width="12"
       stroke-miterlimit="10"
       id="path40" />
    <path
       d="m 523.31,490.18 c 0.42,95.18 -21.23,193.79 -17.94,297.85 h 60.95 c 14.96,-72.32 34.56,-217.74 34.56,-217.74 l 4.56,217.74 c 16.76,0 60.19,0 60.19,0 1.06,-104.2 19,-226.59 6.53,-297.85 z"
       fill="#EE5557"
       stroke="#232253"
       stroke-width="12"
       stroke-miterlimit="10"
       id="path42"
       style="fill:#cde5f6;fill-opacity:1" />
    <path
       d="m 661.538,788.03 c 5.78,17.53 23.44,18.77 37.3,24.09 16.06,6.18 19.06,22.26 16.88,25.77 h -115.81 l 6.43,-49.87 h 55.2 z"
       fill="#9695b1"
       stroke="#232253"
       stroke-width="12"
       stroke-miterlimit="10"
       id="path44" />
    <path
       d="m 562.05,788.03 c 5.78,17.53 23.44,18.77 37.3,24.09 16.06,6.18 19.06,22.26 16.88,25.77 H 500.42 l 6.43,-49.87 h 55.2 z"
       fill="#9695b1"
       stroke="#232253"
       stroke-width="12"
       stroke-miterlimit="10"
       id="path46" />
    <path
       d="m 665.358,763.55 h -54.45"
       stroke="#232253"
       stroke-width="12"
       stroke-miterlimit="10"
       id="path48" />
    <path
       d="m 573.729,763.55 h -68.7"
       stroke="#232253"
       stroke-width="12"
       stroke-miterlimit="10"
       id="path50" />
    <path
       d="m 561.179,584.19 h -66.31 v 85.36 h 66.31 z"
       fill="#EE5557"
       stroke="#232253"
       stroke-width="12"
       stroke-miterlimit="10"
       id="path52"
       style="fill:#cde5f6;fill-opacity:1" />
    <path
       d="m 494.869,617.68 h 66.31"
       stroke="#232253"
       stroke-width="12"
       stroke-miterlimit="10"
       id="path54" />
    <path
       d="m 525.648,601.62 v 31.82"
       stroke="#232253"
       stroke-width="12"
       stroke-miterlimit="10"
       id="path56" />
    <path
       d="m 538.539,546.53 c 20.931,0 37.9,-16.968 37.9,-37.9 0,-20.932 -16.969,-37.9 -37.9,-37.9 -20.932,0 -37.9,16.968 -37.9,37.9 0,20.932 16.968,37.9 37.9,37.9 z"
       fill="#f1ede6"
       stroke="#232253"
       stroke-width="12"
       stroke-miterlimit="10"
       id="path58" />
    <path
       d="m 593.44,315.83 c 26.494,0 47.97,-21.477 47.97,-47.97 0,-26.493 -21.476,-47.97 -47.97,-47.97 -26.493,0 -47.97,21.477 -47.97,47.97 0,26.493 21.477,47.97 47.97,47.97 z"
       fill="#f1ede6"
       stroke="#232253"
       stroke-width="12"
       stroke-miterlimit="10"
       id="path60" />
    <path
       d="m 566.521,196.03 h 19.61 c 15.8,0 28.62,12.83 28.62,28.62 v 20.41 h -76.86 v -20.41 c 0,-15.8 12.829,-28.62 28.619,-28.62 z"
       fill="#68678e"
       stroke="#232253"
       stroke-width="12"
       stroke-miterlimit="10"
       id="path62" />
    <path
       d="m 589.491,196.03 h 19.61 c 15.8,0 28.62,12.83 28.62,28.62 v 20.41 h -76.86 v -20.41 c 0,-15.8 12.83,-28.62 28.62,-28.62 z"
       fill="#EE5557"
       stroke="#232253"
       stroke-width="12"
       stroke-miterlimit="10"
       id="path64"
       style="fill:#cde5f6;fill-opacity:1" />
    <path
       d="m 637.73,245.07 h 51.7"
       stroke="#232253"
       stroke-width="12"
       stroke-miterlimit="10"
       id="path66" />
    <path
       d="m 561.11,257.28 c -6.98,-6.98 -18.29,-6.98 -25.27,0 -6.98,6.98 -6.98,18.29 0,25.27 6.98,6.98 18.29,6.98 25.27,0"
       fill="#f1ede6"
       id="path68" />
    <path
       d="m 561.11,257.28 c -6.98,-6.98 -18.29,-6.98 -25.27,0 -6.98,6.98 -6.98,18.29 0,25.27 6.98,6.98 18.29,6.98 25.27,0"
       stroke="#232253"
       stroke-width="12"
       stroke-miterlimit="10"
       id="path70" />
    <path
       d="m 620.611,282.64 c -11.66,11.66 -30.55,11.66 -42.21,0"
       stroke="#232253"
       stroke-width="12"
       stroke-miterlimit="10"
       id="path72" />
  </g>
  <defs
     id="defs82">
    <clipPath
       id="clip0_1638_18461">
      <rect
         width="689.46002"
         height="785.25"
         fill="#ffffff"
         transform="translate(194,209)"
         id="rect76"
         x="0"
         y="0" />
    </clipPath>
    <clipPath
       id="clip1_1638_18461">
      <rect
         width="477.81"
         height="758.90002"
         fill="#ffffff"
         transform="translate(409,85)"
         id="rect79"
         x="0"
         y="0" />
    </clipPath>
  </defs>
</svg>
