<?xml version="1.0" encoding="UTF-8" standalone="no"?>
<svg
   viewBox="0 0 1080 1080"
   fill="none"
   version="1.1"
   id="svg7944"
   sodipodi:docname="ZAC.svg"
   xmlns:inkscape="http://www.inkscape.org/namespaces/inkscape"
   xmlns:sodipodi="http://sodipodi.sourceforge.net/DTD/sodipodi-0.dtd"
   xmlns="http://www.w3.org/2000/svg"
   xmlns:svg="http://www.w3.org/2000/svg">
  <sodipodi:namedview
     id="namedview7946"
     pagecolor="#ffffff"
     bordercolor="#000000"
     borderopacity="0.25"
     inkscape:showpageshadow="2"
     inkscape:pageopacity="0.0"
     inkscape:pagecheckerboard="0"
     inkscape:deskcolor="#d1d1d1"
     showgrid="false" />
  <rect
     width="1080"
     height="1080"
     fill="#ffffff"
     id="rect7892"
     x="0"
     y="0" />
  <path
     d="m 434.103,559.967 h -66.328 l -49.62,33.935 -87.155,84.22 54.943,146.954 23.57,124.701 H 421 L 564.361,852.195 659.097,965.299 701.5,911.5 758.5,852.195 827.5,871 909.415,852.195 922.366,739 972,647.966 H 846.841 L 922.366,559.967 961.209,414.804 896.475,308.269 631.046,228 h -53.943 l -38.843,104.386 26.101,67.5 12.742,56.571 -38.843,69.772 -52.3,-25.933 -21.607,25.933 z"
     fill="#d0d0e7"
     stroke="#232253"
     stroke-width="12"
     stroke-miterlimit="10"
     id="path7894" />
  <path
     d="m 729,531.519 c 0,4.684 3.852,8.481 8.604,8.481 h 15.056 c 4.752,0 8.604,-3.797 8.604,-8.481 v -15.522 c 0,-7.172 -8.469,-11.106 -14.08,-6.541 l -15.057,12.25 c -1.98,1.611 -3.127,4.01 -3.127,6.541 z"
     fill="#232253"
     id="path7896" />
  <path
     d="m 772.995,488.456 c -1.98,1.611 -3.127,4.01 -3.127,6.541 v 36.522 c 0,4.684 3.852,8.481 8.604,8.481 h 15.056 c 4.752,0 8.604,-3.797 8.604,-8.481 v -48.772 c 0,-7.172 -8.469,-11.106 -14.081,-6.541 z"
     fill="#232253"
     id="path7898" />
  <path
     d="m 813.863,455.206 c -1.98,1.611 -3.127,4.01 -3.127,6.541 v 69.772 c 0,4.684 3.852,8.481 8.604,8.481 h 15.056 c 4.752,0 8.604,-3.797 8.604,-8.481 v -82.022 c 0,-7.172 -8.469,-11.106 -14.081,-6.541 z"
     fill="#f8f6f2"
     id="path7900" />
  <path
     d="m 448,806.519 c 0,4.684 3.852,8.481 8.604,8.481 h 15.056 c 4.752,0 8.604,-3.797 8.604,-8.481 v -15.522 c 0,-7.172 -8.469,-11.106 -14.08,-6.541 l -15.057,12.25 c -1.98,1.611 -3.127,4.01 -3.127,6.541 z"
     fill="#232253"
     id="path7902" />
  <path
     d="m 491.995,763.456 c -1.98,1.611 -3.127,4.01 -3.127,6.541 v 36.522 c 0,4.684 3.852,8.481 8.604,8.481 h 15.056 c 4.752,0 8.604,-3.797 8.604,-8.481 v -48.772 c 0,-7.172 -8.469,-11.106 -14.081,-6.541 z"
     fill="#232253"
     id="path7904" />
  <path
     d="m 532.863,730.206 c -1.98,1.611 -3.127,4.01 -3.127,6.541 v 69.772 c 0,4.684 3.852,8.481 8.604,8.481 h 15.056 c 4.752,0 8.604,-3.797 8.604,-8.481 v -82.022 c 0,-7.172 -8.469,-11.106 -14.081,-6.541 z"
     fill="#232253"
     id="path7906" />
  <path
     d="M 533.5,602.5 714,624 v 135.5 l 45,94.5"
     stroke="#232253"
     stroke-width="12"
     stroke-miterlimit="10"
     id="path7908" />
  <path
     d="m 117.997,499.208 129.42,99.018 78.271,41.774 h 83.697 L 528.73,598.226 561.278,515.453 638,398.642 561.278,346.038 528.73,271 409.385,329.792 294.69,291.887 272.991,363.057 300.889,423.396 172.245,380.075 56,413.34 Z"
     fill="white"
     stroke="#EE5557"
     stroke-width="12"
     stroke-linecap="round"
     stroke-linejoin="round"
     stroke-dasharray="20, 20"
     id="path7910"
     style="fill:#f1ede6;fill-opacity:1;stroke:#cde5f6;stroke-opacity:1" />
  <path
     d="m 326.141,261.047 c 35.899,35.9 35.899,94.193 -0.001,130.093 l -65.046,65.047 -65.047,-65.047 c -35.9,-35.9 -35.9,-94.193 0,-130.093 35.9,-35.9 94.194,-35.9 130.094,0 z"
     fill="#9695b1"
     stroke="#232253"
     stroke-width="12"
     stroke-miterlimit="10"
     id="path7912" />
  <path
     d="m 207,359.547 c 0,4.116 3.345,7.453 7.472,7.453 h 13.075 c 4.127,0 7.472,-3.337 7.472,-7.453 v -13.641 c 0,-6.302 -7.355,-9.759 -12.228,-5.748 l -13.075,10.765 c -1.72,1.416 -2.716,3.524 -2.716,5.748 z"
     fill="#d0d0e7"
     id="path7914" />
  <path
     d="m 245.206,321.704 c -1.719,1.416 -2.715,3.524 -2.715,5.748 v 32.095 c 0,4.116 3.345,7.453 7.472,7.453 h 13.075 c 4.126,0 7.472,-3.337 7.472,-7.453 v -42.86 c 0,-6.303 -7.355,-9.76 -12.228,-5.748 z"
     fill="#d0d0e7"
     id="path7916" />
  <path
     d="m 280.697,292.484 c -1.72,1.416 -2.716,3.524 -2.716,5.748 v 61.315 c 0,4.116 3.346,7.453 7.472,7.453 h 13.076 c 4.126,0 7.471,-3.337 7.471,-7.453 v -72.08 c 0,-6.302 -7.355,-9.76 -12.228,-5.748 z"
     fill="#d0d0e7"
     id="path7918" />
  <g
     clip-path="url(#clip0_1638_18446)"
     id="g7922">
    <path
       d="m 285.375,302.413 -5.816,-5.841 -23.059,23.158 -23.059,-23.158 -5.816,5.841 23.059,23.159 -23.059,23.158 5.816,5.842 23.059,-23.159 23.059,23.159 5.816,-5.842 -23.059,-23.158 z"
       fill="#232253"
       id="path7920" />
  </g>
  <path
     d="m 520.14,345.047 c 35.9,35.9 35.9,94.193 0,130.093 l -65.046,65.047 -65.047,-65.047 c -35.9,-35.9 -35.9,-94.193 0,-130.093 35.9,-35.9 94.194,-35.9 130.093,0 z"
     fill="#9695b1"
     stroke="#232253"
     stroke-width="12"
     stroke-miterlimit="10"
     id="path7924" />
  <path
     d="m 406,446.547 c 0,4.116 3.345,7.453 7.472,7.453 h 13.075 c 4.127,0 7.472,-3.337 7.472,-7.453 v -13.641 c 0,-6.302 -7.355,-9.759 -12.228,-5.748 l -13.076,10.765 c -1.719,1.416 -2.715,3.524 -2.715,5.748 z"
     fill="#d0d0e7"
     id="path7926" />
  <path
     d="m 444.206,408.704 c -1.72,1.416 -2.715,3.524 -2.715,5.748 v 32.095 c 0,4.116 3.345,7.453 7.471,7.453 h 13.076 c 4.126,0 7.471,-3.337 7.471,-7.453 v -42.86 c 0,-6.303 -7.355,-9.76 -12.227,-5.748 z"
     fill="#d0d0e7"
     id="path7928" />
  <path
     d="m 479.697,379.484 c -1.72,1.416 -2.716,3.524 -2.716,5.748 v 61.315 c 0,4.116 3.345,7.453 7.472,7.453 h 13.075 c 4.127,0 7.472,-3.337 7.472,-7.453 v -72.08 c 0,-6.302 -7.355,-9.76 -12.228,-5.748 z"
     fill="#d0d0e7"
     id="path7930" />
  <g
     clip-path="url(#clip1_1638_18446)"
     id="g7934">
    <path
       d="m 484.375,389.413 -5.816,-5.841 -23.059,23.158 -23.059,-23.158 -5.816,5.841 23.059,23.159 -23.059,23.158 5.816,5.842 23.059,-23.159 23.059,23.159 5.816,-5.842 -23.059,-23.158 z"
       fill="#232253"
       id="path7932" />
  </g>
  <defs
     id="defs7942">
    <clipPath
       id="clip0_1638_18446">
      <rect
         x="207"
         y="275.85699"
         width="99"
         height="99.428596"
         rx="49.5"
         fill="#ffffff"
         id="rect7936" />
    </clipPath>
    <clipPath
       id="clip1_1638_18446">
      <rect
         x="406"
         y="362.85699"
         width="99"
         height="99.428596"
         rx="49.5"
         fill="#ffffff"
         id="rect7939" />
    </clipPath>
  </defs>
</svg>
