<svg width="14" height="14" viewBox="0 0 14 14" fill="currentColor" xmlns="http://www.w3.org/2000/svg">
<g id="help" opacity="0.7" clip-path="url(#clip0_937_73476)">
<path id="Vector" d="M7.00008 1.16663C3.78008 1.16663 1.16675 3.77996 1.16675 6.99996C1.16675 10.22 3.78008 12.8333 7.00008 12.8333C10.2201 12.8333 12.8334 10.22 12.8334 6.99996C12.8334 3.77996 10.2201 1.16663 7.00008 1.16663ZM7.58341 11.0833H6.41675V9.91663H7.58341V11.0833ZM8.79091 6.56246L8.26591 7.09913C7.97425 7.39663 7.76425 7.66496 7.65925 8.08496C7.61258 8.27163 7.58341 8.48163 7.58341 8.74996H6.41675V8.45829C6.41675 8.18996 6.46341 7.93329 6.54508 7.69413C6.66175 7.35579 6.85425 7.05246 7.09925 6.80746L7.82258 6.07246C8.09091 5.81579 8.21925 5.43079 8.14341 5.02246C8.06758 4.60246 7.74091 4.24663 7.33258 4.12996C6.68508 3.94913 6.08425 4.31663 5.89175 4.87079C5.82175 5.08663 5.64091 5.24996 5.41341 5.24996H5.23841C4.90008 5.24996 4.66675 4.92329 4.76008 4.59663C5.01091 3.73913 5.74008 3.08579 6.64425 2.94579C7.53091 2.80579 8.37675 3.26663 8.90175 3.99579C9.59008 4.94663 9.38591 5.96746 8.79091 6.56246Z"/>
</g>
<defs>
<clipPath id="clip0_937_73476">
<rect width="14" height="14" fill="white"/>
</clipPath>
</defs>
</svg>
