<?xml version="1.0" encoding="UTF-8" standalone="no"?>
<svg
   width="24"
   height="24"
   viewBox="0 0 24 24"
   fill="currentColor"
   version="1.1"
   id="svg142"
   sodipodi:docname="twitter.svg"
   xml:space="preserve"
   inkscape:version="1.2.2 (732a01da63, 2022-12-09)"
   xmlns:inkscape="http://www.inkscape.org/namespaces/inkscape"
   xmlns:sodipodi="http://sodipodi.sourceforge.net/DTD/sodipodi-0.dtd"
   xmlns="http://www.w3.org/2000/svg"
   xmlns:svg="http://www.w3.org/2000/svg"><defs
     id="defs146" /><sodipodi:namedview
     id="namedview144"
     pagecolor="#ffffff"
     bordercolor="#000000"
     borderopacity="0.25"
     inkscape:showpageshadow="2"
     inkscape:pageopacity="0.0"
     inkscape:pagecheckerboard="0"
     inkscape:deskcolor="#d1d1d1"
     showgrid="false"
     inkscape:zoom="23.128284"
     inkscape:cx="8.0204825"
     inkscape:cy="15.111367"
     inkscape:window-width="1920"
     inkscape:window-height="1001"
     inkscape:window-x="-9"
     inkscape:window-y="-9"
     inkscape:window-maximized="1"
     inkscape:current-layer="svg142" /><path
     id="path140"
     style="display:inline;stroke-width:1.0015748;stroke-dasharray:none;fill-opacity:1"
     inkscape:label="path140"
     d="M 12 0 C 5.3725866 0 0 5.3725866 0 12 C 0 18.627393 5.3725866 24 12 24 C 18.627393 24 24 18.627393 24 12 C 24 5.3725866 18.627393 0 12 0 z M 11.980469 5.5039062 L 12.021484 5.5039062 C 13.682659 5.5174874 15.28174 5.6973329 16.212891 6.125 C 16.212891 6.125 18.060547 6.9508064 18.060547 9.7695312 C 18.060547 9.7695312 18.083459 11.849093 17.802734 13.292969 C 17.624569 14.209558 16.206186 15.211843 14.578125 15.40625 C 13.729161 15.507549 12.893271 15.60143 12.001953 15.560547 C 10.544287 15.493761 9.3945313 15.212891 9.3945312 15.212891 C 9.3945312 15.354793 9.4024204 15.488873 9.4199219 15.615234 C 9.6094283 17.053789 10.847839 17.141457 12.019531 17.181641 C 13.202144 17.222104 14.253906 16.888672 14.253906 16.888672 L 14.302734 17.958984 C 14.302734 17.958984 13.475511 18.402678 12.001953 18.484375 C 11.189393 18.529039 10.180981 18.463381 9.0058594 18.152344 C 6.457218 17.477765 6.0182377 14.760466 5.9511719 12.003906 C 5.9307301 11.185465 5.9433594 10.414987 5.9433594 9.7695312 C 5.9433594 6.9508064 7.7910156 6.125 7.7910156 6.125 C 8.7222365 5.6973329 10.319294 5.5174874 11.980469 5.5039062 z " /><path
     d="m 177.50984,80.077 v 60.94125 h -24.14375 v -59.15 c 0,-12.46875 -5.24625,-18.7975 -15.74,-18.7975 -11.6025,0 -17.4175,7.5075 -17.4175,22.3525 V 117.7995 H 96.20734 V 85.42325 c 0,-14.845 -5.81625,-22.3525 -17.41875,-22.3525 -10.49375,0 -15.74,6.32875 -15.74,18.7975 v 59.15 H 38.90484 V 80.077 c 0,-12.455 3.17125,-22.3525 9.54125,-29.675 6.56875,-7.3225 15.17125,-11.07625 25.85,-11.07625 12.355,0 21.71125,4.74875 27.8975,14.2475 l 6.01375,10.08125 6.015,-10.08125 c 6.185,-9.49875 15.54125,-14.2475 27.8975,-14.2475 10.6775,0 19.28,3.75375 25.85,11.07625 6.36875,7.3225 9.54,17.22 9.54,29.675"
     id="path414"
     transform="matrix(0.05600492,0,0,0.05600492,5.9398646,5.5031559)"
     style="fill-opacity:1" /></svg>
