<?xml version="1.0" encoding="UTF-8" standalone="no"?>
<svg
   width="22.363001"
   height="24.115"
   viewBox="0 0 22.363001 24.115"
   fill="currentColor"
   version="1.1"
   id="svg4"
   sodipodi:docname="Metros.svg"
   inkscape:version="1.2.2 (732a01da63, 2022-12-09)"
   xmlns:inkscape="http://www.inkscape.org/namespaces/inkscape"
   xmlns:sodipodi="http://sodipodi.sourceforge.net/DTD/sodipodi-0.dtd"
   xmlns="http://www.w3.org/2000/svg"
   xmlns:svg="http://www.w3.org/2000/svg">
  <defs
     id="defs8" />
  <sodipodi:namedview
     id="namedview6"
     pagecolor="#ffffff"
     bordercolor="#000000"
     borderopacity="0.25"
     inkscape:showpageshadow="2"
     inkscape:pageopacity="0.0"
     inkscape:pagecheckerboard="0"
     inkscape:deskcolor="#d1d1d1"
     showgrid="false"
     inkscape:zoom="24.660349"
     inkscape:cx="1.8856181"
     inkscape:cy="14.719986"
     inkscape:window-width="1920"
     inkscape:window-height="1017"
     inkscape:window-x="-8"
     inkscape:window-y="-8"
     inkscape:window-maximized="1"
     inkscape:current-layer="path286" />
  <path
     d="m 18.032822,21.571169 -2.698,-2.9913 c 0.0624,-0.0421 0.1214,-0.084 0.1655,-0.1288 0.5021,-0.4005 0.9656,-1.020699 1.3043,-1.9815 0.4731,-1.341799 0.8102,-2.5425 0.9021,-4.020699 0.126,-1.821901 -0.6247,-4.6537507 -1.1218,-5.9733807 l -0.1734,-0.46822 c -0.1071,-0.29502 -0.5148,-0.92548 -1.2426,-1.6788499 -0.6226,-0.64673 -1.2218,-0.69575 -2.1346,-0.69575 h -3.7054 c -0.912689,0 -1.5118691,0.04902 -2.1353791,0.69575 -0.7252,0.75191 -1.13563,1.3836499 -1.24281,1.6788499 l -0.17211,0.46896 c -0.49858,1.31871 -1.25085,4.1505597 -1.12319,5.9735397 0.09328,1.4749 0.42689,2.6724 0.9006,4.0198 0.34111,0.960801 0.80586,1.581 1.30719,1.9815 0.04591,0.0441 0.10426,0.0867 0.16699,0.1277 l -2.69943,2.9924 c -0.21875,0.2424 -0.21875,0.6393 0,0.8811 0.21857,0.2423 0.57486,0.2423 0.79214,0 l 0.93225,-1.0338 H 16.308422 l 0.9297,1.0338 c 0.2207,0.2423 0.5755,0.2423 0.7948,0 0.2182,-0.2418 0.2182,-0.6387 -10e-5,-0.8811 z M 6.1104129,11.354189 c -0.20559,-0.53535 0.35208,-4.0318697 0.72538,-4.5379497 h 8.6001291 c 0.3572,0.43494 1.1013,4.0508797 0.796,4.5379497 z m 1.06521,8.82278 0.99388,-1.1038 c 0.4839601,0.1108 0.9296801,0.1136 1.2552192,0.1136 h 3.5129999 c 0.3252,0 0.7715,-0.0028 1.2543,-0.1136 l 0.9963,1.1038 z m -0.16918,-4.0708 c 0,-0.4922 0.40018,-0.891299 0.89273,-0.891299 0.4921901,0 0.8940201,0.399099 0.8940201,0.891299 0,0.4907 -0.40183,0.8909 -0.8940201,0.8909 -0.49255,0 -0.89273,-0.4002 -0.89273,-0.8909 z m 7.3893791,0.870001 c -0.4928,0 -0.8935,-0.401101 -0.8935,-0.892201 0,-0.4914 0.4007,-0.8896 0.8935,-0.8896 0.4934,0 0.8927,0.398401 0.8927,0.8896 2e-4,0.4911 -0.3991,0.892201 -0.8927,0.892201 z"
     id="path2" />
  <path
     id="path347"
     style="display:none;opacity:1;fill-opacity:0;stroke:#232253;stroke-width:0.871;stroke-linecap:round;stroke-miterlimit:20;stroke-dasharray:none;stroke-dashoffset:0;stroke-opacity:1"
     d="M 11.18164,1.6821597 A 10.397249,10.397249 0 0 0 0.78515595,12.078644 10.397249,10.397249 0 0 0 4.2421872,19.816926 l 2.2753906,-2.275391 h -0.021484 v -3.498047 h 3.5175772 l 1.210938,-1.210937 1.210937,1.210937 h 3.478516 v 3.478516 l 2.251953,2.251953 A 10.397249,10.397249 0 0 0 21.578124,12.078644 10.397249,10.397249 0 0 0 11.18164,1.6821597 Z" />
  <g
     id="path286"
     transform="translate(0.34965595,1.2466597)">
    <path
       id="path346"
       style="color:#000000;stroke-linecap:round;stroke-miterlimit:20;-inkscape-stroke:none"
       d="m 10.831984,-1.2466597 c -6.1694231,0 -11.18163994,5.0122167 -11.18163995,11.1816405 10e-9,2.6191532 0.90621199,5.0265432 2.41796875,6.9335942 L 2.7772972,16.15959 C 1.4467564,14.43919 0.65229718,12.281449 0.65229718,9.9349808 c 0,-5.6280173 4.55167022,-10.17968742 10.17968682,-10.17968742 5.628018,1e-8 10.179688,4.55167012 10.179688,10.17968742 0,2.3464682 -0.794459,4.5042092 -2.125,6.2246092 l 0.708984,0.708985 c 1.511757,-1.907051 2.417969,-4.314441 2.417969,-6.9335942 0,-6.1694238 -5.012217,-11.1816405 -11.181641,-11.1816405 z" />
  </g>
</svg>
