<svg width="24" height="21" viewBox="0 0 24 21" fill="none" xmlns="http://www.w3.org/2000/svg">
<g id="Intersect">
<g id="Intersect_2">
<path d="M0 19.2011C0 20.1946 0.810956 21 1.81132 21H4.98113C5.9815 21 6.79245 20.1946 6.79245 19.2011V15.9084C6.79245 14.3871 5.00941 13.5526 3.82811 14.521L0.658296 17.1195C0.241416 17.4612 0 17.97 0 18.5068V19.2011Z" fill="#232253"/>
<path d="M9.26207 10.0665C8.84519 10.4082 8.60377 10.917 8.60377 11.4538V19.2011C8.60377 20.1946 9.41473 21 10.4151 21H13.5849C14.5853 21 15.3962 20.1946 15.3962 19.2011V8.85537C15.3962 7.33412 13.6132 6.49961 12.4319 7.46798L9.26207 10.0665Z" fill="#232253"/>
<path d="M17.8658 3.01346C17.449 3.3552 17.2075 3.86399 17.2075 4.40084V19.2011C17.2075 20.1946 18.0185 21 19.0189 21H22.1887C23.189 21 24 20.1946 24 19.2011V1.80237C24 0.281115 22.217 -0.553397 21.0357 0.414981L17.8658 3.01346Z" fill="#DAD9E9"/>
</g>
</g>
</svg>
