<svg width="24" height="25" viewBox="0 0 24 25" fill="currentColor" xmlns="http://www.w3.org/2000/svg">
<g id="more_vert" clip-path="url(#clip0_2180_6024)">
<path id="Vector" d="M12 16.0669C13.1 16.0669 14 16.9669 14 18.0669C14 19.1669 13.1 20.0669 12 20.0669C10.9 20.0669 10 19.1669 10 18.0669C10 16.9669 10.9 16.0669 12 16.0669ZM12 14.0669C10.9 14.0669 10 13.1669 10 12.0669C10 10.9669 10.9 10.0669 12 10.0669C13.1 10.0669 14 10.9669 14 12.0669C14 13.1669 13.1 14.0669 12 14.0669ZM12 8.06689C10.9 8.06689 10 7.16689 10 6.06689C10 4.96689 10.9 4.06689 12 4.06689C13.1 4.06689 14 4.96689 14 6.06689C14 7.16689 13.1 8.06689 12 8.06689Z"/>
</g>
<defs>
<clipPath id="clip0_2180_6024">
<rect width="24" height="24" fill="white" transform="matrix(1 0 0 -1 0 24.0669)"/>
</clipPath>
</defs>
</svg>
