<svg width="36" height="36" viewBox="0 0 36 36" fill="none" xmlns="http://www.w3.org/2000/svg">
<g filter="url(#filter0_d_3792_41550)">
<rect x="6" y="4" width="24" height="24" rx="12" fill="white"/>
<g clip-path="url(#clip0_3792_41550)">
<path d="M17.9997 11.3332C15.6797 11.3332 13.7531 13.0265 13.3931 15.2465C13.3264 15.6398 13.6531 15.9998 14.0597 15.9998C14.3864 15.9998 14.6597 15.7598 14.7131 15.4332C14.9864 13.8598 16.3531 12.6665 17.9997 12.6665C19.6464 12.6665 21.0131 13.8598 21.2864 15.4332C21.3397 15.7598 21.6131 15.9998 21.9397 15.9998C22.3464 15.9998 22.6664 15.6398 22.5997 15.2465C22.2464 13.0265 20.3197 11.3332 17.9997 11.3332ZM18.6664 17.5265C19.3797 17.2065 19.8397 16.4198 19.6064 15.5332C19.4597 14.9932 19.0264 14.5532 18.4864 14.3998C17.3597 14.0798 16.3331 14.9198 16.3331 15.9998C16.3331 16.6798 16.7464 17.2665 17.3331 17.5265V19.7265L15.5264 21.5265C15.2664 21.7865 15.2664 22.2065 15.5264 22.4665C15.7864 22.7265 16.2064 22.7265 16.4664 22.4665L17.9997 20.9332L19.5331 22.4665C19.7931 22.7265 20.2131 22.7265 20.4731 22.4665C20.7331 22.2065 20.7331 21.7865 20.4731 21.5265L18.6664 19.7265V17.5265ZM17.9997 8.6665C14.1997 8.6665 11.0731 11.5598 10.6997 15.2665C10.6664 15.6598 10.9731 15.9998 11.3664 15.9998C11.7064 15.9998 11.9931 15.7465 12.0264 15.4132C12.3197 12.3732 14.8864 9.99984 17.9997 9.99984C21.1131 9.99984 23.6797 12.3732 23.9731 15.4132C24.0064 15.7465 24.2931 15.9998 24.6331 15.9998C25.0264 15.9998 25.3397 15.6598 25.2997 15.2665C24.9264 11.5598 21.7997 8.6665 17.9997 8.6665Z" fill="#232253"/>
</g>
</g>
<defs>
<filter id="filter0_d_3792_41550" x="0" y="0" width="36" height="36" filterUnits="userSpaceOnUse" color-interpolation-filters="sRGB">
<feFlood flood-opacity="0" result="BackgroundImageFix"/>
<feColorMatrix in="SourceAlpha" type="matrix" values="0 0 0 0 0 0 0 0 0 0 0 0 0 0 0 0 0 0 127 0" result="hardAlpha"/>
<feOffset dy="2"/>
<feGaussianBlur stdDeviation="3"/>
<feComposite in2="hardAlpha" operator="out"/>
<feColorMatrix type="matrix" values="0 0 0 0 0.137255 0 0 0 0 0.133333 0 0 0 0 0.32549 0 0 0 0.14 0"/>
<feBlend mode="normal" in2="BackgroundImageFix" result="effect1_dropShadow_3792_41550"/>
<feBlend mode="normal" in="SourceGraphic" in2="effect1_dropShadow_3792_41550" result="shape"/>
</filter>
<clipPath id="clip0_3792_41550">
<rect width="16" height="16" fill="white" transform="translate(10 8)"/>
</clipPath>
</defs>
</svg>
