<svg width="19" height="19" viewBox="0 0 19 19" fill="currentColor" xmlns="http://www.w3.org/2000/svg">
<g id="Group 71">
<path id="Vector 1" d="M9.3649 14.4658L10.4416 15.9245C10.6301 16.1799 10.9287 16.3307 11.2461 16.3307H13.2493C13.4102 16.3307 13.5688 16.3695 13.7114 16.4438L16.128 17.7031C16.5583 17.9273 17.073 17.6151 17.073 17.1299V14.8178C17.073 14.59 17.1508 14.369 17.2936 14.1914L18.7795 12.3425C18.9222 12.1649 19.0001 11.9439 19.0001 11.7161V10.7566C19.0001 10.2799 18.6636 9.86953 18.1962 9.77605L17.0325 9.54331C16.9679 9.53039 16.9022 9.52389 16.8364 9.52389H13.0186C12.8784 9.52389 12.7399 9.55333 12.6119 9.61032L10.7413 10.443L8.55778 11.5172C7.98331 11.7998 7.81867 12.5419 8.21974 13.0409L9.3649 14.4658Z"/>
<path id="Vector 2" d="M9.42049 5.52116L10.5995 8.49115C10.8152 9.03448 11.4489 9.27775 11.9728 9.0183L12.4099 8.8018C12.5479 8.73347 12.6997 8.69791 12.8537 8.69791H16.9534C17.7483 8.69791 18.1713 7.75984 17.6449 7.16412C17.5496 7.05626 17.4809 6.92761 17.4442 6.78845L17.2017 5.86916C17.1208 5.56223 17.1904 5.23511 17.3892 4.98769L18.7795 3.25783C18.9222 3.08023 19.0001 2.85922 19.0001 2.63137V1.85214C19.0001 1.29986 18.5523 0.852142 18.0001 0.852142H14.5954H12.7461C12.5177 0.852142 12.2961 0.93034 12.1183 1.07373L10.9159 2.04339C10.801 2.13611 10.6669 2.2022 10.5233 2.23694L8.96909 2.61296C8.25672 2.78531 7.96564 3.6401 8.42478 4.21138L9.27051 5.26366C9.33308 5.34152 9.38364 5.42832 9.42049 5.52116Z"/>
<path id="Vector 3" d="M2.47339 4.5938L2.47339 5.72278C2.47339 5.77904 2.47814 5.83519 2.48758 5.89065L2.89529 8.28493L3.07488 11.4497C3.08513 11.6305 3.14427 11.8051 3.24598 11.9548L4.79984 14.2431C4.90452 14.3973 5.0502 14.5191 5.22044 14.5949L6.39545 15.118C7.30673 15.5237 8.18514 14.4913 7.63882 13.6567L7.00221 12.6842C6.67039 12.1773 6.862 11.4941 7.40902 11.2336L9.18333 10.3888C9.647 10.1681 9.86807 9.632 9.69482 9.14857L9.0893 7.45905L8.57245 5.7411C8.52485 5.58288 8.43879 5.43892 8.32196 5.32209L6.8129 3.81303C6.61358 3.61371 6.3394 3.50777 6.05785 3.52129L4.54706 3.5938L3.47339 3.5938C2.92111 3.5938 2.47339 4.04152 2.47339 4.5938Z"/>
</g>
</svg>
