<svg width="24" height="24" viewBox="0 0 24 24" fill="currentColor" xmlns="http://www.w3.org/2000/svg">
<path d="M18.8661 19.9385L16.1681 16.9472C16.2305 16.9051 16.2895 16.8632 16.3336 16.8184C16.8357 16.4179 17.2992 15.7977 17.6379 14.8369C18.111 13.4951 18.4481 12.2944 18.54 10.8162C18.666 8.9943 17.9153 6.16245 17.4182 4.84282L17.2448 4.3746C17.1377 4.07958 16.73 3.44912 16.0022 2.69575C15.3796 2.04902 14.7804 2 13.8676 2H10.1622C9.24951 2 8.65033 2.04902 8.02682 2.69575C7.30162 3.44766 6.89119 4.0794 6.78401 4.3746L6.6119 4.84356C6.11332 6.16227 5.36105 8.99412 5.48871 10.8171C5.58199 12.292 5.9156 13.4895 6.38931 14.8369C6.73042 15.7977 7.19517 16.4179 7.6965 16.8184C7.74241 16.8625 7.80076 16.9051 7.86349 16.9461L5.16406 19.9385C4.94531 20.1809 4.94531 20.5778 5.16406 20.8196C5.38263 21.0619 5.73892 21.0619 5.9562 20.8196L6.88845 19.7858H17.1417L18.0714 20.8196C18.2921 21.0619 18.6469 21.0619 18.8662 20.8196C19.0844 20.5778 19.0844 20.1809 18.8661 19.9385ZM6.94369 9.72152C6.7381 9.18617 7.29577 5.68965 7.66907 5.18357H16.2692C16.6264 5.61851 17.3705 9.23445 17.0652 9.72152H6.94369ZM8.0089 18.5443L9.00278 17.4405C9.48674 17.5513 9.93246 17.5541 10.258 17.5541H13.771C14.0962 17.5541 14.5425 17.5513 15.0253 17.4405L16.0216 18.5443H8.0089ZM7.83972 14.4735C7.83972 13.9813 8.2399 13.5822 8.73245 13.5822C9.22464 13.5822 9.62647 13.9813 9.62647 14.4735C9.62647 14.9642 9.22464 15.3644 8.73245 15.3644C8.2399 15.3644 7.83972 14.9642 7.83972 14.4735ZM15.2291 15.3435C14.7363 15.3435 14.3356 14.9424 14.3356 14.4513C14.3356 13.9599 14.7363 13.5617 15.2291 13.5617C15.7225 13.5617 16.1218 13.9601 16.1218 14.4513C16.122 14.9424 15.7227 15.3435 15.2291 15.3435Z"/>
</svg>
