<svg width="51" height="45" viewBox="0 0 51 45" fill="#FFFFFF" xmlns="http://www.w3.org/2000/svg">
<g id="Page-1">
<g id="Republique-francaise-logo">
<path id="Path" d="M0 0H21.624V7.80423H0V0Z" />
<g id="Group">
<path id="Shape" d="M8.98385 6.89894C9.07015 6.8131 9.15646 6.72725 9.23492 6.6336C9.39185 6.4541 9.54877 6.29021 9.72923 6.13413C9.78415 6.0873 9.83908 6.04048 9.894 6.00926C9.90969 5.99365 9.90969 5.96243 9.92538 5.94683C9.85477 5.97804 9.80769 6.03267 9.72923 6.06389C9.71354 6.06389 9.69785 6.04828 9.71354 6.03267C9.76846 5.99365 9.82338 5.95463 9.87046 5.91561H9.86261C9.84692 5.91561 9.84692 5.9 9.84692 5.88439C9.65077 5.85317 9.50954 5.98585 9.37615 6.10291C9.34477 6.11852 9.31338 6.0873 9.30554 6.0873C9.08585 6.15754 8.92108 6.35265 8.70138 6.43849V6.40728C8.61508 6.43849 8.52877 6.49312 8.43462 6.50873C8.30123 6.53995 8.18354 6.52434 8.06585 6.52434C7.88538 6.53995 7.70492 6.57897 7.52446 6.61799C7.51661 6.61799 7.51661 6.61799 7.50877 6.62579C7.41461 6.64921 7.32046 6.68823 7.23415 6.73505L7.20277 6.76627C7.17138 6.79749 7.14 6.83651 7.10077 6.85212C7.00662 6.89894 6.936 6.97698 6.85754 7.04722C6.84969 7.05503 6.84185 7.05503 6.834 7.05503C6.75554 7.13307 6.67708 7.21111 6.59862 7.28135C6.59077 7.28915 6.56723 7.28915 6.55154 7.28915C6.55154 7.28135 6.55938 7.28135 6.55938 7.27354C6.57508 7.25013 6.58292 7.23452 6.59862 7.21111L6.64569 7.14087C6.66923 7.10966 6.68492 7.07844 6.70846 7.05503C6.71631 7.04722 6.71631 7.03942 6.70846 7.03942C6.70061 7.03161 6.69277 7.03161 6.68492 7.03161C6.75554 6.96138 6.84969 6.89894 6.936 6.84431C6.92815 6.84431 6.91246 6.83651 6.92031 6.8287C6.92815 6.8131 6.936 6.80529 6.94385 6.78968C6.94385 6.78188 6.94385 6.78188 6.95169 6.77407C6.95169 6.76627 6.94385 6.76627 6.94385 6.75847L6.87323 6.80529C6.834 6.83651 6.81046 6.89894 6.75554 6.89894H6.732C6.72415 6.89894 6.71631 6.89894 6.71631 6.89114V6.88333C6.71631 6.87553 6.72415 6.87553 6.72415 6.86772C6.72415 6.85992 6.732 6.85992 6.732 6.85212C6.732 6.85212 6.732 6.84431 6.73985 6.84431C6.73985 6.83651 6.74769 6.8287 6.74769 6.8287C6.74769 6.8209 6.75554 6.8209 6.75554 6.8131C6.76338 6.80529 6.77123 6.78968 6.77123 6.78188C6.77123 6.77407 6.77908 6.77407 6.77908 6.76627C6.78692 6.75847 6.78692 6.75066 6.79477 6.74286C6.80262 6.72725 6.79477 6.71944 6.78692 6.71944C6.81046 6.68042 6.84969 6.65701 6.88892 6.6336H6.88108C6.936 6.60238 6.99877 6.57116 7.05369 6.53995L7.07723 6.51653C6.99092 6.54775 6.92031 6.58677 6.84185 6.6336C6.84185 6.6336 6.82615 6.6414 6.81831 6.64921C6.81831 6.64921 6.80262 6.65701 6.77908 6.6336V6.62579C6.79477 6.59458 6.84185 6.57897 6.86538 6.55556C6.88108 6.55556 6.89677 6.55556 6.89677 6.57116C7.37538 6.20436 8.02662 6.29021 8.57585 6.10291C8.62292 6.07169 8.66215 6.04048 8.70923 6.01706C8.77985 5.98585 8.84262 5.91561 8.92892 5.86878C9.04661 5.78294 9.13292 5.67368 9.18 5.5332C9.18 5.51759 9.16431 5.50198 9.16431 5.50198C8.96815 5.70489 8.74846 5.86878 8.51308 5.98585C8.19923 6.14974 7.86185 6.11852 7.53231 6.16534C7.548 6.13413 7.57938 6.13413 7.60292 6.13413C7.60292 6.0873 7.63431 6.07169 7.66569 6.04828H7.71277C7.72846 6.04828 7.72846 6.01706 7.74415 6.01706C7.77554 6.01706 7.82261 6.00145 7.80692 6.00145C7.75985 5.93902 7.67354 6.04828 7.60292 6.00145C7.63431 5.97024 7.61861 5.93122 7.65 5.91561H7.71277C7.71277 5.88439 7.74415 5.85317 7.74415 5.85317C7.96385 5.7205 8.17569 5.61905 8.37969 5.50198C8.33261 5.50198 8.30908 5.54881 8.262 5.51759C8.29338 5.51759 8.262 5.47077 8.29338 5.47077C8.45815 5.42394 8.59154 5.3381 8.75631 5.27566C8.69354 5.27566 8.65431 5.32249 8.59154 5.27566C8.62292 5.26005 8.63861 5.22884 8.67785 5.22884V5.18201C8.67785 5.1664 8.69354 5.1664 8.70923 5.1664C8.69354 5.1664 8.67785 5.15079 8.67785 5.15079C8.69354 5.11958 8.74061 5.13519 8.76415 5.10397C8.74846 5.10397 8.71708 5.10397 8.71708 5.08836C8.76415 5.02593 8.83477 5.01812 8.91323 5.00251C8.89754 4.9713 8.85046 5.00251 8.85046 4.9713C8.85046 4.95569 8.86615 4.95569 8.88185 4.95569H8.85046C8.81908 4.94008 8.83477 4.90886 8.83477 4.89325C8.92108 4.7918 8.92108 4.65913 8.96815 4.54206C8.95246 4.54206 8.93677 4.54206 8.93677 4.52645C8.78769 4.69034 8.55231 4.74497 8.33261 4.80741H8.23061C8.16 4.83862 8.05015 4.83862 7.97954 4.7918C7.91677 4.76058 7.89323 4.72156 7.83046 4.67474C7.71277 4.6045 7.59508 4.54206 7.46169 4.49524C7.09292 4.37817 6.70846 4.31574 6.324 4.33135C6.48877 4.2455 6.66923 4.2377 6.84185 4.18307C7.09292 4.11283 7.32831 4.01918 7.59508 4.03479C7.548 4.01918 7.49308 4.03479 7.446 4.03479C7.242 4.01918 7.03015 4.08161 6.81046 4.12064C6.66138 4.15185 6.528 4.20648 6.37892 4.2377C6.29261 4.26892 6.24554 4.35476 6.14354 4.33915V4.29233C6.29261 4.11283 6.47308 3.94114 6.70846 3.92553C6.97523 3.8787 7.22631 3.92553 7.49308 3.95675C7.68923 3.97235 7.86185 4.01918 8.058 4.0582C8.12861 4.0582 8.14431 4.17526 8.20708 4.19087C8.29338 4.22209 8.38754 4.19087 8.47385 4.25331C8.47385 4.22209 8.45815 4.19087 8.47385 4.16746C8.53661 4.10503 8.60723 4.18307 8.67 4.15185C8.78769 4.08161 8.568 3.94894 8.50523 3.83968C8.50523 3.82407 8.52092 3.80847 8.52092 3.80847C8.63861 3.90992 8.72492 4.02698 8.874 4.10503C8.94461 4.13624 9.12508 4.17526 9.09369 4.08942C9.02308 3.92553 8.874 3.79286 8.74846 3.64458V3.58214C8.71708 3.58214 8.71708 3.56653 8.70138 3.55093V3.48849C8.63861 3.45728 8.65431 3.40265 8.63077 3.35582C8.58369 3.28558 8.61508 3.17632 8.58369 3.09048C8.55231 3.00463 8.53661 2.92659 8.52092 2.84074C8.47385 2.59101 8.41892 2.37249 8.38754 2.13056C8.35615 1.8496 8.55231 1.63108 8.68569 1.38135C8.78769 1.20185 8.90538 1.03016 9.10154 0.913095C9.14861 0.733598 9.26631 0.585317 9.384 0.444841C9.50169 0.304365 9.69785 0.210714 9.83908 0.14828C10.0431 0.0546296 10.2314 0 10.2314 0H0V7.80423H7.27338C7.55585 7.60132 7.83831 7.50767 8.23061 7.31257C8.41892 7.23452 8.84262 7.03942 8.98385 6.89894ZM6.70846 5.83757C6.67708 5.83757 6.62215 5.85317 6.63785 5.82196C6.65354 5.75172 6.75554 5.75172 6.81831 5.7205C6.84969 5.70489 6.88892 5.67368 6.92031 5.68929C6.95169 5.73611 6.99092 5.7205 7.02231 5.75172C6.92815 5.83757 6.81046 5.79854 6.70846 5.83757ZM4.43308 5.51759C4.43308 5.51759 4.41738 5.50198 4.41738 5.48638C4.61354 5.23664 4.75477 5.00251 4.896 4.73717C5.09215 4.63571 5.24908 4.48743 5.39815 4.32354C5.64923 4.0582 5.916 3.82407 6.22985 3.67579C6.34754 3.62897 6.49661 3.64458 6.61431 3.6914C6.56723 3.75384 6.49661 3.73823 6.43385 3.77725C6.41815 3.77725 6.40246 3.77725 6.38677 3.76164C6.40246 3.74603 6.40246 3.73042 6.40246 3.71481C6.25338 3.8787 6.04938 3.94894 5.93169 4.14405C5.84538 4.29233 5.78262 4.47963 5.59431 4.52645C5.53154 4.54206 5.61 4.47963 5.57862 4.49524C5.11569 4.77619 4.794 5.11958 4.43308 5.51759ZM5.66492 4.54206C5.64923 4.57328 5.63354 4.57328 5.61785 4.6045C5.60215 4.63571 5.58646 4.65132 5.55508 4.66693C5.53938 4.66693 5.52369 4.66693 5.52369 4.65132C5.53938 4.58889 5.58646 4.53426 5.64138 4.51865C5.66492 4.51085 5.66492 4.52645 5.66492 4.54206ZM6.35538 6.75066C6.34754 6.76627 6.33185 6.78188 6.31615 6.79749C6.33185 6.79749 6.34754 6.8131 6.33185 6.8209C6.30046 6.85212 6.26123 6.88333 6.222 6.89894H6.19846C6.18277 6.91455 6.15923 6.93016 6.14354 6.95357C6.12785 6.96918 6.04154 6.96138 6.06508 6.93796C6.10431 6.90675 6.13569 6.86772 6.17492 6.83651C6.19846 6.8209 6.222 6.79749 6.23769 6.77407C6.24554 6.75847 6.25338 6.75066 6.26908 6.74286C6.29261 6.72725 6.37108 6.71944 6.35538 6.75066ZM6.08861 6.6336C6.02585 6.67262 5.97092 6.71164 5.916 6.75066C5.85323 6.78968 5.78262 6.8131 5.71985 6.84431C5.712 6.83651 5.70415 6.83651 5.69631 6.83651C5.64138 6.86772 5.59431 6.90675 5.54723 6.95357L5.52369 6.97698L5.50015 7.0004L5.46877 7.03161C5.46092 7.03942 5.46092 7.04722 5.44523 7.05503C5.43738 7.06283 5.41385 7.06283 5.41385 7.04722C5.406 7.05503 5.39815 7.05503 5.39031 7.06283C5.38246 7.07063 5.37462 7.07063 5.36677 7.07844H5.35108C5.33538 7.09405 5.31185 7.10966 5.29615 7.12526C5.26477 7.15648 5.23338 7.17989 5.20985 7.21891V7.22672L5.202 7.23452C5.202 7.23452 5.202 7.24233 5.19415 7.24233C5.19415 7.25013 5.18631 7.25013 5.18631 7.25794C5.18631 7.25794 5.17846 7.26574 5.17062 7.26574L5.16277 7.25794C5.16277 7.25794 5.16277 7.25013 5.15492 7.25013C5.14708 7.24233 5.14708 7.23452 5.13923 7.22672V7.21891C5.15492 7.20331 5.17062 7.1877 5.18631 7.16429C5.19415 7.15648 5.19415 7.14868 5.202 7.14868C5.20985 7.14087 5.21769 7.12526 5.22554 7.11746C5.22554 7.10966 5.23338 7.10966 5.23338 7.10185C5.24908 7.07844 5.26477 7.06283 5.28046 7.03942L5.28831 7.03161C5.29615 7.02381 5.304 7.0082 5.31185 7.0004C5.31969 6.99259 5.31969 6.98479 5.32754 6.96918V6.96138C5.33538 6.94577 5.33538 6.93796 5.34323 6.93016V6.92235C5.34323 6.91455 5.34323 6.91455 5.35108 6.90675C5.35108 6.89894 5.35108 6.89114 5.35892 6.88333V6.87553C5.37462 6.84431 5.39815 6.8209 5.42169 6.79749H5.41385C5.39031 6.8131 5.37462 6.8287 5.35892 6.84431C5.34323 6.85992 5.31185 6.83651 5.33538 6.8209C5.35108 6.8131 5.35892 6.79749 5.36677 6.78968C5.39031 6.76627 5.41385 6.73505 5.44523 6.71164C5.46092 6.69603 5.47661 6.68823 5.49231 6.68042L5.50015 6.67262C5.508 6.65701 5.52369 6.64921 5.53154 6.6336C5.67277 6.50093 5.916 6.50093 6.09646 6.41508C6.16708 6.38386 6.26123 6.43069 6.33185 6.41508C6.37892 6.41508 6.41815 6.41508 6.46523 6.4463C6.33185 6.46971 6.21415 6.55556 6.08861 6.6336ZM6.39462 5.60344C6.37892 5.58783 6.44169 5.60344 6.45738 5.57222H6.33969C6.324 5.57222 6.324 5.55661 6.324 5.54101C6.25338 5.55661 6.15923 5.58783 6.08861 5.60344C5.98662 5.63466 5.89246 5.70489 5.77477 5.73611C5.61 5.79854 5.47661 5.93122 5.304 5.98585C5.28831 5.98585 5.28831 5.97024 5.28831 5.95463C5.304 5.9078 5.35892 5.8922 5.39031 5.85317C5.39031 5.83757 5.39031 5.82196 5.37462 5.82196C5.49231 5.65807 5.65708 5.57222 5.80615 5.43955V5.39272C5.85323 5.33029 5.92385 5.30688 5.95523 5.22884C5.97092 5.18201 6.03369 5.12738 6.10431 5.09616C6.08861 5.08056 6.05723 5.08056 6.05723 5.04934C5.99446 5.04934 5.93954 5.08056 5.87677 5.03373C5.90815 5.01032 5.93954 4.99471 5.97092 4.9791C5.95523 4.9791 5.94738 4.9713 5.93954 4.95569C5.92385 4.92447 5.97092 4.89325 6.01015 4.88545C6.07292 4.86984 6.14354 4.86984 6.19062 4.82302C6.08861 4.80741 5.97092 4.85423 5.86108 4.7918C5.93169 4.59669 6.05723 4.44061 6.22985 4.34696C6.24554 4.34696 6.27692 4.34696 6.27692 4.36257C6.27692 4.4328 6.22985 4.49524 6.15923 4.51085C6.27692 4.54206 6.39462 4.54206 6.51231 4.59669C6.49661 4.62791 6.46523 4.6123 6.44954 4.6123C6.52015 4.65913 6.61431 4.62791 6.68492 4.68254C6.63785 4.72936 6.59862 4.68254 6.55154 4.68254C7.01446 4.81521 7.50092 4.91667 7.88538 5.21323C7.55585 5.37712 7.21846 5.44735 6.86538 5.5254C6.81831 5.5254 6.79477 5.5254 6.74769 5.50979C6.74769 5.5254 6.74769 5.55661 6.732 5.55661C6.66923 5.55661 6.63 5.55661 6.58292 5.58783C6.528 5.63466 6.44169 5.65026 6.39462 5.60344Z" fill="#070091"/>
<path id="Path_2" d="M21.6161 0H13.1893C13.1893 0 13.205 0 13.2678 0.0390212C13.3384 0.0780423 13.4247 0.124868 13.4796 0.14828C13.5895 0.20291 13.6915 0.273148 13.7621 0.382407C13.7935 0.429233 13.8327 0.515079 13.8092 0.577513C13.7778 0.647751 13.7621 0.772619 13.6915 0.796032C13.6052 0.842857 13.4875 0.842857 13.3776 0.827249C13.3149 0.827249 13.2599 0.81164 13.1972 0.796032C13.4169 0.881878 13.6287 0.991138 13.7778 1.19405C13.7935 1.22526 13.8484 1.24087 13.9112 1.24087C13.9269 1.24087 13.9269 1.27209 13.9269 1.2877C13.8955 1.31892 13.8641 1.33452 13.8798 1.37354H13.9269C13.9975 1.34233 13.9896 1.19405 14.0916 1.24087C14.1622 1.2877 14.1936 1.38915 14.1544 1.45939C14.0916 1.52183 14.0367 1.56085 13.9739 1.60767C13.9582 1.63889 13.9582 1.67791 13.9739 1.70913C14.021 1.77156 14.0367 1.82619 14.0446 1.88862C14.0916 1.99008 14.1073 2.10714 14.1466 2.2164C14.2093 2.43492 14.2642 2.66124 14.2486 2.87976C14.2486 2.99683 14.1858 3.09828 14.2329 3.21534C14.2642 3.33241 14.3349 3.41825 14.3976 3.52751C14.4604 3.61336 14.5153 3.67579 14.5624 3.76164C14.6487 3.90992 14.8135 4.0582 14.7429 4.22989C14.6958 4.33135 14.5389 4.31574 14.429 4.37817C14.3427 4.44841 14.4133 4.57328 14.4604 4.64352C14.531 4.77619 14.3741 4.86204 14.2642 4.90106C14.2956 4.94788 14.3506 4.93227 14.3662 4.96349C14.3819 5.03373 14.4526 5.08056 14.4133 5.1586C14.3506 5.24444 14.1779 5.29127 14.2642 5.42394C14.327 5.5254 14.2878 5.64246 14.2486 5.75172C14.2015 5.86878 14.0995 5.94683 13.9818 5.97024C13.8955 6.00145 13.7856 6.00145 13.6993 5.98585C13.6679 5.97024 13.6366 5.95463 13.613 5.95463C13.3619 5.92341 13.1109 5.85317 12.8598 5.85317C12.7892 5.86878 12.7107 5.88439 12.6558 5.9078C12.593 5.95463 12.5302 6.00926 12.4753 6.06389C12.4675 6.0795 12.4518 6.0873 12.4439 6.10291C12.4361 6.11071 12.4282 6.11852 12.4282 6.12632L12.4126 6.14193C12.3655 6.19656 12.3341 6.25119 12.2949 6.31362C12.2949 6.32143 12.287 6.32143 12.287 6.32143C12.287 6.32923 12.2792 6.33704 12.2713 6.34484C12.2242 6.43069 12.185 6.52434 12.1615 6.61799C12.0595 6.95357 12.1066 7.24233 12.1772 7.31257C12.1929 7.32817 12.6636 7.47645 12.9932 7.62474C13.1501 7.69497 13.2521 7.7418 13.3462 7.80423H21.6239V0H21.6161Z" fill="#e10010"/>
<path id="Path_3" d="M13.6919 2.85624C13.7547 2.87185 13.841 2.87185 13.841 2.90307C13.8096 3.02013 13.637 3.05135 13.5428 3.16841H13.4958C13.4487 3.19963 13.4644 3.26987 13.4251 3.26987C13.3781 3.25426 13.3388 3.26987 13.2918 3.28548C13.3545 3.34791 13.4251 3.38693 13.5114 3.37132C13.5271 3.37132 13.5585 3.40254 13.5585 3.43376C13.5585 3.43376 13.5742 3.43376 13.5899 3.41815C13.6056 3.41815 13.6213 3.41815 13.6213 3.43376V3.49619C13.5742 3.55862 13.5036 3.52741 13.4408 3.54301C13.5585 3.57423 13.6762 3.57423 13.7861 3.54301C13.8724 3.5118 13.7861 3.36352 13.8488 3.29328C13.8174 3.29328 13.8488 3.24645 13.8174 3.24645C13.8488 3.21524 13.8802 3.17622 13.9038 3.16061C13.9351 3.16061 13.9744 3.145 13.9901 3.11378C13.9901 3.08257 13.9273 3.06696 13.943 3.04354C14.0293 2.98111 14.1078 2.89526 14.0764 2.80942C14.0607 2.76259 13.943 2.76259 13.8724 2.73137C13.8018 2.70016 13.7076 2.73137 13.6213 2.74698C13.5507 2.74698 13.4722 2.79381 13.4016 2.80942C13.2996 2.84063 13.2054 2.89526 13.1191 2.9577C13.2211 2.91087 13.3231 2.89526 13.4408 2.87185C13.5271 2.85624 13.5978 2.84063 13.6919 2.85624Z" fill="#D0D0E7"/>
</g>
<path id="Shape_2" d="M0 17.5596V11.7064H1.78892C2.43754 11.7064 2.94492 11.8625 3.31108 12.1747C3.68246 12.4868 3.87077 12.9135 3.876 13.4546C3.876 13.8031 3.79492 14.1049 3.63277 14.3598C3.47062 14.62 3.24046 14.8229 2.94231 14.9686L4.77831 17.5596H3.35815L1.79677 15.1949H1.19262V17.5596H0ZM1.19262 14.1881H1.85954C2.11062 14.1881 2.30415 14.1231 2.44015 13.993C2.58138 13.863 2.652 13.6783 2.652 13.4389C2.652 13.2152 2.58138 13.0383 2.44015 12.9083C2.29892 12.7782 2.10538 12.7157 1.85954 12.721H1.19262V14.1881ZM5.61 17.5596V11.7064H9.02308V12.721H6.79477V14.0711H8.68569V15.0856H6.79477V16.545H9.02308V17.5596H5.61ZM6.76338 11.2069L7.70492 10.0753H8.92892L7.84615 11.2069H6.76338ZM10.4746 17.5596V11.7064H12.4126C13.056 11.7064 13.5608 11.8625 13.9269 12.1747C14.2983 12.4868 14.484 12.9135 14.484 13.4546C14.484 13.9956 14.2983 14.4197 13.9269 14.7266C13.5555 15.0388 13.0508 15.1949 12.4126 15.1949H11.6672V17.5596H10.4746ZM11.6672 14.1881H12.4597C12.716 14.1881 12.9148 14.1205 13.056 13.9852C13.1972 13.8552 13.2678 13.6731 13.2678 13.4389C13.2678 13.2152 13.1946 13.0383 13.0482 12.9083C12.9069 12.7782 12.7108 12.7157 12.4597 12.721H11.6672V14.1881ZM15.4412 15.2729V11.7064H16.6338V15.3666C16.6338 15.7568 16.7385 16.0638 16.9477 16.2875C17.1569 16.506 17.4472 16.6153 17.8186 16.6153C18.1848 16.6153 18.4725 16.506 18.6817 16.2875C18.8909 16.069 18.9955 15.762 18.9955 15.3666V11.7064H20.1882V15.2729C20.1882 16.043 19.9763 16.6439 19.5526 17.0757C19.1289 17.5075 18.5483 17.7235 17.8108 17.7235C17.0785 17.7235 16.5005 17.5075 16.0768 17.0757C15.6531 16.6387 15.4412 16.0378 15.4412 15.2729ZM21.7417 17.5596V11.7064H23.4051C24.0171 11.7064 24.4957 11.8469 24.8409 12.1278C25.1914 12.4088 25.3666 12.799 25.3666 13.2985C25.3666 13.7823 25.16 14.1673 24.7468 14.4535C25.0554 14.594 25.2934 14.7813 25.4608 15.0154C25.6282 15.2547 25.7118 15.5279 25.7118 15.8348C25.7118 16.3707 25.5157 16.7922 25.1234 17.0991C24.7363 17.4061 24.2054 17.5596 23.5306 17.5596H21.7417ZM22.9265 16.545H23.6012C23.8785 16.545 24.0955 16.4774 24.2525 16.3421C24.4094 16.2016 24.4878 16.0117 24.4878 15.7724C24.4878 15.5331 24.4094 15.3458 24.2525 15.2105C24.0955 15.0804 23.8785 15.0154 23.6012 15.0154H22.9265V16.545ZM22.9265 14.0008H23.4286C23.6535 14.0008 23.8288 13.9436 23.9543 13.8292C24.0798 13.7199 24.1426 13.5612 24.1426 13.3531C24.1426 13.1554 24.0798 13.0019 23.9543 12.8926C23.834 12.7782 23.6588 12.721 23.4286 12.721H22.9265V14.0008ZM27.0065 17.5596V11.7064H28.1912V16.4826H30.4195V17.5596H27.0065ZM31.5494 17.5596V11.7064H32.7342V17.5596H31.5494ZM34.1857 15.827C34.034 15.4472 33.9582 15.0492 33.9582 14.633C33.9582 14.2168 34.034 13.8213 34.1857 13.4467C34.3374 13.0669 34.5466 12.7366 34.8134 12.4556C35.0854 12.1747 35.4149 11.9509 35.802 11.7844C36.1943 11.618 36.6154 11.5347 37.0652 11.5347C37.5151 11.5347 37.9362 11.618 38.3285 11.7844C38.7208 11.9509 39.0503 12.1747 39.3171 12.4556C39.5838 12.7366 39.7931 13.0669 39.9448 13.4467C40.0965 13.8213 40.1723 14.2168 40.1723 14.633C40.1723 15.1221 40.0703 15.5799 39.8663 16.0065C39.6623 16.4332 39.3798 16.7896 39.0189 17.0757L39.372 17.4113C39.7852 17.7859 40.1932 17.9706 40.596 17.9654C40.7634 17.9654 40.9046 17.9446 41.0197 17.903V18.9097C40.8366 18.9825 40.63 19.0164 40.3998 19.0112C39.7669 19.0112 39.1575 18.7562 38.5717 18.2463L37.8734 17.622C37.6171 17.6896 37.3477 17.7235 37.0652 17.7235C36.6154 17.7235 36.1943 17.6402 35.802 17.4737C35.4149 17.3072 35.0854 17.0861 34.8134 16.8104C34.5466 16.5294 34.3374 16.2016 34.1857 15.827ZM35.7157 13.2204C35.36 13.6002 35.1795 14.0711 35.1743 14.633C35.1743 15.1949 35.3548 15.6657 35.7157 16.0456C36.0714 16.4254 36.5238 16.6153 37.0731 16.6153C37.434 16.6153 37.7557 16.5294 38.0382 16.3577C38.3258 16.186 38.5508 15.9467 38.7129 15.6397C38.8751 15.338 38.9562 15.0024 38.9562 14.633C38.9562 14.0711 38.7757 13.6002 38.4148 13.2204C38.0591 12.8406 37.6092 12.6507 37.0652 12.6507C36.516 12.6507 36.0635 12.8406 35.7078 13.2204H35.7157ZM41.2865 15.2729V11.7064H42.4791V15.3666C42.4791 15.7568 42.5837 16.0638 42.7929 16.2875C43.0022 16.506 43.2925 16.6153 43.6638 16.6153C44.03 16.6153 44.3177 16.506 44.5269 16.2875C44.7362 16.069 44.8408 15.762 44.8408 15.3666V11.7064H46.0334V15.2729C46.0334 16.043 45.8215 16.6439 45.3979 17.0757C44.9742 17.5128 44.3935 17.7287 43.656 17.7235C42.9237 17.7235 42.3457 17.5075 41.922 17.0757C41.4983 16.6387 41.2865 16.0378 41.2865 15.2729ZM47.5869 17.5596V11.7064H51V12.721H48.7717V14.0711H50.6626V15.0856H48.7717V16.545H51V17.5596H47.5869ZM0 26.0272V20.174H3.41308V21.1885H1.19262V22.5387H3.08354V23.5532H1.19262V26.0272H0ZM4.54292 26.0272V20.174H6.33185C6.97523 20.174 7.48523 20.3301 7.86185 20.6422C8.23323 20.9544 8.41892 21.381 8.41892 21.9221C8.41892 22.2707 8.33785 22.5751 8.17569 22.8352C8.01354 23.0954 7.78339 23.2957 7.48523 23.4362L9.32123 26.0272H7.90108L6.33969 23.6625H5.73554V26.0272H4.54292ZM5.73554 22.6557H6.40246C6.65354 22.6557 6.84969 22.5907 6.99092 22.4606C7.13215 22.3306 7.20015 22.1459 7.19492 21.9065C7.19492 21.6828 7.12692 21.5059 6.99092 21.3758C6.85492 21.2458 6.65877 21.1833 6.40246 21.1885H5.73554V22.6557ZM9.65862 26.0272L11.8791 20.174H13.4326L15.6531 26.0272H14.3898L13.8249 24.5053H11.4789L10.9218 26.0272H9.65862ZM11.8477 23.4908H13.464L12.6558 21.2978L11.8477 23.4908ZM16.6417 26.0272V20.174H18.1638L20.7845 24.3649V20.174H21.9692V26.0272H20.4471L17.8265 21.8207V26.0272H16.6417ZM23.2011 23.1006C23.2011 22.6844 23.2769 22.2889 23.4286 21.9143C23.5803 21.5345 23.7895 21.2042 24.0563 20.9232C24.3283 20.6422 24.6578 20.4211 25.0449 20.2598C25.4372 20.0934 25.8609 20.0101 26.316 20.0101C26.8338 20.0101 27.3046 20.1142 27.7283 20.3223C28.1572 20.5356 28.5077 20.8269 28.7797 21.1963L27.846 21.9221C27.6734 21.6776 27.4563 21.4825 27.1948 21.3368C26.9332 21.1911 26.6403 21.1183 26.316 21.1183C25.7668 21.1183 25.3143 21.3082 24.9586 21.688C24.6029 22.0678 24.4225 22.5387 24.4172 23.1006C24.4172 23.6625 24.5977 24.1359 24.9586 24.521C25.3143 24.9008 25.7668 25.0881 26.316 25.0829C26.6403 25.0829 26.9332 25.0126 27.1948 24.8721C27.4563 24.7265 27.6734 24.5288 27.846 24.279L28.7797 24.997C28.5495 25.3144 28.2618 25.5745 27.9166 25.7774C27.5714 25.9803 27.1895 26.1078 26.7711 26.1598L26.0414 27.3773H24.99L25.7275 26.1442C25.2306 26.0558 24.7886 25.8659 24.4015 25.5745C24.0145 25.2832 23.7163 24.9216 23.5071 24.4897C23.2978 24.0579 23.1958 23.5948 23.2011 23.1006ZM29.1249 26.0272L31.3454 20.174H32.8989L35.1194 26.0272H33.8562L33.2991 24.5053H30.9531L30.3882 26.0272H29.1249ZM31.3218 23.4908H32.9303L32.1222 21.2978L31.3218 23.4908ZM36.108 26.0272V20.174H37.3006V26.0272H36.108ZM38.4932 25.2155L39.3563 24.4273C39.5342 24.6562 39.7329 24.8331 39.9526 24.958C40.1775 25.0829 40.4103 25.1453 40.6509 25.1453C40.8863 25.1453 41.0694 25.0855 41.2002 24.9658C41.3362 24.8461 41.4042 24.6796 41.4042 24.4663C41.4042 24.3415 41.3675 24.227 41.2943 24.1229C41.2158 24.0189 41.1138 23.933 40.9883 23.8654C40.8628 23.7926 40.7189 23.7197 40.5568 23.6469C40.3946 23.5688 40.2298 23.4934 40.0625 23.4206C39.8951 23.3477 39.7329 23.2593 39.576 23.1552C39.4138 23.0512 39.27 22.9367 39.1445 22.8118C39.0189 22.687 38.9169 22.5283 38.8385 22.3358C38.76 22.1433 38.7208 21.9325 38.7208 21.7036C38.7208 21.2302 38.8986 20.8295 39.2543 20.5018C39.61 20.174 40.0598 20.0101 40.6038 20.0101C41.4198 20.0101 42.1025 20.3379 42.6517 20.9934L41.7808 21.7739C41.4042 21.2848 41.0145 21.0403 40.6117 21.0403C40.4129 21.0403 40.2482 21.1001 40.1174 21.2198C39.9866 21.3394 39.9238 21.4851 39.9291 21.6568C39.9291 21.7661 39.9605 21.8675 40.0232 21.9612C40.086 22.0496 40.1671 22.1303 40.2665 22.2031C40.3711 22.2707 40.4914 22.3384 40.6274 22.406L41.0432 22.6011C41.1949 22.6687 41.344 22.7364 41.4905 22.804C41.6422 22.8769 41.7834 22.9653 41.9142 23.0694C42.0502 23.1682 42.1705 23.2827 42.2751 23.4128C42.3797 23.5376 42.4608 23.6859 42.5183 23.8576C42.5811 24.0345 42.6125 24.2296 42.6125 24.4429C42.602 24.9736 42.4111 25.3976 42.0397 25.715C41.6735 26.0324 41.2158 26.1911 40.6666 26.1911C40.1854 26.1911 39.7695 26.1104 39.4191 25.9491C39.0686 25.7826 38.76 25.5381 38.4932 25.2155ZM43.9385 26.0272V20.174H47.3515V21.1885H45.1311V22.5387H47.022V23.5532H45.1311V25.0126H47.3515V26.0272H43.9385Z" fill="#D0D0E7"/>
<path id="Shape_3" d="M19.4898 42.0726C19.6625 42.0726 19.8115 42.2053 19.7331 42.5096L18.9406 42.7203C19.0662 42.3457 19.3015 42.0726 19.4898 42.0726ZM19.9292 43.3525H19.7723C19.5762 43.5866 19.3565 43.7739 19.1446 43.7739C18.9249 43.7739 18.8151 43.6412 18.8151 43.3525C18.8151 43.2354 18.8308 43.1105 18.8543 43.0013L20.1411 42.5799C20.3922 41.9867 20.0862 41.7292 19.7331 41.7292C19.1211 41.7292 18.4306 42.7906 18.4306 43.6256C18.4306 44.0236 18.6189 44.2422 18.9171 44.2422C19.2702 44.2422 19.6311 43.9066 19.9292 43.3525ZM19.7252 41.4482L20.4549 40.7849V40.6912H19.9685L19.5369 41.4561H19.7252V41.4482ZM16.9869 42.0882H17.4106L16.7358 43.93C16.6731 44.0861 16.7594 44.2422 16.9242 44.2422C17.4028 44.2422 17.9755 43.8363 18.1952 43.2588H18.0775C17.9049 43.5008 17.5283 43.7661 17.2458 43.8207L17.8657 42.0882H18.5012L18.5797 41.8229H17.9598L18.1952 41.1595H17.952L17.5126 41.8229L16.9869 41.8931V42.0882ZM16.5475 41.9945C16.6025 41.8229 16.4848 41.7292 16.3985 41.7292C16.0297 41.7292 15.5825 42.0648 15.4098 42.5252H15.5275C15.6452 42.3535 15.8492 42.1662 16.0454 42.135L15.3314 43.9768C15.2686 44.1485 15.3942 44.2422 15.4883 44.2422C15.8414 44.2422 16.2572 43.9066 16.4298 43.4461H16.3122C16.1945 43.6178 15.9905 43.8051 15.7943 43.8363L16.5475 41.9945ZM16.6182 41.2609C16.7751 41.2609 16.9085 41.1283 16.9085 40.9722C16.9085 40.8161 16.7751 40.6834 16.6182 40.6834C16.5397 40.6834 16.4691 40.7146 16.4142 40.7693C16.3592 40.8239 16.3278 40.8941 16.3278 40.9722C16.3278 41.1361 16.4534 41.2609 16.6182 41.2609ZM13.1737 42.2443C13.2835 42.2443 13.3463 42.416 13.1737 42.7984L12.6715 43.9066C12.5774 44.1173 12.6794 44.25 12.8834 44.25C13.0089 44.25 13.0638 44.2188 13.1188 44.0861L13.6131 42.7906C13.8406 42.5096 14.2643 42.2131 14.4526 42.2131C14.586 42.2131 14.5703 42.3223 14.484 42.494L13.7229 43.9378C13.6523 44.0783 13.7465 44.25 13.9112 44.25C14.28 44.25 14.7272 43.9144 14.8998 43.4539H14.7665C14.6488 43.6256 14.4448 43.8129 14.2486 43.8441L14.8998 42.533C14.9862 42.3691 15.0254 42.2131 15.0254 42.0882C15.0254 41.8775 14.9077 41.737 14.6802 41.737C14.3585 41.737 14.0838 42.096 13.6915 42.5408V42.1975C13.6915 41.9555 13.6131 41.737 13.3934 41.737C13.1345 41.737 12.8991 42.1428 12.7108 42.533H12.8285C12.9618 42.3457 13.0795 42.2443 13.1737 42.2443ZM12.6637 42.2911C12.75 41.9867 12.7029 41.7292 12.4754 41.7292C12.1851 41.7292 12.0909 41.9243 11.8085 42.533V42.1896C11.8085 41.9477 11.73 41.7292 11.5103 41.7292C11.2514 41.7292 11.016 42.135 10.8277 42.5252H10.9454C11.0709 42.3457 11.1886 42.2365 11.2828 42.2365C11.3926 42.2365 11.4554 42.4082 11.2828 42.7906L10.7806 43.8988C10.6865 44.1095 10.7885 44.2422 10.9925 44.2422C11.118 44.2422 11.1729 44.2109 11.2278 44.0783L11.7065 42.7828C11.8477 42.6111 11.9732 42.4628 12.1302 42.2989H12.6637V42.2911ZM9.92539 42.0726C10.098 42.0726 10.2471 42.2053 10.1686 42.5096L9.37615 42.7203C9.50954 42.3457 9.73708 42.0726 9.92539 42.0726ZM10.3648 43.3525H10.2078C10.0117 43.5866 9.792 43.7739 9.58015 43.7739C9.36046 43.7739 9.25062 43.6412 9.25062 43.3525C9.25062 43.2354 9.26631 43.1105 9.28985 43.0013L10.5766 42.5799C10.8277 41.9867 10.5295 41.7292 10.1686 41.7292C9.55662 41.7292 8.86615 42.7906 8.86615 43.6256C8.86615 44.0236 9.05446 44.2422 9.35262 44.2422C9.70569 44.2422 10.0666 43.9066 10.3648 43.3525ZM7.42246 42.0882H7.84615L7.17138 43.93C7.10862 44.0861 7.19492 44.2422 7.35969 44.2422C7.83831 44.2422 8.41892 43.8363 8.63077 43.2588H8.51308C8.34046 43.5008 7.96385 43.7661 7.68139 43.8207L8.30123 42.0882H8.93677L9.01523 41.8229H8.39538L8.63077 41.1595H8.38754L7.94815 41.8229L7.42246 41.8931V42.0882ZM5.17062 43.5242C5.17062 42.9545 5.80615 42.1818 6.16708 42.1818C6.24554 42.1818 6.324 42.1896 6.38677 42.2131L6.018 43.1964C5.80615 43.4539 5.47662 43.7661 5.31969 43.7661C5.22554 43.7661 5.17062 43.6959 5.17062 43.5242ZM7.12431 41.6199L6.92815 41.6043L6.70846 41.8229H6.66923C5.73554 41.8229 4.73123 42.9779 4.73123 43.891C4.73123 44.1017 4.84892 44.2422 5.07646 44.2422C5.35108 44.2422 5.61785 43.852 5.92385 43.4383L5.90815 43.5866C5.86892 44.008 6.00231 44.2422 6.222 44.2422C6.48092 44.2422 6.71631 43.8363 6.89677 43.4461H6.77908C6.65354 43.6256 6.53585 43.7349 6.44169 43.7349C6.34754 43.7349 6.27692 43.5554 6.44169 43.1808L7.12431 41.6199ZM5.12354 42.2911C5.20985 41.9867 5.16277 41.7292 4.93523 41.7292C4.64492 41.7292 4.55077 41.9243 4.26831 42.533V42.1896C4.26831 41.9477 4.18985 41.7292 3.96231 41.7292C3.70338 41.7292 3.468 42.135 3.28754 42.5252H3.40523C3.53077 42.3457 3.64846 42.2365 3.74262 42.2365C3.85246 42.2365 3.91523 42.4082 3.74262 42.7906L3.23262 43.9066C3.13846 44.1173 3.24046 44.25 3.44446 44.25C3.57 44.25 3.62492 44.2188 3.67985 44.0861L4.17415 42.7828C4.31538 42.6111 4.44092 42.4628 4.59785 42.2989H5.12354V42.2911ZM1.836 44.1563L1.88308 44.0158C1.26323 43.8988 1.18477 43.8988 1.43585 43.2276L1.67123 42.5955H2.16554C2.47154 42.5955 2.47938 42.7281 2.43231 43.0637H2.61277L3.02077 41.9477H2.84031C2.68338 42.2131 2.56569 42.416 2.22831 42.416H1.734L2.07138 41.5029C2.18908 41.1751 2.244 41.1127 2.66769 41.1127H2.77754C3.20908 41.1127 3.264 41.2297 3.264 41.6824H3.43662L3.57785 40.9254H1.18477L1.13769 41.0658C1.632 41.1673 1.67908 41.2141 1.45154 41.8541L0.941539 43.2354C0.706154 43.8676 0.612 43.9222 0.0392308 44.0236L0 44.1641H1.836V44.1563ZM13.7072 36.6955C13.8798 36.6955 14.0289 36.8281 13.9505 37.1325L13.158 37.3432C13.2835 36.9686 13.5189 36.6955 13.7072 36.6955ZM14.1466 37.9754H13.9897C13.7935 38.2095 13.5738 38.3968 13.362 38.3968C13.1423 38.3968 13.0325 38.2641 13.0325 37.9754C13.0325 37.8583 13.0482 37.7334 13.0717 37.6242L14.3585 37.2027C14.6095 36.6096 14.3035 36.3521 13.9505 36.3521C13.3385 36.3521 12.648 37.4135 12.648 38.2485C12.648 38.6465 12.8363 38.865 13.1345 38.865C13.4875 38.8729 13.8485 38.5295 14.1466 37.9754ZM13.9426 36.0711L14.6723 35.4078V35.3141H14.1858L13.7543 36.0789H13.9426V36.0711ZM11.2043 36.7111H11.628L10.9532 38.5529C10.8905 38.709 10.9768 38.865 11.1415 38.865C11.6202 38.865 12.1929 38.4592 12.4126 37.8817H12.2949C12.1223 38.1236 11.7457 38.389 11.4632 38.4436L12.0831 36.7111H12.7186L12.7971 36.4457H12.1772L12.4126 35.7824H12.1694L11.73 36.4457L11.2043 36.5238V36.7111ZM10.7649 36.6252C10.8198 36.4535 10.7022 36.3599 10.608 36.3599C10.2392 36.3599 9.792 36.6955 9.61938 37.1559H9.73708C9.85477 36.9842 10.0588 36.7969 10.2549 36.7657L9.54092 38.6075C9.47815 38.7792 9.60369 38.8729 9.69785 38.8729C10.0509 38.8729 10.4668 38.5373 10.6394 38.0768H10.5217C10.404 38.2485 10.2 38.4358 10.0038 38.467L10.7649 36.6252ZM10.8355 35.8916C10.9925 35.8916 11.1258 35.759 11.1258 35.6029C11.1258 35.4468 10.9925 35.3141 10.8355 35.3141C10.7335 35.3141 10.6394 35.3687 10.5845 35.4546C10.5295 35.5404 10.5295 35.6575 10.5845 35.7512C10.6394 35.837 10.7335 35.8994 10.8355 35.8916ZM8.56015 38.467L9.73708 35.3609L9.69785 35.3063L8.88185 35.4V35.4936L9.03877 35.6107C9.18 35.7199 9.13292 35.8214 9.00739 36.1726L8.11292 38.5451C8.03446 38.6855 8.13646 38.8572 8.30123 38.8572C8.67 38.8572 9.07015 38.5217 9.24277 38.0612H9.12508C8.99954 38.2407 8.74846 38.428 8.56015 38.467ZM6.15923 38.1471C6.15923 37.5773 6.79477 36.8047 7.15569 36.8047C7.23415 36.8047 7.30477 36.8125 7.37538 36.8359L6.99877 37.8193C6.78692 38.0768 6.45739 38.389 6.30046 38.389C6.21415 38.3968 6.15923 38.3187 6.15923 38.1471ZM8.11292 36.2506L7.91677 36.235L7.69708 36.4535H7.65785C6.72415 36.4535 5.71985 37.6086 5.71985 38.5217C5.71985 38.7324 5.83754 38.8729 6.06508 38.8729C6.33969 38.8729 6.60646 38.4826 6.91246 38.069L6.89677 38.2173C6.85754 38.6387 6.99092 38.8729 7.21062 38.8729C7.46954 38.8729 7.70492 38.467 7.88539 38.0768H7.76769C7.64215 38.2563 7.52446 38.3656 7.43031 38.3656C7.33615 38.3656 7.26554 38.1861 7.43031 37.8193L8.11292 36.2506ZM3.57 39.3177C3.57 39.0758 3.80538 38.9197 4.14277 38.787C4.25262 38.8416 4.42523 38.9041 4.64492 38.9743C4.998 39.0914 5.13138 39.1382 5.13138 39.2396C5.13138 39.466 4.80969 39.6377 4.22123 39.6377C3.78185 39.6455 3.57 39.5518 3.57 39.3177ZM4.53508 37.8271C4.37815 37.8271 4.32323 37.6944 4.32323 37.5461C4.32323 37.0857 4.54292 36.5316 4.896 36.5316C5.05292 36.5316 5.10785 36.6643 5.10785 36.8125C5.10785 37.2652 4.88031 37.8271 4.53508 37.8271ZM5.53938 39.0914C5.53938 38.7948 5.27262 38.6855 4.84108 38.5607C4.47231 38.4514 4.29969 38.4202 4.29969 38.2953C4.29969 38.2017 4.37815 38.0846 4.53508 37.9988C5.14708 37.9676 5.53154 37.4213 5.53154 36.9374C5.53154 36.8516 5.51585 36.7735 5.49231 36.7033H5.90815L5.98662 36.4379H5.28046C5.18631 36.3755 5.06862 36.3443 4.93523 36.3443C4.29185 36.3443 3.876 36.9062 3.876 37.4057C3.876 37.7256 4.06431 37.9441 4.36246 37.9832C4.06431 38.1236 3.89169 38.2719 3.89169 38.4592C3.89169 38.5685 3.93092 38.6465 4.02508 38.7168C3.33462 38.9197 3.05215 39.1772 3.05215 39.4738C3.05215 39.7937 3.47585 39.9264 3.978 39.9264C4.82539 39.9342 5.53938 39.4738 5.53938 39.0914ZM2.33815 37.2184C2.64415 37.2184 2.652 37.351 2.60492 37.6866H2.78538L3.19338 36.5706H3.01292C2.856 36.8359 2.73831 37.0389 2.40092 37.0389H1.71831L2.05569 36.1258C2.17338 35.798 2.23615 35.7355 2.652 35.7355H2.95015C3.38169 35.7355 3.43662 35.8526 3.43662 36.3053H3.60923L3.75046 35.5482H1.18477L1.13769 35.6887C1.632 35.7902 1.67908 35.837 1.45154 36.477L0.941539 37.8583C0.706154 38.4904 0.612 38.5451 0.0392308 38.6465L0 38.787H2.856L3.366 37.9832H3.16985C2.84031 38.3109 2.50292 38.5997 1.86738 38.5997C1.10631 38.5997 1.17692 38.5607 1.428 37.8583L1.66338 37.2262H2.33815V37.2184ZM2.70692 35.3141L3.43662 34.7834V34.6898H2.95015L2.51862 35.3141H2.70692ZM13.6131 31.3262C13.7857 31.3262 13.9348 31.4588 13.8563 31.7632L13.0638 31.9739C13.1894 31.5915 13.4248 31.3262 13.6131 31.3262ZM14.0525 32.6061H13.8955C13.6994 32.8402 13.4797 33.0275 13.2678 33.0275C13.0482 33.0275 12.9383 32.8948 12.9383 32.6061C12.9383 32.489 12.954 32.3641 12.9775 32.2549L14.2643 31.8334C14.5154 31.2403 14.2094 30.9828 13.8563 30.9828C13.2443 30.9828 12.5538 32.0441 12.5538 32.8792C12.5538 33.2772 12.7422 33.4957 13.0403 33.4957C13.3934 33.4957 13.7543 33.1602 14.0525 32.6061ZM13.8485 30.7018L14.5782 30.0385V29.9448H14.0917L13.6602 30.7096H13.8485V30.7018ZM11.1102 31.334H11.5417L10.8669 33.1758C10.8042 33.3318 10.8905 33.4879 11.0552 33.4879C11.5338 33.4879 12.1145 33.0821 12.3263 32.5046H12.2086C12.036 32.7465 11.6594 33.0119 11.3769 33.0665L11.9968 31.334H12.6323L12.7108 31.0686H12.0909L12.3263 30.4053H12.0831L11.6437 31.0686L11.118 31.1389V31.334H11.1102ZM10.8905 31.5447C10.9768 31.2403 10.9297 30.9828 10.7022 30.9828C10.4118 30.9828 10.3177 31.1779 10.0352 31.7866V31.4432C10.0352 31.2013 9.95677 30.9828 9.73708 30.9828C9.47815 30.9828 9.24277 31.3886 9.05446 31.7788H9.17215C9.29769 31.5993 9.41539 31.49 9.50954 31.49C9.61938 31.49 9.68215 31.6617 9.50954 32.0441L9.00739 33.1523C8.91323 33.3631 9.01523 33.4957 9.21923 33.4957C9.34477 33.4957 9.39969 33.4645 9.45462 33.3318L9.94892 32.0363C10.0902 31.8646 10.2157 31.7164 10.3726 31.5525H10.8905V31.5447ZM8.15215 31.3262C8.32477 31.3262 8.47385 31.4588 8.39538 31.7632L7.60292 31.9739C7.72846 31.5915 7.96385 31.3262 8.15215 31.3262ZM8.59154 32.6061H8.43462C8.23846 32.8402 8.01877 33.0275 7.80692 33.0275C7.58723 33.0275 7.47739 32.8948 7.47739 32.6061C7.47739 32.489 7.49308 32.3641 7.51662 32.2549L8.80338 31.8334C9.05446 31.2403 8.75631 30.9828 8.39538 30.9828C7.78339 30.9828 7.09292 32.0441 7.09292 32.8792C7.09292 33.2772 7.28123 33.4957 7.57938 33.4957C7.93246 33.4957 8.29339 33.1602 8.59154 32.6061ZM5.59431 33.1211C5.46877 33.1211 5.28831 33.0041 5.28831 32.9026C5.28831 32.8714 5.34323 32.7231 5.41385 32.5436L5.61785 31.9973C5.83754 31.732 6.18277 31.4432 6.37892 31.4432C6.49662 31.4432 6.58292 31.5213 6.58292 31.6852C6.57508 32.2002 6.10431 33.1211 5.59431 33.1211ZM7.02231 31.49C7.02231 31.1154 6.92815 30.975 6.66139 30.975C6.33185 30.975 6.02585 31.3262 5.712 31.7476L6.37108 29.9838L6.33185 29.9292L5.51585 30.0229V30.1165L5.67277 30.2336C5.814 30.3428 5.76692 30.4521 5.64139 30.7955L4.92738 32.6607C4.86462 32.8168 4.794 33.0041 4.794 33.0509C4.794 33.2694 5.09215 33.4801 5.36677 33.4801C5.98662 33.4957 7.02231 32.3641 7.02231 31.49ZM4.61354 31.2481C4.66062 31.0764 4.55077 30.9828 4.45662 30.9828C4.08785 30.9828 3.64062 31.3184 3.468 31.7788H3.58569C3.70338 31.6071 3.90738 31.4198 4.10354 31.3886L3.38954 33.2304C3.32677 33.4021 3.45231 33.4957 3.54646 33.4957C3.89954 33.4957 4.31538 33.1602 4.488 32.6997H4.37031C4.25262 32.8714 4.04862 33.0587 3.85246 33.0899L4.61354 31.2481ZM4.692 30.5145C4.84892 30.5145 4.98231 30.3818 4.98231 30.2258C4.98231 30.0697 4.84892 29.937 4.692 29.937C4.59 29.937 4.49585 29.9916 4.44092 30.0775C4.386 30.1633 4.386 30.2804 4.44092 30.374C4.49585 30.4599 4.59 30.5223 4.692 30.5145ZM2.87954 30.1633H1.18477L1.13769 30.3038C1.632 30.4053 1.67908 30.4521 1.45154 31.092L0.941539 32.4734C0.706154 33.1055 0.612 33.1602 0.0392308 33.2616L0 33.4021H2.57354L3.13062 32.4109H2.93446C2.61277 32.7621 2.244 33.207 1.67123 33.207C1.23969 33.207 1.17692 33.1289 1.42015 32.4656L1.93015 31.0842C2.16554 30.4521 2.25969 30.3975 2.83246 30.296L2.87954 30.1633Z" fill="#D0D0E7"/>
</g>
</g>
</svg>
