<?xml version='1.0' encoding='UTF-8' standalone='no'?>
<svg height="3447.97mm" width="3999.99mm" version="1.2" viewBox="0 0 47244 40724" xmlns="http://www.w3.org/2000/svg" baseProfile="tiny" xmlns:xlink="http://www.w3.org/1999/xlink" fill="currentColor">
 <title>Qt SVG Document</title>
 <desc>Generated with Qt</desc>
 <defs/>
 <g stroke-width="1" stroke-linecap="square" stroke-linejoin="bevel"  stroke="black" fill-rule="evenodd">
  <g stroke-width="1" stroke-linecap="square" stroke-linejoin="bevel" transform="matrix(1,0,0,1,0,0)" font-family="MS Shell Dlg 2" font-weight="400" stroke-opacity="1"  stroke="#000000" font-size="34.375" font-style="normal"/>
  <g stroke-width="1" stroke-linecap="square" stroke-linejoin="bevel" transform="matrix(1,0,0,1,0,0)" font-family="MS Shell Dlg 2" font-weight="400" stroke-opacity="1"  stroke="#000000" font-size="34.375" font-style="normal"/>
  <g stroke-width="1" stroke-linecap="square" stroke-linejoin="bevel" transform="matrix(11.8109,0,0,11.8109,0,0)" font-family="MS Shell Dlg 2" font-weight="400" stroke-opacity="1"  stroke="#000000" font-size="34.375" font-style="normal"/>
  <g stroke-width="1" stroke-linecap="square" stroke-linejoin="bevel" transform="matrix(0.99999,0,0,0.99999,0,0)" font-family="MS Shell Dlg 2" font-weight="400" stroke-opacity="1"  stroke="#000000" font-size="34.375" font-style="normal"/>
  <g stroke-width="1" stroke-linecap="square" stroke-linejoin="bevel" transform="matrix(0.99999,0,0,0.99999,0,0)" font-family="MS Shell Dlg 2" font-weight="400" stroke-opacity="1"  stroke="#000000" font-size="34.375" font-style="normal"/>
  <g stroke-width="1" stroke-linecap="square" stroke-linejoin="bevel" transform="matrix(11.8109,0,0,11.8109,0,0)" font-family="MS Shell Dlg 2" font-weight="400" stroke-opacity="1"  stroke="#000000" font-size="34.375" font-style="normal"/>
  <g stroke-width="1" stroke-linecap="square" stroke-linejoin="bevel" transform="matrix(11.8109,0,0,11.8109,0,0)" font-family="MS Shell Dlg 2" font-weight="400" stroke-opacity="1"  stroke="#000000" font-size="34.375" font-style="normal"/>
  <g stroke-width="1" stroke-linecap="square" stroke-linejoin="bevel" transform="matrix(11.8109,0,0,11.8109,0,0)" font-family="MS Shell Dlg 2" font-weight="400" stroke-opacity="1"  stroke="#000000" font-size="34.375" font-style="normal"/>
  <g stroke-width="1" stroke-linecap="square" stroke-linejoin="bevel" transform="matrix(11.8109,0,0,11.8109,0,0)" font-family="MS Shell Dlg 2" font-weight="400" stroke-opacity="1"  stroke="#000000" font-size="34.375" font-style="normal"/>
  <g stroke-width="1" stroke-linecap="square" stroke-linejoin="bevel" transform="matrix(11.8109,0,0,11.8109,0,0)" font-family="MS Shell Dlg 2" font-weight="400" stroke-opacity="1"  stroke="#000000" font-size="34.375" font-style="normal"/>
  <g stroke-width="1" stroke-linecap="square" stroke-linejoin="bevel" transform="matrix(11.8109,0,0,11.8109,0,0)" font-family="MS Shell Dlg 2" font-weight="400" stroke-opacity="1"  stroke="#000000" font-size="34.375" font-style="normal"/>
  <g stroke-width="1" stroke-linecap="square" stroke-linejoin="bevel" transform="matrix(11.8109,0,0,11.8109,0,0)" font-family="MS Shell Dlg 2" font-weight="400" stroke-opacity="1"  stroke="#000000" font-size="34.375" font-style="normal"/>
  <g transform="matrix(0.99999,0,0,0.99999,0,0)" font-family="MS Shell Dlg 2" font-weight="400" stroke="none" fill-opacity="0" font-size="34.375" font-style="normal">
   <rect y="0" height="40724" width="47244" x="0"/>
  </g>
  <g stroke-width="1" stroke-linecap="square" stroke-linejoin="bevel" transform="matrix(0.99999,0,0,0.99999,0,0)" font-family="MS Shell Dlg 2" font-weight="400" stroke-opacity="1"  stroke="#000000" font-size="34.375" font-style="normal"/>
  <g transform="matrix(0.99999,0,0,0.99999,0,0)" font-family="MS Shell Dlg 2" font-weight="400" stroke="none" fill-opacity="1" font-size="34.375" font-style="normal">
   <path d="M23159,25367.8 L23028.4,25169.6 L22808.4,24999.9 L22632.5,24831.8 L22554.3,24744.6 L22502.3,24725.2 L22459.9,24683.2 L22420.6,24664 L22389.6,24526.3 L22361.9,24453.2 L22301.4,24293.7 L22222.6,24307.4 L22200.5,24233 L22216.1,24228.2 L22161.7,24043.4 L22166,24034.8 L22170.4,24029.8 L22178,24028.3 L22188.3,24031.7 L22187.5,24022.2 L22162.4,23932.7 L22172.3,23902.1 L22176.2,23897.2 L22182.9,23899.5 L22191,23904.7 L22200.4,23920.9 L22290.9,24219.7 L22412.5,24186.3 L22476.2,24057.5 L22448.2,23936 L22501.8,23921.6 L22497.9,23909.1 L22571.5,23889.5 L22570.5,23853.1 L22568.4,23822.6 L22562.3,23771.9 L22523.2,23614.2 L22487.8,23540.9 L22475.9,23507.7 L22411.3,23433.5 L22397.7,23417.9 L22368.5,23368.5 L22328.7,23315 L22263.9,23241.6 L22224.7,23198.1 L22174.8,23164.6 L22111.8,23140.5 L22060.9,23117.9 L21997.9,23094.1 L21973,23065.9 L21957,23064.3 L21951,23059.6 L21949.9,23052.3 L21962,23041 L21949.8,23039.4 L21930.5,23019.2 L21907.3,23007.8 L21879.7,22988.2 L21847.8,22980.1 L21817.8,22952.5 L21778.5,22930.9 L21755.8,22888.2 L21732.7,22858.4 L21707.1,22837 L21672.2,22824.5 L21612.5,22820.1 L21583,22806.2 L21548.8,22792.7 L21557.7,22815.3 L21550.2,22829.1 L21532.4,22834.3 L21514.6,22826.5 L21500.7,22829.7 L21490.9,22821.7 L21458.5,22805.1 L21434.6,22778.2 L21419.3,22767.6 L21397,22767.9 L21388.4,22753 L21402.4,22722.8 L21391.2,22707.8 L21372.1,22716.3 L21347,22733.4 L21319.8,22721.6 L21306.5,22707.5 L21307.4,22688.3 L21310.3,22673.4 L21321.1,22663.4 L21326.6,22652 L21329.4,22636.3 L21344.5,22634.8 L21359.6,22626.6 L21352.4,22616 L21333,22604 L21308.6,22581.3 L21283.3,22568.7 L21280,22555.2 L21265.1,22538.8 L21253.3,22530.3 L21247.2,22491.8 L21239.7,22473.6 L21257.8,22474.3 L21246.8,22450.4 L21240.5,22440.4 L21226.2,22439.8 L21210.1,22418.7 L21211.8,22398.2 L21215.2,22382 L21221.8,22366.9 L21232.6,22362.8 L21228.7,22352.1 L21229.2,22342.5 L21237.4,22330.2 L21237.9,22316.3 L21243.4,22295.8 L21250.3,22281.3 L21248.7,22265.5 L21252.1,22251.5 L21258.6,22235 L21268.2,22223.4 L21270.5,22211.6 L21270.7,22194.4 L21269.8,22178 L21219.3,22081.3 L21216,22067.1 L21222.6,22053 L21203.3,22023.7 L21166.7,21984 L21114.3,21930.7 L21044.1,21859.8 L21013.3,21839.5 L20983.3,21819.7 L20956,21799.5 L20927.3,21781.3 L20899.2,21766.4 L20869.8,21751.8 L20840.4,21748 L20823.2,21750.8 L20813.5,21759.7 L20805.5,21761.3 L20797.1,21748.2 L20788.7,21752 L20792,21760.3 L20789.7,21767.3 L20775.6,21770.1 L20759.4,21770.8 L20744.8,21780.4 L20738.6,21773.5 L20724.7,21772.2 L20709.1,21767.2 L20696.4,21754 L20668,21751 L20639.2,21762.8 L20608.9,21767.9 L20581.2,21762.4 L20550.5,21766 L20528.4,21773.1 L20538.4,21784.9 L20524.5,21792.7 L20508.9,21789.1 L20490.7,21795.9 L20470.5,21807.9 L20459.4,21816.3 L20434.1,21814.5 L20390.3,21811.9 L20379.5,21817 L20366.2,21800.2 L20355.7,21813.7 L20339.4,21805.8 L20312.3,21817.1 L20288.9,21821.9 L20257.5,21830.2 L20231.3,21837.9 L20204.9,21853.2 L20188.9,21864.7 L20189.8,21879.8 L20182.9,21888.1 L20155.3,21905.6 L20124.1,21922.6 L20104.2,21929.4 L20077.9,21927 L20050.7,21935.1 L20032.8,21934.4 L20012.8,21929.6 L19999.2,21926.1 L19980.3,21904.1 L19968.6,21896 L19944.5,21892.3 L19934.9,21904.7 L19912.8,21908.6 L19876.9,21896.7 L19863.4,21880.6 L19830.9,21873.6 L19793.4,21882.3 L19760,21889.6 L19728,21882.6 L19724.8,21852.5 L19684.5,21856.9 L19636.9,21847.1 L19623.1,21850.9 L19601.9,21857.5 L19587,21874 L19563.8,21871 L19562,21883.6 L19541.6,21895.2 L19523.1,21912.1 L19524.5,21922.4 L19539.2,21948.9 L19545.6,21943.6 L19581.5,21983 L19576.3,22004.5 L19559.1,22017.4 L19544.6,22015 L19528.9,21985.3 L19515.7,21962.2 L19500.2,21959 L19486.4,21968.5 L19473.5,21982 L19444.3,21986.8 L19416.7,21985.5 L19385.1,21967.2 L19365.4,21954.7 L19350.4,21938.3 L19353.6,21917.3 L19355.2,21898.9 L19349,21884.6 L19358.2,21877.4 L19350.6,21859 L19363.9,21833.6 L19361.3,21825.1 L19350.1,21816.3 L19328.7,21837.1 L19307.3,21826.9 L19292.9,21811.6 L19290.3,21791.9 L19278.3,21792.3 L19271.9,21802.2 L19263.3,21799.6 L19257.4,21785.8 L19245.6,21774.9 L19223.5,21768.6 L19217,21765.2 L19222.7,21757 L19225,21748.3 L19209.4,21762 L19198.8,21747.1 L19193.5,21731.3 L19181,21719.3 L19171.4,21710.4 L19174.2,21697.3 L19182.2,21687 L19199.2,21683.7 L19193.2,21680.7 L19165.1,21680.1 L19148.2,21678.5 L19137.5,21683.7 L19124.7,21687.2 L19104.3,21682 L19102,21672 L19106.4,21660.1 L19108.5,21642.5 L19097.3,21634.5 L19073.1,21627.3 L19079.6,21614.9 L19090.7,21601.2 L19098.2,21586.1 L19107.5,21579 L19080,21578.3 L19073.2,21562.5 L19078.7,21545.3 L19080.1,21534.9 L19091.7,21531.1 L19091.8,21519.3 L19104.9,21513.9 L19117.8,21509.4 L19091.2,21508.6 L19072.5,21500.8 L19061.4,21484.9 L19070.2,21467.2 L19075.6,21458.8 L19098.3,21463.4 L19086.8,21436.5 L19068.8,21412.9 L19049.3,21395.5 L19038.1,21379.3 L19010.7,21388.6 L18985.8,21380.1 L18954.7,21367.1 L18933.1,21345.7 L18923.6,21330.9 L18941.4,21320.7 L18935.4,21311.1 L18942.3,21305.7 L18959.2,21307.3 L18951.3,21297.4 L18963.2,21285.9 L18980.8,21278.8 L18962.6,21266.5 L18939.9,21260.3 L18910.9,21250.8 L18903.9,21241.8 L18894.7,21242.5 L18886,21257.1 L18854.4,21244 L18840.8,21242.7 L18813.9,21235.5 L18786.1,21232.5 L18773.8,21218.7 L18777,21206.7 L18772.1,21194.2 L18760.8,21189.8 L18750.4,21201.5 L18718.7,21190.1 L18707.8,21177.7 L18712.6,21169.6 L18702.9,21158.6 L18687.8,21153.1 L18656.8,21125.4 L18622.4,21108.7 L18602.4,21095.5 L18588.9,21076.7 L18582.6,21061.6 L18561.4,21054.9 L18563.5,21036 L18554.3,21019.6 L18549.2,20995.6 L18556.9,20980.9 L18560,20964.8 L18551.4,20954.4 L18573.6,20952 L18540.9,20936 L18540.9,20925.1 L18526.5,20921.8 L18528.6,20903.1 L18526,20878 L18528.8,20844.6 L18506.9,20847.8 L18493.2,20861 L18484.2,20873.3 L18464.2,20857.2 L18443.2,20848 L18430.6,20831.9 L18424.5,20812.5 L18432.1,20805.6 L18423.9,20786.1 L18418.1,20745.3 L18427.8,20730.7 L18420.4,20718.8 L18403.8,20725.4 L18397.3,20717.5 L18377.7,20711.3 L18360.5,20705.4 L18348.6,20712.7 L18358.5,20728.3 L18356.5,20742.6 L18349,20746.1 L18338.2,20739.9 L18326.8,20722.1 L18316.8,20717.3 L18301.2,20726 L18328.8,20748.9 L18343,20766.8 L18342.2,20773.8 L18335.4,20777.3 L18320.5,20760.7 L18305.2,20750 L18286.8,20739.2 L18274.6,20743.2 L18271.3,20761.4 L18268.9,20770.8 L18254.1,20775.2 L18250.2,20753.6 L18253.8,20742.7 L18245.1,20742.3 L18228.6,20755.8 L18223.3,20737.9 L18205.2,20725.2 L18186.7,20709.2 L18172.3,20692 L18161.6,20670.1 L18154.7,20649.6 L18141.6,20625.6 L18143.1,20603.3 L18134.8,20587.8 L18129.7,20581.3 L18132.2,20570 L18121.3,20566.5 L18109.3,20570.7 L18106.7,20586 L18091.2,20597.5 L18070,20594.6 L18048.7,20584.9 L18039.2,20575.8 L18039,20566.1 L18035.4,20555.1 L18008.7,20543.5 L17988.9,20514.2 L17985.4,20498.6 L17967.9,20488.4 L17951.9,20489.5 L17932.9,20480.1 L17929.6,20454.4 L17943.8,20451.8 L17937.5,20426.4 L17921,20391.1 L17914,20416.4 L17901.5,20430.3 L17867.5,20411 L17845.1,20355.6 L17849.4,20324 L17866.3,20294.5 L17894.3,20296.6 L17897.3,20269.9 L17888.7,20246.1 L17860.7,20211.9 L17835.3,20196.9 L17800,20185.1 L17778.7,20177.7 L17779.2,20162.3 L17792.2,20142.5 L17818,20113.1 L17811.6,20107.7 L17787.9,20111.2 L17758.9,20100.2 L17731.5,20079.9 L17713.9,20060.1 L17705.4,20024.4 L17722.3,19974.1 L17723.7,19963.1 L17712.1,19953.2 L17700.1,19947.4 L17688.1,19952.1 L17677,19959.3 L17664.3,19948.7 L17634.3,19963.8 L17605,19979.5 L17586,19992.2 L17563.2,19997.5 L17511.2,20007.1 L17474.4,20014.2 L17458.8,20010.3 L17448.8,19997.1 L17435.3,19999.8 L17424.3,19991.9 L17400.6,19980.6 L17383.3,19962.7 L17372.9,19956.7 L17362.6,19946.4 L17345.6,19916.4 L17339.2,19907.7 L17318.4,19872.7 L17314.6,19839.2 L17325.8,19814.3 L17330.2,19789.8 L17334.6,19765.8 L17346.4,19752.9 L17366.6,19746.4 L17380.6,19738.7 L17378,19716.5 L17394.1,19687.1 L17395.7,19669.9 L17345.2,19584.2 L17280,19494.1 L17222.5,19433.5 L17192.5,19409.6 L17129.7,19353.3 L17025.4,19267.1 L16930.5,19256.7 L16904,19224.4 L16798.2,19208.7 L16726.5,19179.5 L16643,19196.5 L16558.6,19163.9 L16494.3,19146.9 L16441.1,19153.6 L16379.2,19129.9 L16334.7,19085.5 L16264.2,19069.1 L16204.7,19002.2 L16215,18940.1 L16146.7,18960.5 L16100.3,18938.5 L16023,18870.1 L15977.4,18815.1 L15977.4,18763.4 L16084.7,18708.3 L16003.4,18666.4 L15993.5,18598.5 L15953.2,18489.6 L15932.2,18395 L15921.8,18281.7 L15955.8,18213.7 L15980.2,18181.3 L15970.7,18123.2 L15957.4,18068.1 L15924.8,18003.5 L15861.4,17998.2 L15902,17955 L15859.6,17890.3 L15837.1,17811.7 L15864.5,17718.8 L15892,17638.1 L15863.5,17538 L15791,17446.6 L15667.3,17340.7 L15599,17308.4 L15546.9,17256.7 L15514.3,17221.2 L15439.1,17191 L15354.8,17184.2 L15274.8,17231 L15214.9,17256.8 L15182.4,17268.2 L15156.5,17292.6 L15149.9,17224.7 L15120.6,17192.3 L15110.1,17135 L15071.9,17110.9 L15032.2,17082.1 L14968.4,17046.9 L14922.1,17022.7 L14864.3,17011.5 L14793.9,16974.3 L14722.3,17060.1 L14680.9,17124.9 L14625.2,17141.4 L14566.5,17143.4 L14442.2,17077.9 L14507.6,17042.8 L14523.1,17021.7 L14487.1,16991.5 L14478.5,16964.3 L14459.3,16945.5 L14414.4,16943.2 L14365.6,16850.1 L14348.2,16841.6 L14336,16810.7 L14332.7,16782.3 L14307.6,16737.1 L14347.4,16706.7 L14408.7,16679.8 L14502.6,16711.3 L14604.8,16713.7 L14642.1,16762.6 L14703.9,16807.8 L14746.2,16775.4 L14752.7,16710.8 L14837.2,16697.8 L14902.3,16726.8 L14954.4,16681.5 L15012.9,16665.3 L15081.2,16636.2 L15081.2,16603.8 L15139.7,16603.8 L15103.9,16568.2 L15109,16520.5 L15253.6,16519.6 L15344.6,16503.4 L15416.2,16522.8 L15409.7,16484 L15468.3,16480.7 L15605,16542 L15707.8,16534.1 L15858.7,16567.7 L15955.7,16581.1 L16011.9,16580 L16029.8,16569.2 L16070.1,16545 L16167,16486.7 L16248.2,16415.1 L16298.3,16326 L16387.7,16132.4 L16475.8,15916.1 L16497.5,15752.8 L16534.2,15703.4 L16528.4,15583.4 L16539.2,15524 L16549,15470.5 L16548.9,15396.1 L16560.5,15331.3 L16574.9,15251 L16557.2,15137.9 L16505.1,15073.3 L16450.4,15004.6 L16401.7,14983 L16314.8,15005.4 L16269.9,14910.8 L16298.7,14864.4 L16267.3,14792.2 L16228.3,14717.8 L16146.9,14653.2 L16066.2,14606.9 L15979.4,14591.8 L15868.1,14604.2 L15708.1,14513.4 L15564.3,14525.5 L15449.6,14425.3 L15273.2,14420 L15172.6,14492.3 L15030.6,14552.9 L14994.3,14456.9 L14949.1,14334.1 L15080,14236.2 L15168,14236.1 L15176.2,14171.2 L15302.2,14080 L15375.5,14036 L15432.9,13975.3 L15419.3,13886.2 L15496.1,13863.4 L15579.2,13841.7 L15658.9,13832.4 L15707.1,13803 L15785.2,13751.3 L15882.8,13705.9 L15960.8,13715.5 L16065,13712.3 L16143,13692.8 L16230.8,13673.3 L16299.1,13650.6 L16435.8,13637.6 L16487.8,13621.4 L16565.9,13601.9 L16631,13614.8 L16686.3,13631 L16748.1,13647.1 L16751.4,13698.8 L16780.7,13715 L16832.7,13672.9 L16891.3,13682.6 L16852.3,13793.8 L16740.9,13879.5 L16789.2,13923.4 L16928,13957.5 L17029.5,14044.1 L17076.3,14150.4 L17079.8,14323.2 L17200.1,14483.6 L17209.2,14568.1 L17166.6,14741.3 L17092,14855.4 L17077.3,15019.5 L17006.6,15128.5 L16886.8,15131.3 L16816.6,15164.7 L16826.4,15259.3 L16959.5,15390.9 L17067.5,15419.2 L17212.4,15451.4 L17312.3,15483.4 L17367.6,15515.7 L17465.2,15541.5 L17572.6,15593.2 L17618.2,15631.9 L17657,15724.6 L17639,15863 L17621.4,15994.2 L17632.9,16193 L17690,16295.9 L17675,16390.8 L17685.6,16470.6 L17723.4,16549.3 L17821.7,16666.7 L17890.3,16723.2 L18006.2,16818.4 L18050.3,16859.4 L18075.9,16929.1 L18133.9,16990.3 L18177,17033.2 L18237.1,17130.2 L18293.5,17234.6 L18341.6,17261.2 L18421.7,17278.8 L18491.1,17253.3 L18576.4,17189.1 L18632.4,17166.2 L18780.4,17106 L18908.9,17029.6 L18985,16996.8 L19040,16946.2 L19027.9,16859.7 L18962.7,16817.7 L18939.9,16743.4 L18933.3,16666.5 L18951.8,16605 L18966.3,16534.2 L19008.4,16452 L19052.3,16394.5 L19138.1,16398.4 L19225.1,16462.4 L19281.3,16516.7 L19372.5,16581.4 L19372.5,16616.9 L19411.6,16658.9 L19461.5,16747.6 L19494.1,16820.6 L19558.2,16898.1 L19663.7,16996.8 L19691.8,17060.9 L19689,17098 L19687.4,17133.7 L19686.1,17189.1 L19876.8,17366.6 L20037,17441.3 L20250.3,17491.4 L20497.8,17526.6 L20743.2,17529.1 L20963.6,17513.1 L21148.9,17479.5 L21355.8,17425 L21548.2,17374.1 L21708.7,17285.9 L21822,17223.9 L21865,17168 L21860.7,17111.7 L21849.3,16955.2 L21858.8,16896.9 L21874.3,16801.3 L21937.3,16689.4 L21982.2,16683.3 L22026,16686.5 L22055.9,16651.8 L22123.3,16628.1 L22201.3,16592.9 L22245.3,16601.8 L22287.6,16624.4 L22352.7,16604.9 L22427.5,16572.5 L22570.6,16520.7 L22769,16452.6 L22853.6,16433.2 L22915.4,16387.8 L22996.7,16378.1 L23035.9,16366.5 L23068.2,16345.7 L23104,16319.8 L23105.3,16251.2 L23235.1,16267.3 L23341.5,16309.9 L23439.2,16351.8 L23463.8,16439.9 L23514.1,16465 L23533.3,16547.6 L23569.6,16596.2 L23630.2,16643.5 L23660.1,16704.6 L23683.4,16789.6 L23732.6,16862.6 L23755.5,16985.6 L23779.5,17102 L23762.4,17163.6 L23788.2,17256.3 L23819.2,17443.2 L23801.6,17498.2 L23838.8,17513.4 L23868.8,17576.8 L23870,17626.9 L23861,17689.8 L23876.5,17763 L23880.4,17836.7 L23883,17900.6 L23888.3,17994.2 L23922.1,18092.7 L23946.4,18206.5 L24038.3,18295.8 L24119.9,18290.6 L24176.1,18320.6 L24237.9,18369.1 L24385.6,18497 L24475.5,18545.5 L24586.6,18543.4 L24649.9,18519.1 L24701.6,18499.4 L24813.7,18451.8 L24936.7,18388.8 L25060.5,18330 L25145.6,18326.3 L25262.7,18316.5 L25305,18287.4 L25357.6,18268.1 L25419.5,18275.5 L25470.9,18300.1 L25526.3,18326 L25539,18352 L25543.6,18395.9 L25591.4,18377.6 L25622.6,18401.6 L25661.5,18427.2 L25699.3,18423.8 L25726.5,18446.2 L25690.7,18502.4 L25681.1,18553.3 L25687,18626.4 L25709.9,18735.5 L25766,18791 L25774.8,18864 L25765.9,18915.4 L25725.7,18937 L25735.9,18964.4 L25818.2,18952.1 L25816,19022.3 L25864.3,19056.2 L25834.9,19137.8 L25894.4,19127.4 L25891.4,19169.7 L25847.1,19241 L25804.5,19283.9 L25749.2,19328.3 L25680.4,19338.9 L25649.6,19313.2 L25621.7,19275.8 L25588.1,19270.7 L25532.3,19289.8 L25476.6,19332.1 L25418.9,19405.1 L25369.6,19493.4 L25371.5,19609.9 L25389,19750 L25437.4,19943.3 L25499.6,20090 L25586.5,20214.9 L25653.2,20322.2 L25745.7,20454.7 L25873.2,20636.5 L25908.6,20727.3 L25962.3,20810.5 L26012.9,20909.5 L26114.2,21025.8 L26222.6,21099 L26292.4,21126.4 L26341.5,21126.2 L26395.6,21122.2 L26449.1,21099.7 L26499.5,21061 L26537.3,21021.8 L26589.4,21001.6 L26629.1,20997.5 L26666.7,20968.6 L26704.7,20932.7 L26735.9,20894.7 L26794.6,20864.4 L26861.8,20850.3 L26901,20843.6 L26938.1,20850.8 L26963.1,20869.4 L27013,20886.5 L27076.6,20900.7 L27139.6,20930.9 L27207.4,20953.5 L27216.4,21003.5 L27262.9,21040 L27272.7,21063.3 L27250.8,21112.2 L27269.2,21150.5 L27248.4,21202.3 L27270.6,21235.2 L27257.9,21340.3 L27246.9,21414.4 L27234.8,21470 L27242.1,21501.8 L27270,21545.5 L27263,21555.2 L27263.4,21562.1 L27286,21568.7 L27295.6,21556.2 L27307.5,21551.4 L27341.3,21568.5 L27390.2,21645.6 L27414.7,21690.6 L27423.6,21743.4 L27410.5,21772.2 L27354.5,21820.7 L27330.9,21837.7 L27301.5,21926.4 L27304,21979.1 L27214.5,22041.2 L27148,22050.9 L27112.9,22114.2 L27036.7,22158.7 L26981.4,22154.8 L26924.3,22234.3 L26857.7,22338.6 L26818,22392.4 L26817.7,22450.9 L26823.6,22583.2 L26875.6,22725.3 L26944.3,22869.9 L26993.9,22937.5 L27022.2,22982.2 L27052.6,23046.5 L27087.2,23115.4 L27137.6,23191.3 L27176.8,23244.1 L27249.5,23308.8 L27327.2,23356.9 L27429.1,23412.2 L27650.5,23545.5 L27806.6,23647.4 L27984.3,23736.5 L28227.9,23830.1 L28387.7,23891.1 L28506.9,23902.9 L28577.6,23891.9 L28631.1,23869.3 L28672.4,23829.5 L28662.2,23800.2 L28668.8,23738.9 L28715.3,23714.3 L28764.7,23693 L28811.4,23690.2 L28848.3,23707.5 L28900.8,23752.8 L28928.6,23828.4 L28854.9,23897.9 L28888.9,23963.1 L28938.3,24022.1 L29010.9,24044.1 L29094.8,24040.6 L29181.4,24027.9 L29307,23991.8 L29434.3,23936.4 L29560.1,23870.6 L29660.9,23819.8 L29764.3,23755 L29849.4,23684.1 L29913.6,23615.1 L29992.3,23549.3 L30032.2,23481.5 L30042.3,23419.5 L29993.5,23341 L29867.7,23260.4 L29789.5,23176.4 L29722.5,23117.9 L29674.7,23034.5 L29630.6,22919.4 L29636.8,22819.3 L29664.8,22733.4 L29757.8,22649.9 L29867.6,22590.8 L29965.7,22537.2 L30075.3,22501.1 L30186.6,22430.6 L30307.8,22346 L30389.3,22271.7 L30433.6,22173.9 L30495.3,22050.2 L30524.2,21976.2 L30582.6,21901.7 L30644.7,21844.8 L30731.9,21794.6 L30760.2,21747 L30828.2,21738.8 L30927.1,21784.7 L30944.4,21792.6 L30997.6,21760.9 L30999.3,21707.2 L31030.7,21624.2 L31046.1,21568.6 L31099.5,21538.5 L31167.3,21468.3 L31261.9,21417.3 L31390.4,21323.7 L31464.4,21292.9 L31569.6,21284.2 L31631.3,21291.1 L31672.9,21288.2 L31732.2,21256.3 L31822.1,21238.7 L31933.6,21236.1 L32041.3,21257.2 L32130.6,21343.8 L32170.5,21400 L32201.8,21500.8 L32107.7,21571 L32071.2,21634.7 L32052,21618.8 L32009.2,21643.3 L31958.3,21676.7 L31945,21713.8 L31890.2,21735 L31882.5,21807.5 L31896.1,21899.8 L31947,21997.8 L32052.8,22121.3 L32179.3,22226.5 L32272.9,22289.4 L32344.2,22338.9 L32453.9,22353.3 L32584,22347.6 L32716.5,22333.7 L32830.5,22327 L32964.7,22335.6 L33116.3,22362.2 L33252.8,22379.2 L33364.2,22378.4 L33473.1,22353.8 L33568.2,22294.7 L33612.1,22266.4 L33661.6,22256.2 L33765.4,22236.1 L33882.9,22166.7 L33965.1,22112.8 L34062.9,22071.8 L34254.4,21997.1 L34404.2,21912.4 L34466.6,21846.7 L34556.8,21738.6 L34608.5,21615.2 L34620.3,21514.8 L34662.1,21355.6 L34679.9,21186.7 L34727,21088.7 L34795.2,20979.7 L34887.6,20884.3 L34975.9,20783.3 L35109.7,20619.7 L35206.1,20497.7 L35285.4,20402.3 L35361,20256.2 L35455.7,20103.4 L35512.3,20038.9 L35594.4,20001.7 L35621.7,19960.9 L35676,19897.6 L35761,19815.9 L35837.7,19711.5 L35887,19620.1 L35903.4,19507.6 L35907.8,19345.9 L35896.8,19213.7 L35880.1,19087.6 L35858.8,18912.5 L35822.5,18738.2 L35780.5,18574.2 L35768.5,18360.6 L35841.1,18199.3 L35914.4,18108.7 L35970.3,18126.1 L36002.6,18086.3 L36041.8,18044.3 L36113.7,18023.8 L36197.6,17995.3 L36282.2,17948 L36328.9,17952.5 L36361.7,17887.6 L36418.6,17911.9 L36412.8,17825.3 L36419.8,17811.2 L36451.2,17748 L36546.8,17662.3 L36598.6,17687.2 L36580.2,17641.1 L36604.1,17618.2 L36642.9,17607.8 L36663.3,17538.6 L36734.5,17443.2 L36799.1,17407 L36855.4,17336.1 L36911.1,17327.5 L36938.8,17361.6 L36925.1,17502.2 L37001.1,17476.9 L36991.1,17570.7 L37037.1,17517 L37073.3,17533.2 L37084,17577.5 L37071.6,17641.9 L37107.5,17620.3 L37140.8,17639.4 L37107.5,17709.5 L37150.1,17698.4 L37144,17764.5 L37104.3,17843 L37109.7,17930.4 L37126.9,18053.4 L37092.2,18154.6 L37113.4,18201 L37083.3,18258.1 L37095.3,18357.7 L37119.3,18451.3 L37181.3,18518.8 L37258.9,18573.9 L37353.3,18609.4 L37420.8,18563.1 L37473.6,18586.6 L37515.9,18606 L37564.8,18660.9 L37594.1,18702.9 L37603.1,18747.1 L37581,18802.3 L37554.9,18856.1 L37555,18920.3 L37598.4,18965.7 L37652.4,18986.1 L37718.4,18965.3 L37785.3,18943.1 L37867.4,18925.5 L37960.3,18954.1 L38006.5,18982.9 L38050.4,19016.2 L38104.1,19024.3 L38183.8,19005.8 L38236.8,18975.1 L38281.7,18921.8 L38323.4,18845.6 L38409.3,18730.6 L38514.8,18620.4 L38629.8,18567.5 L38717.6,18557.7 L38788,18578.8 L38848.6,18586.9 L38906.3,18582.4 L38983.3,18581.9 L39041.6,18609.6 L39086.4,18647.9 L39060.7,18573.5 L39095.9,18534.5 L39138.3,18477.4 L39160.1,18406.1 L39113.2,18345.6 L39075.1,18244.1 L39095.7,18153 L39139.7,18049.1 L39208.9,18001.9 L39250.9,18022.2 L39291.8,18054.4 L39350.2,18107.3 L39388.2,18126.6 L39290.7,18164.3 L39270.9,18207.2 L39285.2,18281.4 L39315.5,18345.4 L39316.9,18428.1 L39298.6,18497 L39268.2,18580.6 L39283.4,18660.1 L39275.4,18728.9 L39275.8,18810.9 L39337.3,18861.4 L39402.2,18910.5 L39418,18976 L39461.9,18985.6 L39514.1,19047 L39611.2,19070.7 L39709,19124.9 L39748.3,19172.9 L39777.4,19226.9 L39743.6,19271 L39699.1,19323.2 L39632.4,19362.8 L39564.1,19384.3 L39531.6,19473.5 L39509.8,19565.7 L39450.3,19626.8 L39361.3,19698.6 L39270.4,19755.7 L39206.1,19803.2 L39145.2,19907.6 L39103.3,19997.8 L39093.4,20087.7 L39091.1,20173 L39005.3,20216.8 L38973.2,20264.9 L38890.4,20304.6 L38810,20338.5 L38774.1,20387.7 L38706.9,20448.9 L38718.2,20522.7 L38760.6,20653 L38823.2,20751.6 L38909.5,20855.2 L39015,20932.9 L39106.1,20994.2 L39168,21007.1 L39291.6,21007 L39395.8,21036 L39516.7,21050.3 L39627.8,21060.4 L39706.3,21052.3 L39784,21011.9 L39804.9,20970.2 L39812.3,20874.9 L39822.8,20741.5 L39874.3,20627.8 L39917.8,20530.6 L39922.6,20432.3 L39956.5,20358.7 L40020.8,20262.5 L40081.8,20185.7 L40179.9,20135.2 L40248.7,20110 L40295.5,20081.4 L40329.1,20014.9 L40375,19950.6 L40465.5,19934.5 L40533.4,19938.5 L40575.6,19974.2 L40607.8,19996.3 L40617.5,20016.7 L40708.8,20036.2 L40839.8,19991.2 L40973.3,19942.4 L41061.8,19894.4 L41131.2,19843.4 L41177.3,19789.7 L41163.2,19723.2 L41135.1,19602 L41241.1,19578.7 L41326.3,19559.7 L41411.9,19562.9 L41505.1,19585.9 L41582.1,19621.8 L41642.6,19694.8 L41648.4,19703 L41694.8,19769.1 L41707.8,19840.2 L41685.5,19915.7 L41662.4,19932.8 L41626.9,19938.3 L41592.4,19924.4 L41546.8,19930.7 L41471.9,19957 L41393.7,19952.5 L41269.8,19898.2 L41242.3,19935.5 L41226.9,19983.7 L41194.7,20083.8 L41188.9,20185.1 L41194.7,20285 L41236.7,20393.3 L41278.3,20517 L41228,20573.8 L41141.1,20651.9 L41139.7,20702 L41096.2,20765.5 L41031,20863.3 L41038,20924.3 L41078.5,21009 L41123.5,21069.7 L41195.2,21192.6 L41276.6,21286.3 L41361.4,21389.6 L41455.8,21489.8 L41537.2,21570.6 L41628.4,21630.9 L41729.3,21691.1 L41844.5,21735.2 L41946.5,21761.2 L42005.2,21768.6 L42068.3,21765.9 L42119.8,21747.8 L42152.3,21725.1 L42196.9,21705.4 L42232.5,21682.6 L42295.9,21633.1 L42374.7,21588.8 L42439.4,21553.2 L42493.7,21495.2 L42547.9,21417.4 L42576.1,21386.3 L42584.7,21312.4 L42655.1,21262.7 L42691,21243.9 L42744,21098.6 L42760,21048.6 L42773.2,20965.2 L42733.8,20777 L42688.6,20642.1 L42661.4,20535.7 L42692.3,20480.5 L42745.2,20437.6 L42836.9,20389.3 L42912.3,20357.7 L42999.3,20332.6 L43085.9,20306.9 L43180.2,20262.6 L43226.8,20242.8 L43249.9,20171.5 L43280.6,20132.1 L43351.3,20158.6 L43392,20187.3 L43426,20225.7 L43458.8,20274.9 L43530.4,20333.1 L43584.3,20366.5 L43621.4,20411.1 L43643.2,20469.6 L43662.8,20580.1 L43715.2,20706.5 L43768,20840.4 L43813.8,20971.3 L43853.6,21064.2 L43868,21154.2 L43858.2,21245 L43890.8,21336.6 L43887.1,21459.1 L43852.7,21593.9 L43837.7,21692.5 L43814.5,21773.1 L43733.3,21868.1 L43689.2,21952 L43633.8,22077.7 L43545.5,22266.9 L43498.3,22445 L43539.3,22519.7 L43613.2,22620.9 L43710,22727.4 L43786.9,22803.5 L43891.2,22863.4 L43983,22906.8 L44073.2,22931.4 L44183.2,22934.6 L44321.8,22932.9 L44452.3,22914.2 L44551.5,22877.8 L44612.9,22846.1 L44646.2,22808.8 L44656.3,22752.7 L44677.5,22701.3 L44695.1,22632.9 L44682.5,22583.4 L44666.7,22530.9 L44661.9,22514.7 L44651.1,22449 L44626.2,22392.3 L44632.4,22346.6 L44619.3,22304.6 L44581.7,22225.5 L44623.1,22158.1 L44693.3,22122 L44742.1,22157.8 L44781.6,22166 L44881.6,22136.7 L44941.7,22106.1 L45005.2,22045.2 L45167.6,22006.8 L45308.1,21973.6 L45383.1,21897.3 L45497.3,21815.3 L45585.4,21727.2 L45615.9,21696.7 L45744.2,21565.7 L45820.6,21450.3 L45903.9,21379 L45972.3,21317.3 L46018.2,21249.3 L46033,21167.3 L46087.3,21123.4 L46120.1,21046.1 L46127.5,20950.8 L46160.4,20900.8 L46208.8,20883.1 L46188.5,20804.1 L46228.3,20757 L46344.6,20803.5 L46397.8,20835.5 L46433.3,20869.9 L46422.5,20935.3 L46479.2,20976.3 L46465.1,21028.3 L46423.9,21128.8 L46480.3,21165.7 L46508.7,21219.9 L46557.4,21264.3 L46568.5,21292 L46573.6,21383.9 L46574,21516.9 L46586.1,21680.1 L46542.1,21741.8 L46593.8,21753.2 L46592.6,21806 L46535.9,21851.7 L46474,21914.2 L46500.9,21952.1 L46429.9,22005.8 L46406.2,22077.4 L46369.6,22069.1 L46314.1,22110.3 L46294,22217.6 L46244.3,22274.7 L46267.9,22406.2 L46251.9,22462 L46235,22422.6 L46200.2,22493.4 L46213.1,22552.9 L46227,22647.6 L46224,22726 L46285.7,22762 L46338.1,22806.9 L46326.3,22851.8 L46380.2,22842.7 L46380.2,22888 L46413.3,22898.3 L46468.2,22985.3 L46489.6,23050.3 L46472,23135.1 L46440.8,23239.9 L46429.9,23318.9 L46373.5,23368.1 L46312.8,23449.5 L46272.6,23534.3 L46217,23635 L46217.3,23714.4 L46180,23763.1 L46186.4,23840.8 L46151.2,23912.7 L46077.2,24064.9 L46025.7,24154.1 L45960.9,24171.3 L45930.6,24126 L45885.5,24165.5 L45767.2,24238.9 L45716.1,24311.5 L45656,24380.7 L45662.4,24441.2 L45589.3,24423.8 L45577.5,24463.6 L45492.6,24484 L45405.3,24525.7 L45366.1,24596.5 L45357.7,24672.8 L45385.7,24771.3 L45444.2,24861.8 L45457.4,24935.9 L45451.8,25055.2 L45456.1,25210.5 L45441.4,25304.1 L45447.2,25373.3 L45453.3,25478.5 L45466,25581.4 L45483.6,25664.9 L45495.5,25759.4 L45508.6,25930.9 L45512.2,26075.8 L45533,26212.4 L45567.2,26343.7 L45579.4,26465.2 L45589.8,26618.3 L45646.9,26709.4 L45664.1,26784.4 L45648.3,26799.6 L45638.1,26860.7 L45606.6,26928.5 L45546.3,26982 L45509.7,27030 L45456.1,27089.7 L45401.1,27141.5 L45378.2,27207.4 L45340.4,27283.4 L45293.7,27364.4 L45276.5,27392.6 L45248.6,27409.9 L45197.6,27383.5 L45122.8,27371.9 L45099.9,27329.9 L45077.2,27294.3 L45062.2,27243.9 L45011.9,27220.6 L44976.3,27293.4 L44937,27269.7 L44878.6,27268.7 L44849.9,27238 L44796.7,27182.7 L44728.8,27168.6 L44721.6,27103 L44700.2,27030.1 L44723.4,26987.1 L44744.8,26961 L44702.7,26920.2 L44685.9,26886.7 L44674.1,26863.4 L44712.9,26790.4 L44718.6,26715.8 L44666.4,26612.4 L44592.8,26510 L44545,26485 L44500.2,26467 L44444.9,26395.9 L44389,26315 L44299.5,26194.2 L44178.9,26109.5 L44119.2,26083.4 L44023.8,26077.1 L43936,26084.9 L43834.6,26101.1 L43689.6,26155.9 L43592.7,26188.9 L43433,26237.8 L43322.1,26261.3 L43198.5,26267.9 L43104.1,26290.7 L43009.8,26326.4 L42801.7,26452.7 L42782.2,26491.5 L42717.2,26546.6 L42652.1,26533.7 L42622.9,26643.7 L42554.7,26685.8 L42496.1,26708.5 L42457,26679.4 L42366,26753.9 L42216.5,26974 L42158,27045.2 L42171.1,27077.6 L42158.1,27119.6 L42151.7,27164.9 L42054.1,27252.4 L42002.1,27262.1 L41992.3,27213.6 L41950,27220.1 L41868.6,27249.3 L41673.6,27356.2 L41468.7,27492.3 L41397.2,27553.8 L41208.5,27589.6 L40772.6,27713 L40635.9,27726.1 L40505.8,27758.5 L40330.1,27826.6 L40193.5,27842.9 L40108.9,27881.8 L40027.6,27959.6 L39754.5,28131.3 L39432.5,28296.5 L39302.4,28374.3 L39172.4,28490.9 L39094.4,28549.1 L38987,28604.3 L38935,28659.3 L38886.3,28737 L38821.4,28885.8 L38821.4,28957 L38834.5,29011.9 L38867.1,29086.3 L38883.5,29160.7 L38873.8,29235 L38838,29299.8 L38766.5,29345.1 L38795.8,29406.6 L38874,29442 L38874,29471.2 L38919.6,29506.7 L38883.9,29600.5 L38831.9,29607.1 L38770.1,29658.9 L38646.4,29639.6 L38620.5,29723.7 L38610.8,29833.7 L38614.2,29998.6 L38620.9,30118.3 L38588.4,30225.1 L38634.1,30318.8 L38647.2,30402.9 L38627.7,30451.4 L38634.3,30571.1 L38588.8,30564.7 L38588.9,30687.6 L38631.2,30719.9 L38673.7,30917.1 L38641.3,30975.4 L38641.3,31033.6 L38677.1,31056.2 L38719.4,31046.4 L38732.6,31166.1 L38807.5,31208.1 L38729.5,31302 L38697,31331.1 L38710,31392.5 L38664.5,31402.3 L38641.7,31357 L38531,31383 L38498.5,31434.8 L38501.9,31512.4 L38453.1,31528.7 L38414,31561 L38436.9,31603.1 L38489,31596.5 L38576.9,31687 L38577,31764.6 L38489.2,31790.6 L38482.6,31758.3 L38427.3,31748.6 L38372,31777.8 L38368.8,31861.9 L38274.4,31862 L38141.1,31962.4 L38030.4,31949.6 L38030.5,32040.1 L37880.8,32037 L37835.3,32069.4 L37802.8,32108.3 L37698.7,32144 L37659.7,32199 L37601.2,32218.5 L37601.1,32173.2 L37549,32173.2 L37493.8,32267.1 L37396.3,32338.3 L37383.2,32276.9 L37344.1,32244.6 L37314.8,32192.9 L37327.7,32050.5 L37285.3,32008.5 L37216.9,31976.2 L37145.3,31927.8 L37073.7,31918.2 L37005.3,31798.6 L36943.3,31685.4 L36901,31685.5 L36855.4,31649.9 L36845.6,31588.5 L36809.7,31533.5 L36757.7,31533.6 L36728.4,31566 L36679.6,31562.8 L36640.5,31498.1 L36633.9,31427 L36581.8,31339.7 L36552.4,31265.3 L36575.1,31223.3 L36555.5,31168.3 L36552.1,31009.8 L36590.6,30909.3 L36534.8,30825 L36540.1,30740.2 L36579.6,30668.2 L36568,30592.6 L36456.9,30492.4 L36338.3,30508.5 L36272.3,30554.6 L36183.6,30589.1 L36148.4,30613.1 L36117,30634.5 L36064.9,30700.1 L36045,30671.8 L36018.2,30633.7 L35971.4,30707.8 L35966.6,30771.1 L35893.6,30775.2 L35781.9,30721.6 L35709.9,30649.6 L35713.8,30532.3 L35765.9,30482.5 L35770,30403.2 L35691,30329.2 L35702,30208.5 L35662.9,30098.6 L35610.7,30001.6 L35515.8,29926.9 L35406.2,29880 L35309.3,29871.1 L35158.5,29832.4 L34997.7,29847.9 L34709.1,29909.5 L34351.6,30047.8 L34220.8,30091.5 L33959.8,30204.9 L33563.7,30406 L33420,30573.4 L33471.6,30629.1 L33423.1,30685.4 L33439.5,30784.8 L33356.9,30826 L33365.8,30913.3 L33269.9,31003.1 L33242.7,31123 L33247.4,31222.8 L33260.4,31375.5 L33277,31569.3 L33234.1,31867.3 L33272.1,31963.6 L33294.3,32013 L33203.6,31993.7 L33041.1,31954.6 L32954.1,31956 L32888.9,31983.7 L32820.5,31948.2 L32745.3,31833.8 L32791.7,31814.6 L32771.5,31757.4 L32667.2,31597.4 L32597.2,31531.9 L32440.8,31529.1 L32323.6,31595 L32324.5,31652.3 L32288.6,31712.1 L32260,31860 L32241.3,32034 L32218.6,32298.2 L32264,32385.5 L32212.7,32467.1 L32195.5,32557.2 L32176.6,32612.5 L32137.7,32655.7 L32060.9,32630.8 L32067.8,32757.5 L32029.5,32879.7 L31994.6,32926.4 L31922.9,32970.4 L31856.9,32986.9 L31784.6,32897.5 L31655,32773 L31636.3,32605.1 L31671.7,32578.1 L31674.2,32544.4 L31646.3,32489.4 L31613.6,32447.4 L31600.6,32373 L31499.1,32202.1 L31383.8,32227.9 L31261.9,32150.1 L31218.8,32035.7 L31145.4,31811.3 L31161.4,31740.7 L31138.1,31682.1 L31081.2,31653 L31050.1,31588.2 L31021.2,31482.2 L31133.8,31443.8 L30916.5,31427.2 L30840.7,31425.3 L30739.3,31357.4 L30728.6,31300.3 L30760.4,31271.4 L30677.6,31266.7 L30594.6,31125 L30574.4,31043.2 L30567.1,30995.3 L30508.9,30983.6 L30313.9,31039.6 L30108,31111 L29906.3,31179.6 L29726.3,31251.4 L29570.7,31342.6 L29529.6,31379.1 L29524.3,31469.1 L29503.3,31536.7 L29503.9,31618.2 L29524.1,31657.3 L29514.7,31693.6 L29530.5,31708.3 L29527.9,31753.9 L29503,31765.9 L29504.2,31817 L29476.2,31830.8 L29451.6,31800.3 L29406.7,31734.6 L29370.9,31728.1 L29366.7,31703.7 L29345.6,31683.9 L29331.3,31687.4 L29303.4,31694.2 L29283.5,31721.1 L29287.9,31763.6 L29310.1,31791.3 L29308.6,31827.3 L29236.2,31972 L29173.8,32055.2 L29157,32173.8 L29109.4,32247.9 L29141.2,32291.2 L29141,32364.8 L29103.2,32454.2 L29102.3,32539.8 L29116.5,32616.7 L29105.8,32693.5 L29052.5,32710 L28999.3,32654.9 L28887.7,32764.7 L28916.7,32827.3 L28884.7,32870.7 L28817.4,32899.2 L28748.7,32957.7 L28751.5,33146.2 L28766.5,33185 L28735.3,33318.3 L28693.7,33381.8 L28707.6,33533.9 L28687.7,33588.9 L28642.6,33611.3 L28616.5,33594.7 L28578.5,33632 L28621.5,33685.7 L28564.3,33698.7 L28532.6,33681 L28500.1,33703.9 L28458.3,33705.9 L28392.7,33653.1 L28320.6,33669.8 L28267.1,33625.9 L28233.7,33635.5 L28194.6,33610.5 L28152.8,33629.4 L28138.8,33601.5 L28062.1,33637.8 L28018.8,33615 L28014.3,33601.9 L27985.6,33589 L28040.7,33521.4 L27973.9,33489.6 L27911.3,33511.6 L27908,33469.6 L27842.1,33455.2 L27771.7,33476.3 L27697.9,33476.1 L27639.6,33452.6 L27587.2,33437.2 L27659.8,33334.3 L27639.7,33242.5 L27604.1,33216 L27530.3,33243.5 L27530.2,33211.9 L27513.4,33190.1 L27498,33125.7 L27450.9,33125.7 L27419.7,33169.1 L27393.3,33160 L27394,33105.6 L27339.6,33094.2 L27332.2,33052.4 L27275.4,33060.4 L27243,33064.5 L27179.9,32988.3 L27197.9,32924.7 L27247.8,32910.4 L27265.3,32870.9 L27246.1,32839.4 L27213.4,32764.5 L27279.7,32647.7 L27403.5,32482.7 L27341.7,32430.6 L27336.2,32344.6 L27300.9,32235.1 L27206.1,32201.5 L27132.3,32147.3 L27125.8,32095.6 L26966.2,31953.4 L26863.4,31890 L26829.9,31898.8 L26815,31891.2 L26792.2,31879.6 L26787.9,31816.4 L26753.1,31776.8 L26711.7,31854.2 L26668.8,31888.6 L26637.7,31884.6 L26653.1,31821.7 L26682.2,31751.2 L26630.7,31708 L26536,31724.4 L26542.1,31674.4 L26571.3,31640.6 L26546.2,31626.8 L26511.7,31631.9 L26519.4,31583.7 L26503,31507.8 L26499.7,31439.6 L26461.3,31400.7 L26417.5,31360.1 L26477.6,31287.4 L26460.7,31262 L26419.2,31297.2 L26362.7,31270.2 L26300.1,31265.6 L26228,31235.2 L26272.4,31202 L26362.8,31150 L26330.5,31109.5 L26302.3,31091.7 L26258.5,31062.7 L26175.6,31060.6 L26112.3,31022.1 L26170.8,30944.9 L26194.4,30899.1 L26151.6,30734.7 L26076.7,30659.9 L26001.9,30670.1 L25952.2,30592.3 L25824.4,30640.5 L25768.4,30623.4 L25730.8,30575.4 L25696.2,30564.2 L25662,30525 L25670.7,30500.4 L25605.8,30444.8 L25574.7,30456.2 L25555.4,30433.2 L25563.2,30399.5 L25615.2,30376.5 L25560.2,30359.7 L25513.5,30301.9 L25464.7,30292.2 L25383.2,30230.8 L25204.2,30159.8 L25089.9,29996.1 L25067.9,29915.9 L25065.9,29839.9 L25031.9,29755.1 L24939.2,29596.1 L24883.6,29566.1 L24816.4,29592.8 L24773.2,29563.9 L24741.3,29576.6 L24703.9,29557.7 L24735.1,29487.4 L24686.3,29451.9 L24631.2,29406.3 L24601.2,29330.5 L24617.3,29274.6 L24585,29226.6 L24558.4,29178.6 L24526.1,29171.2 L24474.7,29176.6 L24464.2,29143.3 L24444.3,29142.6 L24411.9,29151.7 L24397.3,29136.1 L24397.2,29080 L24431.7,29061.5 L24493.1,29057.8 L24477.7,29034.2 L24436.5,29033.2 L24386.7,28988.5 L24378.4,28978.2 L24357,28951.6 L24367.8,28919.9 L24325.3,28870.7 L24288.3,28804.6 L24293.4,28750.6 L24280.9,28748.5 L24286.1,28706.9 L24266.1,28705.8 L24267.9,28670.3 L24307.3,28648.4 L24327.6,28623.3 L24335.5,28599.7 L24317.1,28577.8 L24359,28545.4 L24448.7,28442.9 L24459.1,28323.9 L24433.9,28250.8 L24368.4,28175.6 L24203.5,28096.4 L24066.6,27994 L23811,27909.5 L23774.7,27924.7 L23746.6,27936.5 L23741.5,27982.4 L23711.7,28017.6 L23672.6,28046.5 L23627,28012.4 L23568.1,27968.1 L23530,28002.8 L23460.6,27975.4 L23379,28010.7 L23336.4,27945.1 L23302.9,27885.6 L23260.7,27826.7 L23256.1,27738 L23047.4,27550.2 L22945.3,27489.5 L22944.3,27445 L22901.7,27400.6 L22836.6,27392.6 L22768.7,27394.9 L22676.8,27289.8 L22601.9,27225.2 L22493.5,27143.9 L22391.7,27044.4 L22292.7,26967.8 L22230.3,26859.3 L22197.5,26712 L22086.3,26538.2 L21959,26239.1 L21906,26185.5 L21885.8,26123.8 L21921,26095.8 L21905,25996.4 L21944.4,25963.7 L21927.2,25909.8 L22051.3,25757.1 L22151.7,25696.2 L22178.1,25625.6 L22344.6,25594.8 L22552.8,25627 L22816.6,25738.5 L22812.9,25755.6 L22880.4,25784.6 L22966.8,25844.4 L23000.1,25893.8 L23115.3,26065.4 L23070.1,26116.5 L22950.5,26251.5 L23069.1,26405.8 L23176.2,26525.1 L23220.9,26491.7 L23280.6,26565.3 L23226.1,26604.9 L23260.9,26642.2 L23355.9,26757.7 L23478,26947 L23445.7,26964.2 L23489,27033.4 L23444.3,27064.4 L23450.9,27080.5 L23518,27040.1 L23576,27047.9 L23751.6,26910.1 L23768.3,26929.7 L23995,26748.9 L23948.9,26683.9 L24000.5,26645.7 L23639.4,26147.5 L23573.9,26166 L23434.2,25933.1 L23484,25902.8 L23353.9,25680.2 L23159,25367.8" vector-effect="none" fill-rule="evenodd"/>
   <path d="M3352.84,2543.36 L3344.24,2531.05 L3315.9,2481.05 L3281.39,2438.7 L3263.99,2436.09 L3241.84,2461.61 L3200.39,2483.29 L3140.96,2486.53 L3070.1,2418.14 L3053.49,2394.11 L3025.32,2389.22 L3018.3,2360.31 L2999.65,2355.85 L2962.44,2357.06 L2936.7,2351.49 L2914.83,2338.27 L2909.66,2313.88 L2885.25,2300.95 L2859.55,2298.86 L2811.83,2277.03 L2775.64,2295.06 L2724.46,2262.9 L2689.45,2275.94 L2692.39,2247.39 L2675.74,2222.69 L2657.27,2190.75 L2612.21,2181.03 L2571.06,2210.23 L2534.69,2218.37 L2502.98,2247.13 L2481.45,2235.46 L2431.47,2250.65 L2422.32,2228.84 L2372.43,2198.85 L2286.32,2176.56 L2222.85,2196.11 L2109.94,2174.63 L2032.35,2211.81 L1912.28,2283.7 L1902.46,2348.37 L1854.15,2449.84 L1779.15,2445.88 L1739.28,2444.12 L1691.28,2471.27 L1626.32,2457.8 L1608.31,2449.61 L1577.28,2465.7 L1537.19,2478.79 L1547.78,2510.7 L1496.94,2550.2 L1428.2,2562.59 L1407.15,2531.63 L1418.34,2474.73 L1347.13,2476.82 L1343.01,2429.19 L1322.23,2478.93 L1294.91,2494.07 L1207.38,2510.35 L1123.71,2527.22 L1023.7,2533.21 L946.763,2530.83 L885.17,2514.7 L840.908,2520.67 L862.564,2476.19 L841.065,2453.19 L794.202,2487.62 L748.851,2514.41 L641.472,2487.46 L603.266,2477.34 L577.368,2447.89 L560.754,2418.4 L563.006,2372.94 L576.245,2320.43 L618.833,2300.65 L587.748,2283.92 L602.887,2241.11 L651.136,2250.59 L673.85,2199.26 L608.273,2172.24 L578.743,2155.59 L589.257,2111.35 L607.81,2076.42 L651.422,2058.78 L635.446,2015.54 L642.558,1989.13 L678.142,1984.52 L664.469,1923.31 L561.276,1927.99 L547.432,1905.86 L572.265,1847.25 L604.316,1825.18 L623.32,1781.93 L687.709,1783.84 L733.789,1697.77 L806.921,1676.9 L764.489,1627.03 L851.572,1614.6 L895.13,1564.72 L936.809,1547.08 L916.858,1512.6 L864.707,1504.95 L778.513,1474.22 L773.843,1455.73 L845.301,1422.39 L904.063,1387.92 L873.541,1356.06 L869.646,1296.07 L899.688,1274.35 L948.682,1258.61 L979.989,1266.67 L1025.28,1274.61 L1052.38,1280.73 L1089.63,1269.43 L1111.87,1263.2 L1167.29,1294.38 L1181.5,1285.14 L1169.01,1244.92 L1189.66,1240.16 L1338.98,1244.88 L1402.03,1227.3 L1445.1,1186.77 L1540.17,1152.71 L1584.44,1156.97 L1628.6,1182.45 L1673.26,1211.33 L1703.29,1238.87 L1759.05,1195.45 L1806.78,1165.53 L1773.61,1140.64 L1767.12,1118.59 L1788.37,1107.21 L1821.65,1110.52 L1858.9,1100.33 L1889.86,1093.66 L1910.06,1099.27 L1930.23,1119.42 L1912.66,1137.32 L1889.93,1155.51 L1948.91,1183.04 L1995.75,1180.28 L2020.26,1172.15 L2036.21,1154.13 L2042.95,1134.6 L2030.65,1103.17 L2049.09,1071.09 L2092.9,1068.65 L2192.21,1034.74 L2249.05,1029.8 L2319.08,1014.05 L2350.6,994.591 L2405.55,985.455 L2439.51,1000.41 L2443.42,1013.79 L2480.53,1029.88 L2501.54,984.971 L2520.41,978.943 L2560.85,980.545 L2603.31,1005.59 L2685.7,1025.15 L2715.65,1041.01 L2733.29,1075.25 L2753.7,1116.86 L2792.6,1144.72 L2791.83,1206.33 L2827.12,1285.51 L2883.72,1320.72 L2952.32,1329.59 L3012.59,1366.47 L3039.82,1403.87 L3060.41,1427.66 L3117.57,1444.66 L3171.22,1414.22 L3217.17,1458.82 L3220.75,1493.11 L3185.82,1499.86 L3209.45,1547.72 L3237.69,1561.88 L3282.85,1534.3 L3288.48,1492.2 L3329.54,1463.87 L3376.41,1434.46 L3497.46,1451.23 L3521.59,1497.47 L3504.11,1554.46 L3524.77,1566.48 L3566.55,1536.84 L3552.9,1511.82 L3582.79,1487.18 L3617.32,1496.15 L3655.11,1522.86 L3698.7,1525.17 L3748.01,1610.28 L3839.14,1658.82 L3878.09,1718.15 L3929.96,1752.89 L3962.22,1717.04 L4028.02,1733.95 L4045.97,1774.13 L4059.98,1748.19 L4093.36,1734.98 L4129.42,1767.28 L4193.48,1790.53 L4250.67,1800.36 L4289.22,1815.98 L4312.16,1771.42 L4360.88,1799.94 L4399.13,1828.27 L4392.3,1888.38 L4431.18,1882.3 L4471.68,1850.37 L4507.67,1835.58 L4562.56,1856.61 L4598.71,1842.85 L4639,1846.48 L4687.44,1860.59 L4682.91,1894.17 L4631.68,1921.99 L4571.23,1905.67 L4541.41,1919.43 L4561.9,1974.1 L4555.59,2006.89 L4582.48,2046.19 L4682.36,1997.36 L4812.07,1983.82 L4865.73,1964.99 L4973.4,1983.1 L5023.36,2000.06 L5053.3,1989.47 L5071.27,2001.98 L5089.24,2028.22 L5088.92,1990.44 L5122.36,2008.01 L5155.79,2016.42 L5126.91,2083.79 L5128.85,2100.66 L5157.29,2066.16 L5179.62,2076.08 L5202.97,2155.58 L5178.96,2180.46 L5190.34,2211.46 L5184.33,2240.21 L5152.16,2250.64 L5098.55,2280.61 L5163.7,2276.49 L5218.88,2273.14 L5249.85,2291.69 L5276.62,2313.77 L5303.43,2352.68 L5357.47,2421.08 L5333.61,2588.43 L5253.26,2704.49 L5124.42,2795.95 L5081.92,2845.39 L5068.95,2892.8 L5080.49,2928.98 L5117.19,2948.4 L5056.9,2971.84 L5039.19,3008.6 L5072.39,3022.63 L5088.1,3057.39 L5127.91,3089.48 L5109.51,3115.43 L5068.07,3091.1 L5054.78,3111.58 L5061.58,3132.05 L5081.09,3203.91 L5033.25,3236.8 L5000.32,3253.17 L4950.97,3247.38 L4929.14,3229.57 L4903.68,3246.89 L4951.97,3274.82 L4935.19,3347.84 L4911.97,3376.09 L4874.64,3381.69 L4808.24,3379.19 L4800.58,3356.63 L4714.11,3384.43 L4620.28,3411.33 L4546.78,3438.1 L4490.18,3405.5 L4413.27,3395.48 L4343.75,3426.13 L4266.01,3422.05 L4223.82,3395.98 L4197.98,3343.21 L4111.24,3362.9 L4024.58,3392.17 L4003.65,3362.72 L3953.98,3396.12 L3943.97,3448.63 L3934.43,3547.79 L3846.47,3475.57 L3877.76,3521.37 L3865.43,3568.06 L3822.39,3522.07 L3800.49,3540.22 L3824.06,3594.38 L3786.06,3631.1 L3788.03,3689.27 L3753.79,3742.11 L3718.15,3714.13 L3670.99,3757.52 L3600.08,3739.86 L3550.86,3760.55 L3540.34,3795.05 L3573.75,3841.63 L3609.99,3862.05 L3685.52,3854.92 L3668.16,3922.96 L3711.17,4057.64 L3731.57,4136.35 L3726.55,4174.45 L3681.31,4208.56 L3723.77,4224.86 L3733.1,4251.82 L3700.8,4298.12 L3671.48,4325.74 L3709.13,4350.9 L3708.88,4388.16 L3723.35,4432.11 L3719.05,4485.88 L3740.35,4544.71 L3720.35,4563.45 L3687.38,4578.08 L3682.52,4624.22 L3693.49,4664.8 L3678.18,4675.1 L3656.4,4687.82 L3657.67,4723.46 L3652.12,4769.67 L3610.33,4797.25 L3569.75,4814.38 L3553.62,4831.22 L3534.8,4870.43 L3503.09,4893.93 L3438.62,4883.39 L3428.7,4901.01 L3391.26,4914.02 L3355.92,4874.29 L3335.02,4854.89 L3310.91,4839.74 L3302.25,4869.4 L3276.66,4864.35 L3246.09,4879.17 L3183.07,4888.19 L3139.81,4868.54 L3120.13,4840.75 L3120.91,4806.1 L3086.34,4811.86 L3038.32,4794.15 L3023.72,4779.03 L3034.35,4749.52 L2952.59,4732.58 L2948.75,4708.07 L2903.34,4687.42 L2886.84,4655.99 L2864.58,4640.88 L2824.45,4636.19 L2788.92,4618.46 L2774.55,4594.51 L2740.91,4560.4 L2725.74,4531.11 L2714.65,4491.87 L2708.17,4410.07 L2724.97,4352.52 L2717.11,4330.19 L2774.65,4281.18 L2789.6,4230.09 L2860.9,4183.37 L2876.71,4124.84 L2886,4060.21 L2965.78,3991.51 L3016.16,3941.55 L3066.07,3937.49 L3052.37,3891.24 L3062.93,3875.95 L3093.28,3856.89 L3124.05,3851.65 L3124.04,3830.9 L3106.33,3815.55 L3098.58,3781.42 L3064.69,3762.59 L3088.36,3725.91 L3132.88,3703.79 L3091.05,3650.67 L3037.78,3613.79 L3023.06,3571.55 L3052.98,3546.83 L3076.05,3514.15 L3060.98,3482.52 L3043.61,3452.39 L3029.55,3383.82 L3072.08,3328.4 L3087.57,3291.88 L3095.51,3267.88 L3068.78,3249.25 L3144.63,3204.7 L3138.82,3178.57 L3162.31,3161.09 L3232.8,3151.24 L3225.03,3086.46 L3257.46,3059.4 L3311.22,3037.59 L3350.33,2958.38 L3373.09,2928.43 L3389.38,2907.04 L3428.16,2856.57 L3443.48,2791.98 L3438.51,2717.1 L3430.83,2663.37 L3415.42,2630.79 L3389.86,2596.2 L3352.84,2543.36" vector-effect="none" fill-rule="evenodd"/>
   <path d="M23581.8,12689.3 L23471.2,12705.6 L23389.9,12728.3 L23276.1,12751 L23178.5,12760.8 L23087.4,12764.1 L23032.1,12822.3 L22970.4,12874.1 L22911.8,12903.3 L22827.2,12913.1 L22788.2,12939 L22749.3,13032.8 L22703.8,13097.4 L22638.7,13159 L22576.9,13146.1 L22515.1,13184.9 L22424.1,13223.8 L22300.5,13223.9 L22173.5,13198.1 L22056.4,13159.4 L21945.7,13098 L21861.1,13039.9 L21763.5,13033.5 L21734.3,13072.4 L21669.2,13072.4 L21662.7,13030.4 L21643.1,12978.7 L21600.7,12901.1 L21568.2,12855.9 L21590.9,12817 L21558.3,12762.1 L21503,12739.5 L21499.7,12665.1 L21512.6,12597.2 L21512.6,12516.3 L21545.1,12451.7 L21590.6,12458.1 L21606.8,12361.1 L21617.3,12301.6 L21606.7,12247.9 L21596.9,12170.3 L21596.8,12079.8 L21609.8,12005.4 L21642.3,11973 L21648.7,11866.3 L21648.6,11762.8 L21664.9,11678.7 L21697.3,11607.6 L21746.1,11559.1 L21804.6,11517 L21856.7,11516.9 L21905.5,11513.6 L21944.5,11481.3 L21973.7,11445.7 L22073.1,11443.6 L22119.1,11414.1 L22166.6,11391.4 L22224.2,11377.8 L22267.3,11365.9 L22301.8,11351.7 L22258.1,11339.8 L22256.6,11321.7 L22268,11306.6 L22285.9,11302 L22315.2,11282.6 L22292.6,11257.1 L22302.9,11216.9 L22340.5,11171.6 L22382.8,11123.4 L22411.8,11088.6 L22459.6,11082.1 L22490.1,11052.2 L22496.7,10992.8 L22512.6,10978.8 L22541.7,10981.8 L22564.3,10971.2 L22567.5,10931.6 L22595.5,10924.8 L22619.5,10923.2 L22649.6,10942 L22659.8,10981 L22640.9,11013.5 L22653.8,11046.4 L22684,11064.2 L22712,11033.1 L22718.6,10999 L22740.4,10963.3 L22772.4,10927.7 L22800.4,10920.6 L22857.8,10918.8 L22894.1,10926 L22928.3,10943.3 L22952.5,10960.7 L22969.6,10927.9 L22987.7,10895.2 L22984.4,10871.1 L23000.2,10833.8 L23031.7,10826.8 L23072.8,10804.2 L23109.8,10793.6 L23135.2,10796.6 L23155,10778.9 L23198.2,10779.4 L23192.6,10754.8 L23241.9,10748.3 L23257.4,10780.8 L23285.4,10764.7 L23279.1,10729.4 L23299.2,10686 L23314.6,10655.4 L23346.8,10631.3 L23366.7,10596 L23403.4,10576.9 L23437.2,10551.7 L23467.9,10526.2 L23443.7,10517.5 L23450.9,10503 L23478.9,10494.8 L23503.8,10471.4 L23559.3,10448.5 L23624.5,10444.4 L23710.1,10441.9 L23761.2,10482.3 L23837.1,10535.6 L23874.9,10595.4 L23905.1,10648.1 L23937.4,10618.9 L23958.6,10607.3 L23957.5,10588.7 L23978.6,10555.7 L23996.5,10571.5 L24031.7,10555.9 L24051.6,10570.2 L24012.5,10600.9 L24050.5,10592.9 L24060,10611.2 L24090.9,10598.1 L24103.5,10560.8 L24172.2,10520.6 L24229.5,10508 L24268.9,10492.5 L24291.7,10483.7 L24305.1,10451.1 L24333.7,10434.5 L24369.1,10422.4 L24420.2,10439.9 L24463.2,10453.5 L24494.2,10473.6 L24552.7,10473.6 L24614.6,10525.3 L24634.2,10583.4 L24679.8,10622.2 L24689.6,10686.9 L24666.8,10774.2 L24657.2,10874.4 L24657.3,10971.4 L24634.6,11074.9 L24589.1,11172 L24556.6,11217.3 L24540.3,11139.7 L24501.3,11233.5 L24489.6,11353.9 L24475.2,11425.3 L24430.4,11493.7 L24394.9,11582.4 L24332.5,11696 L24302.8,11802.8 L24305.8,11856.3 L24285.3,11874 L24300.5,11910.1 L24280.6,11945.4 L24248.6,12004.9 L24236.2,11998 L24207.7,12034 L24201.5,12062.1 L24176.1,12075.2 L24147.6,12091.3 L24140.6,12066.7 L24135.6,12025 L24115.2,12025.9 L24104.1,12062.8 L24078.7,12090.5 L24056.2,12140 L24034.5,12200.9 L24027.1,12247.6 L24005.6,12273.5 L23984.7,12276.3 L23976.2,12250.4 L23938.5,12277 L23930.8,12302.3 L23934.3,12348.9 L23909.4,12361 L23894.9,12358.9 L23877,12370.5 L23857.4,12391.5 L23872.4,12417.5 L23786.6,12495.1 L23708.6,12572.8 L23650.1,12644 L23581.8,12689.3" vector-effect="none" fill-rule="evenodd"/>
   <path d="M28441.6,10453.8 L28361.1,10388.6 L28345.2,10368 L28362.1,10361.7 L28358.4,10343.9 L28341,10326.1 L28309.2,10291.5 L28291.6,10266.9 L28275.5,10234.8 L28292.6,10203.7 L28315.4,10189.7 L28320.4,10165.8 L28256.1,10177.2 L28237.5,10171.4 L28250,10134.7 L28246.7,10070 L28247.6,10014.5 L28215.2,9969.7 L28161.6,9957.39 L28116.5,9944.01 L28090.4,9885.82 L28109.9,9834.05 L28178.2,9837.24 L28246.5,9837.18 L28253,9766.06 L28239.8,9685.21 L28259.3,9607.58 L28275.5,9530 L28288.5,9494.39 L28327.5,9456.82 L28366.8,9450.01 L28390.9,9430.67 L28424.1,9430.16 L28448.1,9410.82 L28460.1,9385.46 L28464.2,9365.7 L28441,9353.49 L28413.5,9363.57 L28387.4,9380.66 L28376.9,9363.01 L28400.8,9337.8 L28418.5,9338.06 L28436.1,9329.22 L28473.2,9318.85 L28471.5,9301.75 L28449.1,9263.79 L28450.4,9227.28 L28455.5,9212.59 L28471.3,9203.94 L28498.2,9173.82 L28533.9,9158.86 L28563.6,9139.83 L28575,9120.81 L28569,9088.11 L28598.2,9092.05 L28621.3,9071.08 L28629.6,9101.68 L28639.8,9106.11 L28662.1,9070.57 L28701.3,9076.55 L28756.8,9085.06 L28822.2,9102.58 L28860.8,9135.45 L28906.3,9164.04 L28958.4,9199.55 L29017.3,9255.25 L29033.4,9292.54 L29041.3,9320.77 L29056.1,9348.23 L29056,9365.14 L29075.4,9371.7 L29099.5,9377.77 L29121.2,9396.68 L29134.4,9290.94 L29173.9,9248.9 L29186,9205.69 L29153,9179.7 L29221.1,9146.85 L29261.5,9131.1 L29254.2,9176.68 L29293.4,9173.4 L29361.7,9121.62 L29318.2,9092.2 L29353.7,9055.15 L29374.6,9024.88 L29390.3,9013.97 L29395.3,8997.02 L29378,8957.87 L29402.8,8941.42 L29435.6,8916.09 L29464,8904.42 L29494.7,8901.78 L29522.8,8898.11 L29532.4,8922.65 L29554.7,8916.57 L29567.7,8901.83 L29590.6,8882.89 L29613.5,8900.92 L29636.5,8860.19 L29617.3,8834.08 L29628.4,8804.92 L29655.4,8781.38 L29672.6,8806.31 L29689.9,8807.05 L29673.4,8746.64 L29694.1,8695.14 L29719.3,8658.77 L29750.9,8640.25 L29709.5,8621.08 L29708.4,8586.16 L29710.8,8552.5 L29726.9,8520.29 L29779.3,8483.65 L29817.1,8496.25 L29841.3,8526.25 L29824.8,8565.42 L29837.3,8614.43 L29885,8626.43 L29914.3,8647.31 L29951.1,8650.56 L29985,8690.05 L29987.5,8633.22 L29989.2,8589.23 L30018.6,8567.66 L30032.3,8624.51 L30052.1,8648.89 L30077.4,8648.71 L30075.9,8616.79 L30050.3,8584.74 L30044.7,8549.35 L30068.5,8519.27 L30097.7,8521.3 L30110.2,8502.84 L30112.7,8474.56 L30104,8436.16 L30112.6,8418.18 L30150.6,8448.55 L30176.7,8471.66 L30202.9,8472.11 L30231.6,8491.21 L30249.4,8496.14 L30233.4,8442.66 L30256.6,8447.03 L30274.1,8479.61 L30271.7,8509.15 L30248.8,8525.84 L30260.7,8556.12 L30265.9,8580.43 L30284.6,8594.11 L30304.6,8605.38 L30315.5,8616.62 L30306.9,8627.83 L30283.3,8624.68 L30278,8648.68 L30323.5,8648.33 L30356.9,8655.22 L30381.8,8675.95 L30398.4,8701.99 L30407.2,8734.45 L30435.3,8725.32 L30445.7,8691.18 L30474.3,8696.3 L30499.8,8697.19 L30517.7,8673.89 L30546.4,8679.17 L30581.2,8657.24 L30627,8646.86 L30654.6,8615.28 L30704,8628.34 L30716.5,8611.46 L30745.7,8611.16 L30794,8616.97 L30810,8588.33 L30831.2,8586.85 L30863.2,8606.61 L30898.1,8578.15 L30920.9,8590.53 L30942.2,8584.72 L30976.3,8592.06 L31006.7,8620.34 L30974.5,8625.12 L30963.5,8647.23 L30965.9,8667.22 L30981.2,8687.64 L31005.8,8704.25 L31015.3,8719.88 L30996.6,8742.35 L30974.6,8769.18 L30974.9,8788.19 L30985.1,8810.98 L30971.8,8859.82 L30950.8,8862.61 L30930,8818.32 L30925.7,8864.02 L30942.7,8907.44 L30961.1,8939.34 L30962.8,8971.22 L30954.4,9004.8 L30964.3,9038.37 L30957.8,9073.3 L30943.7,9093.83 L30927.7,9113.8 L30898.6,9103.85 L30896.7,9120.12 L30919,9135.5 L30913.1,9148.62 L30872.5,9152.26 L30900.2,9181.85 L30927.9,9196.36 L30918.8,9215.57 L30867.1,9223.85 L30835.1,9256.19 L30814.7,9288.29 L30793.5,9297.81 L30802,9333.56 L30780.3,9349.89 L30728.2,9311.13 L30708.9,9263.4 L30671.3,9245.85 L30623.6,9248.55 L30598,9272.21 L30559,9276.48 L30528,9251.21 L30497,9235.75 L30468.3,9252.21 L30422.2,9268.73 L30389.4,9239.1 L30352.7,9219.33 L30317.3,9239.64 L30271.4,9264.55 L30242.1,9256.73 L30208.7,9228.69 L30164.7,9214.99 L30130.4,9224.72 L30096.1,9223.88 L30043.3,9226.18 L30027.1,9247.38 L30014.6,9296.69 L30006.6,9337.68 L30000.2,9383.7 L29984.7,9429.69 L29959.3,9412.6 L29935.3,9420.54 L29910.5,9453.27 L29902.5,9490.46 L29869.5,9515.6 L29831.6,9568.26 L29779,9621.4 L29707.9,9563.89 L29656,9588.09 L29569.5,9570.79 L29487.1,9525.6 L29397.6,9518.28 L29284.6,9574.13 L29217.6,9610.18 L29140.2,9668.9 L29076.8,9726.92 L29020.3,9783.36 L28979,9830.56 L28935.1,9884.29 L28873.7,9941.8 L28860.2,9968.86 L28849.7,10008 L28843.1,10039.6 L28822.8,10057.7 L28824.7,10079.4 L28804.6,10081.6 L28793.3,10096.4 L28798,10120 L28803.3,10159.2 L28789,10189.4 L28773.6,10199 L28747.6,10208.5 L28748.8,10230.6 L28732.9,10231 L28717.8,10256 L28696.8,10239.4 L28685.2,10253.2 L28686.5,10275.3 L28655.8,10311.9 L28643.2,10341.2 L28636.5,10368.4 L28610.8,10347.9 L28576.1,10381.1 L28547.8,10408.1 L28503.4,10422.8 L28474.6,10443.3 L28441.6,10453.8" vector-effect="none" fill-rule="evenodd"/>
   <path d="M43115.6,17814.9 L43069.1,17806.6 L43057.6,17833.1 L43019.7,17798.1 L43003.4,17842.5 L42981.6,17841.8 L42963.8,17827.8 L42923,17824.1 L42890.9,17792.9 L42850.3,17774 L42799.2,17754.3 L42733.6,17739.8 L42687.9,17728.5 L42646.2,17715.2 L42608.8,17715.5 L42567.2,17718.4 L42538.7,17728.2 L42507.6,17747.5 L42499,17797.5 L42466.4,17843.4 L42435.5,17885.1 L42389.6,17923.3 L42392.1,17883.7 L42400.6,17824.7 L42386.8,17755.5 L42384.2,17695.2 L42389.3,17634 L42390.8,17557.2 L42413.2,17474.7 L42438.9,17390.9 L42440.9,17337.3 L42479.1,17291.9 L42517.8,17223.3 L42514.3,17183.8 L42566.8,17176.7 L42615.7,17104.3 L42671.1,17033.9 L42797.7,16975.4 L42873.1,16932.7 L42870.9,16907.7 L42803.8,16907.4 L42737.2,16899.3 L42754.5,16878.7 L42802.5,16891.2 L42807.7,16871.2 L42838.5,16850.1 L42877.7,16836.3 L42917,16841.3 L42938.3,16815.6 L42984.8,16796.8 L43008,16795.9 L43022.6,16776.3 L43067.2,16775.4 L43069.7,16800.4 L43044.5,16824 L43060.1,16845.9 L43100.3,16825.5 L43111.5,16811.8 L43133.7,16807.3 L43150.8,16818.9 L43162.8,16837.2 L43171.3,16829 L43161.8,16808 L43173.3,16771.2 L43244,16787.6 L43273.3,16804.2 L43243.8,16828.6 L43215,16865.5 L43254.4,16844.1 L43280.1,16843.9 L43306.1,16870.1 L43350,16847.1 L43381.8,16830.1 L43391.4,16803 L43414.6,16786.6 L43435.6,16817.5 L43487.9,16837.9 L43509.5,16866.1 L43545.9,16884.2 L43578.1,16903.1 L43569.5,16932.1 L43590.8,16977.1 L43612,17028.2 L43577.9,17076.8 L43612.6,17108.7 L43620.1,17152.6 L43628.2,17196.7 L43621.3,17226.3 L43656,17211.8 L43684.8,17201.5 L43711.6,17223.9 L43725.5,17196.1 L43749.8,17190.9 L43764.6,17229.9 L43765.7,17270.6 L43756.7,17312.5 L43720.6,17317.6 L43695.8,17325.2 L43703,17344.3 L43724.6,17345.3 L43746,17364.1 L43748.7,17382.8 L43743.3,17403.9 L43766.2,17436.5 L43730.2,17468.3 L43772.3,17455.8 L43789.8,17462.3 L43785.3,17493.5 L43796.7,17559.7 L43781.3,17576.2 L43786.4,17633.2 L43771.9,17648.8 L43740,17645 L43727.4,17626 L43696.4,17625 L43667.6,17617.3 L43637.1,17585.9 L43577.4,17612.8 L43535.6,17605 L43520.7,17623.2 L43520.9,17643.4 L43496.4,17645.7 L43462.6,17643.8 L43403.7,17662 L43374.7,17664 L43354.5,17665 L43334.2,17651.6 L43304.7,17646.4 L43282.1,17659.1 L43247.5,17686.1 L43201.8,17718.3 L43163.2,17744.5 L43142,17787 L43115.6,17814.9" vector-effect="none" fill-rule="evenodd"/>
   <path d="M38199.4,36211.4 L38111.5,36192.1 L38004.1,36185.7 L37890.1,36114.7 L37785.9,36063 L37743.5,35959.6 L37727.2,35894.9 L37792.2,35830.1 L37798.6,35749.3 L37710.7,35674.9 L37603.2,35603.9 L37482.8,35545.8 L37417.6,35490.9 L37336.2,35393.9 L37277.5,35313.1 L37189.5,35177.3 L37156.9,35093.3 L37199.1,35028.5 L37277.2,34973.5 L37374.8,34973.4 L37433.4,34957.1 L37433.3,34886 L37416.9,34801.9 L37449.4,34756.6 L37530.8,34756.5 L37612.2,34788.8 L37579.7,34866.4 L37537.5,34940.9 L37531,34995.9 L37628.7,35021.6 L37719.9,35079.7 L37775.2,35134.7 L37798.1,35231.7 L37856.8,35319 L37873.1,35409.6 L37928.6,35522.7 L37928.7,35629.4 L37980.9,35739.4 L38026.5,35846.1 L37981,35888.1 L38013.6,35933.4 L38101.6,36049.8 L38189.5,36127.3 L38199.4,36211.4" vector-effect="none" fill-rule="evenodd"/>
   <path d="M14287.1,2524.33 L14365.1,2540.43 L14469.2,2569.47 L14531.1,2614.69 L14560.4,2659.93 L14628.7,2705.14 L14706.8,2743.89 L14778.4,2782.65 L14840.2,2789.06 L14892.3,2827.83 L14954.1,2860.1 L14986.6,2879.48 L15015.9,2834.2 L15080.9,2814.75 L15155.8,2827.65 L15243.6,2872.85 L15282.7,2905.13 L15364,2911.57 L15461.6,2911.5 L15513.6,2937.32 L15559.2,2972.85 L15565.7,3024.56 L15539.8,3076.33 L15478,3124.88 L15360.9,3144.32 L15308.9,3167.01 L15230.8,3163.82 L15156,3105.7 L15110.4,3073.38 L15058.3,3066.96 L15012.8,3105.8 L14954.3,3141.4 L14915.3,3173.73 L14892.5,3219.01 L14925.1,3238.39 L14957.7,3296.58 L14947.9,3338.6 L14882.9,3364.54 L14850.3,3345.16 L14791.8,3367.81 L14730,3393.74 L14681.2,3377.58 L14655.2,3377.6 L14632.5,3413.17 L14547.9,3455.28 L14486.1,3455.33 L14430.8,3448.91 L14382,3465.1 L14320.2,3445.74 L14297.4,3400.49 L14329.9,3377.82 L14388.4,3364.87 L14404.7,3332.51 L14342.9,3319.64 L14300.5,3242.06 L14271.2,3164.47 L14267.9,3090.11 L14287.4,3022.23 L14342.7,2989.84 L14323.1,2928.44 L14284,2879.96 L14297,2818.53 L14319.7,2782.96 L14287.2,2737.68 L14235.1,2711.86 L14205.8,2656.92 L14225.3,2576.09 L14287.1,2524.33" vector-effect="none" fill-rule="evenodd"/>
   <path d="M35073,7871.45 L35134.7,7826.13 L35186.8,7806.68 L35235.6,7800.13 L35235.5,7751.67 L35307.1,7735.4 L35365.6,7757.99 L35417.7,7757.94 L35469.7,7709.39 L35518.5,7719.04 L35564.1,7738.4 L35645.4,7751.27 L35677.9,7725.34 L35707.2,7673.6 L35755.9,7663.85 L35827.5,7696.09 L35873.1,7702.54 L35886.1,7757.48 L35922,7831.81 L35957.9,7909.39 L35938.4,7967.62 L35873.3,7948.28 L35762.7,7870.78 L35762.7,7899.88 L35850.6,7974.16 L35850.6,8025.87 L35886.4,8074.34 L35896.3,8126.09 L35873.5,8168.12 L35883.4,8219.87 L35909.4,8278.05 L35896.5,8333.02 L35870.5,8388.01 L35808.7,8417.17 L35779.5,8462.46 L35792.5,8485.1 L35763.3,8559.49 L35760.1,8598.3 L35698.3,8620.97 L35669,8578.99 L35659.2,8536.94 L35616.9,8511.13 L35499.7,8459.49 L35415.1,8430.47 L35376,8375.54 L35320.7,8333.59 L35258.8,8301.29 L35190.5,8291.66 L35096.1,8278.84 L35037.6,8265.95 L34966,8211.06 L34943.1,8159.33 L34949.6,8078.5 L34998.4,8046.11 L35092.7,8052.51 L35167.6,8110.6 L35219.7,8168.76 L35190.3,8062.11 L35138.2,7984.55 L35089.3,7923.15 L35073,7871.45" vector-effect="none" fill-rule="evenodd"/>
   <path d="M13563.8,17177.4 L13555.1,17186.2 L13532.4,17193.1 L13518.8,17201.2 L13501.1,17200.6 L13483.4,17184.7 L13470.7,17177.6 L13462.3,17176.2 L13456.2,17165.8 L13446.9,17147.8 L13436.8,17136.4 L13436.8,17125.1 L13447.9,17117.7 L13445.6,17111.2 L13439.1,17104.8 L13426.7,17099.6 L13417.5,17100.5 L13413.2,17105.6 L13402.4,17101.5 L13390,17100.1 L13383.1,17094 L13378.2,17083.5 L13366.9,17080.4 L13353.5,17066 L13352,17051.6 L13360,17048.9 L13360.9,17043.3 L13369.9,17030.3 L13375.8,17027 L13379.4,17020.8 L13384.8,17015 L13390.5,17014.6 L13392.7,17011.5 L13387.6,17008.4 L13360.4,17007.1 L13355.3,17002.2 L13347.2,17001.7 L13341.8,17009.1 L13341.1,17019.2 L13338,17022.6 L13332.2,17016.2 L13324.9,17009.9 L13320.1,17010.5 L13315.3,17008.6 L13314.6,17002.4 L13314.4,16996.1 L13309.4,16989.4 L13300.9,16985.1 L13293.8,16979.7 L13292.7,16974.6 L13294.7,16970.4 L13293.2,16966.1 L13288.8,16971.6 L13284,16973.1 L13271.6,16952.9 L13268,16940 L13258.7,16929.8 L13267.1,16916 L13264.2,16903.7 L13258.6,16888 L13258.8,16863.9 L13267.7,16844.4 L13275.2,16840.7 L13282.1,16826.9 L13296.2,16823.9 L13313.1,16815.1 L13327.2,16814.2 L13340.3,16805.7 L13349.2,16801.2 L13355.5,16779 L13372.7,16770 L13383,16771.5 L13397.2,16766.5 L13407.6,16769 L13418,16763.6 L13423,16753 L13436.1,16747.1 L13449.4,16723.6 L13462.4,16691.7 L13511,16680.9 L13529.5,16670.7 L13548.7,16669.4 L13559.5,16673.6 L13575.9,16669.9 L13588.5,16669.9 L13603.5,16659.1 L13610.1,16663 L13620,16668.9 L13626.4,16659.8 L13637.9,16657.1 L13647.4,16664.1 L13656.2,16664.3 L13673.9,16674.8 L13671.8,16683 L13650.2,16690.2 L13660.7,16698.3 L13680.2,16694.6 L13700.5,16695.5 L13708.3,16699.8 L13701.6,16705 L13688,16712.5 L13676.5,16715.3 L13686.9,16724.3 L13695.6,16719.5 L13704.3,16723.5 L13709.7,16735.2 L13726.5,16738.8 L13733.6,16731.7 L13742,16735.3 L13745.4,16750 L13758.6,16747.2 L13778.8,16747.9 L13779.7,16757.9 L13789,16751.3 L13794.6,16763.2 L13802.9,16767.2 L13808.2,16779.2 L13814.2,16781.8 L13825.4,16779.7 L13830.9,16786.1 L13822.9,16795.9 L13830.2,16810.6 L13838.2,16813.3 L13835.5,16822.4 L13841.5,16827.5 L13854.6,16826.6 L13861.8,16839.7 L13875.9,16844.5 L13887.5,16844.1 L13890.6,16830.7 L13897.3,16827.2 L13899.4,16843.6 L13899.1,16854.9 L13901.5,16866.3 L13902.5,16877.8 L13888.3,16879.3 L13886.7,16889.6 L13877.5,16888.4 L13871.7,16895.9 L13873.7,16903.7 L13874,16914.1 L13859.7,16926.8 L13859.9,16934.9 L13877.1,16926.3 L13895.3,16917.3 L13905,16925.3 L13903.5,16940.9 L13908.6,16947.5 L13922.6,16948.3 L13928.6,16963.5 L13916.2,16984.6 L13916.4,17001.5 L13929.2,17018 L13926.9,17039.6 L13916.2,17048.8 L13919.7,17064.4 L13908.7,17062.7 L13903.8,17071 L13900.2,17082.1 L13903,17098.5 L13912.7,17100.5 L13918,17113.2 L13912.2,17119.6 L13899.4,17119.4 L13888,17114.8 L13885.9,17118.5 L13896.3,17122.4 L13901.8,17127.6 L13900.8,17136 L13908.7,17145.5 L13912.5,17161.7 L13905.2,17170.2 L13902.9,17184.7 L13912.1,17183.5 L13917.3,17185.8 L13917.5,17194.1 L13904.1,17197.4 L13902.3,17200.8 L13908.8,17200.8 L13918.3,17204.8 L13913.3,17218.2 L13907.2,17230.2 L13894.3,17237.6 L13882.7,17241.1 L13873.4,17240.7 L13868.4,17244.7 L13880.5,17247.3 L13895.2,17243.9 L13902,17246.3 L13901.1,17256.1 L13894.5,17270.9 L13890.1,17280.2 L13880.1,17283.6 L13867.5,17280.7 L13853.6,17269.6 L13841.8,17258 L13841.9,17275.4 L13836.7,17282.3 L13824.1,17284.1 L13813.7,17279.6 L13806.9,17271.5 L13802.2,17268 L13798.9,17258.4 L13797.3,17249.2 L13799,17240 L13803.8,17225.2 L13797.3,17216.8 L13795.9,17205.4 L13798.9,17195.3 L13796.3,17185.7 L13789.8,17184.6 L13786.2,17198.4 L13779.7,17202.6 L13768.7,17211.1 L13754,17201.7 L13732,17199.6 L13738.2,17191.7 L13731.2,17186.5 L13727.6,17176.6 L13714,17171.3 L13690.3,17166.7 L13673.8,17167.6 L13660.9,17174.6 L13649.8,17187.2 L13640.2,17191.8 L13615.2,17176.5 L13608.7,17185 L13597,17193.3 L13581,17182 L13563.8,17177.4" vector-effect="none" fill-rule="evenodd"/>
   <path d="M35524.3,6965.66 L35579.6,6994.71 L35612.2,7027.02 L35657.8,7094.89 L35651.4,7156.31 L35622.1,7201.6 L35654.7,7253.32 L35618.9,7272.76 L35544.1,7308.39 L35560.4,7353.63 L35586.5,7411.82 L35563.8,7470.05 L35573.6,7508.8 L35593.2,7557.29 L35573.8,7644.62 L35463.1,7644.73 L35427.3,7599.51 L35385,7593.05 L35293.9,7593.14 L35215.8,7554.45 L35199.5,7493.01 L35144.2,7457.51 L35118.1,7431.68 L35173.3,7347.56 L35209,7263.46 L35251.3,7221.36 L35235,7172.87 L35231.6,7114.67 L35300,7088.74 L35339,7062.85 L35381.2,6994.9 L35443,6978.68 L35524.3,6965.66" vector-effect="none" fill-rule="evenodd"/>
   <path d="M16606.6,2939.76 L16567.5,2884.83 L16548,2813.73 L16577.2,2755.5 L16639,2710.19 L16681.2,2677.85 L16746.3,2619.6 L16821.1,2619.54 L16856.9,2645.38 L16902.4,2625.94 L16957.7,2655.01 L16957.8,2732.62 L16931.8,2781.14 L16918.8,2829.62 L16925.3,2907.22 L16970.9,2916.89 L16977.4,2858.68 L17000.1,2800.46 L17065.2,2839.21 L17065.2,2890.97 L17136.7,2858.57 L17179,2839.13 L17214.8,2910.26 L17211.7,2968.43 L17136.9,3013.75 L17071.8,3039.69 L17006.8,3039.74 L16912.4,3043.01 L16844.1,3013.96 L16756.3,2994.62 L16671.7,2975.31 L16606.6,2939.76" vector-effect="none" fill-rule="evenodd"/>
   <path d="M35809.4,9083.24 L35734.5,9083.31 L35698.8,9073.65 L35633.7,9012.29 L35584.8,8954.13 L35500.1,8873.36 L35464.3,8828.13 L35493.6,8808.7 L35545.6,8808.65 L35581.3,8760.11 L35617.1,8718.06 L35675.6,8711.55 L35708.2,8688.87 L35760.2,8724.38 L35805.8,8776.09 L35858,8850.4 L35893.8,8937.68 L35893.9,9018.49 L35858.2,9067.04 L35809.4,9083.24" vector-effect="none" fill-rule="evenodd"/>
   <path d="M37844.1,36426 L37870.1,36387.1 L37892.9,36370.9 L37941.7,36377.4 L37971,36374.1 L38036.1,36341.7 L38097.9,36338.4 L38153.2,36370.6 L38169.6,36419.2 L38247.7,36496.7 L38296.6,36509.6 L38355.2,36532.2 L38391.1,36596.8 L38397.6,36632.4 L38326,36632.5 L38267.4,36616.4 L38179.5,36616.5 L38094.9,36597.1 L37987.5,36552 L37880,36490.6 L37844.1,36426" vector-effect="none" fill-rule="evenodd"/>
   <path d="M19602.3,24626.7 L19590.4,24657.7 L19593.2,24684.1 L19601.7,24720.8 L19611.9,24739.3 L19610.7,24769.2 L19621.8,24806.2 L19643.9,24832.4 L19638.3,24862.3 L19622.7,24881.5 L19628.4,24900 L19619.4,24913.2 L19588.6,24940.2 L19579.9,24962.8 L19551.7,24979.5 L19522.3,24999.4 L19512.8,25018 L19498.9,25034.9 L19475.5,25033.8 L19458.9,25054 L19429.4,25058.8 L19399,25043.6 L19372.6,25027.7 L19361.5,25002.5 L19371.3,24984.2 L19406.2,24983.4 L19414.2,24975.9 L19388.7,24943.7 L19365.9,24941.9 L19352.4,24858.5 L19357.6,24818.6 L19364.7,24781 L19374.5,24743.4 L19386,24685.9 L19407.5,24649.8 L19429.3,24645.5 L19431.1,24630.4 L19464.4,24594.7 L19480.1,24599.3 L19491.4,24589.7 L19512.6,24598.7 L19532.4,24600.6 L19555.2,24584.7 L19582,24582.7 L19604.8,24609.3 L19602.3,24626.7" vector-effect="none" fill-rule="evenodd"/>
   <path d="M44467.5,15651.9 L44414.8,15692.2 L44391.3,15685.1 L44367.8,15669.7 L44357.5,15688.1 L44386.7,15712.7 L44361.5,15752.1 L44316.5,15768.7 L44270.3,15800.3 L44216.7,15755.7 L44189,15779.2 L44167.4,15733.3 L44156.4,15737.3 L44147.5,15749.6 L44136.9,15777.5 L44122,15813.3 L44081.7,15731.3 L44127.5,15686.4 L44169.4,15652.1 L44206,15626.9 L44258.1,15607.2 L44256.8,15555.9 L44186.8,15525.5 L44193.2,15489.9 L44232.6,15491.3 L44284.4,15485.5 L44300.6,15528.7 L44332.3,15503 L44338.8,15529 L44319.3,15560.1 L44346.8,15587.1 L44378.3,15577.7 L44415,15605.6 L44364.2,15616.2 L44386.1,15635.6 L44445,15638 L44467.5,15651.9" vector-effect="none" fill-rule="evenodd"/>
   <path d="M13301.5,26311 L13315.9,26274.8 L13356.1,26253.2 L13444.7,26281 L13482.3,26278 L13483.6,26251.1 L13461.8,26196.3 L13426.8,26171.7 L13443.4,26134.3 L13484.1,26150.9 L13510.7,26090.4 L13560,26102.4 L13571.7,26162 L13586.9,26217.7 L13591.3,26294.3 L13562.2,26338.7 L13530.2,26376.7 L13518.2,26408.5 L13496,26435 L13451.2,26434 L13426.1,26444.7 L13401.4,26425.6 L13377.1,26401.1 L13355.5,26374.4 L13346.6,26351 L13329.1,26331.6 L13301.5,26311" vector-effect="none" fill-rule="evenodd"/>
   <path d="M12845.8,17152.4 L12839.7,17169.6 L12845,17189 L12865.4,17204.7 L12885.2,17213.7 L12862.6,17227.9 L12846.1,17243.8 L12837.4,17261 L12788.4,17264.3 L12763.5,17256 L12743.7,17257.5 L12695.8,17233.1 L12674.7,17202 L12674.7,17188.6 L12683.1,17177.5 L12703.2,17175 L12720.5,17166.4 L12730.6,17177 L12748.4,17177.9 L12765.2,17172.4 L12766.7,17154.7 L12773.1,17141.3 L12758.6,17132.7 L12738,17112 L12722.2,17075.6 L12718.8,17045.8 L12743.8,17017.3 L12785.7,16996 L12818.7,16986.7 L12868.5,16984.6 L12901.3,16984.6 L12923.4,16992.2 L12931.9,17014.9 L12932.4,17051.8 L12918.9,17050.8 L12908.5,17040.4 L12892.5,17046.2 L12892.7,17063.4 L12880.5,17083.9 L12870.1,17103.6 L12871.7,17132.9 L12845.8,17152.4" vector-effect="none" fill-rule="evenodd"/>
   <path d="M40542.5,31285.9 L40644,31382.1 L40457.3,31554.7 L40430.2,31518.9 L40529.1,31382.2 L40542.5,31285.9" vector-effect="none" fill-rule="evenodd"/>
   <path d="M21344.1,27636.6 L21339.6,27639.9 L21331.3,27639.8 L21316.9,27627 L21310.1,27632.4 L21308.7,27650.5 L21296.1,27643.8 L21287.5,27633.6 L21271.6,27629.5 L21255.8,27628.7 L21244.3,27623.5 L21233.4,27609.7 L21227.1,27592.9 L21209.6,27579.8 L21208.7,27572.8 L21221.8,27567.7 L21207.2,27560.2 L21204.6,27546.3 L21219.4,27545.3 L21216.9,27538.5 L21224.5,27535.8 L21256,27548.8 L21237.9,27532.8 L21227.8,27525.4 L21227.2,27519.6 L21238.2,27512.9 L21246.4,27505 L21239.6,27494.2 L21238.5,27483.5 L21247.6,27473.8 L21263.4,27478.7 L21273.8,27485.6 L21298.8,27492.9 L21321.2,27509.7 L21343.6,27520.9 L21353.8,27527.4 L21365.2,27544 L21380,27544.4 L21390.9,27551.8 L21397,27563 L21389.3,27568.6 L21383.6,27582.6 L21352.3,27585.6 L21350.1,27596.4 L21367.4,27603.3 L21377.6,27601.5 L21389.6,27610.5 L21414.3,27613.3 L21434.6,27620.5 L21440.4,27626.8 L21436.4,27631.7 L21443.2,27633.7 L21431.6,27641.6 L21432.8,27652.6 L21424.8,27660.2 L21412.4,27659 L21407.2,27650.9 L21399.8,27651.5 L21397.1,27660.4 L21393.4,27665.4 L21383.7,27655.8 L21368.9,27651.4 L21362.4,27659.4 L21354.6,27656.1 L21350.1,27643.6 L21344.1,27636.6" vector-effect="none" fill-rule="evenodd"/>
   <path d="M19384.9,25356.9 L19368.7,25347.7 L19358.4,25317.2 L19352.6,25291.1 L19353.4,25261.9 L19347.1,25238.5 L19347.4,25218.7 L19371.3,25200.9 L19404.9,25203 L19412.6,25190.2 L19395.3,25158.9 L19417.2,25159.4 L19440.2,25168.5 L19464.4,25185.3 L19468.2,25200 L19451.5,25206.6 L19472.9,25210.6 L19490.3,25238.5 L19507.7,25256 L19507.9,25279.2 L19519.2,25311.5 L19545.4,25340.7 L19518.9,25350.8 L19497.9,25356.5 L19469.8,25367.7 L19440.8,25368.2 L19384.9,25356.9" vector-effect="none" fill-rule="evenodd"/>
   <path d="M20975.9,27101.7 L20994.4,27085.6 L21025.7,27082.6 L21033.5,27063.5 L21041.8,27054.6 L21065.6,27063.3 L21091.4,27058.2 L21115.6,27070.7 L21117.7,27093.3 L21126.2,27103.4 L21145,27105.8 L21163.2,27128.4 L21147.4,27135.8 L21169.8,27145.8 L21173.4,27159.5 L21193.4,27173.3 L21194.7,27187.7 L21181.2,27188.1 L21174.5,27173.1 L21152.9,27175 L21152.8,27188.4 L21128.8,27180.1 L21108,27177.9 L21099.1,27192.6 L21099.1,27207.8 L21097.1,27226.1 L21064.9,27223.4 L21035.8,27226.4 L21021.7,27218 L21023.6,27206.4 L21038,27191.1 L21028.5,27181.5 L21021.3,27175.5 L21010.1,27171.5 L20996.9,27185 L20987.4,27172.5 L20983.8,27151.5 L20982.6,27136.7 L20987.5,27127.9 L20977.6,27120.1 L20975.9,27101.7" vector-effect="none" fill-rule="evenodd"/>
   <path d="M39960.9,32900.6 L40075.8,32925.1 L40114.2,33030.3 L40033.2,33075.2 L39938.5,32970 L39960.9,32900.6" vector-effect="none" fill-rule="evenodd"/>
   <path d="M12759.7,16987.5 L12740.2,17000.6 L12710.2,17009.5 L12690.1,16990 L12675.6,16954.4 L12662.4,16952.6 L12657.3,16935.5 L12643.3,16926.6 L12640.5,16913 L12647.9,16904.2 L12658.5,16903.4 L12662.8,16890 L12675,16881.4 L12691.6,16877.1 L12698.1,16865.7 L12711.9,16867 L12736.8,16878.1 L12753.3,16889.7 L12781.3,16888.9 L12802.4,16900.8 L12803.4,16923.8 L12788.7,16960.2 L12767.6,16961.4 L12749.6,16969.8 L12759,16978.9 L12759.7,16987.5" vector-effect="none" fill-rule="evenodd"/>
   <path d="M13527.6,17323.5 L13538,17337.6 L13546.7,17360.6 L13566.5,17384.8 L13570.1,17411.6 L13562.2,17432.1 L13544.4,17455.1 L13536.1,17474.5 L13517,17486.2 L13501.5,17479.8 L13488.8,17460.7 L13488.5,17436.9 L13460.8,17428.9 L13444.3,17404.4 L13440.5,17378.6 L13466.4,17370 L13466.9,17352.8 L13478.3,17331.3 L13527.6,17323.5" vector-effect="none" fill-rule="evenodd"/>
   <path d="M43455.3,36033.1 L43533.5,36124.1 L43527.1,36152.6 L43423.6,36088.6 L43455.3,36033.1" vector-effect="none" fill-rule="evenodd"/>
   <path d="M20679.3,26571 L20699,26562 L20714.2,26555.7 L20729.3,26558.2 L20743.6,26564.6 L20754.5,26561.4 L20767.5,26581.1 L20771.6,26588.6 L20788.5,26596.1 L20797.3,26612.8 L20802.7,26629.8 L20787.9,26636 L20776.6,26645.6 L20754.5,26643 L20734.1,26629.8 L20713.1,26604.2 L20714.9,26588 L20703.9,26578.9 L20693.8,26585.5 L20679.3,26571" vector-effect="none" fill-rule="evenodd"/>
   <path d="M19658.2,25369.8 L19647,25382.5 L19633.8,25362.1 L19629.7,25338.9 L19621.6,25322.8 L19604.6,25306.6 L19592.8,25295.6 L19586.9,25278.3 L19598.8,25265.4 L19614.5,25269.9 L19612.7,25254.4 L19640,25258.5 L19645.6,25277.6 L19657,25299.6 L19669.9,25329 L19661.2,25350.1 L19658.2,25369.8" vector-effect="none" fill-rule="evenodd"/>
   <path d="M40567.2,31124.8 L40612.2,31151.6 L40574,31207.6 L40510.9,31167.3 L40567.2,31124.8" vector-effect="none" fill-rule="evenodd"/>
   <path d="M37604.7,32598.5 L37667.8,32587.3 L37676.9,32670.1 L37609.3,32694.8 L37604.7,32598.5" vector-effect="none" fill-rule="evenodd"/>
   <path d="M43292.3,36220.9 L43336.9,36266.7 L43301.1,36296.9 L43263.6,36242.3 L43292.3,36220.9" vector-effect="none" fill-rule="evenodd"/>
  </g>
  <g stroke-width="1" stroke-linecap="square" stroke-linejoin="bevel" transform="matrix(0.99999,0,0,0.99999,0,0)" font-family="MS Shell Dlg 2" font-weight="400" stroke-opacity="1"  stroke="#000000" font-size="34.375" font-style="normal"/>
  <g stroke-width="1" stroke-linecap="square" stroke-linejoin="bevel" transform="matrix(11.8109,0,0,11.8109,0,0)" font-family="MS Shell Dlg 2" font-weight="400" stroke-opacity="1"  stroke="#000000" font-size="34.375" font-style="normal"/>
  <g stroke-width="1" stroke-linecap="square" stroke-linejoin="bevel" transform="matrix(11.8109,0,0,11.8109,0,0)" font-family="MS Shell Dlg 2" font-weight="400" stroke-opacity="1"  stroke="#000000" font-size="34.375" font-style="normal"/>
  <g stroke-width="1" stroke-linecap="square" stroke-linejoin="bevel" transform="matrix(11.8109,0,0,11.8109,0,0)" font-family="MS Shell Dlg 2" font-weight="400" stroke-opacity="1"  stroke="#000000" font-size="34.375" font-style="normal"/>
  <g stroke-width="1" stroke-linecap="square" stroke-linejoin="bevel" transform="matrix(1,0,0,1,0,0)" font-family="MS Shell Dlg 2" font-weight="400" stroke-opacity="1"  stroke="#000000" font-size="34.375" font-style="normal"/>
  <g stroke-width="1" stroke-linecap="square" stroke-linejoin="bevel" transform="matrix(11.8109,0,0,11.8109,0,0)" font-family="MS Shell Dlg 2" font-weight="400" stroke-opacity="1"  stroke="#000000" font-size="34.375" font-style="normal"/>
  <g stroke-width="1" stroke-linecap="square" stroke-linejoin="bevel" transform="matrix(11.8109,0,0,11.8109,0,0)" font-family="MS Shell Dlg 2" font-weight="400" stroke-opacity="1"  stroke="#000000" font-size="34.375" font-style="normal"/>
  <g stroke-width="1" stroke-linecap="square" stroke-linejoin="bevel" transform="matrix(11.8109,0,0,11.8109,0,0)" font-family="MS Shell Dlg 2" font-weight="400" stroke-opacity="1"  stroke="#000000" font-size="34.375" font-style="normal"/>
  <g stroke-width="1" stroke-linecap="square" stroke-linejoin="bevel" transform="matrix(11.8109,0,0,11.8109,0,0)" font-family="MS Shell Dlg 2" font-weight="400" stroke-opacity="1"  stroke="#000000" font-size="34.375" font-style="normal"/>
  <g stroke-width="1" stroke-linecap="square" stroke-linejoin="bevel" transform="matrix(1,0,0,1,0,0)" font-family="MS Shell Dlg 2" font-weight="400" stroke-opacity="1"  stroke="#000000" font-size="34.375" font-style="normal"/>
 </g>
</svg>
