<svg width="17" height="16" viewBox="0 0 17 16" fill="currentColor" xmlns="http://www.w3.org/2000/svg">
<g id="settings_input_antenna" clip-path="url(#clip0_2291_7775)">
<path id="Vector" d="M8.75024 3.33335C6.43024 3.33335 4.50357 5.02669 4.14357 7.24669C4.0769 7.64002 4.40357 8.00002 4.81024 8.00002C5.1369 8.00002 5.41024 7.76002 5.46357 7.43335C5.7369 5.86002 7.10357 4.66669 8.75024 4.66669C10.3969 4.66669 11.7636 5.86002 12.0369 7.43335C12.0902 7.76002 12.3636 8.00002 12.6902 8.00002C13.0969 8.00002 13.4169 7.64002 13.3502 7.24669C12.9969 5.02669 11.0702 3.33335 8.75024 3.33335ZM9.4169 9.52669C10.1302 9.20669 10.5902 8.42002 10.3569 7.53335C10.2102 6.99335 9.7769 6.55335 9.2369 6.40002C8.11024 6.08002 7.08357 6.92002 7.08357 8.00002C7.08357 8.68002 7.4969 9.26669 8.08357 9.52669V11.7267L6.2769 13.5267C6.0169 13.7867 6.0169 14.2067 6.2769 14.4667C6.5369 14.7267 6.9569 14.7267 7.2169 14.4667L8.75024 12.9334L10.2836 14.4667C10.5436 14.7267 10.9636 14.7267 11.2236 14.4667C11.4836 14.2067 11.4836 13.7867 11.2236 13.5267L9.4169 11.7267V9.52669ZM8.75024 0.666687C4.95024 0.666687 1.82357 3.56002 1.45024 7.26669C1.4169 7.66002 1.72357 8.00002 2.1169 8.00002C2.4569 8.00002 2.74357 7.74669 2.7769 7.41335C3.07024 4.37335 5.6369 2.00002 8.75024 2.00002C11.8636 2.00002 14.4302 4.37335 14.7236 7.41335C14.7569 7.74669 15.0436 8.00002 15.3836 8.00002C15.7769 8.00002 16.0902 7.66002 16.0502 7.26669C15.6769 3.56002 12.5502 0.666687 8.75024 0.666687Z"/>
</g>
<defs>
<clipPath id="clip0_2291_7775">
<rect width="16" height="16" fill="white" transform="translate(0.75)"/>
</clipPath>
</defs>
</svg>
