<?xml version="1.0" encoding="UTF-8" standalone="no"?>
<!-- Created with Inkscape (http://www.inkscape.org/) -->

<svg
   width="246.22778mm"
   height="246.22778mm"
   viewBox="0 0 246.22779 246.2278"
   version="1.1"
   id="svg5"
   xml:space="preserve"
   inkscape:export-filename="Site-maintenance.svg"
   inkscape:export-xdpi="96"
   inkscape:export-ydpi="96"
   inkscape:version="1.2.2 (732a01da63, 2022-12-09)"
   sodipodi:docname="Template.svg"
   xmlns:inkscape="http://www.inkscape.org/namespaces/inkscape"
   xmlns:sodipodi="http://sodipodi.sourceforge.net/DTD/sodipodi-0.dtd"
   xmlns="http://www.w3.org/2000/svg"
   xmlns:svg="http://www.w3.org/2000/svg"><sodipodi:namedview
     id="namedview7"
     pagecolor="#ffffff"
     bordercolor="#000000"
     borderopacity="0.25"
     inkscape:showpageshadow="2"
     inkscape:pageopacity="0.0"
     inkscape:pagecheckerboard="0"
     inkscape:deskcolor="#d1d1d1"
     inkscape:document-units="mm"
     showgrid="false"
     inkscape:zoom="0.74564394"
     inkscape:cx="443.24105"
     inkscape:cy="484.14529"
     inkscape:window-width="1920"
     inkscape:window-height="1017"
     inkscape:window-x="-8"
     inkscape:window-y="-8"
     inkscape:window-maximized="1"
     inkscape:current-layer="svg5" /><defs
     id="defs2"><filter
       id="filter0_d_937_73524"
       x="0"
       y="0"
       width="43"
       height="43"
       filterUnits="userSpaceOnUse"
       color-interpolation-filters="sRGB"><feFlood
         flood-opacity="0"
         result="BackgroundImageFix"
         id="feFlood2699" /><feColorMatrix
         in="SourceAlpha"
         type="matrix"
         values="0 0 0 0 0 0 0 0 0 0 0 0 0 0 0 0 0 0 127 0"
         result="hardAlpha"
         id="feColorMatrix2701" /><feOffset
         dy="2"
         id="feOffset2703" /><feGaussianBlur
         stdDeviation="3"
         id="feGaussianBlur2705" /><feComposite
         in2="hardAlpha"
         operator="out"
         id="feComposite2707" /><feColorMatrix
         type="matrix"
         values="0 0 0 0 0.137255 0 0 0 0 0.133333 0 0 0 0 0.32549 0 0 0 0.14 0"
         id="feColorMatrix2709" /><feBlend
         mode="normal"
         in2="BackgroundImageFix"
         result="effect1_dropShadow_937_73524"
         id="feBlend2711" /><feBlend
         mode="normal"
         in="SourceGraphic"
         in2="effect1_dropShadow_937_73524"
         result="shape"
         id="feBlend2713" /></filter><filter
       id="filter1_d_937_73524"
       x="4"
       y="4"
       width="28"
       height="28"
       filterUnits="userSpaceOnUse"
       color-interpolation-filters="sRGB"><feFlood
         flood-opacity="0"
         result="BackgroundImageFix"
         id="feFlood2716" /><feColorMatrix
         in="SourceAlpha"
         type="matrix"
         values="0 0 0 0 0 0 0 0 0 0 0 0 0 0 0 0 0 0 127 0"
         result="hardAlpha"
         id="feColorMatrix2718" /><feOffset
         dy="2"
         id="feOffset2720" /><feGaussianBlur
         stdDeviation="3"
         id="feGaussianBlur2722" /><feComposite
         in2="hardAlpha"
         operator="out"
         id="feComposite2724" /><feColorMatrix
         type="luminanceToAlpha"
         id="feColorMatrix2726" /><feBlend
         mode="normal"
         in2="BackgroundImageFix"
         result="effect1_dropShadow_937_73524"
         id="feBlend2728" /><feBlend
         mode="normal"
         in="SourceGraphic"
         in2="effect1_dropShadow_937_73524"
         result="shape"
         id="feBlend2730" /></filter><filter
       id="filter2_d_937_73524"
       x="9"
       y="9"
       width="34"
       height="34"
       filterUnits="userSpaceOnUse"
       color-interpolation-filters="sRGB"><feFlood
         flood-opacity="0"
         result="BackgroundImageFix"
         id="feFlood2733" /><feColorMatrix
         in="SourceAlpha"
         type="matrix"
         values="0 0 0 0 0 0 0 0 0 0 0 0 0 0 0 0 0 0 127 0"
         result="hardAlpha"
         id="feColorMatrix2735" /><feOffset
         dy="2"
         id="feOffset2737" /><feGaussianBlur
         stdDeviation="3"
         id="feGaussianBlur2739" /><feComposite
         in2="hardAlpha"
         operator="in"
         id="feComposite2741" /><feColorMatrix
         type="matrix"
         values="0 0 0 0 0.13725499999999999 0 0 0 0 0.13333300000000001 0 0 0 0 0.32549 0 0 0 0.14000000000000001 0"
         id="feColorMatrix2743" /><feBlend
         mode="normal"
         in2="BackgroundImageFix"
         result="effect1_dropShadow_937_73524"
         id="feBlend2745" /><feBlend
         mode="normal"
         in="SourceGraphic"
         in2="effect1_dropShadow_937_73524"
         result="shape"
         id="feBlend2747" /></filter><clipPath
       id="clip0_937_73524"><rect
         width="16"
         height="16"
         fill="#ffffff"
         transform="translate(10,8)"
         id="rect2750"
         x="0"
         y="0" /></clipPath></defs><g
     style="fill:none"
     id="g2204"
     transform="matrix(3.5604725,0,0,3.5604725,-23.918704,-23.416888)"><g
       style="fill:none"
       id="g2794"
       transform="matrix(1.6082774,0,0,1.6082774,6.7178454,6.5769045)"><g
         filter="url(#filter0_d_937_73524)"
         id="g2697"><rect
           x="6"
           y="4"
           width="24"
           height="24"
           rx="12"
           fill="#ffffff"
           shape-rendering="crispEdges"
           id="rect2687" /><g
           clip-path="url(#clip0_937_73524)"
           filter="url(#filter1_d_937_73524)"
           id="g2691"><path
             d="m 18.0002,11.3333 c -2.32,0 -4.2466,1.6934 -4.6066,3.9134 C 13.3269,15.64 13.6536,16 14.0602,16 c 0.3267,0 0.6,-0.24 0.6534,-0.5667 0.2733,-1.5733 1.64,-2.7666 3.2866,-2.7666 1.6467,0 3.0134,1.1933 3.2867,2.7666 C 21.3402,15.76 21.6136,16 21.9402,16 c 0.4067,0 0.7267,-0.36 0.66,-0.7533 -0.3533,-2.22 -2.28,-3.9134 -4.6,-3.9134 z m 0.6667,6.1934 c 0.7133,-0.32 1.1733,-1.1067 0.94,-1.9934 -0.1467,-0.54 -0.58,-0.98 -1.12,-1.1333 -1.1267,-0.32 -2.1533,0.52 -2.1533,1.6 0,0.68 0.4133,1.2667 1,1.5267 v 2.2 l -1.8067,1.8 c -0.26,0.26 -0.26,0.68 0,0.94 0.26,0.26 0.68,0.26 0.94,0 l 1.5333,-1.5334 1.5334,1.5334 c 0.26,0.26 0.68,0.26 0.94,0 0.26,-0.26 0.26,-0.68 0,-0.94 l -1.8067,-1.8 z M 18.0002,8.66666 c -3.8,0 -6.9266,2.89334 -7.3,6.60004 C 10.6669,15.66 10.9736,16 11.3669,16 c 0.34,0 0.6267,-0.2533 0.66,-0.5867 0.2933,-3.04 2.86,-5.41331 5.9733,-5.41331 3.1134,0 5.68,2.37331 5.9734,5.41331 0.0333,0.3334 0.32,0.5867 0.66,0.5867 0.3933,0 0.7066,-0.34 0.6666,-0.7333 -0.3733,-3.7067 -3.5,-6.60004 -7.3,-6.60004 z"
             fill="#232253"
             id="path2689" /></g><g
           filter="url(#filter2_d_937_73524)"
           id="g2695"><path
             d="m 22.3643,15.2906 0.0866,0.9908 -0.0866,-0.9908 -1.0758,0.094 0.0871,0.9962 -0.0871,-0.9962 c -1.6484,0.1442 -2.6144,1.9248 -1.8364,3.3853 1.0392,1.9505 2.3887,3.7167 3.9938,5.2301 -1.6051,1.5134 -2.9546,3.2795 -3.9938,5.2301 -0.778,1.4605 0.188,3.2411 1.8364,3.3852 l 0.0871,-0.9962 -0.0871,0.9962 1.0758,0.0941 c 2.4191,0.2115 4.8521,0.2115 7.2712,0 l 1.0758,-0.0941 c 1.6484,-0.1441 2.6144,-1.9247 1.8363,-3.3852 C 31.5085,27.2795 30.159,25.5134 28.5539,24 c 1.6051,-1.5134 2.9546,-3.2796 3.9937,-5.2301 0.7781,-1.4605 -0.1879,-3.2411 -1.8363,-3.3853 l -1.0758,-0.094 c -2.4191,-0.2115 -4.8521,-0.2115 -7.2712,0 z m 3.6355,5.5174 -1.0788,-1.0788 h 2.1577 z m 1.6124,-1.6123 -3e-4,3e-4 z m -2.6912,9.0751 1.0788,-1.0789 1.0789,1.0789 z"
             fill="#232253"
             stroke="#ffffff"
             stroke-width="2"
             id="path2693" /></g></g></g></g></svg>
