<?xml version="1.0" encoding="UTF-8" standalone="no"?>
<!-- Created with Inkscape (http://www.inkscape.org/) -->

<svg
   width="153.34386mm"
   height="144.19914mm"
   viewBox="0 0 153.34386 144.19915"
   version="1.1"
   id="svg5"
   xml:space="preserve"
   inkscape:export-filename="Site-maintenance.svg"
   inkscape:export-xdpi="96"
   inkscape:export-ydpi="96"
   inkscape:version="1.2.2 (732a01da63, 2022-12-09)"
   sodipodi:docname="Template.svg"
   xmlns:inkscape="http://www.inkscape.org/namespaces/inkscape"
   xmlns:sodipodi="http://sodipodi.sourceforge.net/DTD/sodipodi-0.dtd"
   xmlns="http://www.w3.org/2000/svg"
   xmlns:svg="http://www.w3.org/2000/svg"><sodipodi:namedview
     id="namedview7"
     pagecolor="#ffffff"
     bordercolor="#000000"
     borderopacity="0.25"
     inkscape:showpageshadow="2"
     inkscape:pageopacity="0.0"
     inkscape:pagecheckerboard="0"
     inkscape:deskcolor="#d1d1d1"
     inkscape:document-units="mm"
     showgrid="false"
     inkscape:zoom="0.74564394"
     inkscape:cx="443.24105"
     inkscape:cy="484.14529"
     inkscape:window-width="1920"
     inkscape:window-height="1017"
     inkscape:window-x="-8"
     inkscape:window-y="-8"
     inkscape:window-maximized="1"
     inkscape:current-layer="svg5" /><defs
     id="defs2"><filter
       id="filter0_d_937_73532"
       x="0"
       y="0"
       width="43.068401"
       height="40.5"
       filterUnits="userSpaceOnUse"
       color-interpolation-filters="sRGB"><feFlood
         flood-opacity="0"
         result="BackgroundImageFix"
         id="feFlood2108" /><feColorMatrix
         in="SourceAlpha"
         type="matrix"
         values="0 0 0 0 0 0 0 0 0 0 0 0 0 0 0 0 0 0 127 0"
         result="hardAlpha"
         id="feColorMatrix2110" /><feOffset
         dy="2"
         id="feOffset2112" /><feGaussianBlur
         stdDeviation="3"
         id="feGaussianBlur2114" /><feComposite
         in2="hardAlpha"
         operator="out"
         id="feComposite2116" /><feColorMatrix
         type="matrix"
         values="0 0 0 0 0.137255 0 0 0 0 0.133333 0 0 0 0 0.32549 0 0 0 0.14 0"
         id="feColorMatrix2118" /><feBlend
         mode="normal"
         in2="BackgroundImageFix"
         result="effect1_dropShadow_937_73532"
         id="feBlend2120" /><feBlend
         mode="normal"
         in="SourceGraphic"
         in2="effect1_dropShadow_937_73532"
         result="shape"
         id="feBlend2122" /></filter><filter
       id="filter1_d_937_73532"
       x="4"
       y="4"
       width="28"
       height="28"
       filterUnits="userSpaceOnUse"
       color-interpolation-filters="sRGB"><feFlood
         flood-opacity="0"
         result="BackgroundImageFix"
         id="feFlood2125" /><feColorMatrix
         in="SourceAlpha"
         type="matrix"
         values="0 0 0 0 0 0 0 0 0 0 0 0 0 0 0 0 0 0 127 0"
         result="hardAlpha"
         id="feColorMatrix2127" /><feOffset
         dy="2"
         id="feOffset2129" /><feGaussianBlur
         stdDeviation="3"
         id="feGaussianBlur2131" /><feComposite
         in2="hardAlpha"
         operator="out"
         id="feComposite2133" /><feColorMatrix
         type="luminanceToAlpha"
         id="feColorMatrix2135"
         values="0" /><feBlend
         mode="color-dodge"
         in2="BackgroundImageFix"
         result="effect1_dropShadow_937_73532"
         id="feBlend2137" /><feBlend
         mode="multiply"
         in="SourceGraphic"
         in2="effect1_dropShadow_937_73532"
         result="shape"
         id="feBlend2139" /></filter><filter
       id="filter2_d_937_73532"
       x="10.9316"
       y="10"
       width="32.1367"
       height="30.5"
       filterUnits="userSpaceOnUse"
       color-interpolation-filters="sRGB"><feFlood
         flood-opacity="0"
         result="BackgroundImageFix"
         id="feFlood2142" /><feColorMatrix
         in="SourceAlpha"
         type="matrix"
         values="0 0 0 0 0 0 0 0 0 0 0 0 0 0 0 0 0 0 127 0"
         result="hardAlpha"
         id="feColorMatrix2144" /><feOffset
         dy="2"
         id="feOffset2146" /><feGaussianBlur
         stdDeviation="0"
         id="feGaussianBlur2148" /><feComposite
         in2="hardAlpha"
         operator="in"
         id="feComposite2150" /><feColorMatrix
         type="matrix"
         values="0 0 0 0 0.13725499999999999 0 0 0 0 0.13333300000000001 0 0 0 0 0.32549 0 0 0 0.14000000000000001 0"
         id="feColorMatrix2152" /><feBlend
         mode="normal"
         in2="BackgroundImageFix"
         result="effect1_dropShadow_937_73532"
         id="feBlend2154" /><feBlend
         mode="normal"
         in="SourceGraphic"
         in2="effect1_dropShadow_937_73532"
         result="shape"
         id="feBlend2156" /></filter><clipPath
       id="clip0_937_73532"><rect
         width="16"
         height="16"
         fill="#ffffff"
         transform="translate(10,8)"
         id="rect2159"
         x="0"
         y="0" /></clipPath></defs><g
     style="fill:none"
     id="g2204"
     transform="scale(3.5604725)"><g
       filter="url(#filter0_d_937_73532)"
       id="g2106"><rect
         x="6"
         y="4"
         width="24"
         height="24"
         rx="12"
         fill="#ffffff"
         shape-rendering="crispEdges"
         id="rect2094" /><g
         clip-path="url(#clip0_937_73532)"
         filter="url(#filter1_d_937_73532)"
         id="g2098"><path
           d="m 18.0002,11.3333 c -2.32,0 -4.2466,1.6934 -4.6066,3.9134 C 13.3269,15.64 13.6536,16 14.0602,16 c 0.3267,0 0.6,-0.24 0.6534,-0.5667 0.2733,-1.5733 1.64,-2.7666 3.2866,-2.7666 1.6467,0 3.0134,1.1933 3.2867,2.7666 C 21.3402,15.76 21.6136,16 21.9402,16 c 0.4067,0 0.7267,-0.36 0.66,-0.7533 -0.3533,-2.22 -2.28,-3.9134 -4.6,-3.9134 z m 0.6667,6.1934 c 0.7133,-0.32 1.1733,-1.1067 0.94,-1.9934 -0.1467,-0.54 -0.58,-0.98 -1.12,-1.1333 -1.1267,-0.32 -2.1533,0.52 -2.1533,1.6 0,0.68 0.4133,1.2667 1,1.5267 v 2.2 l -1.8067,1.8 c -0.26,0.26 -0.26,0.68 0,0.94 0.26,0.26 0.68,0.26 0.94,0 l 1.5333,-1.5334 1.5334,1.5334 c 0.26,0.26 0.68,0.26 0.94,0 0.26,-0.26 0.26,-0.68 0,-0.94 l -1.8067,-1.8 z M 18.0002,8.66666 c -3.8,0 -6.9266,2.89334 -7.3,6.60004 C 10.6669,15.66 10.9736,16 11.3669,16 c 0.34,0 0.6267,-0.2533 0.66,-0.5867 0.2933,-3.04 2.86,-5.41331 5.9733,-5.41331 3.1134,0 5.68,2.37331 5.9734,5.41331 0.0333,0.3334 0.32,0.5867 0.66,0.5867 0.3933,0 0.7066,-0.34 0.6666,-0.7333 -0.3733,-3.7067 -3.5,-6.60004 -7.3,-6.60004 z"
           fill="#232253"
           id="path2096" /></g><g
         filter="url(#filter2_d_937_73532)"
         id="g2104"><path
           d="m 25.2679,17 c 0.7698,-1.3333 2.6944,-1.3333 3.4642,0 l 6.0621,10.5 c 0.7698,1.3333 -0.1924,3 -1.732,3 H 20.9378 c -1.5396,0 -2.5018,-1.6667 -1.732,-3 z"
           fill="#ee5557"
           id="path2100" /><path
           d="m 29.5981,16.5 c -1.1547,-2 -4.0415,-2 -5.1962,0 L 18.3397,27 c -1.1547,2 0.2887,4.5 2.5981,4.5 h 12.1244 c 2.3094,0 3.7528,-2.5 2.5981,-4.5 z"
           stroke="#ffffff"
           stroke-width="2"
           id="path2102" /></g></g></g></svg>
