<svg width="24" height="25" viewBox="0 0 24 25" fill="currentColor" xmlns="http://www.w3.org/2000/svg">
<g id="Outline/Interface/Stack">
<g id="Icon">
<path fill-rule="evenodd" clip-rule="evenodd" d="M13.1547 3.42716C12.4836 3.07689 11.5742 3.07148 10.8977 3.42085C8.30478 4.75999 5.95291 6.29542 3.89194 7.99843C3.57323 8.26178 3.34705 8.64447 3.35091 9.09492C3.35475 9.54351 3.58554 9.92108 3.90231 10.1801C5.94616 11.8513 8.29997 13.3881 10.8455 14.7166C11.5166 15.0669 12.426 15.0723 13.1024 14.7229C15.6954 13.3838 18.0473 11.8484 20.1083 10.1454C20.427 9.882 20.6531 9.49931 20.6493 9.04887C20.6454 8.60027 20.4147 8.2227 20.0979 7.96369C18.054 6.29251 15.7002 4.7557 13.1547 3.42716ZM11.5861 4.7536C11.8257 4.62983 12.2194 4.631 12.4607 4.75694C14.89 6.02485 17.1284 7.48355 19.0677 9.05912C17.1169 10.66 14.8851 12.114 12.4141 13.3902C12.1745 13.514 11.7808 13.5128 11.5395 13.3868C9.11016 12.1189 6.87175 10.6602 4.93253 9.08466C6.88333 7.48374 9.11508 6.02975 11.5861 4.7536Z"/>
<path d="M21.1971 12.7649C21.4165 13.1163 21.3095 13.5789 20.9581 13.7983L14.8509 17.6112C14.0221 18.1286 12.9939 18.3678 12 18.3679C11.0061 18.3679 9.97782 18.1288 9.14896 17.6115L3.10863 13.8418C2.75724 13.6225 2.65015 13.1598 2.86946 12.8085C3.08876 12.4571 3.55141 12.35 3.9028 12.5693L9.94313 16.339C10.4873 16.6786 11.2265 16.8679 11.9999 16.8679C12.7734 16.8678 13.5125 16.6785 14.0565 16.3388L20.1637 12.5259C20.5151 12.3066 20.9778 12.4136 21.1971 12.7649Z"/>
<path d="M21.1971 16.5196C21.4165 16.8709 21.3095 17.3336 20.9582 17.553L15.6693 20.8558C14.6117 21.5163 13.2887 21.8271 12 21.8271C10.7113 21.8272 9.3882 21.5166 8.33042 20.8563L3.10855 17.5965C2.75719 17.3771 2.65016 16.9145 2.86951 16.5631C3.08885 16.2117 3.55151 16.1047 3.90288 16.3241L9.12474 19.5839C9.89776 20.0664 10.9317 20.3272 11.9999 20.3271C13.0681 20.3271 14.1019 20.0662 14.8748 19.5835L20.1637 16.2807C20.515 16.0613 20.9777 16.1682 21.1971 16.5196Z"/>
</g>
</g>
</svg>
