<svg width="24" height="24" viewBox="0 0 24 24" fill="currentColor" xmlns="http://www.w3.org/2000/svg">
<path fill-rule="evenodd" clip-rule="evenodd" d="M7.05992 5.89787C7.6069 3.61214 9.65035 2 12.0006 2C14.3509 2 16.3943 3.61214 16.9413 5.89787L18.2698 11.4495C18.3723 11.8775 18.4235 12.0915 18.4541 12.2621C19.097 15.8419 16.465 19.1782 12.8338 19.386C12.6607 19.396 12.4407 19.396 12.0006 19.396C11.5605 19.396 11.3405 19.396 11.1674 19.386C7.53627 19.1782 4.90422 15.8419 5.54712 12.2621C5.57777 12.0915 5.62898 11.8775 5.7314 11.4495L5.7314 11.4495L7.05992 5.89787ZM10.0107 5.49226C10.0391 5.41559 10.0534 5.37726 10.0677 5.3428C10.367 4.6207 11.0595 4.13914 11.8407 4.10999C11.8779 4.1086 11.9188 4.1086 12.0006 4.1086C12.0824 4.1086 12.1233 4.1086 12.1606 4.10999C12.9417 4.13914 13.6343 4.6207 13.9336 5.3428C13.9479 5.37725 13.9621 5.41557 13.9905 5.49219L13.9906 5.49226L14.7494 7.5354C15.1667 8.65877 15.3753 9.22046 15.3327 9.67519C15.2674 10.3733 14.8412 10.9861 14.2096 11.2905C13.7982 11.4887 13.199 11.4887 12.0006 11.4887C10.8023 11.4887 10.2031 11.4887 9.79163 11.2905C9.16 10.9861 8.73386 10.3733 8.66849 9.67519C8.62591 9.22046 8.83453 8.65877 9.25179 7.53539L10.0107 5.49226ZM12.0006 15.7059C13.3107 15.7059 14.3728 15.3519 14.3728 14.9152C14.3728 14.4785 13.3107 14.1245 12.0006 14.1245C10.6905 14.1245 9.62844 14.4785 9.62844 14.9152C9.62844 15.3519 10.6905 15.7059 12.0006 15.7059ZM15.9542 16.4966C15.9542 16.9333 15.6002 17.2874 15.1635 17.2874C14.7268 17.2874 14.3728 16.9333 14.3728 16.4966C14.3728 16.0599 14.7268 15.7059 15.1635 15.7059C15.6002 15.7059 15.9542 16.0599 15.9542 16.4966ZM8.83772 17.2874C9.27442 17.2874 9.62844 16.9333 9.62844 16.4966C9.62844 16.0599 9.27442 15.7059 8.83772 15.7059C8.40101 15.7059 8.04699 16.0599 8.04699 16.4966C8.04699 16.9333 8.40101 17.2874 8.83772 17.2874Z" />
<path fill-rule="evenodd" clip-rule="evenodd" d="M19.9998 20.9749L16.7457 21.0274L14.6783 18.6081L16.4416 17.0212L19.9998 20.9749ZM8.97424 18.5556L7.12189 21.0274H3.95898L7.12189 17.0737L8.97424 18.5556Z"/>
</svg>
