<?xml version="1.0" encoding="utf-8" ?>
<svg baseProfile="tiny" height="40" version="1.2" width="40" viewBox="0 0 116.773 113.209" xmlns="http://www.w3.org/2000/svg" xmlns:ev="http://www.w3.org/2001/xml-events" xmlns:xlink="http://www.w3.org/1999/xlink" fill="currentColor"><defs /><polygon  points="10.466,52.413 32.523,57.655 25.353,67.174 33.256,64.109 31.449,73.954 45.134,90.023 57.056,79.858 66.791,95.96 88.962,88.492 92.24,99.225 110.309,113.209 114.739,109.642 106.107,98.308 114.107,87.586 94.704,57.84 116.773,28.884 94.901,26.573 98.113,17.882 76.707,15.757 72.561,8.529 58.656,15.141 43.716,0.0 35.553,9.6 22.176,6.004 13.534,16.355 4.699,15.306 9.449,26.237 1.446,29.902 0.0,48.253 5.927,56.448 10.466,52.413" stroke="none" transform="rotate(180,58.3865,56.6045) scale(-1,1) translate(-116.773)" /></svg>