<?xml version="1.0" encoding="utf-8" ?>
<svg baseProfile="tiny" height="40" version="1.2" width="40" viewBox="0 0 109.154 83.454" fill="currentColor" xmlns="http://www.w3.org/2000/svg" xmlns:ev="http://www.w3.org/2001/xml-events" xmlns:xlink="http://www.w3.org/1999/xlink"><defs /><polygon  points="35.989,58.653 33.544,69.3 46.196,73.733 38.996,77.739 42.216,83.454 53.016,71.341 55.528,80.662 66.736,74.211 70.34,78.863 72.754,68.538 92.046,60.945 94.826,51.066 94.744,33.082 84.273,27.573 109.154,9.889 78.625,0.0 58.512,9.728 49.258,4.005 42.91,17.133 27.556,16.161 2.52,29.389 0.0,40.007 16.242,50.038 14.789,61.65 24.961,66.149 35.989,58.653" stroke="none" transform="rotate(180,54.577,41.727) scale(-1,1) translate(-109.154)" /></svg>