<?xml version="1.0" encoding="utf-8" ?>
<svg baseProfile="tiny" height="40" version="1.2" width="40" viewBox="0 0 127.002 110.788" fill="currentColor" xmlns="http://www.w3.org/2000/svg" xmlns:ev="http://www.w3.org/2001/xml-events" xmlns:xlink="http://www.w3.org/1999/xlink"><defs /><polygon  points="4.902,68.118 0.0,69.664 8.888,78.284 22.501,71.544 32.543,80.172 42.761,73.694 56.892,77.796 49.536,102.731 58.408,110.788 62.86,94.994 79.451,89.388 84.68,97.694 93.844,91.752 98.907,98.608 109.588,92.128 127.002,60.575 110.982,45.871 110.212,25.611 98.754,26.856 96.946,14.63 78.533,0.0 65.797,14.087 75.319,20.147 71.028,30.703 52.663,47.185 43.592,46.124 41.866,55.923 27.274,42.673 13.695,44.094 7.122,51.975 15.2,61.746 4.902,68.118" stroke="none" transform="rotate(180,63.501,55.394) scale(-1,1) translate(-127.002)" /></svg>