<?xml version="1.0" encoding="utf-8" ?>
<svg baseProfile="tiny" height="40" version="1.2" width="40" viewBox="0 0 130.826 134.766" fill="currentColor" xmlns="http://www.w3.org/2000/svg" xmlns:ev="http://www.w3.org/2001/xml-events" xmlns:xlink="http://www.w3.org/1999/xlink"><defs /><polygon  points="51.132,108.99 43.741,121.467 59.476,124.731 64.381,118.534 76.338,123.804 71.087,127.065 76.92,131.845 92.227,134.766 102.7,101.743 126.528,85.197 130.826,88.978 130.488,79.179 115.662,81.567 98.931,59.553 86.205,65.342 83.693,56.021 72.892,68.134 69.672,62.419 76.872,58.412 64.22,53.979 66.665,43.332 49.839,49.704 46.918,34.718 30.676,24.687 33.003,14.595 18.334,18.28 17.69,0.0 2.646,0.695 0.51,18.468 16.074,30.034 0.0,49.519 25.876,80.937 45.853,74.648 50.714,93.71 63.121,97.493 51.132,108.99" stroke="none" transform="rotate(180,65.413,67.383) scale(-1,1) translate(-130.826)" /></svg>