<?xml version="1.0" encoding="utf-8" ?>
<svg baseProfile="tiny" height="40" version="1.2" width="40" viewBox="0 0 126.093 153.824" fill="currentColor" xmlns="http://www.w3.org/2000/svg" xmlns:ev="http://www.w3.org/2001/xml-events" xmlns:xlink="http://www.w3.org/1999/xlink"><defs /><polygon  points="11.316,118.39 13.977,144.284 24.366,153.824 44.303,124.719 69.671,118.777 72.35,103.638 105.859,99.162 98.536,70.183 126.093,68.435 124.158,58.735 108.533,53.012 112.187,42.617 99.862,36.765 93.337,3.047 67.416,0.0 68.289,8.515 48.444,27.606 17.571,26.062 21.361,35.361 13.759,38.451 0.0,31.963 5.904,53.05 9.713,50.41 10.06,51.537 15.109,50.298 18.079,51.731 18.32,51.182 19.764,50.113 21.348,50.966 9.082,66.338 0.466,49.984 11.316,118.39" stroke="none" transform="rotate(180,63.0465,76.912) scale(-1,1) translate(-126.093)" /></svg>