<?xml version="1.0" encoding="utf-8" ?>
<svg baseProfile="tiny" height="40" version="1.2" width="40" viewBox="0 0 124.714 105.524" fill="currentColor" xmlns="http://www.w3.org/2000/svg" xmlns:ev="http://www.w3.org/2001/xml-events" xmlns:xlink="http://www.w3.org/1999/xlink"><defs /><polygon  points="20.11,92.234 18.71,102.272 35.637,105.524 32.153,100.693 40.836,99.698 46.82,86.999 74.341,88.878 72.621,64.443 90.482,49.413 95.777,55.487 121.668,53.621 124.356,47.415 115.481,40.371 124.714,27.255 114.673,25.183 117.741,11.431 101.511,10.84 96.03,1.387 76.479,9.696 54.686,0.0 48.469,11.443 38.744,12.546 33.618,47.345 20.781,46.654 21.415,56.857 0.0,59.877 14.461,72.657 20.11,92.234" stroke="none" transform="rotate(180,62.357,52.762) scale(-1,1) translate(-124.714)" /></svg>