<?xml version="1.0" encoding="utf-8" ?>
<svg baseProfile="tiny" height="40" version="1.2" width="40" viewBox="0 0 120.189 99.031" fill="currentColor" xmlns="http://www.w3.org/2000/svg" xmlns:ev="http://www.w3.org/2001/xml-events" xmlns:xlink="http://www.w3.org/1999/xlink"><defs /><polygon  points="21.73,76.64 17.732,88.406 32.886,92.138 34.056,99.031 44.488,93.759 57.4,98.718 89.93,80.434 110.938,84.815 120.189,52.507 109.592,32.937 118.545,21.823 102.082,18.242 107.846,12.162 100.944,9.804 103.138,2.493 75.803,4.849 62.355,22.654 50.263,20.784 32.242,0.0 18.418,2.08 0.0,26.711 20.479,55.194 13.676,58.45 16.296,70.418 25.52,71.163 21.73,76.64" stroke="none" transform="rotate(180,60.0945,49.5155) scale(-1,1) translate(-120.189)" /></svg>