<?xml version="1.0" encoding="utf-8" ?>
<svg baseProfile="tiny" height="40" version="1.2" width="40" viewBox="0 0 126.77 134.29" fill="currentColor" xmlns="http://www.w3.org/2000/svg" xmlns:ev="http://www.w3.org/2001/xml-events" xmlns:xlink="http://www.w3.org/1999/xlink"><defs /><polygon  points="20.79,98.781 17.704,117.771 13.415,119.998 2.556,113.476 0.0,115.8 2.325,127.384 23.152,134.29 35.586,124.994 43.549,90.748 35.973,82.322 44.2,70.624 64.976,64.424 69.036,48.79 117.866,32.42 126.77,21.984 102.337,6.914 90.089,15.674 86.913,8.997 66.083,10.352 41.571,0.0 39.162,9.226 33.645,6.265 37.075,15.933 28.268,14.233 22.556,23.194 28.965,30.105 21.904,43.134 31.017,76.558 20.79,98.781" stroke="none" transform="rotate(180,63.385,67.145) scale(-1,1) translate(-126.77)" /></svg>