<?xml version="1.0" encoding="utf-8" ?>
<svg baseProfile="tiny" height="40" version="1.2" width="40" viewBox="0 0 150.301 122.518" fill="currentColor" xmlns="http://www.w3.org/2000/svg" xmlns:ev="http://www.w3.org/2001/xml-events" xmlns:xlink="http://www.w3.org/1999/xlink"><defs /><polygon  points="53.096,73.75 46.037,68.478 19.796,76.089 22.465,86.648 8.511,91.667 0.0,113.18 32.145,122.518 35.768,95.735 49.215,81.954 57.415,78.231 74.685,89.116 84.552,59.693 107.235,56.634 114.682,35.098 137.04,41.565 150.301,32.155 146.929,0.0 115.319,9.064 72.561,4.005 77.401,27.302 64.827,31.048 70.075,35.75 62.599,46.064 69.862,50.538 49.868,59.864 53.096,73.75" stroke="none" transform="rotate(180,75.1505,61.259) scale(-1,1) translate(-150.301)" /></svg>