<?xml version="1.0" encoding="utf-8" ?>
<svg baseProfile="tiny" height="40" version="1.2" width="40" viewBox="0 0 100.402 69.722" fill="currentColor" xmlns="http://www.w3.org/2000/svg" xmlns:ev="http://www.w3.org/2001/xml-events" xmlns:xlink="http://www.w3.org/1999/xlink"><defs /><polygon  points="11.677,41.708 12.74,68.856 31.57,69.722 29.626,61.901 45.01,58.341 49.061,48.155 58.358,57.258 63.773,50.519 66.288,58.747 91.176,62.622 98.172,55.388 91.645,47.878 100.402,42.374 72.945,38.093 76.48,29.985 62.747,20.808 66.125,18.449 65.72,16.006 48.944,13.311 43.111,8.532 48.362,5.27 36.405,0.0 31.5,6.197 11.581,2.333 11.942,15.186 0.73,18.72 9.234,30.643 1.045,30.057 0.0,37.572 11.677,41.708" stroke="none" transform="rotate(180,50.201,34.861) scale(-1,1) translate(-100.402)" /></svg>