<?xml version="1.0" encoding="UTF-8" standalone="no"?>
<!-- Created with Inkscape (http://www.inkscape.org/) -->

<svg
   width="365.4122"
   height="394.64517"
   viewBox="0 0 96.681975 104.41653" fill="currentColor"
   version="1.1"
   id="svg13293"
   xml:space="preserve"
   inkscape:export-filename="Test_recentrage_Ain.svg"
   inkscape:export-xdpi="96"
   inkscape:export-ydpi="96"
   inkscape:version="1.2.2 (732a01da63, 2022-12-09)"
   sodipodi:docname="91 - ESSONNE.svg"
   xmlns:inkscape="http://www.inkscape.org/namespaces/inkscape"
   xmlns:sodipodi="http://sodipodi.sourceforge.net/DTD/sodipodi-0.dtd"
   xmlns="http://www.w3.org/2000/svg"
   xmlns:svg="http://www.w3.org/2000/svg"><sodipodi:namedview
     id="namedview13295"
     pagecolor="#ffffff"
     bordercolor="#000000"
     borderopacity="0.25"
     inkscape:showpageshadow="2"
     inkscape:pageopacity="0.0"
     inkscape:pagecheckerboard="0"
     inkscape:deskcolor="#d1d1d1"
     inkscape:document-units="mm"
     showgrid="false"
     inkscape:zoom="0.74564394"
     inkscape:cx="219.27356"
     inkscape:cy="241.40208"
     inkscape:window-width="1920"
     inkscape:window-height="1017"
     inkscape:window-x="-8"
     inkscape:window-y="-8"
     inkscape:window-maximized="1"
     inkscape:current-layer="layer1" /><defs
     id="defs13290" /><g
     inkscape:label="Calque 1"
     inkscape:groupmode="layer"
     id="layer1"><polygon
       
       points="21,54 26,53 27,50 29,51 30,49 30,52 33,50 34,51 34,48 39,49 40,47 44,50 46,46 50,43 46,42 46,38 44,38 46,34 43,29 44,24 43,17 47,13 42,12 42,11 38,8 39,8 38,5 35,5 36,3 33,2 30,5 28,2 26,3 24,1 24,5 21,7 19,3 17,3 18,1 14,1 14,3 9,0 4,0 5,1 3,3 5,4 5,13 1,14 2,17 0,21 2,26 5,27 2,29 2,31 8,30 9,36 11,37 10,38 7,42 9,41 10,45 14,45 15,49 14,50 21,52 "
       stroke="none"
       transform="matrix(1.9336395,0,0,-1.9336395,0,104.41653)"
       id="polygon29013" /></g></svg>
