<svg xmlns="http://www.w3.org/2000/svg" width="40" height="40" fill="currentColor" viewBox="0 0 200 180"><path d="M26.5 94.8h-.2v.1h-.4v-.2h.3v-.2H26h.5zm-.1.2h.1v.1zm34.4 67.4v.4h-.1v.2h-.1v.1h-.1l-.1.1h-.1v.1h-.1v.1H60v.6h-.1v.1h-.1v.2h-.1v.2h-.1v.1h-.2v.1H59v.1h-.2v.1h-.2v.2h-.2v-.1h-.1v-.1H58v-.1h-.3v-.1h-.2v-.1h-.1l-.1-.1h-.1v-.1H57v-.1h-.2l-.1-.1h-.1v-.1h-.2v-.1h-.1v-.1h-.2v-.1H56v-.1h-.3l-.1-.1h-.1l-.1-.1H55v-.3h.1v-.1h.1v-.1h.1l.1-.1v-.6h.2v-.1h.1v-1h.1v-.7h.2v.1h.1v.1h.3l.1-.1v-.1h.2v-.1h.2v-.1h.1v-.1h.1v-.1h.1v-.1h.1v-.2h.1v-.1l.1-.1v-.2h.1v-.1h.1v-.2l.1-.1v-.3h.1v-.2h.1v-.1h.2v.6h.7v.1h.3v.1h.5l.1.1h.4v.1h.3v.1h.1l.1.1v.3h-.1v.1l-.1.1h-.1v.5h-.1v.3h.1v.1h1v.1h.6v.1h.2v.2h.1v.2h.1v.5h-.1v.1h-.1v-.2H62v.4h-.1v.1h-.1l-.1.1h-.1v-.1l-.1-.1-.1-.1v-.5H61v.1l-.1.1-.1.1zm105.8-68.9v.2h.4v.1h.1v.1h.1v.2h-.1v.1h-.1v.2h-.4v.1h-.9l-.1.1h-.6v.1h-.3v.1h-.7l-.1-.1h-.1v-.1h-.6v-.1h-.4v-.1h-.1v-.1h-.1v-.1h-.1V94l-.1-.1-.1-.1h-.1v-.1h.1v-.1h.2v-.1h.7v.1h.6v-.1h1.3v.1h.4v-.1h.3v-.1h.3v-.1h.2l.1-.1zM178.3 65h-.5v.1h-.6v.1h-.6v.1h-.1l-.1.1h-.2v.1h-.5v.1h-.8l-.1.1h-.2v.1h-.2v.1h-.2.2v-.2h-.5v.1h-.2v.1h-.1v.1h-.1v.2h-.1v.2h-.7v.1h-.1v.2h-.1v.2h-.3v.1h-.3l-.1.1h-.3v.1h-1.1v.1h-.1v.1h-.1l-.1.1h-.1v.1h-.2v.1h-.1v.3h-.1v.3h-.1v.1h-.2v-.1h-.1V68h-.1v-.4h-.2v-.2h.1v-.1h.1V67h.2v-.2h.1v-.6h-.1V66h-.1v-.3h-.1v-.4h.2v-.1h.1v-.1h.5V65h.1l.1-.1v-.3h.1v-.1h.1v-.1h.1v-.1h.1V64h.1v-.3h.1v-.1h.2v.1h.5v.1h.2v-.1h.4v-.1h.2v.1h.1v-.1h.7v-.1h.2v-.2h.1v-.5h.1v-.1h.1v-.3h.1v-.1h.2v-.2h.2V62h.3v.1h.1v.1h1V62h.6v-.2h.1v-.1h.5v-.1h.2v-.1h.1v-.3h.2l.1-.1h.1V61h.1v-.2h.2v-.2h.1v-.1.1h.3v-.3h.1v.1h.6v-.2h.1V60h.2v-.2h.1v-.1h.1v-.3h.2v.2h.2v.1h.2v-.1h.1v-.2h.1v-.1h.1v-.1h.1V59h.3v-.1h.1v-.1h.2v-.1h.1v.1-.1h.1v.1h.3v-.2h.1v-.2h.3l.1-.1h.1V58h.2v-.1h.1v.1l.1.1h.1v.1h.3v-.3h.1v-.4h.2v.1h.4v-.1h.1v-.2h.2v-.1h.1V57h.3l.1-.1v-.1h.3v-.1h.3v.1h.3v-.2h.2v-.1h.1v-.2h.1V56h.1v-.3h.2v-.1h.3v.1h.1v-.1h.5v-.1h.7v.1h.1v.5h.2v.5h.3v.1h-.1v.6h.1v.3h.3v.2h-.1v.1h.1v.1h.1v.3l.1.1h.1v.2h.1v.1h.1v.1h-.3v.1h-.1v.1l-.1.1h-.1v.1h-.1v.1h-.4v.1h-.1v.1h-.1v.1h-.1v.1h-.3v.1h-.2v.1h-.1v.1h-.1v-.2h-.3v.5h-.3v-.1h-.1v-.1h-.1v.1h-.7v.1h-.1v.1h-.2v.1h-.2v.1h-.3v.1h-.2v.1h-.1v.1h-.2v.1h-.2v.1h-.2v.1h-.2v.1h-.1v.1h-.1v.1h-.1v.1h-.2v.1h-.1v.1h-.2v.2h-.3v.1h-.1v.1h-.2v.1h-.1v.1h-.1v.1h-.1v.1h-.1v.1h-.1v.2h-.4v.1h-.1v.1h-.1v.1h-.1v.1h-.1v.1h-.1v.2h-.1l-.1.1h-.1v.1h-.1v.1h-.2v.1h-.1v.1h-.1v.1h-.2v.1h-.1v.1h-.1l-.1.1h-.3v.1h-.2v.1h-.4v.1zM28 51l.1.1v.1h.1v.1h.1v.1h.2v.1h.2v.9h-.3v-.1h-.2v-.2H28v-.9m40.2 114.2v.2h.1v.1h.1v.2h.2v.1h.1-.1v.4h-.1v.2h.1v.2h-.3v-.1h-.4v-.1h-.4v-.1h-.1v-.1h-.1v-.1h-.1l-.1-.1h-1l-.1-.1h-.2v-.1h.3l.1-.1.1-.1v-.1l.1-.1v-.2h.1v-.1h.2l.1-.1.1-.1v-.1l.1-.2v-.2h.1v-.1h.1l.1.1v.1h.1v.1h.1v.1h.1v.1h.1v.1h.1l.2.1zm-5-.1.1.1v.2h.1v.2h.1v.1l.1.1h.2v.1h.5v.1H64v.1h-.3l-.1-.1-.2-.1-.1-.1v-.1h-.1v-.1l-.1-.1H63v-.1h-.2v-.1h.1v-.1zm8.2-6.4v.2h-.1v.1h-.8v.1h-.2v.3h-.1v.3H70v.1l-.1.1v.1l-.1.1v.7h.1v.1h.2v.1h.1v.1h.1v.1h-.2v.2H70v.2h-.3v-.4h-.2v.1H69v-.1h-.2v.1h-.2v-.1h-.2v.1h-.3v-.3H68v-.1h-.3v.1l-.1.1v.4h-.2v.3h-.1v.1h-.1v.1h-.1v.1H67v.1h-.4v-.1H66v-.1h-.2v-.1h-.2v-.1h-.2v-.1h-.1v-.1h-.1v-.2l-.1-.1v-.1h-.5v.1h-.4v-.3h.1v-.1h.1v-.1h.2v-.1h.8v-.1h.1v-.4h.1v-.2h.1v-.1h-.1v-.3h.1v.1h.1v.1h1.7v-.3h.1v.1h.1v.1h.5v.1h.4l.1-.1.1-.1v-.1h-.1v-.2h.2v-.1h.1v-.3h.1v-.5H69v-.5h-.1v-.1h-.2l-.1-.1v-.5h.1v-.1h.3v-.1l.1-.1v-.5h.1v-.2h.2v.1h.1v.2h.1v.1h.1v.6h.1v.1h.1v.3h-.1v.2h.2l.1-.1h.2v-.1h.1v-.1h.1v-.3l.1-.1v-.1h-.1.1v-.4h.1v-.4h.1v-.5h.1v-.2h.1v.2h.2v.1h.3v.1h-.1v.4h.2v.3h.1l.1-.1h.1-.1v.1h.2v.1h-.1v.1l-.1.1v.1h-.1v.2h.1v.2l-.1.1v.1h-.2v.1h-.1v.4h.1l.1.1h.3l.1-.1h.4v.1h-.1v.1h-.1v.1H72v.2h-.6zm-4.6-.6h-.2l-.1-.1v-.2h-.1v-.2h-.1v-.1H66v-.1h-.2l-.2-.1h-.2l-.1-.1-.1-.1v-.1H65v-.1h.2l.1-.1h.2v.1h.1v.1h.4v-.1h.3v.1h.3v-.3h.1l.1.1h.3v.3h.1v.2h-.1v.1H67v.4l-.1.2z"/><path d="M72 158h.2v-.2l.1-.1h.2v.1h-.1v.3zm93.9-65.2v-.2h.3v-.1h.1v-.1h.1v-.1h.8v-.1h.2V92l.1-.1h.3v-.1h.2v.3h-.1v.1h-.2v.4h-.1v.1l-.1.1v.1h-.7v-.1h-.8zm-23 45.5h.2v.1h.1l.1.1h.1v.1h.3v.1h.3v.2h.1v.2h.1v.2h.1v.6h.6v.1h.2v.1h.3v.1h.2v.1h.2v.1h.2v.1h.1v.1h.1v.2h.2v.1h.1v.1h.2v.1h.1v.2h.1v.1h.1v.2h.1v.1h.1v.1h.1v.1h.1l.1.2h.1v.1h.1v.1h.1v.1l.1.1v.3h.1v.2l.1.1v.2l.1.1v.1l.1.1v.3h.1v.3l.1.1v.5l.1.1.1.1v.4h.1v.1h.1l.1.1v.3l-.1.1-.1.1v.1h-.2v.6h.1v1h-.1v.5l-.1.1v.2h-.1v.3l-.1.1v.2h-.1v.2l-.1.2h-.1v.2l-.1.1v.1l-.1.1v.2h-.1v.3h-.1v.4h-.1l-.1.1v.4h-.1v.1h-.1v.1h-.1v.1h-.1l-.1.1h-.1v.1h-.3v.1h-.3v.1h-.4v.1h-.1v.2h-.2l-.1.1h-.2v.2h-.1v.1h-.2v.1h-.5l-.1.1v.1h-.1v.2h-.1v.1h-.1v.1h-.1l-.2.2v.5-.2h-.1v.3l-.1.2h-.3l-.2.1-.2.1-.1.2h-.1l-.1.1v.2h-.1v.1h-.1l-.1.1h-.1l-.1.1h-.1v.1h-.1v.1h-.4v.1h-.1v.1h-.1v.2l-.1.1v.1h-.2v.1h-.3v.1h-.1v.1h-.3v.1h-.2v.2h-.1v.1h-.2v.1h-.1v.1h-.1v.1h-.1l-.1.1h-.5v.1h-.3v.1h-.1v.1h-.3v.1h-.2v.1h-.2v.1h-1v.1h-.6v.1h-1.2v.2h-.2v.2h-.1v.1h-.3v.1h-.1v-.1h-.2v.2h-1.1v.1h-1.2v.1h-.4v-.2h-.1v-.2h-.1v-.1h-.1v-.1h-.2v-.1h-1v-.1h-.1v-.1h-.5v-.3h-.2l-.1-.1h-.6v-.1h-.3l-.2-.2h-.9v-.1h-.2l-.1-.2h-.1v-.1h-.1v-.1h-.1v-.1h-.1v-.1h-.2v-.1h-.2v-.1h-.1v-.1h-.1v-.1h-.8v-.1h-.3v-.1h-.1l-.1.2h-.6.5v-.1h.1v-.1h-.2l-.1-.1v-.1h-.1l-.2-.1v.3-.5h-.1v-.1h-.1v-.1h-.1v-.1h-.1v-.1h-.1v-.1h-.2v-.2h-.2v-.2h-.2v-.2h-.1v-.1h-.1v-.2h-.1v-.2h-.1v-.3h-.1v-.1h-.1v-.3h-.1v-.4h-.1v-.1h-.2v-.1h-.2v-.1h-.1v-.1h-.1v-.2h-.1v-.3h-.1v-.4h.1v-.2h.1v-.1h.1v-.3h.1v-.4h-.1v-.5h-.1v-.4h-.1v-.2h-.1v-.4h-.1v-.4h-.1v-.6h-.1v-.3h-.1v-1h-.1v-.8h-.1v-.7h-.1v-.6h-.1v-.6h-.1v-.7h-.1v-.5h.1v-.1h.1v-.1h.2v-.1h.2v-.1h.1v-.1h.2v-.1h.2v-.1h.2v-.1h.2v-.1h.1v-.1h.2v-.1h.2v-.1h.2v-.1h.2v-.1h.2v-.1h.1v-.1h.1v-.1h.2v-.1h.1v-.1h.1v-.1h.1v-.1l.2-.2v-.1l.1-.1v-.4l.1-.1v-.9h.1v-1.1h.1v-.5h-.1v-1l.1-.1v-.5h-.1v-.1h-.1v-.2h1.2l.2-.1h.4v-.1h.3l.2-.1v-.1h.2v-.1l.2-.1v-.2h-.1v-.2l.1-.1.1-.1v-.8h-.1v-.3h.7v-.1h.1l.2-.1.1-.1v-.4l.1-.1v-.2h.2l.1-.1v-.4h.1v-.1l.1-.1v-.2l.1-.1v-.1h.2v-.3h.1v-.1h.1v-.1h.1v-.1h.1v-.1h.2v-.2h.1v-.1l.1-.1h.2v-.2l.1-.1h.1v-.1h.9l.1-.1h.4l.1.1h.1l.1.1h.1v-.1h.1l.1-.2h.6v-.1l.1-.1v-.1l.1-.2h.2v.4h.2l.1-.1v.1h.1v.2h.5v.3h.2v-.1h.6v.1h.1v.1h.1v.1h.4v.1h.3v.2h.3v.1h.2v.3h.3v.2h.2v.2h.2v.2h.1v.1h.2v.1h.2v.1h.4v.2h.1v.1l.1.1h.3v.1h.2v.1h.1v-.1h.1l.1-.1v-.1h.2-.1v.4h.4v-.1h.3l.1.1h.4v.1h-.1v.3h-.1v.1h-.1v.3h.2l.2-.2h.3v-.1h.1v.7h.2v-.1h.5v.1h.6l.1.1.2.2-.2.1v.4h.2l.2.1.1.1v.2h-.1l-.1.2-.1.1v.3l.2.1h.3-.1v.1l-.1.1v.3h-.1v.4l.2.2v.2h.1v.1h.3v.4h.2v.1h.4v-.1h.3v.4h-.1v.1h-.1v.2zm-76-81.7v.1h-.1v.5h-.3v.1h-.1v.1h-.1v-.1H66V57h.1v-.1h.1v-.1h.1v-.1h.1v-.1h.1v-.1h.1v-.3h.2V56h.1v-.2h.1v-.1h.1v-.3h.1v-.2h.1v.1-.2h-.1V55h-.1.2v-.2h.7v.1h.3v.1h.4v.1h.2v.1h.2v.1h.1v.1h.1l.1.1v.2h.2v.2h-.2v.4h.1v.1h-.2v.1h-.1v.1h-.4v.1H68v-.1h-.5l-.1-.1h-.1v-.1H67zm46.6 1.8h.7v.2h-.1v.2h-.6zm-36.2 9.3h-.4v-.1h-.1v-.3h.3v-.1h.2v.1h.1v.2m3.3-11.9h-.3v-.1H80v-.1h-.1v-.2h.5v.1h.3v-.2h.1zv.1h-.1zm-5 13h-.3v.2H75v.2h-.1v-.2h.1v-.1h.1v-.1h.3v.1zm-.5.6v.1h.1v.1H75v-.1h-.1v-.1h-.1v-.1h-.1V69h.3v.1zm9.1-13.6H84v-.1h.5v.3h-.1v-.1zM74.8 69h-.3v-.2h.3v.1m.7 1.2h-.3V70h.1l.1-.1h.1zm.3.2h-.2v-.1h-.1v-.1zm-1 .9h-.2V71h.1v.1h.1z"/><path d="M23 73.2h-.3V73h-.2l-.1-.1v-.5h-.1v-.1h-.1V72h.4v-.1h.2v-.1h.1v-.1h.4v-.5h.2V71l.1-.1v-.5h-.2v-.1h-.1V70h.2v-.4h.1v-.1h.1v-.1h.1V69h-.1v-1h-.1v-.7h.1V66h.1v-.1h.1v-.2h.1v-.2h.4v-.1h.4v-.1l.1-.1V65h.1v.2h.1V65v.1h.1v-.3l.1-.1v-.3h-.1v-.1H25v-.1h-.3v-.1h-.3V64h-.2v-.2H24v-.2h-.2v-.1h-.1.1v-.3h.1V63h.1v-.3h.3l.1-.1h.2v-.1h.1l.1-.1h.3l.2-.1.2-.1.3-.1.2-.1.2-.2h.1v-.1h.1v-.1h.1v-.1h.1v-.1l.1-.1v-.1l.1-.1v-.2h.1v-1h-.1v-.2h-.1v-.1h-.1v-.1l-.1-.1v-.2l.1-.2v-.1l.1-.1v-.1l.1-.1.1-.1.2-.2h.1V58h.4l.1-.1h.1v-.1l.2-.1.1-.1h.2l.1-.2h.1l.1-.1v-.1l.1-.1.1-.1v-.2h-.1v-.6h.2v-.1h.1V56l.1-.1.1-.1v-.3h.9l.1-.1v-.1h.1v-.1h.6v-.1h.1V55h.1v-.3h.3v-.1h.1v-.1h.8v-.2h.1v-.1h.3v.1h.3v.1h.1v.1h.5v.1h.8v-.1h.2l.1-.1h.1v-.1h.1v-.2h.1V54h.2l.1-.1v-.6h.2v-.1h.1V53h.3l.1.1v.1h.2l.1.1h.5v.2h.1v.1h.1l.1.1h.1v.1h.1v.1h.2v.1h.3v.1h.3l.1.1h.2V54h.3v-.1h.1v.1h.1v.3h.1v.2h.3v.1h.4v.4h.1v.1h.2v.1h.2v.1h.3v.2h-.1v.2h-.1v.4h.4v.1h.1v.1h.3v.1h.1v.2h.3v.2h-.1v.1h-.1v.4h.1v.1h.1v.1h.1l-.1.1v.2h.1v.1h.2v.2h.1l.1.1h.2l.1.1h.4v.1h1.5v.1h.1v.1l.1.1h.1v.1h.2v-.1h.2l.1-.1h.1v.1l.2.1h.4v-.3h-.2.1l.2.2h.3v.1h.1v.1h.1v.1h.1v.2h.1v.1h.1v.1h.1v.1h.4v.1l.1.1v.1h.4v.1h.1v.8l.1.1v.1h.8v-.2h.1v-.2h.1v-.3h.5v.2h.2v.2h.5v.1l.1.1h.3v.1h.1v.3h-.1v.1h.1v.3h-.1v.5h.1v-.6h.1v.1h.1v.1h.1v.2h.1v.1h.1v.2l-.1-.1v.2h-.1v.1h.1v-.1h.2v.2h.2v-.1h.1v-.1h.1V62h.2v-.1h.2v-.1h.2v.1H52v.1h-.1v.4h.4v-.1h.1V62h.2-.1.4v-.1h.2v.1h1.1v-.1h.1v-.1h.3v-.1h.5v.1h.1v.2h.1v.1h.1v.1h.4v.1h.3v.1h.4v.1h.1v.1h.2v.1h.2v.3h-.1v.1h-.1v.1h-.1v.1h-.1v.1h-.3v.1h-.1v.5h.1v.2h.1v.1h.1v.1h.8v-.1h.5v.1h.2v.1h.3v.1h.1v.3h.1v.3h1.1v.1h.1v.1l.1.1v.2h.1v.1h.1v.1h.2v.1h1v-.1h.3l.1-.1h.2l.1-.1h.3v-.1h.8v-.1h.3v-.1h.2l.1-.1h.9l.1.1h.3l.1.1.1.1v.2h-.2v.1h-.2v.1h-.1.5v.2H65v.2h-.1v.1h-.1v.1h-.3v.2h-.3v.2h-.3v.1h-.2v.1h-.2v.1l-.1.1-.1.1v.1h-.1v.8H63v.7h-.1v.3h-.1v.1h-.1v.1h-.1v.2h-.1v.1h-.2v.1h-1.1v-.1H61v-.1h.1v-.1h.2v-.1h.2v-.2h.1v-.1h.1V69h.1l.1-.1h.1v-.2h-.2v-.4h-.1v-.1h-.1V68h-.4v.3h.1v.1h.1v.1h.1v.7h-.1v.1h-.1v.1h-.1v.1H61v.1h-.3v.1h-.1l-.1.1h-.1v.1h-.3v.1H60v1.1h.1v.1l.1.1v.1h.1l.1.1v.2h-.1v.1h-.1v.1H60v.2h-.2V72v.1h.2V72h.2v-.1l.1-.1v-.1h.1v-.2h.2v-.1h.4v-.1h.3l.1-.1h.3V71h.4v-.1h.7v-.1h.1v-.1h.1v1.1h-.1v.1l-.1.1v.1h-.1v.1h-.1v.2h-.1v.1h-.1v.5h.1v.1h.1v.1h.2v.1h.2l.1-.1h.1V73h.5v.1h.2V73h.2v-.1h.1v-.2h.1v-.2h.1v-.2h.1v-.1h.3V72h.2v-.4h.1v-.2h.1v-.2h.1V71h.1v-.2h.1v-.4h.1v-.2h.4-.1v.1h-.1v.3h-.1v.6h.1v.1h.1v.1h.1v.6h-.1v.1h-.2v.1h-.1v.1h-.1v.1h-.2v.6h.1v.1h.1v.2h.1v.1h.1l.1.1h1.3l.1-.1h.3v-.1h.1V73h.3l.1-.1h.2l.1-.1h.2l.2-.1v-.4h.1v-.6h.2v-.2h.1v-.1h.1v-.1h.1v-.1h.1V71h.2v-.1h.1v-.1h.1v-.6h-.1V70h-.3l.1-.1v-.1h.6v-.1h.1v-.1h.1v-.1h.1v.1l.1.1h.1v.3h-.2v.3h.2v-.1h.1l.1-.1h.1v.1h.1V70h.5v.1h.2v-.5h.1v-.1h.4v-.1h.1v-.1h.1v-.1h.2v-.1h.4v.2h.1v.1h.1v.3h.4v-.4h-.2v-.1h.3v-.1h.5v.1h.2v.1h.2v.1h.1v.2h.1v.2h.1v.1h.2v.3H75v.2-.1h.1v.5h-.2v.1h-.1v.1h-.1v-.2h-.1v-.1h-.1v-.1h-.3v-.1h-.3v-.1h-.2v.4h-.1v.2h-.1v.3h.3v-.2h.2v.1h.1v.4h.1v.2h.1v.1h.2v.1h.1v-.4h.1v-.3h-.1v-.1h.1v-.1h.1V71h.5v-.1h.1v-.1h.1v.1h.1v.1h.2v1.3h.1v.1h.1v.9h.1V75h.1v.9H76v.2h-.2v.3h-.2v.1h-.2v.1h-.1v.1h-.1v.1H75v.4h.1v.1h.1v.2h.1v.2h.1v.1h.1v.1h.1v.2l.1.1v.2h.1v.1h.1v.3h-.1v.2h-.1v.1h-.2v.2h.1v.5h-.1v.6h.1v.3h.1v.1h.1v.1h.4v-.1l.3-.1h.6v.1h.1v.1h.1v.1l-.1.1-.2.2-.3.2-.3.2h-.1v.2h.1v.1l.1.1h.1v.1h.2v.2l.1.1h-.4v.1h-.1l-.1.1h-.8v-.1h-.2v-.1h-.1v-.1h-.1v-.2H75v-.5h-.1v-.5h-.1V81h-.1v-.2h-.1v-.1h-.1v-.1h-.2v-.1H74v-.3h-.1v-.1h-.6v.1h-.1v.2H73v.3h.1v.2H73v-.1h-.3v-.3h-.4v-.1h-.1V80H71v.1h-.1v.2H70V80l-.1-.1v-.1l-.1-.1h-.4v.1h-.1l-.1.1H69v.2h-.1v.1h-.1v.1l-.1.1v.1h-.1v.7h-.1v.4l-.1.1v.3h-.1v.2h-.1v.2l-.1.2v.2H68v.3l-.1.1v.3l-.1.1v.3l.1.1h.1v.1h.1l.1.1v.1h.1v.2h.1v.1h-.1v.2h-.1v.1H68v.2l-.1.1v.7h.1v.1h.2v.1h.1l.1.1.1.1.1.1.1.1.1.1v.2h-.1v.2h-.1v.1h-.1v.2h-.1v.1h-.1v.1h-.1v.1h-.1v.1H68v.1h-.1v.1l-.1.1v.1h-.1v.2l-.1.1v.3h-.1v.6h-.1v.1h.1v.7l.1.1V90v.1l.1.1h.1v.2h-.1v.4l.1.1h.1v.1h.1v.1h.1v.1h.1v.6h.1v.1h.3l.1.1h.6v.1h.2v.9h.1v.4h-.2v.1h-.1v.1h-.1l-.1.1H69v.1h-.2v.2h-.3v-.1.2h.1v.3h-.1v.9l.1.1v.2l.1.1v.1h.1v.1h.1v.1h.2v1.3h.1v.1h.1v.1h.2v.1h.3l.1.1h.5v.2l.1.1v.1l.1.1v.1h.1v.1h-.3v1.2H70v.4h.1v.1h.3v.5h.1v.2h-.1l-.1.1h-.1v.1h.4v.1h.1l.1.1h.2v.1h.2v-.1.2h.2l.1.1h.3v.1h.3v.1h.1l.1.1h.3v-.1h.4v.1h.1v.1h.1v.2h.1v.2h.1v.2h.1v.1l.1.1v.2h-.1v-.1h-.1v.1h.1v.2h-.1v.1h-.1l-.1.1-.1.1v.1H73v.1h-.1v.1h-.3v.1h-.2v.1h-.1v.1H72v.2h-.1v.2l-.1.1-.1.1v.3l-.1.1v.7h-.1v.5h.1v.4h.1v.2l.1.1v.1l.1.1h.1v.1l.1.1.1.1h.2v.1h.3v.1h.4v.2h.1v.2H73v.6h.1v.1h.2v.1h.1v1.4l.1.1h.2v.1h.1v.7h-.1v.6h-.1v.4h-.1v1.6h.1v.1h.1l.1.1v.1h-.1v.3l-.1.1v.2h-.1v.2l-.1.1v2.7l.1.1v.2h.1v.1h.3v.1h.1v.1l.1.1v.1h.1v.1h.1v.1h.1v.2h.1v.4h-.1v.1h-.1v.5h-.1v.1H74l-.1.1h-.1v.1h-.1l-.1.1v.1l-.1.1v.4h-.1v.2h-.1l-.1.1h-.1v.1H73l-.1.1v.1h-.1v.2h-.1v.1h-.1v1.1h-.1v.5h.1v.1l-.1.1h-.1v.2h-.1v.2h-.1v.1h-.1v.1H72v.1h-.2v.1l-.1.1v.1h-.1v.8h-.4v.1h-.1v.4H71v.2h-.2v.1h-.1v.1h-.1v-.1h-.1v.1h-.2v.1h-.2v.1H70l-.1.1h-.3v.1h-.1v.1h-.1v.1h-.1v.1l-.1.1v.1h-.1v.3H69v.3h-.3v.3h-.1v.1h-.4v.1h-.4v.1h-.1v.3h.1v.1h-.4l-.1.1v.1h-.1v.3H67v.1h-.2v.1h-.1v.2h-.2l-.1.1h-.1v.1H66v.1h-.2v.2h-.2.1v.4H65v.2h-.1v.1h-.1v.4h-.1v.1h-.1v.4h-.2v.1H64v.3h-.1v.1h-.1v.1h-.2v.1h-.4v.1h-.3v.1h-.1v.2h-.2v.2h-.1v.7h-.1v1h-.1v.1H62v.3h-.3v.1h-.1v.1h-.2v.2l-.1.1h-.1v.3h.2v.2h.1v.3h.1v.3h-.1v.1h-.3v-.1h-.5.1v.2h-.4v.1h-.1v-.1l-.1-.1h-.5v.2h-.4v.1h-.1v.1l.1.1v.5h-.4v-.1h-.3v.2h-.2v.1h-.2v-.1H58v-.1l-.1-.1H57v-.1h-.3v.1h-.4l-.1.1h-.4.3v-.2h-.4v-.1h-.2v-.1l-.1-.1h-.3v.1H55v.1h-.1v.2h-.1v.2h-.5v.1h-.1v.1H54v.1l-.1.1v.1h-.1v.1h-.1v.1h-.1v.2h-.1v.3h-.1v.1H53l-.1-.1v-.1h-.1v-.2h-.1v-.2l-.1-.1h-.1v-.1H52l-.1.1h-.1l-.1.1h-.1v.1h-.2v.1h-.1l-.1.1H51v.2l-.2.2-.2.2-.1.2-.1.1v.1h-.1v.4h-.1v.1H50v.2h-.1v.2h-.1v.1l-.1.1h-.5v.1H49v.1l-.1.1v.1h-.7v.1h-.4v.1h-1.1l-.1.1h-.1l-.1.1h-.5v.1h-.2l-.1.1v.1h-.1v.1h-1v-.1h-.1v-.1h-.1v-.1h-.1v-.1H44v-.1h-.4v.1h-.3v-.1h-.1v-.9H43v-.1h-.2v-.1h-.1v-.3h.1v-.9h.1v-.2h.1v-1.3h-.1v-.4h-.1v-.6l-.1-.1v-.2h-.1v-.3h-.1v-.1h-.1v-.2h-.1v-.1h-.1v-.3H42v-.2l-.1-.1v-.1h-.1v-.1l-.1-.1-.1-.1h-.1v-.1h-.2v-.1h.3v-.2l-.1-.2-.1-.1h-.2l.1.1v.3-.1l-.1-.1v-.1H41v-.1h-.1l-.1-.1h-.2l-.2-.1h-.1v-.1H40v-.1l-.1-.1h-.1v-.1h-.1v-.1h-.1v-.1h-.1l-.1-.1-.1-.1-.1-.1v-.1H39v-.2h-.2v-.1l-.1-.1-.1-.1-.1-.1h-.1v-.3l-.1-.1v-.2h-.1v-.1H38v.1l-.1-.2-.1-.2h-.1.2v-.1l-.1-.1v-.1h-.1v-.1h-.1v-.1h-.1l-.1-.1-.2-.2-.1-.1-.2-.1v-.1l-.1-.1h-.1l-.1-.1-.1-.1h-.1v-.1h-.1l-.1-.1H36v-.1l-.1-.1v-.1l-.1-.1-.1-.1-.1-.2-.2-.4h-.1v-.1h.2v-.1h-.2l-.1-.1v-.9l-.1-.1V126l-.1-.1v.1h-.1v-.6h-.1v-.9h-.1v-.2l-.1-.1-.1-.1v-.1h-.1v-.1h-.1v-.5h-.1l-.1-.1H34v-.2h-.1l-.1-.1h-.1v-.3h-.1v-.5h-.2v-.2.1h-.1v-.1h-.1v-.1H33v-.2l-.1-.1-.1-.1-.1-.1v-.1h-.2v-.1h-.1v-.1h-.1v-.1h-.1v-.3H32v-.2h-.1v-.1h-.1v-.1h-.3l-.1-.1v-.5h-.1v-.2h-.1v-.1H31v-.1l-.1-.1v-.1l-.1-.1v-.4h-.1v-.2h-.1v-.1h-.1v-.2l-.1-.1v-.4h-.1v-1.3h.1v.3h.2v-.1h.1v-.1h-.2v-.8h.1v-.3h.1V114h-.1v-.3h-.1v-.2l.1-.1h.1v-.1l.1-.1v-.7h-.2v-.4h-.1v-.1h.1v-.1h.1v-.1h.1v-.1h.1l.1-.1v-.1h.1v-.3h-.6v.1h-.1v.1H30v-.2h-.2v-.1h-.1v-.4h-.1v-.1h.2v-.1h.1v-.1h.1v-.1h.1v-.3H30v-.2h-.2v.1h-.1v-.2h-.1v-.2h.1l.1-.1h.1v-.4.1h-.1v-.1h.1v-.2h-.4l-.1-.1v-.5h.2v-.1h.1v-.9h-.1v-.1h-.1v-.1h-.1v-.3h.1v-.1h.1v-.3l-.1-.1v-1l.1-.1v-.6h-.1v-.3h.1v-.6h-.1v-.1h.3l.1-.1v-.1h.3v-.1h.1v-.4h.1v-.3h-.1v-.2h-.1v-.6H30v-.2h-.3v-.1h-.1v-.1h-.1v-.1h-.1v-.2h-.1v-.1h-.2v-.1h-.3v-.1h-.6v-.2h.2v-.6h.2v-.1h.1v-.1h.1v-.2h-.1v-.1h.1v-.1h.1v-.1h.1V99h.1v-.2h.1v-.2h-.1v-.1H29v-.2h.1v-.7l-.1-.1v-1.7h.1v-1.4H29v-.1h-.1v-.2h.1V94h.1v-.2l-.1-.1v-.1h-.1v-.1h-.1l-.1-.1-.1-.1-.1-.1h-.7v.1h-.1v-.2h-.1V93h-.1v-.3l.1-.1V92h-.1v-.9h.1v-.5h.1v-.1h.1v-.4h-.3V90h-.1v-.4h-.1v-.2h-.1v-.1H27V89h-.2v-.3h.1v-.8h.2V87h.1v-.2h.1v-.1h.1v-.1h.1v-.1h.1v-.1l.1-.1V85l.1-.1v-.3h-.1v-.2h-.1v-.2h-.1V84h-.2v-.2h.1v-.5l-.1-.1v-.7l-.1-.1v-.2H27V82l-.1-.1v-.1h-.1v-.1l-.1-.1-.1-.1h-.1v-.1h-.1v-.1h-.1V81H26v-.5h-.1v-.3h-.1V80h-.6v-.1H25v-.2h-.1v-.5h-.3V79h-.1l-.1-.1h-.1v-.1h-.1v-.1h-.3V78h-.1v-.4h-.1v-.1l-.1-.1v-.2h.1v-.5h-.1v-.1h-.1v-.3h-.1v-.1h-.2v-.6H23V75h.2v.1H23v-.4h.1v-.1H23v-.1l.1-.1v-.5H23v-.1h-.1v-.2h-.1v-.3h.2z"/><path d="M80.3 83.9h.3v.1h.1v.1h.5v.1h.1v-.3h.3v.1l.1.1v.1h.1v.1-.2h-.1v-.2h-.1v-.1h-.2v-.2h-.1v-.3l-.1-.1H81v.1l-.1.1v.2h-.4v.1h-.2v-.1H80l-.1-.1v-.1h-.1.3v-.1h.2v-.4h-.5v-.2h-.2v-.1h-.1v-.2h-.2v.1h-.1v-.3h.3V82h.2l.1-.1v-.1h-.3v-.1h-.1v-.2h-.3v-.2H79v-.1l-.1-.1v-.4h-.1.1v-.1h.2v-.3H79V80h-.1v.1h-.1v.1l-.2.2-.3-.1-.3-.4v-.7h-.3l-.2-.1v-.8l-.1-.1-.2-.2-.1-.1H77l-.1-.2-.2-.1v-.1h-.1l-.3-.3V77h-.1l.1-.2H76v.1-.1h-.2v-.1h-.1v-.1h.1v-.1h.1v-.1h.1-.1.1v-.1h.3v-.1h.1V75l-.1-.1v-.1h-.1v-1.2h.1v-.1h.1v-.2h-.2l-.1-.1v-.5h.1v-.3h-.1v-.1H76v-.8h.1v-.2H76v-.4h.1v-.5H76V70h-.1v-.2h.1v-.1h-.1v-.1h-.1v-.1h-.1v-1h.1v-.1h.2v-.1h.1v-.1h.1-.3v-.1h.2V68h.4v-.2h.2v.1h.2v.1h.1v.2h.1v.2h-.2v.1h.4v.6h.1v-.3h.1v-.1h.1V68h.4-.4v-.4h-.1v-.3h-.1v-.1H77v.1h-.2v-.1h-.1V67h-.1v-.2h-.1v-.1h-.1v-.1h-.1v-.7h.2v-.4h.2v-.1h.1v.2h-.1v.5h.3v-.2h.1v-.2h.5v-.2h.1v-.2h.1v-.1h.1V65h.4v-1h.1v-.1h.2v-.2h.2V63h.1v-.1h.1v-.1h.1-.2v-.1h-.1v-.1h-.1v-.2h-.1V62h.1v-.2h.4v-.1H79v-.4h.3-.1v-.1H79v-.5h.1v-.1h.1v-.1h.2-.1v-.1H79v-.3h-.1v-.5h-.1v-.4h.1V59h.2v-.1h.2v-.1h.4v-.1h.3-.3v-.1h-.1.1v-.1h.2v-.1h.1v-.2h.2V58h.1v-.2h-.1v.1H80v-.2h-.1v-.1h.5v-.1h.1v-.1h.2v-.1l.1-.1h.2V57h.1v-.3h.2v-.2h.1v-.1h-.1v-.1h.1v.1h.1v.1h.1v.1h.1v.1h.1v.1h.3v.1h1.7v.1h.4v.3l.1.1v.2h.1v.2h.1v.2h.1v.2-.3h-.1v-.2h-.1v-.3h-.1v-.2h.1V57h.1v-.2h.1v-.4h.6v-.1h.1v-.1h-.4v-.1h-.1V56h-.1v-.6h.3v.2h-.1.1v.1h.2v-.1h.1v-.1h-.1v-.1H85v-.2h.4v-.1h.2V55h1.1v-.1h.3v-.1h.8v-.1h-.5v-.1h-.6v-.1h-.1l-.1-.1h-.4v-.1H86V54h.4v-.1h.1v-.7h.1v.1h.2V53h-.3v-.1h-.3v-.1h-.1v-.1H86l-.1-.1v-.1h-.1v-.1h-.1v-.1h.5V52h.3v-.1h.1v-.5h.2v-.5h-.2v-.3h.3v-.1h-.1v-.6h.1v-.3h-.2v-.1h.4v-.1h-.5.1v-.1h-.1V49h-.1v-.2h-.1v-.2h-.1v-.2h-.2v-.2H86l-.1-.1h-.2v-.2h-.1v.1h-.1v-.1h-.1v-.1h-.1v-.3H85v-.3h-.1V47h-.2l-.1-.1v.1l.1.1v.2h-.1v.2l-.1.2-.1.1v.1h-.1l-.2-.1v-.2H84v-.1h-.1l-.1-.1v-.2h-.1V47h-.4l-.1-.1H83l-.2-.2h-.1l-.1-.1h-.3v-.1h-.2v-.1H82v-.1h-.3v-.1h-.2v-.1h-.4V46H81l-.1-.1h-.2v-.2h-.1v-.4l-.1-.2V45h-.1v-.1h-.2v-.2h-.1v-1H80v-1.1h-.6.3v-.3h-.2.2V42h-.3v.2-.1.4l-.1-.2V42h.1v-.3h-.1v-.4l-.1-.1v-.4H79v-.6l.1-.1v-.2h.1v-.7H79v-.3h-.1v-.1l-.1-.1v-.1h-.1v-.3h-.1v-.1l-.1-.1v-1.2l-.1-.1-.1-.2h-.5v.1h-.2v-.3h.1v-.1h.1v-.1l.1-.1V36l.1-.1.1-.2.1-.1v-.1h.1v-.2l.1-.1V35l.1-.1v-.1l.1-.2v-.4l.1-.1v-.3l.1-.1v-.8l.1-.1.2-.1.1-.1.1-.1.2-.2h.1l.2-.3.2-.2v-.1h.1v-.1h.5v-.1h.2v-.1h.2v-.1h.2v-.1h.1V31h.1v.2-.4h.1v-.4h.1v-.2h.1v-.1h.1V30h.2v-.1h.2v-.1l.2-.2.1-.1h.2l.1-.1h.2v-.1h.8v-.1h.3V29h.2v-.1h.3v-.5l.2-.2V28l.1-.1h.2v.3-.3H85v-.5h.1V27h.1v-.4h.8v-.3h.1v.1h.3l.1-.1v-.2h.1v.1h.2l.1-.1h.1V26h.2l.1-.1v-.1h.1v-.1h.1v-.2h.3v-.1h.5v-.1h.3l.1-.1V25h.3l.1-.1v-.3h.1v-.1h.1v-.2h.2v-.1h.1V24h.3v-.2h.1v-.1h.2v-.1h.1v-.5h.1V23l.1-.1v-.3h.1V22h.1v.1h.3l.1-.1.1-.1v-.5h.1v-.1h.1v-.1h.1V21h.7v-.4h.1v.4h.7v-.1h.1v-.2h.1v-.3l.1-.1v-.1h.2v.5l-.1.1v.3l-.1.1-.1.1v.1H93v.2l-.1.1v.2h.2v-.1h.2v.2h.2v.2h.3V22h.1v.2h-.1l-.1.1v.1l-.1.1v.4l.1.1v.1h.1v.1h.3l.1-.1V23h.1v-.1h.1v.3h.2v.2l.1.1h.2v-.1h.1v.1h.1v-.2h.3V23h.1v.4h.1v.1h.1v.1h.3v-.2h.6v-.1h.1v-.1h.2V23h.3v.2h.3v-.1h.1v.9h.1v.2h.1v.7h.1v.2l-.1.1v.2h.1v.1h.1v.5h.1v-.5h.1v-.3h.4v.2h.1v.1h.2v.1h.1v.1h.3v.2h.3v.4h.2v.4h.3v.1h.1v.1h.5v.3h.1v.1h.1v.2h-.1v.2h.2v-.1h.1v.2h.1v.1l.1.1h.1v.1h.1v.2h.4v.2h.4v-.3h.1v.1h.1v.3h.2l.1-.1h.1v.1h-.1v.3h.1v.4h.3v-.1h.3l.1.1v.3h.1v.1h.2v-.1h.1v-.1h.1v.1h.1l.1.1v.3h.2v.4h.1v.3h-.1v.6h-.1v.3l.1.1h.4v-.1h.1v.2h-.2v.5h.1v.2h.1v1h.3v.5l-.1.1v.1l-.1.1v.2h.1v.2h.3v.1h.2v-.2h.1v.2h.2v.6h.2v.1h.1v.2h.1v.7h.1v.6h.1v.3l-.1.1v.2h.2v.1h.1v.2h.1v.9h-.1v.4h.1v.2h.1V41h-.4v.3h-.2l-.1.1h-.1V41h-.1v.5h.2v.1h.3v.1h-.1v.6h-.1v.3h-.1v.4h-.5v.1h-.3v.6h.1v.2h.2v.3h-.1v.7h.1v.5h-.1v.1h-.1v.1h-.1v.5h.1v.1h.1v.3l-.1.1v.3h-.1V48h.1v.2h.1v.1l.1.1h.1v.1h.1v.4l.1.1v.2h-.1v.2h.1v.2h.1v.5h.1v.1l.1.1v.2h.1v.1h.1v.1h.1v.2l.1.1.1.1v.1l.1.1v.2h.1v.1h.1v.1h.1v.1h.1v.2h.2v.1h.1v.1h.2v.2h.1v.5h.1v.3h.1v.1h.1v-.1.2h.2v.1h.1v.2h.1v.2h.1v.2h.1v.1h.2v.3l.1.1h.1v.1h.1v.1h.1v.4h.3v.1h.1v.1h.1v.2l.1.1h.2v.1l.1.1v.2h.1v.2h.1v.2h.1v.1l.1.1h.1l.1.1h.1v.1l.1.1h.1v.1h.1v.1h.1v.1h.1v.1h.3v.1h.2v.1h.4v.2h.3v-.1h.3v.1h.2v.3h-.1v.3h-.1v.1h-.1v.1h.1l.2.1h.1v-.1h.4l.1.1h.1v-.1h.1v-.3h.1v-.1h.1v.1h.1v.1h.5v.1h.6v.1h.1l.1.1h.2v.1h.1l.1.1h.1l.1.1h.6v-.2h.2v-.1h.2v-.1h.5v.1h.1v.4h.1v.2h.4v.4h.1v.4h.1V60h.2v-.1h.1v-.2h-.2.2v-.4h.2v-.1h.3l.1-.1h1.5l.1.1h.7l.1.1h.1l.1.1h.1v.1h.3v.1h.1v.1h.2v.1h1.5v-.1h.1v-.1h.1v-.1h.2v-.1.1h.1l.1.1h.2v.1h.1v.3h.1v.2h.2v.1h.2v.1-.1h.1v.2h.1v.1h.1v.1h.1v.1h.2v.1h.5v-.1h.1v-.1h.1v-.1h.1v-.2h.3v-.1h.4v.1h.1v.5h-.1v.3h-.1v.1h.1v.1h.3v-.2h.1v.1h.2v.2h.4v.1h.2l.1.1h.1v.1h.5v-.1h.1v-.1h.3l.1.1v.1h.1l.1.1h.1v.1h.1v.1h.3v.6h.3v-.2h.2v.1h.3l.1.1h.2v.1l.1.1v.1h.1v.1h.1v.4h.5v-.2h.1v.1l.1.1v.2h.2v.1h.2v.1h.2l.1.1.1.1h.2v.1h.1v.1h.1v-.1.4h-.1v.6h.3V65h.8v.1h.2l.1.1h.1v.1h.1v.1l.1.1v.3h.1v.1l.1.1.1.1v.2h.1v.2h.1v.8h.1v.1h.1v.1h.1v.2l.1.1.1.1v.1h.2v.3h.1v.1l.1.1v.1h.1v.1h.1v.1h.1v.1l.1.2v.1h.1v.2l.1.1v.1h.1v.3h.1v.2l.1.1v.2h.1v.3h-.2v.1h.4v.2l.1.1v.1h.1v.1h.1v.1h.2v.1h.1v.4h.3v.1h.1v.1h.2v.1h.1v.1h.1v.1l.1.1h.1v.1h.2v.1h.1v.1l.1.1h.1v.1h.2v.1h.2l.1.1h.1v.1h.6v.1h.2v.1h.4v.1h.4v.1h.1v.1h.2v.1h.7v.1h.2v.1h.2v.3h.1v.1h.1v.1l.1.1h.2v.1h.1v.1h.1l.1.1h.5v.1h.2l.1.1h.3v.2l.1.1.2.1.1.1h.1v.1h.5v.1h.3v.1h.8v-.2h.1v-.2h-.1v-.2h.2v.1h.1v.1h.1v.1l.1.1v.1h.1v.1h.2v.1h.3v.1h.1l.2.1.1-.1h.1V76h.2l.1-.1h.3l.2.1h.1l.1.1.1.1.1.1.1.2.3.1v.1h.1l.1.1v.1h.1l.1.1.2.1.2.1h-.1v.2h.3l-.1-.1.1.1h.3v-.1l.1-.1h.1v.6h.9-.1v.1h-.3v.1h-.1v.2h-.1v.2h.1-.1v.1h-.1v.1h-.1v.1h-.2v-.1h-.2v-.4h-.2v-.1h-.1V78h-.8v-.2h-.1v-.1h-.2v-.1h-.1l-.2-.1h-.1v-.1h-.2v-.1h-.2v-.1h-.2v-.1h-.2V77h-.5l-.1-.1h-.2v.1h-.8v.1h-.2V77h-1.4l-.1-.1h-.2v-.1h-.5l-.1-.1h-.9l-.1-.1h-.2v-.1h-.2l-.2-.1h-.1v-.1h-.5l-.2-.1h-1.2v.1h-.8v-.1h-.6v-.1h-.8l-.1-.1h-.2l-.1-.1h-.6v-.1h-1.7l-.1-.1h-.3v-.1h-.6l-.1.1h-.2v.1h-.2v.1h-.2v.1h-.1v.1h-.1v.1h-.2l-.1.1-.1.1v.1h-.3v.3h-.1v-.2h-.2v-.2h-.2l-.3-.1-.1.2h.2v.1h.4v.2h-.3v.1h-.5v.1h-.2l-.4-.1h-.3v-.1h-1l-.1.1v-.2.1h-.3v.1h-.1l-.1.1-.1.2h-.5v.2l-.2.2v.1h-.1l-.1.1-.2.1-.2.1h-.2l-.2.1h-.4v.1h-.3v.1h-.1v.1h-.5v-.1h-1v.1h-.1v.1h-.1l-.1.1h-.3l-.1.1h-.1l-.1-.1h-.1v.1h-.3v-.1h-.1l-.2.1h-.7l-.1.1h-.3v.1h-.4v.2h-.4V79h-.3l-.1-.1v-.1h-.2v-.1l-.1-.1-.1-.1v-.1h-.2v-.1h-.3v.4h.1v.2h.1-1.3v.1h-.1v-.1h-.3v-.1h-1.4v.4h-.8v.1h-.1v.1h-.2v.1h-.2v.1h-.2v.1h-.1v.1h-.2v.1h-.2v.1h-.6v.1h-.4v.1h-1.4l-.1.1h-.4v.1h-.3v.1h-.2v.1h-.4v.1h-.2v.1h-.4v.1h-.1v.1h-.1v.2h-.1v.3h-.1v.2h-.1v.1h-.2v.1h-.2v.1h-.2v.1h-.1v.1h-.1v.1h-.2v.1h-.1v.1h-.1v.3h-.1v.1h-.2v.1h-.4v.1h-.1V83h-.1l-.1-.1h-.2v-.1h-.2v-.1h-.9v-.1h-.2v.1h-.1v.1h.1v.3h-.1v.1-.3h-.2v.1h-.2l-.1.1v.1l-.1.1v.2h-.1v.5h-.1v.2-.1h-.2V84h-.1v-.2h-.1v-.1h-.2v-.1h-.3v.1h-.3v.1l-.1.1h-.5v.1h-.1v.1h-.4v.2h.1v.1h.1v.2h-.2v.1h-.3v.2h.1-.3v.1h-.1v.1h-.1v.1h-.8v.1h-.4v.1h-.3v-.1h-.3v.1h-.1v.1h-.1v.1h-.1v.1h-.1v.1h-.1v-.1h-.2v.3h-.2v-.2h-.4v.3h-.2l-.1-.1v-.4h-.2v-.1h-.4v.1h-.6v.1h-.5v.1h-.8l-.1.1h-.2v.1h-.1v.1H98v.8h-.1v.1h-.1v.2h-.5v.1H97v.1h-.3v.1h-.1v.1H96v.1h-.6v-.3H95v.1h.1-.1v.1h-.2v-.1h-.3v.1h-.1l-.1.1v.1h-.1v.3H94v.1h-.2v.1h-.1v.1h-.1v.1h-.3v-.1h-.1v-.1H93V88h-.5v-.1h-.2v.1h-.1v.1H92V88h-.2v-.2h-.3v-.1h-.2v-.1h-.1v-.1H91v-.1h-1v-.1h-.1l-.1-.1h-.1V87h-.4v-.1h-.1v-.1H89v-.1h-1.4v.1h-.5v-.1h-.4v.1h-.1v-.2H86v.1h-.2v-.1h-.2v.1-.2h-.4l-.1.1h.1v.1H85v-.3h-.1v.1h-.1v-.1h-.3v-.5h-.1v-.2h.1v-.1h.1v-.9h-.2v-.1l-.1-.1v-.1H84v-.1h-.7v.2H83v.1h-1l-.1.1v.1h-.1v.1h-.1v.1h-.3v-.1h-.1v-.2h-.2v.1H81v-.1l-.1-.1h-.1v-.1h-.1v-.1h-.3V84h-.3v.1H80v.2-.3h-.1v-.2l-.1-.1v-.1h-.1v-.1l-.1-.1v-.1h-.2V83l.2-.1v.2l.1.1.1.1v.1h.1v.2h.1v.1h.4zm-3 1v-.2l-.1-.1v-.7h.3v.2h.1v.3h.1v.1h.1v.1h.9v.2h.1v.1h.2v.1zM88.1 88h-.2v-.3h.2v.1l.1.1zm-12.6-5H75v-.1l-.1-.1v-.1h-.1v-.1h.1v.1h.1l.1.1h.1v.1zm.2-.2v.2h-.1zh.2v.1h.2v.1l.1.1h-.1V83h-.3v-.2zm-1.3-1.2v-.2h.1l.1.1v.1zm-.1 1v.2h-.1z"/></svg>