<svg xmlns="http://www.w3.org/2000/svg" width="15118.1" height="13031.7" fill="currentColor" baseProfile="tiny" viewBox="0 0 47244 40724"><title>Qt SVG Document</title><desc>Generated with Qt</desc><g fill-rule="evenodd" stroke-linecap="square" stroke-linejoin="bevel" font-family="MS Shell Dlg 2" font-size="34.4" font-weight="400"><path fill="none" d="M0 0h47243.5v40723.6H0z"/><path d="m23158.8 25367.5-130.6-198.2-220-169.6-176-168.1-78.1-87.2-52-19.4-42.4-42-39.3-19.2-31-137.7-27.7-73.1-60.5-159.5-78.8 13.7-22.1-74.4 15.6-4.8-54.4-184.8 4.3-8.6 4.4-5 7.6-1.5 10.3 3.4-.8-9.5-25.1-89.5 9.9-30.6 3.9-5 6.7 2.4 8 5.2 9.5 16.2 90.5 298.8 121.6-33.4 63.7-128.8-28-121.5 53.6-14.4-4-12.5 73.7-19.6-1-36.4-2.1-30.5-6.1-50.7-39.1-157.7-35.4-73.3-12-33.2-64.5-74.2-13.6-15.6-29.2-49.4-39.8-53.5-64.8-73.4-39.2-43.5-50-33.5-63-24.1-50.8-22.6-63-23.8-25-28.2-16-1.6-6-4.7-1-7.3 12-11.3-12.1-1.6-19.3-20.2-23.2-11.4-27.6-19.6-32-8.1-30-27.6-39.2-21.6-22.7-42.7-23.1-29.8-25.6-21.4-35-12.5-59.6-4.4-29.5-14-34.2-13.4 8.9 22.6-7.5 13.8-17.8 5.2-17.8-7.8-14 3.2-9.7-8-32.4-16.6-24-27-15.2-10.5-22.3.3-8.6-15 14-30.1-11.2-15-19.1 8.5-25.1 17-27.2-11.7-13.3-14.1.9-19.2 2.9-15 10.8-10 5.5-11.3 2.8-15.7 15-1.5 15.2-8.2-7.2-10.6-19.4-12-24.4-22.7-25.3-12.6-3.3-13.5-15-16.4-11.7-8.5-6.1-38.5-7.5-18.2 18 .7-11-24-6.2-10-14.3-.5-16.1-21.1 1.7-20.5 3.4-16.2 6.6-15.1 10.8-4.1-4-10.7.6-9.6 8.2-12.3.5-14 5.5-20.4 6.9-14.5-1.6-15.8 3.4-14 6.5-16.5 9.6-11.6 2.3-11.8.2-17.2-1-16.4-50.4-96.7-3.3-14.2 6.6-14.1-19.3-29.3-36.6-39.7-52.4-53.3-70.2-71-30.8-20.2-30-19.8-27.3-20.2-28.7-18.2-28.1-15-29.4-14.5-29.4-3.8-17.2 2.8-9.7 8.9-8 1.6-8.4-13.1-8.4 3.8 3.3 8.3-2.3 7-14.1 2.8-16.2.7-14.6 9.6-6.2-7-14-1.2-15.5-5-12.7-13.2-28.4-3-28.8 11.8-30.3 5-27.7-5.4-30.7 3.6-22.1 7 10 11.9-14 7.8-15.5-3.6-18.2 6.8-20.2 12-11.1 8.4-25.3-1.8-43.8-2.6-10.8 5-13.3-16.7-10.5 13.5-16.3-8-27.1 11.4-23.4 4.8-31.4 8.3-26.2 7.7-26.4 15.3-16 11.5.9 15-6.9 8.4-27.6 17.5-31.2 17-19.9 6.8-26.3-2.4-27.2 8-17.9-.6-20-4.8-13.6-3.5-18.9-22-11.7-8.1-24.1-3.7-9.6 12.4-22.1 3.9-35.9-12-13.5-16-32.5-7-37.5 8.7-33.4 7.3-32-7-3.2-30.1-40.3 4.4-47.6-9.8-13.8 3.8-21.2 6.6-14.9 16.5-23.2-3-1.8 12.6-20.4 11.6-18.5 16.9 1.4 10.3 14.7 26.5 6.4-5.3 35.9 39.4-5.2 21.5-17.2 12.9-14.5-2.4-15.7-29.7-13.2-23.1-15.5-3.2-13.8 9.5-12.9 13.5-29.2 4.8-27.6-1.3-31.6-18.3-19.7-12.5-15-16.4 3.2-21 1.6-18.4-6.2-14.3 9.2-7.2-7.6-18.4 13.3-25.4-2.6-8.5-11.2-8.8-21.4 20.8-21.4-10.2-14.4-15.3-2.6-19.7-12 .4-6.4 9.9-8.6-2.6-5.9-13.8-11.8-11-22-6.2-6.6-3.4 5.7-8.2 2.3-8.7-15.6 13.7-10.6-15-5.3-15.7-12.5-12-9.6-9 2.8-13 8-10.3 17-3.3-6-3-28-.6-17-1.6-10.7 5.2-12.8 3.5-20.4-5.2-2.3-10 4.4-12 2.1-17.5-11.2-8-24.2-7.2 6.5-12.4 11.1-13.7 7.5-15.1 9.3-7.1-27.5-.7-6.8-15.8 5.5-17.2 1.4-10.4 11.6-3.8.1-11.8 13.1-5.4 13-4.5-26.7-.8-18.7-7.8-11-16 8.7-17.6 5.4-8.4 22.7 4.6-11.5-27-18-23.5-19.5-17.4-11.2-16.2-27.4 9.3-24.9-8.5-31-13-21.7-21.4-9.5-14.8 17.8-10.2-6-9.6 7-5.4 16.8 1.6-7.9-10 12-11.4 17.5-7.1-18.2-12.3-22.7-6.2-29-9.5-7-9-9.2.7-8.7 14.6-31.6-13.1-13.6-1.3-26.9-7.2-27.8-3-12.3-13.8 3.2-12-4.9-12.5-11.3-4.4-10.4 11.7-31.7-11.4-10.9-12.4 4.8-8.1-9.7-11-15-5.5-31-27.7-34.5-16.7-20-13.2-13.5-18.8-6.3-15.1-21.2-6.7 2.1-19-9.2-16.3-5-24 7.6-14.7 3.1-16.1-8.6-10.4 22.2-2.4-32.7-16v-11l-14.4-3.2 2.1-18.7-2.6-25.1 2.8-33.4-21.9 3.2-13.7 13.2-9 12.3-20-16.1-21-9.2-12.6-16.1-6-19.4 7.5-7-8.2-19.4-5.8-40.8 9.7-14.6-7.4-12-16.6 6.7-6.5-8-19.6-6.1-17.2-6-11.9 7.4 10 15.6-2 14.3-7.6 3.5-10.8-6.2-11.4-17.8-10-4.8-15.6 8.7 27.6 22.9 14.2 17.9-.8 7-6.8 3.5-14.9-16.6-15.3-10.7-18.4-10.8-12.2 4-3.3 18.2-2.4 9.4-14.8 4.4-3.9-21.6 3.6-11-8.7-.3-16.5 13.5-5.3-18-18-12.6-18.6-16-14.4-17.2-10.7-22-6.9-20.4-13-24 1.4-22.3-8.3-15.5-5-6.5 2.4-11.3-10.9-3.5-12 4.2-2.6 15.3-15.5 11.5-21.2-3-21.3-9.6-9.5-9.1-.2-9.7-3.6-11-26.7-11.6-19.8-29.3-3.5-15.6-17.5-10.2-16 1.1-19-9.4-3.3-25.7 14.2-2.6-6.3-25.4-16.5-35.3-7 25.3-12.5 13.9-34-19.3-22.4-55.4 4.3-31.6 17-29.5 28 2.1 3-26.7-8.7-23.8-28-34.2-25.4-15-35.3-11.8-21.3-7.4.5-15.4 13-19.8 25.8-29.4-6.4-5.4-23.7 3.5-29-11-27.4-20.3-17.6-19.8-8.5-35.7 17-50.3 1.3-11-11.6-9.9-12-5.8-12 4.7-11 7.2-12.8-10.6-30 15.1-29.3 15.7-19 12.7-22.8 5.3-52 9.6-36.8 7.1-15.6-3.9-10-13.2-13.5 2.7-11-7.9-23.7-11.3-17.3-17.9-10.4-6-10.3-10.3-17-30-6.4-8.7-20.8-35-3.8-33.5 11.2-24.9 4.4-24.5 4.4-24 11.8-12.9 20.2-6.5 14-7.7-2.6-22.2 16.1-29.4 1.6-17.2-50.5-85.7-65.2-90-57.5-60.7-30-23.9-62.8-56.3-104.3-86.2-94.9-10.4-26.5-32.3-105.8-15.7-71.7-29.2-83.5 17-84.4-32.6-64.3-17-53.2 6.7-61.9-23.7-44.5-44.4-70.5-16.4-59.5-66.9 10.3-62-68.3 20.3-46.4-22-77.3-68.4-45.6-55v-51.7l107.3-55-81.3-42-9.9-67.9-40.3-108.9-21-94.6-10.4-113.3 34-68 24.4-32.4-9.5-58-13.3-55.2-32.6-64.6-63.4-5.3 40.6-43.2-42.4-64.7-22.5-78.6 27.4-92.9 27.5-80.7-28.5-100-72.5-91.5-123.7-105.9-68.3-32.3-52-51.7-32.7-35.5-75.2-30.2-84.3-6.8-80 46.8-59.9 25.8-32.5 11.4-25.9 24.4-6.6-67.9-29.3-32.4-10.5-57.3-38.2-24-39.7-28.9-63.7-35.2-46.3-24.2-57.8-11.2-70.4-37.2-71.6 85.8-41.4 64.8-55.7 16.5-58.7 2-124.3-65.5 65.4-35 15.5-21.2-36-30.2-8.6-27.2-19.2-18.8-45-2.3-48.7-93-17.4-8.6-12.2-30.9-3.3-28.4-25.1-45.2 39.8-30.4 61.3-26.9 93.9 31.5 102.2 2.4 37.3 49 61.8 45.1 42.3-32.4 6.5-64.6 84.5-13 65 29 52.2-45.3 58.4-16.2 68.3-29v-32.5h58.5l-35.8-35.6 5.1-47.7 144.6-.9 91-16.2 71.6 19.4-6.5-38.8 58.6-3.3 136.7 61.3 102.8-7.9 151 33.6 97 13.4 56.1-1 18-10.9 40.2-24.2 97-58.3 81.1-71.6 50.1-89 89.4-193.7 88.1-216.3 21.7-163.3 36.7-49.4-5.8-120 10.8-59.4 9.8-53.5v-74.4l11.5-64.8 14.4-80.3-17.7-113-52-64.7-54.8-68.7-48.7-21.5-86.9 22.3-44.9-94.5 28.8-46.4-31.4-72.2-39-74.4-81.4-64.6-80.7-46.3-86.8-15.1-111.3 12.4-160-90.8-143.8 12-114.7-100.1-176.4-5.3-100.6 72.3-142 60.6-36.2-96-45.2-122.8 130.8-98h88l8.2-65 126-91.1 73.3-44 57.4-60.7-13.6-89.1 76.8-22.8 83.1-21.7 79.7-9.3 48.2-29.4 78.1-51.7 97.6-45.4 78 9.6 104.2-3.2 78-19.5 87.8-19.5 68.3-22.7 136.7-13 52-16.2 78.1-19.5 65.1 12.9 55.3 16.2 61.8 16 3.3 51.8 29.3 16.2 52-42.1 58.6 9.7-39 111.2-111.4 85.7 48.3 43.9 138.8 34 101.5 86.7 46.8 106.3 3.5 172.8 120.3 160.4 9.1 84.5-42.6 173.2-74.6 114-14.7 164.1-70.7 109-119.8 2.8-70.2 33.4 9.8 94.6 133.1 131.6 108 28.3 145 32.2 99.8 32 55.3 32.3 97.6 25.8 107.4 51.7 45.6 38.7 38.8 92.7-18 138.4-17.6 131.2 11.5 198.8 57.1 103-15 94.8 10.6 79.8 37.8 78.7 98.3 117.4 68.6 56.5 116 95.2 44 41 25.6 69.7 58 61.2 43.1 43 60.1 97 56.4 104.3 48.1 26.6 80.1 17.6 69.4-25.5 85.3-64.2 56-22.9 148-60.2 128.5-76.4 76.1-32.8 55-50.6-12-86.5-65.3-42-22.8-74.3-6.6-76.9 18.5-61.5 14.5-70.8 42.1-82.2 44-57.5 85.7 4 87 64 56.2 54.2 91.2 64.7v35.5l39.1 42 50 88.7 32.5 73 64.1 77.5 105.5 98.7 28.1 64.1-2.8 37.1-1.6 35.7-1.3 55.4 190.7 177.5 160.2 74.7 213.3 50.1 247.5 35.2 245.4 2.5 220.4-16 185.3-33.6 206.9-54.5 192.4-50.9 160.5-88.2 113.3-62 43-55.9-4.3-56.3-11.4-156.5 9.5-58.3 15.5-95.6 63-111.9 44.9-6 43.8 3.1 29.9-34.7 67.4-23.7 78-35.2 44 9 42.3 22.5 65-19.5 74.9-32.4 143-51.8 198.5-68 84.6-19.5 61.8-45.4 81.3-9.7 39.2-11.6 32.3-20.8 35.8-25.9 1.3-68.6 129.8 16.1 106.4 42.6 97.7 42 24.6 88 50.3 25.1 19.2 82.6 36.3 48.6 60.6 47.3 29.9 61.1 23.3 85 49.2 73 22.9 123 24 116.4-17.1 61.6 25.8 92.7 31 187-17.6 55 37.2 15.1 30 63.4 1.2 50.1-9 63 15.5 73.1 3.9 73.7 2.6 64 5.3 93.5 33.8 98.5 24.3 113.8 91.9 89.3 81.6-5.2 56.2 30 61.8 48.5 147.7 128 89.9 48.4 111-2 63.4-24.4 51.7-19.7 112-47.6 123-63 123.8-58.8 85.1-3.7 117.1-9.8 42.3-29 52.6-19.4 62 7.4 51.3 24.6 55.4 26 12.7 26 4.6 43.8 47.8-18.3 31.2 24 39 25.6 37.7-3.4 27.2 22.4-35.8 56.2-9.6 51 6 73 22.8 109.1 56.1 55.5 8.8 73-8.9 51.4-40.2 21.6 10.2 27.4 82.3-12.3-2.2 70.2 48.3 34-29.4 81.5 59.5-10.4-3 42.3-44.3 71.3-42.6 43-55.3 44.3-68.8 10.6-30.8-25.7-27.9-37.4-33.6-5-55.8 19-55.7 42.3-57.7 73-49.3 88.3 2 116.5 17.4 140.1 48.4 193.3 62.2 146.7 87 124.9 66.6 107.3 92.5 132.5 127.5 181.8 35.4 90.8 53.7 83.2 50.6 99 101.3 116.3 108.4 73.2 69.8 27.4 49.1-.2 54.1-4 53.5-22.5 50.4-38.7 37.8-39.2 52.1-20.2 39.7-4.1 37.6-29 38-35.8 31.2-38 58.7-30.3 67.2-14.1 39.2-6.7 37.1 7.2 25 18.6 50 17 63.5 14.3 63 30.2 67.8 22.6 9 50 46.5 36.5 9.8 23.3-21.9 48.9 18.4 38.3-20.8 51.8 22.2 32.9-12.7 105-11 74.2-12 55.6 7.2 31.8 28 43.7-7 9.7.3 6.9 22.6 6.6 9.6-12.5 12-4.8 33.7 17 49 77.2 24.4 45 9 52.8-13.2 28.8-56 48.5-23.6 17-29.4 88.7 2.5 52.7-89.5 62-66.5 9.8-35 63.3-76.3 44.5-55.3-4-57 79.6-66.7 104.3-39.7 53.8-.3 58.5 6 132.3 52 142 68.6 144.7 49.6 67.6 28.3 44.7 30.4 64.3 34.6 68.9 50.4 75.9 39.2 52.8 72.7 64.7 77.7 48 102 55.4 221.3 133.3 156.1 101.9 177.7 89 243.6 93.7 159.8 61 119.2 11.8 70.7-11 53.5-22.6 41.3-39.8-10.2-29.3 6.6-61.3 46.5-24.6 49.4-21.3 46.7-2.8 37 17.3 52.4 45.3 27.8 75.6-73.7 69.5 34 65.2 49.4 59 72.6 22 84-3.5 86.5-12.7 125.6-36.1 127.3-55.4 125.8-65.8 100.8-50.8 103.4-64.8 85.1-71 64.2-69 78.7-65.7 39.9-67.8 10.1-62-48.8-78.5-125.8-80.6-78.2-84-67-58.5-47.8-83.4-44.1-115.1 6.2-100.1 28-86 93-83.4 109.8-59.1 98.1-53.6 109.6-36.1 111.3-70.5 121.2-84.6 81.5-74.3 44.3-97.8 61.7-123.7 28.9-74 58.4-74.5 62-57 87.3-50.1 28.3-47.6 68-8.2 98.9 45.9 17.3 7.9 53.2-31.7 1.7-53.7 31.4-83 15.4-55.6 53.4-30.1 67.8-70.2 94.6-51 128.5-93.6 74-30.8 105.2-8.7 61.7 6.9 41.6-3 59.3-31.8 89.9-17.6 111.5-2.6 107.7 21 89.3 86.7 39.9 56.2 31.3 100.8-94.1 70.2-36.5 63.7-19.2-16-42.8 24.6-51 33.4-13.2 37-54.8 21.3-7.7 72.5 13.6 92.3 50.9 98 105.8 123.5 126.5 105.2 93.6 62.9 71.3 49.5 109.7 14.4 130-5.7 132.6-14 114-6.6 134.2 8.6 151.6 26.6 136.5 17 111.4-.8 108.9-24.6 95-59.1 44-28.3 49.5-10.2 103.8-20.1 117.5-69.4 82.2-54 97.8-41 191.5-74.6 149.8-84.7 62.4-65.7 90.2-108.1 51.7-123.4 11.8-100.4 41.8-159.2 17.8-169 47-98 68.3-109 92.4-95.3 88.3-101 133.7-163.6 96.4-122 79.3-95.4 75.6-146.1 94.7-152.8 56.6-64.5 82.1-37.2 27.3-40.8 54.3-63.3 85-81.7 76.7-104.4 49.3-91.4 16.4-112.5 4.4-161.7-11-132.2-16.7-126-21.3-175.2-36.3-174.3-42-164-12-213.6 72.6-161.3 73.3-90.6 56 17.4 32.2-39.8 39.2-42 72-20.5 83.8-28.5 84.6-47.3 46.7 4.5 32.8-64.9 57 24.3-5.9-86.6 7-14 31.4-63.3 95.6-85.7 51.8 25-18.4-46.2 24-22.9 38.7-10.4 20.4-69.2 71.2-95.4 64.6-36.2 56.3-70.9 55.7-8.6 27.7 34.1-13.7 140.6 76-25.3-10 93.8 46-53.7 36.2 16.2 10.7 44.3-12.4 64.4 36-21.6 33.2 19.1-33.3 70.1 42.6-11-6 66-39.8 78.5 5.4 87.4 17.2 123-34.7 101.2 21.2 46.4-30 57.1 12 99.6 24 93.6 62 67.5 77.5 55.1 94.4 35.5 67.5-46.3 52.8 23.5 42.3 19.4 49 55 29.2 42 9 44.1-22 55.2-26.2 53.8.1 64.2 43.4 45.4 54 20.4 66-20.8 67-22.2 82-17.6 93 28.6 46.1 28.8 44 33.3 53.6 8.1 79.7-18.5 53-30.7 45-53.3 41.6-76.2 86-115 105.4-110.2 115-52.9 87.8-9.8 70.4 21.1 60.6 8.1 57.7-4.5 77-.5 58.3 27.7 44.8 38.3-25.7-74.4 35.2-39 42.4-57 21.8-71.4-46.9-60.5-38-101.5 20.5-91 44-104 69.2-47.2 42 20.3 41 32.2 58.3 53 38 19.2-97.5 37.7-19.8 43 14.3 74.1 30.3 64 1.4 82.7-18.3 69-30.4 83.5 15.2 79.5-8 68.8.4 82 61.5 50.5 65 49.1 15.7 65.5 44 9.6 52.1 61.4 97.1 23.7 97.8 54.2 39.3 48 29.1 54-33.8 44.1-44.5 52.2-66.7 39.6-68.3 21.5-32.5 89.2-21.8 92.2-59.5 61.1-89 71.8-90.9 57.1-64.3 47.5-60.9 104.4-41.9 90.2-9.9 89.9-2.3 85.3-85.8 43.8-32 48.1-82.9 39.7-80.4 33.9-35.9 49.2-67.2 61.2 11.3 73.8 42.4 130.3 62.6 98.6 86.3 103.6 105.5 77.7 91.1 61.3 62 12.9 123.5-.1 104.2 29 120.9 14.3 111.1 10 78.5-8 77.7-40.4 20.9-41.7 7.4-95.3 10.5-133.4 51.5-113.7 43.5-97.2 4.8-98.3 33.9-73.6 64.3-96.2 61-76.8 98.1-50.5 68.8-25.2 46.8-28.6 33.6-66.5 45.9-64.3 90.5-16.1 67.9 4 42.2 35.7 32.2 22.1 9.7 20.4 91.3 19.5 131-45 133.5-48.8 88.5-48 69.4-51 46-53.7-14-66.5-28.1-121.2 106-23.3 85.2-19 85.6 3.2 93.2 23 77 35.9 60.5 73 5.8 8.2 46.4 66.1 13 71.1-22.3 75.5-23.1 17.1-35.5 5.5-34.5-13.9-45.6 6.3-75 26.3-78.1-4.5-124-54.3-27.4 37.3-15.4 48.2-32.2 100.1-5.8 101.3 5.8 99.9 42 108.3 41.6 123.7-50.3 56.8-87 78-1.3 50.2-43.5 63.5-65.2 97.8 7 61 40.5 84.7 45 60.7 71.7 122.9 81.4 93.7 84.8 103.3 94.4 100.2 81.4 80.8 91.2 60.3 100.9 60.2 115.2 44 102 26 58.7 7.5 63-2.7 51.6-18.1 32.5-22.7 44.6-19.7 35.6-22.8 63.4-49.5 78.8-44.3 64.7-35.6 54.3-58 54.2-77.8 28.2-31.1 8.6-74 70.4-49.6 35.9-18.8 53-145.3 16-50 13.2-83.4-39.4-188.2-45.2-135-27.2-106.3 30.9-55.2 52.9-42.9 91.7-48.3 75.4-31.6 87-25.1 86.6-25.7 94.3-44.3 46.6-19.8 23-71.3 30.8-39.4 70.7 26.5 40.7 28.7 34 38.4 32.8 49.2 71.6 58.2 53.9 33.4 37 44.6 21.9 58.5 19.6 110.5 52.4 126.4 52.8 133.9 45.8 130.9 39.8 92.9 14.4 90-9.8 90.8 32.6 91.6-3.7 122.5-34.4 134.8-15 98.6-23.2 80.6-81.2 95-44.1 83.9-55.4 125.7-88.3 189.2-47.2 178 41 74.8 73.9 101.2 96.8 106.5 76.9 76 104.3 60 91.8 43.4 90.2 24.6 110 3.2 138.6-1.7 130.5-18.7 99.2-36.4 61.4-31.7 33.3-37.3 10-56.1 21.3-51.4 17.6-68.4-12.6-49.5-15.8-52.5-4.8-16.2-10.8-65.7-25-56.7 6.3-45.7-13.1-42-37.6-79.1 41.4-67.4 70.2-36.1 48.8 35.8 39.5 8.2 100-29.3 60-30.6 63.5-61 162.4-38.3 140.5-33.2 75-76.3 114.2-82 88.1-88.1 30.5-30.5 128.3-131 76.4-115.4 83.3-71.3 68.4-61.7 46-68 14.7-82 54.3-44 32.8-77.2 7.4-95.3 33-50 48.3-17.7-20.3-79 39.8-47.1 116.3 46.5 53.2 32 35.5 34.4-10.8 65.4 56.7 41-14 52-41.3 100.5 56.4 36.9 28.4 54.2 48.7 44.4 11.1 27.7 5.1 91.9.4 133 12.1 163.2-44 61.7 51.7 11.4-1.2 52.8-56.7 45.7-61.9 62.5 27 37.9-71 53.7-23.8 71.6-36.6-8.3-55.5 41.2-20 107.3-49.8 57 23.6 131.6-16 55.8-16.9-39.4-34.8 70.8 13 59.5 13.8 94.7-3 78.4 61.7 36 52.4 44.9-11.8 44.9 54-9.1v45.3l33 10.3 55 87 21.3 65-17.6 84.8-31.2 104.8-10.9 79-56.4 49.2-60.7 81.4-40.2 84.8-55.6 100.7.3 79.4-37.3 48.7 6.4 77.7-35.2 71.9-74 152.2-51.5 89.2-64.8 17.2-30.3-45.3-45 39.5-118.4 73.4-51 72.6-60.2 69.2 6.4 60.5-73-17.4-11.9 39.8-84.9 20.4-87.3 41.7-39.2 70.8-8.4 76.3 28 98.5 58.5 90.5 13.2 74-5.6 119.3 4.3 155.3-14.7 93.6 5.8 69.2 6.1 105.2 12.7 103 17.6 83.4 12 94.5 13 171.5 3.6 145 20.8 136.5 34.2 131.3 12.2 121.5 10.4 153.1 57.1 91.1 17.2 75-15.8 15.2-10.2 61.1-31.5 67.8-60.3 53.5-36.6 48-53.6 59.7-55 51.8-22.9 66-37.8 76-46.7 81-17.2 28.1-27.9 17.3-51-26.4-74.8-11.6-22.9-42-22.7-35.6-15-50.4-50.3-23.3-35.5 72.8-39.3-23.7-58.4-1-28.7-30.7-53.2-55.3-68-14-7.1-65.7-21.4-72.9 23.2-43 21.4-26-42.1-40.9-16.8-33.5-11.8-23.3 38.8-73 5.7-74.6-52.2-103.4-73.6-102.4-47.8-25-44.8-18-55.3-71-56-81-89.4-120.8-120.6-84.7-59.7-26-95.4-6.4-87.8 7.8-101.4 16.2-145 54.8-97 33-159.6 49-111 23.4-123.5 6.6-94.4 22.8-94.3 35.7-208.1 126.3-19.5 38.8-65 55.1-65.1-12.9-29.2 110-68.2 42.1-58.6 22.7-39.1-29-91 74.4-149.5 220.1-58.5 71.2 13 32.4-13 42-6.3 45.3-97.6 87.5-52 9.7-9.8-48.5-42.3 6.5-81.4 29.2-195 107-205 136-71.4 61.5-188.7 35.8-436 123.4-136.6 13.1-130.1 32.4-175.7 68.1-136.6 16.3-84.6 39-81.3 77.7-273.1 171.7-322 165.2-130 77.8-130 116.6-78 58.2-107.5 55.2-52 55-48.7 77.7-64.9 148.8v71.2l13.1 55 32.6 74.3 16.4 74.4-9.7 74.3-35.8 64.8-71.5 45.3 29.3 61.5 78.2 35.4v29.2l45.6 35.5-35.7 93.8-52 6.6-61.8 51.8-123.7-19.3-25.9 84.1-9.7 110 3.4 164.9 6.7 119.7-32.5 106.8 45.7 93.7 13.1 84.1-19.5 48.5 6.6 119.7-45.5-6.4.1 122.9 42.3 32.3 42.5 197.2-32.4 58.3v58.2l35.8 22.6 42.3-9.8 13.2 119.7 75 42-78 93.9-32.6 29 13 61.5-45.5 9.8-22.8-45.3-110.7 26-32.5 51.8 3.4 77.6-48.8 16.3-39 32.3 22.8 42 52.1-6.5 88 90.5v77.6l-87.8 26-6.6-32.3-55.3-9.7-55.3 29.2-3.2 84-94.4.2-133.3 100.4-110.7-12.8.1 90.5-149.7-3.1-45.5 32.4-32.5 38.9-104 35.7-39 55-58.6 19.5v-45.3h-52.2l-55.2 93.9-97.5 71.2-13-61.4-39.2-32.3-29.3-51.7 13-142.4-42.5-42-68.4-32.3-71.6-48.4-71.6-9.6-68.4-119.6-62-113.2h-42.3l-45.6-35.5-9.8-61.4-35.9-55h-52l-29.3 32.5-48.8-3.2-39-64.7-6.7-71.1-52-87.3-29.5-74.4 22.7-42-19.6-55-3.4-158.5 38.5-100.5-55.8-84.3 5.3-84.8 39.5-72-11.6-75.6-111-100.2-118.7 16-66 46.2-88.7 34.5-35.2 24-31.4 21.4-52 65.6-20-28.3-26.8-38.1-46.8 74-4.8 63.4-73 4-111.7-53.5-72-72 4-117.3 52-49.8 4.1-79.3-79-74 11-120.7-39-109.9-52.3-97-94.9-74.7-109.6-46.9-96.9-8.9-150.8-38.7-160.7 15.5-288.6 61.6-357.5 138.3-130.8 43.7-261 113.4-396.1 201.1-143.7 167.4 51.6 55.7-48.5 56.3 16.4 99.4-82.6 41.2 8.9 87.3-96 89.8-27.1 119.9 4.7 99.8 13 152.7 16.6 193.8-43 298 38 96.3 22.3 49.4-90.7-19.3-162.5-39.1-87 1.4-65.2 27.7-68.4-35.5-75.2-114.4 46.4-19.2-20.2-57.2-104.3-160-70-65.5-156.4-2.8-117.2 65.9.9 57.3-36 59.8-28.5 147.9-18.7 174-22.7 264.2 45.4 87.3-51.3 81.6-17.2 90-19 55.4-38.8 43.2-76.8-25 6.9 126.8-38.3 122.2-35 46.7-71.6 44-66 16.5-72.3-89.4-129.6-124.5-18.7-168 35.4-27 2.5-33.6-28-55-32.6-42-13-74.4-101.5-171-115.3 25.9-122-77.8-43-114.4-73.4-224.4 16-70.6-23.3-58.6-57-29.1-31-64.8-29-106 112.7-38.4-217.3-16.6-75.8-2-101.4-67.8-10.7-57.1 31.8-29-82.8-4.6-83-141.7-20.2-81.8-7.3-48-58.2-11.6-195 56-205.9 71.4-201.7 68.6-180 71.8-155.6 91.2-41.1 36.5-5.3 90-21 67.6.6 81.5 20.2 39-9.4 36.4 15.8 14.7-2.6 45.6-24.9 12 1.2 51-28 13.9-24.6-30.5-44.9-65.7-35.8-6.5-4.2-24.4-21-19.8-14.4 3.5-27.9 6.8-19.9 26.9 4.4 42.5 22.2 27.7-1.5 36-72.4 144.7-62.4 83.2-16.8 118.6-47.6 74 31.8 43.4-.2 73.6-37.8 89.4-.9 85.6 14.2 76.9-10.7 76.8-53.3 16.5-53.2-55.1-111.6 109.8 29 62.6-32 43.4-67.3 28.5-68.7 58.5 2.8 188.5 15 38.8-31.2 133.3-41.6 63.5 14 152-20 55-45 22.5-26.2-16.6-38 37.3 43 53.7-57.2 13-31.7-17.7-32.5 22.9-41.8 2-65.6-52.8-72 16.7-53.6-44-33.4 9.7-39-25-41.9 18.9-14-28-76.7 36.4-43.3-22.8-4.5-13.1-28.7-13 55.1-67.5-66.8-31.8-62.6 22-3.3-42-65.9-14.4-70.4 21-73.8-.1-58.3-23.5-52.4-15.4 72.6-103-20-91.7-35.7-26.5-73.8 27.5v-31.6l-16.9-21.8-15.4-64.4h-47l-31.3 43.4-26.4-9.1.7-54.4-54.4-11.4-7.4-41.8-56.8 8-32.4 4-63-76.1 18-63.6 49.8-14.3 17.5-39.5-19.2-31.5-32.7-75 66.3-116.7 123.8-165-61.8-52.1-5.5-86-35.3-109.5-94.8-33.6-73.8-54.2-6.5-51.7-159.6-142.2-102.8-63.4-33.5 8.8-14.9-7.6-22.8-11.6-4.3-63.2-34.8-39.6-41.4 77.4-42.9 34.4-31-4 15.3-63 29.1-70.4-51.5-43.2-94.7 16.4 6.1-50 29.2-33.8-25-13.8-34.6 5 7.7-48.1-16.4-76-3.3-68.1-38.4-39-43.8-40.5 60.1-72.7-16.9-25.4-41.5 35.2-56.5-27-62.6-4.6-72-30.4 44.3-33.2 90.4-52-32.3-40.5-28.2-17.8-43.8-29-82.9-2.1-63.3-38.5 58.5-77.2 23.6-45.8-42.8-164.4-74.9-74.8-74.8 10.2-49.7-77.8-127.8 48.2-56-17.1-37.6-48-34.6-11.2-34.2-39.2 8.7-24.6-64.9-55.6-31 11.4-19.4-23 7.8-33.7 52-23-55-16.8-46.7-57.8-48.8-9.7-81.5-61.4-179-71-114.3-163.7-22-80.2-2-76-34-84.8-92.6-159-55.6-30-67.2 26.7-43.2-28.9-32 12.7-37.3-18.9 31.2-70.3-48.8-35.5-55.1-45.6-30-75.8 16-55.9-32.2-48-26.6-48-32.3-7.4-51.4 5.4-10.5-33.3-20-.7-32.3 9.1-14.6-15.6-.1-56 34.5-18.6 61.4-3.7-15.4-23.6-41.2-1-49.8-44.7-8.3-10.3-21.4-26.6 10.8-31.7-42.5-49.2-37-66 5-54-12.4-2.2 5.2-41.6-20-1 1.8-35.6 39.4-21.9 20.3-25 7.9-23.7-18.4-21.9 41.9-32.4 89.7-102.5 10.4-119-25.2-73-65.5-75.3-165-79.2-136.8-102.4-255.6-84.5-36.3 15.2-28.1 11.8-5.1 46-29.8 35.1-39.1 29-45.6-34.2-59-44.3-38 34.7-69.4-27.4-81.6 35.3-42.6-65.6-33.5-59.5-42.2-58.9-4.6-88.7-208.7-187.8-102.1-60.7-1-44.5-42.6-44.4-65.1-8-68 2.3-91.8-105-75-64.7-108.3-81.3-101.8-99.5-99-76.6-62.4-108.5-32.8-147.3-111.2-173.8-127.3-299-53-53.7-20.2-61.7 35.2-28-16-99.4 39.4-32.7-17.2-53.9 124-152.7 100.5-60.9 26.4-70.6 166.5-30.8 208.2 32.2 263.8 111.5-3.7 17.1 67.5 29 86.4 59.8 33.3 49.4 115.2 171.6-45.2 51.1-119.6 135 118.6 154.3 107 119.3 44.8-33.4 59.7 73.6-54.5 39.6 34.8 37.3 95 115.5 122 189.3-32.2 17.2 43.3 69.2-44.7 31 6.6 16.1 67-40.4 58 7.8 175.7-137.8 16.7 19.6 226.7-180.8-46.1-65 51.6-38.2-361.1-498.2-65.5 18.5-139.7-232.9 49.8-30.3-130.1-222.6zM3352.8 2543.3l-8.6-12.3-28.3-50-34.5-42.3-17.4-2.6-22.2 25.5-41.4 21.7-59.5 3.2-70.8-68.4-16.6-24-28.2-4.9-7-29-18.7-4.4-37.2 1.2-25.7-5.5-21.9-13.3-5.2-24.3-24.4-13-25.7-2-47.7-21.9-36.2 18-51.2-32.1-35 13 3-28.5-16.7-24.7-18.5-32-45-9.7-41.2 29.2-36.3 8.1-31.7 28.8-21.6-11.7-50 15.2-9.1-21.8-49.9-30-86.1-22.3-63.5 19.6-112.9-21.5-77.6 37.2-120 71.9-9.9 64.6-48.3 101.5-75-4-39.8-1.7-48 27.1-65-13.4-18-8.2-31 16-40.1 13.2 10.6 31.9-50.9 39.5-68.7 12.4-21-31 11.1-56.9-71.2 2.1-4.1-47.6-20.8 49.7-27.3 15.1-87.5 16.3-83.7 16.9-100 6-77-2.4-61.5-16.1-44.3 6 21.7-44.5-21.5-23-47 34.4-45.3 26.8-107.3-27-38.2-10-26-29.5-16.6-29.5 2.3-45.5 13.2-52.5 42.6-19.8-31-16.7 15-42.8 48.3 9.5 22.7-51.4-65.5-27-29.6-16.6 10.6-44.3 18.5-34.9 43.6-17.6-16-43.3 7.2-26.4 35.5-4.6-13.6-61.2-103.2 4.7-13.9-22.2 24.9-58.6 32-22 19-43.3 64.4 2 46-86.1 73.2-21-42.4-49.8 87-12.4 43.6-49.9 41.7-17.6-20-34.5-52.1-7.7-86.2-30.7-4.7-18.5 71.5-33.3 58.8-34.5-30.6-31.9-3.9-60 30-21.7 49-15.7 31.4 8 45.3 8 27 6.1 37.3-11.3 22.3-6.2 55.4 31.2 14.2-9.3-12.5-40.2 20.6-4.8 149.4 4.8 63-17.6 43-40.5 95.2-34.1 44.2 4.3 44.2 25.4 44.6 29 30 27.5 55.8-43.5 47.8-29.9-33.2-24.9-6.5-22 21.3-11.4 33.2 3.3 37.3-10.2 31-6.7 20.1 5.7 20.2 20.1-17.6 18-22.7 18.1 59 27.5 46.8-2.7 24.5-8.2 16-18 6.7-19.5-12.3-31.4 18.5-32.1 43.8-2.5 99.3-33.9 56.8-5 70-15.7 31.6-19.4 55-9.2 33.9 15 3.9 13.4 37.1 16 21-44.8 18.9-6 40.4 1.5 42.5 25 82.4 19.6 30 15.9 17.6 34.2 20.4 41.6 38.9 28-.8 61.5 35.3 79.2 56.6 35.2 68.6 8.9 60.3 36.9 27.2 37.4 20.6 23.7 57.1 17 53.7-30.4 46 44.6 3.5 34.3-35 6.7 23.7 47.9 28.3 14.2 45.1-27.6 5.6-42.1 41.1-28.3 46.9-29.5 121 16.8 24.2 46.3-17.5 57 20.6 12 41.8-29.7-13.6-25 29.9-24.6 34.5 9 37.8 26.6 43.6 2.4 49.3 85 91.1 48.6 39 59.3 51.8 34.8 32.3-35.9 65.8 17 18 40.1 14-26 33.3-13.1 36 32.3 64.1 23.2 57.2 9.8 38.6 15.7 23-44.6 48.6 28.5 38.3 28.4-6.8 60 38.8-6 40.5-32 36-14.7 55 21 36-13.8 40.4 3.7 48.4 14-4.5 33.7-51.3 27.8-60.4-16.3-29.8 13.7 20.5 54.7-6.4 32.8 27 39.3 99.8-48.9 129.7-13.5 53.7-18.8 107.7 18 50 17 29.8-10.5 18 12.5 18 26.2-.3-37.8 33.4 17.6 33.4 8.4-28.8 67.4 1.9 16.8 28.4-34.5 22.4 10 23.3 79.5-24 24.8 11.4 31-6 28.8-32.2 10.4-53.6 30 65.1-4.1 55.2-3.4 31 18.6 26.8 22 26.8 39 54 68.4-23.8 167.3-80.4 116-128.8 91.5-42.5 49.5-13 47.4 11.5 36.2 36.7 19.4-60.3 23.4-17.7 36.8 33.2 14 15.7 34.8 39.9 32-18.4 26-41.5-24.3-13.3 20.4 6.8 20.5 19.5 71.9-47.8 32.9-33 16.3-49.3-5.8-21.8-17.8-25.5 17.4 48.3 27.9-16.8 73-23.2 28.3-37.3 5.6-66.4-2.5-7.7-22.6-86.4 27.8-93.9 26.9-73.5 26.8-56.6-32.6-76.9-10-69.5 30.6-77.7-4-42.2-26.2-25.9-52.7-86.7 19.7-86.7 29.2-20.9-29.4-49.7 33.4-10 52.5-9.5 99.2-88-72.3 31.3 45.8-12.3 46.7-43-46-22 18.2 23.6 54.1-38 36.8 2 58.1-34.2 52.9-35.7-28-47.1 43.4-71-17.7-49.2 20.7-10.5 34.5 33.4 46.6 36.3 20.4 75.5-7.1-17.4 68 43 134.7 20.4 78.7-5 38.1-45.2 34.1 42.4 16.3 9.4 27-32.3 46.3-29.4 27.6 37.7 25.2-.3 37.2 14.5 44-4.3 53.7 21.3 58.9-20 18.7-33 14.6-4.8 46.2 11 40.6-15.4 10.3-21.7 12.7 1.2 35.6-5.5 46.2-41.8 27.6-40.6 17.1-16.1 16.9-18.8 39.2-31.7 23.5-64.5-10.6-10 17.7-37.4 13-35.3-39.8-21-19.4-24-15.1-8.7 29.7-25.6-5.1-30.5 14.8-63 9-43.3-19.6-19.7-27.8.8-34.6-34.6 5.7-48-17.7-14.6-15.1 10.6-29.5-81.7-17-3.9-24.5-45.4-20.6-16.5-31.5-22.2-15-40.2-4.8-35.5-17.7-14.4-24-33.6-34-15.2-29.3-11-39.3-6.6-81.8 16.8-57.5-7.8-22.4 57.5-49 15-51 71.3-46.8 15.8-58.5 9.3-64.6 79.8-68.7 50.3-50 50-4-13.8-46.3 10.6-15.3 30.3-19 30.8-5.3V3831l-17.7-15.4-7.8-34.1-33.8-18.8 23.6-36.7 44.5-22.1-41.8-53.2-53.3-36.8-14.7-42.3 30-24.7 23-32.7-15-31.6-17.4-30.1-14-68.6 42.4-55.4 15.5-36.6 8-24-26.8-18.6 75.9-44.5-5.8-26.2 23.5-17.4 70.5-9.9-7.8-64.8 32.4-27 53.8-21.8 39.1-79.2 22.8-30 16.2-21.4 38.8-50.5 15.3-64.5-5-75-7.6-53.7-15.4-32.5-25.6-34.6zm20228.8 10145.9-110.6 16.3-81.3 22.7-113.8 22.7-97.6 9.8-91.1 3.3-55.3 58.2-61.7 51.8-58.6 29.2-84.6 9.8-39 25.9-39 93.8-45.4 64.6-65.1 61.6-61.8-13-61.8 38.9-91 38.9h-123.6l-127-25.7-117.1-38.7-110.7-61.4-84.6-58.1-97.6-6.4-29.2 38.9h-65.1l-6.5-42-19.6-51.7-42.4-77.6-32.5-45.2 22.7-39-32.6-54.8-55.3-22.6-3.3-74.4 12.9-68v-80.8l32.5-64.6 45.5 6.4 16.2-97 10.5-59.5-10.6-53.7-9.8-77.6-.1-90.5 13-74.4 32.5-32.4 6.4-106.7-.1-103.5 16.3-84.1 32.4-71.1 48.8-48.5 58.5-42.1 52-.1 48.9-3.3 39-32.3 29.2-35.6 99.4-2.1 46-29.5 47.5-22.7 57.6-13.6 43-12 34.6-14.1-43.7-12-1.5-18 11.4-15.1 17.9-4.6 29.3-19.4-22.6-25.5 10.3-40.2 37.6-45.3 42.3-48.2 29-34.8 47.8-6.5 30.5-30 6.6-59.3 15.9-14 29 3 22.7-10.6 3.2-39.6 28-6.8 24-1.6 30 18.8 10.3 39-19 32.5 13 32.9 30.2 17.8 28-31.1 6.6-34.1 21.8-35.7 32-35.6 28-7.1 57.4-1.8 36.3 7.2 34.2 17.3 24.2 17.4 17-32.8 18.2-32.7-3.3-24.1 15.8-37.3 31.5-7 41-22.6 37-10.6 25.5 3 19.8-17.7 43.2.5-5.6-24.6 49.3-6.5 15.5 32.5 28-16.1-6.3-35.3 20-43.4 15.5-30.6 32.2-24.1 19.9-35.3 36.7-19.1 33.8-25.2 30.7-25.5-24.2-8.7 7.2-14.5 28-8.2 24.9-23.4 55.5-22.9 65.2-4.1 85.6-2.5 51 40.4 76 53.3 37.8 59.8 30.2 52.7 32.3-29.2 21.2-11.6-1.1-18.6 21-33 18 15.8 35.2-15.6 19.9 14.3-39.1 30.7 38-8 9.5 18.3 30.9-13.1 12.6-37.3 68.7-40.2 57.3-12.6 39.4-15.5 22.8-8.8 13.4-32.6 28.6-16.6 35.4-12.1 51 17.5 43 13.6 31 20.1h58.6l61.9 51.7 19.6 58 45.6 38.9 9.8 64.7-22.8 87.3-9.6 100.2v97l-22.6 103.5-45.5 97-32.5 45.4-16.3-77.6-39 93.8-11.7 120.4-14.4 71.4-44.8 68.4-35.5 88.7-62.4 113.6-29.7 106.8 3 53.5-20.5 17.7 15.2 36-20 35.4-32 59.5-12.3-7-28.5 36-6.2 28.2-25.4 13-28.5 16.2-7-24.6-5-41.7-20.4.9-11.1 36.9-25.4 27.7-22.5 49.5-21.7 60.9-7.4 46.7-21.5 25.9-21 2.8-8.4-26-37.7 26.7-7.7 25.3 3.5 46.6-25 12-14.4-2-18 11.6-19.5 21 15 26-85.8 77.6-78 77.7-58.5 71.2zm4859.7-2235.5-80.5-65.2-15.9-20.6 17-6.3-3.8-17.8-17.4-17.8-31.8-34.6-17.6-24.6-16-32.1 17-31.1 22.8-14 5-23.9-64.3 11.4-18.6-5.8 12.5-36.7-3.3-64.7 1-55.5-32.5-44.8-53.6-12.3-45-13.4-26.2-58.2 19.5-51.7 68.3 3.1h68.3l6.5-71.1-13.2-80.9 19.5-77.6 16.2-77.6 13-35.6 39-37.6 39.3-6.8 24.1-19.3 33.2-.5 24-19.4 12-25.3 4.1-19.8-23.2-12.2-27.5 10-26 17.2-10.6-17.7 24-25.2 17.6.3 17.6-8.9 37.1-10.3-1.7-17.1-22.4-38 1.3-36.5 5.1-14.7 15.8-8.7 27-30 35.6-15 29.7-19 11.4-19-6-32.8 29.2 4 23.1-21 8.3 30.6 10.2 4.4 22.3-35.5 39.2 6 55.5 8.5 65.4 17.5 38.6 32.9 45.5 28.5 52.1 35.6 59 55.7 16 37.2 8 28.3 14.7 27.4v17l19.3 6.5 24.1 6 21.7 19 13.2-105.8 39.5-42 12.1-43.2-33-26 68.1-32.8 40.4-15.8-7.3 45.6 39.2-3.3 68.3-51.8-43.5-29.4 35.5-37 21-30.3 15.6-11 5-16.9-17.3-39.1 24.8-16.5 32.8-25.3 28.4-11.7 30.7-2.6 28.1-3.7 9.6 24.6 22.3-6.1 13-14.8 22.9-18.9 22.9 18 23-40.7-19.2-26.1 11.1-29.2 27-23.5 17.2 25 17.3.7-16.5-60.4 20.7-51.5 25.2-36.4 31.6-18.5-41.4-19.2-1.1-35 2.4-33.6 16.1-32.2 52.4-36.6 37.8 12.6 24.2 30-16.5 39.1 12.5 49 47.7 12 29.3 21 36.8 3.2 33.9 39.5 2.5-56.9 1.7-44 29.4-21.5 13.7 56.8 19.8 24.4 25.3-.2-1.5-31.9-25.6-32-5.6-35.4 23.8-30.1 29.2 2 12.5-18.4 2.5-28.3-8.7-38.4 8.6-18 38 30.4 26.1 23 26.2.5 28.7 19.1 17.8 5-16-53.5 23.2 4.3 17.5 32.6-2.4 29.6-22.9 16.7 11.9 30.2 5.2 24.3 18.7 13.7 20 11.3 10.9 11.2-8.6 11.2-23.6-3.1-5.3 24 45.5-.4 33.4 7 24.9 20.7 16.6 26 8.8 32.5 28.1-9.2 10.4-34.1 28.6 5.1 25.5.9 17.9-23.3 28.7 5.3 34.8-22 45.8-10.3 27.6-31.6 49.4 13 12.5-16.8 29.2-.3 48.3 5.8 16-28.7 21.2-1.4 32 19.7 34.9-28.4 22.8 12.3 21.3-5.8 34 7.4 30.5 28.3-32.2 4.7-11 22.1 2.4 20 15.3 20.5 24.6 16.6 9.5 15.6-18.7 22.5-22 26.8.3 19 10.2 22.8-13.3 48.8-21 2.8-20.8-44.3-4.3 45.7 17 43.5 18.4 31.9 1.7 31.8-8.4 33.6 9.9 33.6-6.5 35-14.1 20.4-16 20-29.1-10-2 16.3 22.4 15.4-6 13.1-40.5 3.7 27.7 29.6 27.7 14.5-9.1 19.2-51.7 8.3-32 32.3-20.4 32.1-21.2 9.5 8.5 35.8-21.7 16.3-52.1-38.8-19.3-47.7-37.6-17.5-47.7 2.7-25.6 23.6-39 4.3-31-25.3-31-15.4-28.7 16.4-46.1 16.5-32.8-29.6-36.7-19.8-35.4 20.3-45.9 25-29.3-7.9-33.4-28-44-13.7-34.3 9.7-34.3-.8-52.8 2.3-16.2 21.2-12.5 49.3-8 41-6.4 46-15.5 46-25.4-17-24 7.8-24.8 32.8-8 37.2-33 25.1-37.9 52.7-52.6 53.1-71.1-57.5-51.9 24.2-86.5-17.3-82.4-45.2-89.5-7.3-113 55.8-67 36-77.4 58.8-63.4 58-56.5 56.5-41.3 47.2-43.9 53.7-61.4 57.5-13.5 27-10.5 39.2-6.6 31.6-20.3 18.1 2 21.7-20.2 2.2-11.3 14.8 4.7 23.6 5.3 39.2-14.3 30.2-15.4 9.6-26 9.5 1.2 22.1-15.9.4-15 25-21-16.6-11.7 13.8 1.3 22.1-30.7 36.6-12.6 29.3-6.7 27.2-25.7-20.5-34.7 33.2-28.3 27-44.4 14.7-28.8 20.5zm14673.9 7361-46.5-8.3-11.5 26.5-38-35-16.2 44.4-21.8-.7-17.8-14-40.8-3.7-32.1-31.2-40.6-18.9-51.1-19.7-65.6-14.5-45.7-11.3-41.7-13.3-37.4.3-41.6 3-28.5 9.7-31.1 19.3-8.6 50-32.6 46-31 41.6-45.8 38.2 2.5-39.6 8.5-59-13.8-69.2-2.6-60.3 5-61.2 1.6-76.8 22.4-82.5 25.7-83.8 2-53.6 38.2-45.4 38.7-68.6-3.5-39.5 52.5-7 48.9-72.5 55.4-70.4 126.6-58.5 75.4-42.7-2.2-25-67.1-.3-66.6-8 17.3-20.7 48 12.5 5.2-20 30.8-21 39.2-13.9 39.3 5 21.3-25.7 46.5-18.8 23.2-.9 14.6-19.6 44.6-.9 2.5 25-25.2 23.6 15.6 22 40.2-20.5 11.2-13.7 22.2-4.5 17 11.6 12 18.3 8.6-8.2-9.5-21 11.5-36.8 70.7 16.4 29.3 16.6-29.5 24.4-28.8 37 39.4-21.5 25.7-.2 26 26.2 43.9-23 31.8-17 9.6-27 23.2-16.5 21 31 52.3 20.3 21.6 28.2 36.4 18.1 32.2 19-8.6 29 21.3 45 21.2 51-34.1 48.6 34.7 32 7.5 43.8 8 44.1-6.8 29.6 34.7-14.5 28.8-10.3 26.8 22.4 13.9-27.8 24.3-5.2 14.8 39 1 40.7-9 42-36 5-24.8 7.6 7.2 19.1 21.6 1 21.4 18.8 2.7 18.7-5.4 21.1 22.9 32.6-36 31.8 42-12.5 17.6 6.5-4.5 31.2 11.4 66.2-15.4 16.5 5 57-14.4 15.6-32-3.8-12.5-19-31-1-28.8-7.7-30.5-31.4-59.7 27-41.8-7.9-15 18.2.3 20.2-24.5 2.3-33.8-1.9-59 18.2-29 2-20.1 1-20.3-13.4-29.5-5.2-22.6 12.7-34.6 27-45.7 32.2-38.6 26.2-21.2 42.5zM38199 36211l-87.9-19.3-107.4-6.4-114-71-104.2-51.7-42.4-103.4-16.3-64.7 65-64.8 6.4-80.8-87.9-74.4-107.5-71-120.4-58-65.2-55-81.4-97-58.7-80.8-88-135.8-32.6-84 42.2-64.8 78.1-55h97.6l58.6-16.3v-71.1l-16.5-84.1 32.5-45.3 81.4-.1 81.4 32.3-32.5 77.6-42.2 74.5-6.5 55 97.7 25.6 91.2 58.1 55.3 55 23 97 58.6 87.3 16.3 90.6 55.5 113.1.1 106.7 52.2 110 45.6 106.7-45.5 42 32.6 45.3 88 116.4 88 77.5zM14287 2524.3l78 16.1 104 29 62 45.3 29.3 45.2 68.3 45.2 78 38.8 71.7 38.7 61.8 6.4 52 38.8 61.9 32.3 32.5 19.4 29.2-45.3 65-19.5 75 13 87.7 45.1 39.1 32.3 81.3 6.4h97.6l52 25.8 45.6 35.5 6.5 51.7-25.9 51.8-61.8 48.5-117 19.5-52 22.7-78.2-3.2-74.8-58.1-45.6-32.4-52-6.4-45.6 38.9-58.4 35.6-39 32.3-22.8 45.3 32.6 19.4 32.6 58.1-9.8 42-65 26-32.6-19.4-58.5 22.7-61.8 26-48.8-16.3h-26l-22.7 35.6-84.6 42.1-61.8.1-55.3-6.4-48.8 16.2-61.8-19.4-22.8-45.2 32.5-22.7 58.5-13 16.3-32.3-61.8-12.9-42.4-77.6-29.3-77.6-3.3-74.3 19.5-67.9 55.3-32.4-19.6-61.4-39.1-48.5 13-61.4 22.7-35.6-32.5-45.2-52.1-25.9-29.3-55 19.5-80.7zm20785.6 5347.1 61.7-45.3 52.1-19.5 48.8-6.5v-48.5l71.5-16.3 58.5 22.6h52.1l52-48.6 48.8 9.7 45.6 19.3 81.3 12.9 32.5-26 29.3-51.7 48.7-9.7 71.6 32.2 45.6 6.5 13 54.9 36 74.3 35.8 77.6-19.5 58.2-65-19.3-110.7-77.5v29.1l88 74.3v51.7l35.7 48.5 10 51.7-22.9 42 10 51.8 26 58.2-13 55-26 55-61.8 29-29.2 45.4 13 22.6-29.2 74.4-3.2 38.8-61.8 22.7-29.3-42-9.8-42-42.3-25.9-117.2-51.6-84.6-29-39-55-55.4-41.9-61.9-32.3-68.3-9.6-94.4-12.8-58.5-13-71.5-54.8-23-51.8 6.6-80.8 48.8-32.4 94.2 6.4 75 58.1 52 58.2-29.4-106.7-52-77.5-49-61.4zm-21508.9 9305.8-8.7 8.8-22.7 7-13.6 8-17.7-.6-17.7-15.9-12.7-7-8.4-1.5-6.1-10.4-9.3-18-10.1-11.4v-11.3l11-7.4-2.2-6.5-6.5-6.4-12.4-5.2-9.2 1-4.3 5-10.8-4-12.4-1.5-7-6-4.8-10.6-11.3-3-13.4-14.5-1.5-14.4 8-2.7.9-5.6 9-13 5.9-3.3 3.6-6.2 5.4-5.8 5.7-.4 2.2-3-5.1-3.2-27.2-1.3-5.1-4.9-8.1-.5-5.4 7.4-.7 10.1-3.1 3.4-5.8-6.4-7.3-6.3-4.8.6-4.8-1.9-.7-6.2-.2-6.3-5-6.7-8.5-4.3-7.1-5.4-1.1-5 2-4.3-1.5-4.3-4.4 5.5-4.8 1.5-12.4-20.2-3.6-12.9-9.3-10.2 8.4-13.8-3-12.3-5.5-15.7.2-24 8.9-19.6 7.5-3.7 6.9-13.8 14-3 17-8.8 14-.9 13.2-8.5 8.9-4.5 6.3-22.2 17.2-9 10.3 1.5 14.2-5 10.4 2.5 10.4-5.4 5-10.6 13-5.9 13.4-23.5 13-31.9 48.6-10.8 18.5-10.2 19.2-1.3 10.8 4.2 16.4-3.7h12.6l15-10.8 6.6 4 9.9 5.8 6.4-9 11.5-2.8 9.5 7 8.8.2 17.7 10.5-2.1 8.2-21.6 7.2 10.5 8.1 19.5-3.7 20.3 1 7.8 4.2-6.7 5.2-13.6 7.5-11.5 2.8 10.4 9 8.7-4.8 8.7 4 5.4 11.7 16.8 3.6 7-7 8.5 3.5 3.4 14.7 13.2-2.8 20.2.7.9 10 9.3-6.6 5.6 12 8.3 4 5.3 12 6 2.5 11.2-2 5.5 6.3-8 9.8 7.3 14.7 8 2.7-2.7 9.1 6 5.1 13-.9 7.3 13.1 14 4.8 11.7-.4 3-13.4 6.8-3.5 2 16.4-.2 11.3 2.4 11.4 1 11.5-14.2 1.5-1.6 10.3-9.2-1.2-5.8 7.5 2 7.8.3 10.4-14.3 12.7.2 8.1 17.2-8.6 18.2-9 9.7 8-1.5 15.6 5 6.6 14 .8 6 15.2-12.3 21.1.2 17 12.8 16.4-2.3 21.6-10.7 9.2 3.5 15.6-11-1.7-5 8.3-3.5 11.1 2.8 16.4 9.7 2 5.3 12.7-5.8 6.4-12.8-.2-11.4-4.6-2.1 3.7 10.4 4 5.5 5.1-1 8.4 7.9 9.5 3.8 16.2-7.3 8.5-2.3 14.5 9.2-1.2 5.2 2.3.2 8.3-13.4 3.3-1.8 3.4h6.5l9.5 4-5 13.4-6.1 12-13 7.4-11.5 3.5-9.3-.4-5 4 12 2.6 14.8-3.4 6.8 2.4-1 9.8-6.5 14.8-4.4 9.3-10 3.4-12.6-2.9-14-11-11.7-11.7v17.4l-5.1 7-12.6 1.7-10.4-4.5-6.8-8-4.7-3.6-3.3-9.6-1.6-9.2 1.7-9.2 4.8-14.8-6.5-8.4-1.4-11.4 3-10-2.6-9.7-6.5-1-3.6 13.7-6.5 4.2-11 8.5-14.7-9.4-22-2 6.2-8-7-5.2-3.6-9.9-13.6-5.3-23.7-4.6-16.5 1-13 7-11 12.5-9.6 4.6-25-15.3-6.5 8.5-11.7 8.3-16-11.3zM35524 6965.6l55.2 29 32.6 32.3 45.6 68-6.4 61.3-29.3 45.3 32.6 51.7-35.8 19.5-74.8 35.6 16.3 45.3 26.1 58.1-22.7 58.3 9.8 38.7 19.6 48.5-19.4 87.3-110.7.2-35.8-45.3-42.3-6.4h-91l-78.2-38.6-16.3-61.5-55.3-35.5-26-25.8 55.1-84.1 35.7-84.1 42.3-42.1-16.3-48.5-3.4-58.2 68.4-26 39-25.8 42.2-68 61.8-16.2zM16606.4 2939.7l-39-54.9-19.6-71.1 29.2-58.2 61.8-45.3 42.2-32.4 65.1-58.2h74.8l35.8 25.8 45.5-19.5 55.3 29 .1 77.7-26 48.5-13 48.5 6.5 77.6 45.6 9.7 6.5-58.2 22.7-58.3 65.1 38.8v51.7l71.5-32.4 42.3-19.4 35.8 71.1-3 58.2-74.9 45.3-65 26h-65l-94.5 3.3-68.3-29-87.8-19.4-84.6-19.3zM35809 9083.1l-74.9.1-35.7-9.6-65-61.4-49-58.2-84.7-80.7-35.8-45.3 29.3-19.4h52l35.7-48.6 35.8-42 58.5-6.5 32.6-22.7 52 35.5 45.6 51.7 52.2 74.3 35.8 87.3.1 80.8-35.7 48.5zm2034.7 27342.5 26-38.9 22.8-16.2 48.8 6.5 29.3-3.3 65.1-32.4 61.8-3.3 55.3 32.2 16.4 48.6 78.1 77.5 49 13 58.5 22.5 36 64.6 6.4 35.6-71.6.1-58.6-16h-87.9l-84.6-19.4-107.4-45-107.5-61.5zM19602.1 24626.5l-11.9 31 2.8 26.4 8.5 36.7 10.2 18.5-1.2 29.9 11.1 37 22.1 26.2-5.6 29.9-15.6 19.2 5.7 18.5-9 13.2-30.8 27-8.7 22.6-28.2 16.7-29.4 19.9-9.5 18.5-13.9 17-23.4-1.2-16.6 20.2-29.5 4.8-30.4-15.2-26.4-15.9-11-25.2 9.7-18.2 35-.8 8-7.5-25.6-32.2-22.8-1.8-13.5-83.4 5.2-40 7.1-37.5 9.8-37.6 11.5-57.5 21.5-36.1 21.8-4.3 1.8-15.1 33.3-35.7 15.7 4.6 11.3-9.6 21.2 9 19.8 1.9 22.8-16 26.8-2 22.8 26.7zM44467 15651.7l-52.6 40.3-23.5-7-23.5-15.5-10.3 18.4 29.2 24.6-25.2 39.4-45 16.6-46.2 31.6-53.6-44.6-27.7 23.5-21.6-45.9-11 4-9 12.3-10.5 28-15 35.7-40.2-82 45.8-44.9 41.9-34.3 36.6-25.2 52-19.7-1.2-51.3-70-30.4 6.4-35.6 39.4 1.4 51.8-5.8 16.2 43.2 31.7-25.7 6.5 26-19.5 31.1 27.5 27 31.5-9.4 36.7 28-50.8 10.5 21.9 19.4 58.9 2.4zm-31165.6 10659 14.4-36.2 40.2-21.6 88.6 27.8 37.6-3 1.3-26.9-21.8-54.8-35-24.6 16.6-37.4 40.7 16.6 26.6-60.5 49.3 12 11.7 59.6 15.2 55.7 4.4 76.6-29.1 44.4-32 38-12 31.8-22.2 26.5-44.8-1-25.1 10.7-24.7-19-24.3-24.6-21.6-26.7-9-23.4-17.4-19.4zm-455.7-9158.5-6.1 17.2 5.3 19.4 20.4 15.7 19.8 9-22.6 14.2-16.5 16-8.7 17.1-49 3.3-25-8.3-19.7 1.5-48-24.4-21-31v-13.5l8.4-11 20-2.6 17.4-8.6 10 10.6 17.9 1 16.8-5.6 1.5-17.7 6.4-13.4-14.5-8.6-20.6-20.7-15.8-36.4-3.4-29.8 25-28.5 41.9-21.3 33-9.3 49.8-2h32.8l22 7.5 8.6 22.7.5 37-13.5-1-10.4-10.5-16 5.8.2 17.2-12.2 20.5-10.4 19.7 1.6 29.3zM40542 31285.6l101.6 96.2-186.7 172.6-27.1-35.8 98.9-136.7zm-19198.1-3649.3-4.5 3.3h-8.3l-14.4-12.9-6.8 5.4-1.4 18.1-12.6-6.7-8.6-10.2-16-4-15.7-.9-11.5-5.2-11-13.8-6.2-16.8-17.5-13-1-7 13.2-5.2-14.6-7.5-2.6-13.9 14.8-1-2.5-6.8 7.6-2.7 31.5 13-18.1-16-10.1-7.4-.6-5.8 11-6.7 8.2-7.9-6.8-10.8-1.1-10.7 9-9.7 15.9 5 10.4 6.8 25 7.3 22.4 16.8 22.4 11.2 10.2 6.5 11.4 16.6 14.8.4 10.9 7.4 6 11.2-7.6 5.6-5.7 14-31.3 3-2.2 10.8 17.3 7 10.2-1.9 12 9 24.7 2.8 20.3 7.2 5.8 6.3-4 5 6.8 2-11.6 7.8 1.2 11-8 7.6-12.4-1.2-5.2-8-7.4.5-2.7 9-3.7 5-9.7-9.7-14.8-4.4-6.5 8-7.8-3.3-4.5-12.5zm-1959.2-2279.7-16.2-9.2-10.3-30.5-5.8-26 .8-29.3-6.3-23.4.3-19.8 24-17.8 33.5 2.1 7.7-12.8-17.3-31.3 22 .5 23 9.1 24.1 16.8 3.8 14.7-16.7 6.6 21.4 4 17.4 28 17.4 17.4.2 23.2 11.3 32.3 26.2 29.2-26.5 10.1-21 5.7-28 11.2-29 .5zm1591 1744.8 18.5-16 31.3-3 7.8-19.2 8.3-8.9 23.8 8.7 25.8-5 24.2 12.4 2 22.6 8.6 10.1 18.8 2.4 18.2 22.6-15.8 7.4 22.4 10 3.6 13.7 20 13.8 1.3 14.4-13.5.4-6.7-15-21.6 2-.1 13.3-24-8.3-20.8-2.2-9 14.7v15.2l-2 18.3-32.1-2.7-29.1 3-14.1-8.4 1.9-11.6 14.4-15.3-9.5-9.6-7.2-6-11.2-4-13.2 13.5-9.5-12.5-3.6-21-1.2-14.8 4.9-8.8-10-7.8zm18984.8 5798.9 114.9 24.5 38.4 105.2-81 44.9-94.7-105.2zm-27200.9-15913-19.5 13.1-30 9-20.1-19.6-14.5-35.6-13.2-1.8-5.1-17-14-9-2.8-13.6 7.4-8.8 10.6-.8 4.3-13.4 12.2-8.6 16.6-4.3 6.5-11.4 13.8 1.3 24.9 11.1 16.5 11.6 28-.8 21 12 1 23-14.6 36.3-21.1 1.2-18 8.4 9.4 9.1zm767.9 336 10.4 14.1 8.7 23 19.8 24.2 3.6 26.8-8 20.5-17.7 23-8.3 19.4-19.1 11.7-15.5-6.4-12.7-19-.3-23.9-27.7-8-16.5-24.5-3.8-25.8 25.9-8.6.5-17.2 11.4-21.5zm29927.4 18709.4 78.2 91-6.4 28.5-103.5-64zm-22775.9-9462 19.8-9 15.2-6.3 15 2.5 14.4 6.4 10.9-3.2 13 19.7 4 7.5 17 7.5 8.8 16.7 5.4 17-14.8 6.2-11.3 9.6-22.1-2.6-20.4-13.2-21-25.6 1.8-16.2-11-9-10.1 6.5zm-1021-1201.2-11.2 12.7-13.2-20.4-4.1-23.2-8.1-16-17-16.3-11.8-11-5.9-17.3 11.9-12.9 15.7 4.5-1.8-15.5 27.3 4.1 5.6 19.1 11.4 22 12.9 29.4-8.7 21.1zm20908.8 5755 45 26.8-38.2 56-63.1-40.3zm-2962.5 1473.7 63.1-11.2 9.1 82.8-67.6 24.7zm5687.6 3622.3 44.6 45.8-35.8 30.2-37.5-54.6z"/></g></svg>