<svg xmlns="http://www.w3.org/2000/svg" width="1280" height="1103.4" fill="currentColor" baseProfile="tiny" viewBox="0 0 4000 3448"><title>Qt SVG Document</title><desc>Generated with Qt</desc><g fill-rule="evenodd" stroke-linecap="square" stroke-linejoin="bevel" font-family="MS Shell Dlg 2" font-size="34.4" font-weight="400"><path fill="none" d="M0 0h4000v3448H0z"/><path d="m1325.3 2300.7-17.7-8.3.8.2-10.3-4.6-7-4-7.2-3-6-3.4v.3l-2.1-1-1.2-.7v-.1l-1-.7-1.2-1.3-4.5-3-5.2-3.2-2.4-1.8-.4-1 .6-1 2.2-.8-.4-2-.5-1-1-1.2-.9-.4-.6-1-.5-.6-1-.4-1-.1-1.1.2-.5.7 1.3 1.2.5.9v.6l-.5.4-1.7-.7-.8-.7-.8-.9-.5-1.2v-1.2l.2-1.2.3-1.2.3-1 .4-1 1-.6.1-1.1.7-1.4 1.1-1.3 1.8-1.1 1.6-1 2-.8 1.4-1 1.2-.8 1-.4 1.5.4 2.4 1.2h1.3l4.9-1.9 2-.5 2-.8 2.1-.6 4-1.2 7.8-1.7 2.6-.7 4.6-1.4 12.5-2 3-1.1 5-.9 3.7-1.6 1.6-1.4.7-2.4v-3.2l.8-.2 1.5 2.8 8.1-1.5 3.1-.4 2.3-.9-1.8-3.7.6-1h1l3.1 5.7 3.6-.4 4.2-1.7 2.3-2 .9-2.4-.4-1-2.2.1-1-2 3-1 1.8 4.8 7.3-4.3 3.8-1.2.9 1.4 3-1.5.3-1.4 3-1.7 5.5-2.3 1.9.3 1.6-.8 4.3-1.4 6.3-3.5-1.5-3-.5-3 .6-2.2 1.1-1.7 2.1-1.8 3.1-.9 3.2-.8 2.3-.1 4.3-1.5 20.1-10.6 2.9-2.6 8.6-9.7.5-2 .2-2 3.6-2.7 8.5-8.3 7.3-9.4 1.8-3.2 1.6-2.6.7-2.5.2-2.1-.4-1 .6-.9-1.4-1 .5-1 1.7-1.8 8-9 1.4-5.2 2-7.7-2.1-1.8-5.5-3.5-4.3-2.7-5.7-3.4-1.7-1.6-1.7-2-2.5-5.3-.4-3.5.2-5.5.7-3.5-.8-2.5 1-2.2 1.8-.8 2-2.9 1.2-1.2 1.3-1.2v-.9l-1.9-1.8-10.3-7.1-4.7-2v-1.6l1.7-1.7 11.1 7.7 1.3.1 2 .8 1.4-1.4 2.8-.1 10.5-3.7 7-6.4 11.5-11.3 10.4-9.7 5.5-3.3 5.8-1.1 2.3-7 18.7-20.2.4-.4 3.7-5.6.5-.9 9.6-14 17-25 13.5-25.8 1.3-2.6 1-6.2 1.2-11 2-8.8-.8-2 .6-5.1-1-4.2-1.5-1.3-1-3.9-2.4-3.4-1-4.2.8-4.1v-4l-.6-1.8-1.5-1-.2-1.2-.6-1.4-1.8-1-1.4.2-1-.3.5-2.9-1.5-1.9-3.3-2.5-2-.4-2.1-2.4-3-4.1-10.6-4.2-6.9-2.7-5-2-2.2-.9-1.7-1-1.6-1.8-1-1.7-1.8-3.5-2.1-4.8-2.5-4.6-2.6-4.3-2.3-3.5-.8.5-11.8-15.9-3.5-6.7-18.2 9-1.7-3.5-5.2 3.2-2.3 1.2-1.7.5-1.4-.1-1.2-1-.6-1.7.1-1.4.7-1 6.7-4 5.3-2.2 7.8-3.2 7.4-3.6-1.2-1.4 1.7-2.6.5-1.2.8-1.7.7-2.3-3.8-2-1.1-2 .5-4.1 1.6-1.7.3-3-2.2-2-1.8 1-1.3.5 3-4-.7-1.5-.4-1.2-1.7-2.3-1-.7-1.1-1-3 2.4-.5-.7.3-1.8-.7-2.8.5-2.7-.6-.8-1 .5-1-4.4-.7-1.7.7-1.6-1.2-.4-1 .7h-.5l-.1-1 1.2-.8.3-.8-.6-.2-1.2.1-.5-.6h-.5l-.2 1.4-1.7.8-.7-.2-.2-.7 1.3-2 2-4.3 1.7-2.4 1.2-1.1-.6-.6 1.4-1 1-1.7.8-.1-.2-1.1 1.3-2.2 1.6-1.5.8-1 .7-.2 1.3-1.7.6-.4.7.3 1.1-.5-.6 1.7 1.3-1 1.3-.7 1.3.7 3.4-3.5 1.6-3.2.9-.4.5.4.8-.2.6-.5 1-.1.7.8 1.1-1.1 2-.9 2 .4.5 1.2 2.3-.4-2.6-2.6.8-.5h1.2l.7.8 1.7 3 .8-.8.6-1-2-2v-.5l1-.2v-1.1l1.3-1.3 3-1.7.6.4v1l1 .7.8-2.1 2.3-.4 1.2.6 1.3 2 .5-.8 1.3-.9 1.4-.3 1.4.5 1.7 1.4 2-.6 1.6 1 2.6-2.4 2.8.3 1.6-1.6 2.2-1.6 1.3 1.5 1.5.6 6.8-5.4 13.6-10.9 8.3-8 3.9-6.4 2.3-6.1.2-1 .6-3.1-.2-4.2 1.2-3.4-.5-8.4v-2.4l.2-2.5.7-2.5 1.1-2.4 2-2.1 2.9-1.4 4-1.4 6.8-2.1 5.8-2 3.4-1.8 3.1-2.1 5.7-4 4.2-3.8 12.5-6.6 2.8-1.4 2.3-2.7 1-2.2v-1.8l-4.4-11.7v-2l-1.2-1.6.7-2 4-3.7 5-1.4 3.2-3.4 2.4.2 6-3.2 7.4.2 12.5 10.9 7.4.6 6.6-3.8 5.7-4.9 9.2-10.4 9.6-10.9 4.5-6.7 2-4.2.8-2 1.2-6.8-2-7.7.6-2.9-1.2-1.4 1.5-4.6-1-1.7 1.4-1.3.8-3.3 3-1.1 1.8-4.6.4-1.4-1.8-1.5 2-.3 1.8-4.7-.7-1.4 1.5-2.1-2-.2 2.2-2.7-.3-4.3-1.4-2.6-3.3-1.4.8-2-.6-2.5-2.1.8 2.9-1.1.4-1.2-.1-6.8-1.1-3.7-2.4-2.6-2.4-1-.8-3.7-2.4-.3.3-1.8-2.2-3.3-3.1-2.3-4.9-.6.2-1.2-3-1.6-.6-2.8-1.2-1 4.7-3.3 2.4-.3 1.3-1.7 1.1 1.4.3-2.5 1.9-.5 3.8 1.5 1.4.2 13.7 3.3h5.6l8.6-2 12.2-6 11.4-5.2 1-6.3.7-3.9-1.3-3.4.3-6 1.5-5-1-14.2.7-5.2 2-5.3 1.7 2.3 2 .2 4.2-1.9 2.6 1.3 10-4.4 6.1-5.5 1.4-3.3.5-6.3 3.7-4.1 5.2-3.5 8.3-3.6 4 .6 4.9 2.4 1.7 2-.3 2-1.8 2.5-1.7 2.6-2.6 3.7-1.4 4.5.4 2.1 1.9 4 4.8 3.7 4.5 2.8 2.1 1.5 2.8 2.7 4.2 1.6 4.2 3 .1 3.5 2 .3.7 2 1.4-.1 1.4 1.8 4.3 1.5 3.4 4.8 1.8.3-.4 1.1 1 1.4 2.2 1.3 1.6-.3.3 1.2-1.5 1.7 1.3 1.7 3.1 1 2 .5 2.2 2.1.9.4.8 1.2-.4 2.4.7 1 .7.5 3.4.6 12.6 3 1.6.4 29.1 5.3 42.9 1.4 19.7-1.4 31.8-5 20.7-6.5 23.1-16.5 25.3-21 29.5-32.2 13.8-15.5 28.7-36.2 13.6-28.7 2.9-9 .3-1 .8-4.8-.6-7-1.7-5.4-2.3-2.4-1.9-.5-3.7 1.1-2.7 2.9-8-5-1.4-2.5 2.5-3.7 8.1-3.8 4.7-5 9.6-33.5v-5l-1.7-3.4-9.5-9.3-2-13.6.5-2.7 2.2-3 11-10.5 5.6-13.2-2.2-9.5-.6-14.7-1.8-5.7 1.7-8-1-7-2.6-3.5-.8-14.4 5.2-13.6 2.3-22.3 5.4-13.5-1-3.1 1.3-3 15.5-7 4 .9 6.6-3.2 3.3-.1 4.4 2.4 6.3 1.6 8.4-.2.5 1.2-1.7 1.9 8.9 1-1 4 1 2.5 8 7.2 10.1 3.3 7.6 4.2 1.3-.8 1.3-3.4 5.4-2.2.5.5-3.1 3 2.6 2 1.4-3 3.1-1.4.6.2-2.4 3 1.8 1.4 2.5.8 2.8-2.5 5 2.6.5 2 3 1.1 3.8 3.4 5.5 10.8 4.9 4.8 8.8 5 10.4 3.6h4.7l4.8-4.8.3-2 8.4-3.8 2-2.5 3.3 1.3 4.7-2.8 6 .8 11.9 12.1 5.5 7.3 11.1 24.7 8.8 16.6 6.6 2.3 6.6.4 17.1-2.6 15-5.2 17.2-9 12-10.3 3.4-5.8.7-3-2.3-4.6-2.6-3-.7-2.9-3.2-2.2-4.6-1-.7-1.1 2-.1 5.2 1.3-2.5-5.4-4-8.3-20.5-48-.4-5.4 3.4-5.6 1.2-6.2 3.6-6.7.8-19 1.7-1.9 2 2.3 8-2.1v-5.5l1-.5.6 1.5 2-.5 6.8-3.2 4.4-4.7 2-10.5.8-14.4 2.5-10.2-2.6-1.4 4.8-2.4-.9-1.5 7.8.3 6.3 3.3 5.6-5 .7 1.2-2 3.7 2.5 1.3 3.7-4 7.8-3.4 4.3 1.7 2.8 3 7-1.2 12.3 4.2 2-.2 1.2-2.1 4 2 4.3-.6.7 1.5 5.6.3 14.9-3.6 4.7-2.7 3.3.2 9.7-3.8.8-2.3 3.3-1 2.6 1.2 1.2 3.2 3.2-1.3 1 2.3 7.4 5.4 2.7 6.9 2.8 3.7 5.4 1 12.3-.6 10.5-2.2 8.6-4.9 2-4.4-.6-8.6-1.7-4.6.3-2.3 1.4-1.2h2l2.5 1.8 2.1 4.6 6 1.9 28.1-1.4 10.5-4.1 21-14.8 10.4-2.5h9.7l8.3 3 71 33.4 13.4 13.2 7.3 4.4 18.7-.8 16.6-4.6 2 2.8 5.3-1.1 3.4 3.6.3 1.2-2.2 2.5-5.6 2.2.6 4.1-5 6.1 2.3 3.4-3.6 6-15 14.6-2.8 5.3 2 19.5 1.4 38.3-1.6 22.2 8.2 29.3-.3 6.2-3 15 .4 10 8.9 17.3 1 15.4 2 6.9 3 6.4 6.8 8.3 10.2 7 4.6 1.3 14-4 6.7.6 1.4 2h5l2.4 9.6v13.8l4.8 12.6-.7 3.5-2.2 4-10.8 10.3-8.2 11-7 15.2-4.6 4.3-7 3.3-5.7.7-5.7-.5-4.7-1-9.3-4.4-11.8-1.8-7.2-7.2-6.7-1.9-.3-1.6 3.4-7.5-1.3-5.6-4-2.3-11.2-2-12.5 3.6-9 6-8 3.4-4.7 4.1-16.4 16.5-1.5 3.6-3 6.9-1.9 3.8-8.2 19.6.7 21.5 2.5 7.7 1.7 6.7 3.3 4 2.6-1.7 3 3.4 8.3 2.8 1.5-1.5 1.5-.3.8.8-.6 1.2 1.5 3.3 2.8 3.8 17.4 14.2 7.8 8.6 4.4 3.3 2.1 3.1 2.3 7.1-1 6 .6 6.4-1.1 3.6-3.3 2.8-5.8 1.4-4 3.4-10 31.9.3 3.8 2.4 6 9.3 11.8-2.3 12.8-5 11.4 1.7 11 1.7 3.4-2 1.6-7 1-3.5 2-3.4.9-1 .3-1.7 1.7-1.3.7-.6.7-.5 2.4 1.5 6v5.1l.5 5.2 1.4 10.4 1.3 12.8.6 4.5 1.4 6.4 1.1 4.3 3.5 12.3 1.2 4.4 2.7 7.1 4.4 13 3 6.3 1.8 4.6.7 2.7 3 5 3.5 6.3 1.8 3.5 1.7 3.3 2.6 5.5 3 4 3.8 6 3.6 5.8 5 8.3 5.7 5.6 2.8 5.2 3.5 2.8 5.5 7.2 5.7 6.9 15 17.7 4.7 4.8 6.8 8.2 9.3 9.2 17.3 12.7 20.9 13 10.2 6.8 12.9 8 9.2 6.6 9.9 9.8 6 5.3 6 5 18.7 14.3 5.7 4.3 6.8 3.5 4.2 2.2 1.3.5 3.5 1 2 .4 3-.5 5.5-2.8 5-3.8 4.4-4.5.4-1.7 1.2-1.5 2-.6 4.1-.7 4.7-2.2 4.5-2 4-1.4 5.4.4 3.3 2.2v1.6l-13.5 17-16 12.4-8.3 7.3-4.6 6.8-1.4.4-3 5.3-4 8.4-2.1 2.6-2.2 2.1.1 1.4-1.3 3.1-1.1 1.4-1.4 3.7-2.2 3.6-5.5 11.5-6.3 9.3-1.2 6-1.7 5.6-2.8 8.2-.7 4.2-1.5 4.4-1 1.8-.4.6v3.3l-.3 2-2 7.7-2.5 6.3-3.6 4.4-2.7.7-2-1.2-2.3-3-2-4.4v-7.7l1.4-14.9-.7-3.7-3.8-3-4-2.8-14.4-4.4-14.2 1.2-8 4.5-8.5 5.8-12.4 10-4.3 3.8-2.4 2.1-5.5 5.6-9.4 16-5.5 11.1-2 6.5-4.9 5.4-11 19.5-1 5-1.7 7.4-1.3 9.7-.7 7.8.3 4.4 1.6 10.7 5.5 18.4 15.3 18 5.4 7.7 15.9 17.6 13.1 9.5 10.7 7.6 4.8 6.8 3.5 3.1 2.8 11-1.7 6 5.2 11.4-6 7-4.2 3.8-5.5-3.3-9.6-2-3.7-3.2-4.5-2.2h-11.2l-2.2 1.3h-4.4l-4.3-5.8-7.4-4.7-10.6-9.6 1.3-10.5-5.3-.2-2-4.4-4.7.2-3.7-4-.6-2.9-1.2-5.2 6-3.6 3.2.6 12.7 11.7 3.8 2.8 3.2.6-7-6.6-3.2-8-4.3-3.6-5-14.5-3.3-8.2-2-4-13.9-40-1.5-10.4-1.3-8.6-.6-3.7 1.6-15.8 2.5-17.3 2.1-10 .2-5-3-4.3-1.5-6 .7-5 4.7-6.7 1.7-5-.6-1.9-3.2-6.1 1.3-6 2-1.5 2-4.4 3.3-3.7 1.7-3.2 1.5-.8.6-2.6 1.5-3.2 2.6-2.2 1.3-1 1.4-2.7v-.6l-.2-2.1-1.2-.5-1.8 1.3-2.7-.8-1.7 1.4h-1l-1-1.2-.9.1-1.4.5-1.3.2-1.9-.5-3.3.8-3 .5-7.2.4-2.2-.3-2.2 1-2-.4-1.5-.7-2-.2-1.2 1.1-2.4 1.2-.8 1.4-.5 1.5-1.3 1h-2.3l-2.5.9.8 1.6-.3 2-2.4.8-2.2 1.6.4 1.2h1.6l1.2 1-.2 1.8-1.9 1.5-3.3 3 .3 2.7-6.7 11.3-5 8.1-2 6-6.5 4.9-4.7 8.4.1 1.3 1.6.5-2.8 5.8-12.7 9.3-5.4 3.2-10 8-4.2 4-27.1 13.7-12.4 5-14.2 7.3-16.3 3.2-17.8 2.9-9.5 11.3-2.3 6.4-1.7 10.4-4 13.7-2.7 7.6-.6 4.9.7 3.8 3.3 5.3-9 11-3.8 1.7-2.5 2.8-6.7 8.8-2.1 6.2-1.4 1.8-.8 1.8-3.7 6.8-2.1 4-1.3 3.2-.2.5-.7 2.4-2 2.7-2.8 2.2-2.5 2.2-1.6 2.3 1.7-.8 2-1.7 1.8-2.1 1.2.5 1.7 5.2 2.3 2h1.8l.6-1-2.6-2.7-1.8-5.8 3.6-8.4 3.5-5.6 2.3-4.8 7.4-6.6 3.7-3.2 3-1.7 5.7-8.6 2.8-4 2.7-3.5 3.8-3.6 9.7-3.9 6.3-.9 5.6-3.3 6.2 1.7 5.9 1.6 12.7 3.4-.8 4.1 7 5.2h.1l2.5-1.3 1.5-.9 2.6 1.7.1 2 .2 4.2 1 2.3.5 1 2.4 2.2.4-1.7 2.7 2.9 2 .4 2.7-.2 5-4 4.9-2.6 10-3.8 12.5 1.3 9-1.3 14.7.2 3.8 3.7 3.4 6 5.4 3.6 5.4-4 9.4 9 3.9 1.5 2 3.9 9.1 3.4 2.2 2.5 2.1 1.1 12.1 5.5 7.8 6.5 6.2 5.3.8 7.5-.3 4.6 7.3-1.3 5.1-.2 8.3.5 5.1 3.7 2.6 4.6 12.3 4 4.2 1 4.8 2.8 3.3 2.9 3.6 2.8 1.3-3.4-2.7-12-5.7-2.9 1.2-7.7 5.3-1.1 4.1.4 4.3 5.7 6.8 2 7.2 3.7 4.3.2 2.3-1.5 1.5-1 1 .6.2 1.5-.1 2-2.2 2.6-3.1 3.4-1.5-.8-3-4-3.7-3.2-4.4.3-1.1 2-1.7 1.1-1.4 1.5-1.4 2.3-2 5.3.1 1.1.2 1.1 1.5.3 1.2-.4.6-1.5.7-3 1.3-2.4 1.5-1.9 2-1 2.3 1.4 3.5 1.6 4.3 2.1-.5 4.5.8 2-1.4 1.3 1.7 1.8 1.7-.7h2l4.2-3v-1.2l.5-1.2 1-1-.9-.8-1.8 1h-1.8l-1-1.2-.7-2 .3-2 3.2-3.6-.3-2 .7-2.2-.8-2 .8-2.2 4-1.3 4.7 4.2 6.8 4.5 20.4-10.3 7.2-5.8h2.7l16.4 7.5 9 .1 10.6-3.6 2.8 1.3 7 9 4 12.2 4.3 6.1 3.6 8.8-1 7.2-3 12.1-2.2 8.4-.5 4.1 2.8-.8-2 4.6-4.3 3-5-1-5.6-.1-10.5 9.2-4 3.7-.7 3.7 1.8.6-.8.9-3.2-.4-4.4 6.7-2.2 10-.2 10.3 2.8 14.2 10.9 24 .7 1 10.3 14 10.5 7.8 3.8 4 2 1.8 3 1.6 3 2.5 2.6 5.9 2.6 7.4 2.9 1.5 4.8 5 3.7 6.8-.1 1.4-3.5 2.4-.6 1.6 1.5 3.4 5 2.8.2 3.8 2.7 1 2.7 8.3-.4 5.3 1.2 2.2-1.6 4.8 6.1 5.9 1.5 4.7-1.7 4.8.8 5-4.3 4.3-3.6 12.8-3.5 5-12.8 4.5-18.8-3.3-4.6-1.8-6.9-5.7-1.1-1.9-2.3-3.7.7-5.1 2-2.6 2.8-3.6 3-5.7v-2.8l1.4-5.4-3-3.3-9.8-5.9-9.5.4-4.3 1.6-1.4 2.3-3.7 2-2 .5-1.3 1-2 1.8-1.8 1.2-3.5 1.7-3.7 1.9-2 .5-2.2-2-2.6-6.6 1.8-.6v-.2l-.2-.3-3.2-10 4.4-1.5-.6-1.3-.1-.3.9-.4-1.7-3.3-2.3-3.6-2-2-.8.7-13.4-6.4-4.4-1.2h-3.2l-.8.6-4.3-1.2.4-.8-2.8-1.1-6.7-2.1-3.4-.3-3.4.7-3.5-.8-9-2-.6-.2-25.6 15.4-28.5-3.3-11.5-1.2-59.9-24.3-84.9 59.6-31 12-29.2-8.6-144-65.6-70.5 47.7-10-6-25.6-19.8-5.6-3.3-23.3-17.3-10.8-8.3-7.6-5.6-1.4.2-15.2-11.6-20.7-16.6-10.1-7.7-6.5-4.5-18.9-13.9-9-7.1-5.4-4-8.7-4.9-6.3-3.8-6.3-3-6.2-3.5-5.5-3.3-15.2-9.8-3.4-2-11.1-5.9-3-1.8-10.2-6.7-2-1.5-5.1-4.3-1.8-1.2-5-2.7-1-1.4-.5-.3-2.2-.9-2.4-.4-6.2-.4-3.3-.7-4.2-1-3.2-.5-5.5.2-3.4.3-3.3.9-5.7 2-6.1 1.9-2.2 1-2.5 1.5-1.8.6-3.6.7-1.4.4-1.3.7-1.2 1-3.8 3.9-2.3 1.7-1.8 1-2.9 1.3-3.7 1.1-3.8.8-3.8.5-26.8 1.4-33.5 2-4.6.8-4.7.1-6.1-.5-6-1-6-1.6-5.8-1.8-12-4.4-11.8-3.4-15.4-4.3-5.2-1-10-1.5-4.7-1.3h-1.2l-2 .5-2 1.2-1.5 1.4-1.2 1.8-2.9 4.5-1.5 1.9-3.4 3.6-2.3 3-1.2 2-.8 1.9-2 6-1.2 2.2.3 4.7-5 1.7-.7 1.5-.1.6.6 2.6.7 4.7.2 2.2v3l-.7 1.3-1 1.5-.5.8-1 1-1.6 2-.5.7-2.5 3-2.9 3.3-5.5 7.8-2.3 3-2 2.2-5.5 4.6-1.7 1.7-2.9 2.8-6.8 5.6-3.2 4.4-5.4 7.4-4 8.2-5.8 20.8-23.4 15.2-105.6 12.6-41.4 30.8-4.2 3-26.7 105.8-21.8 24.9-26.2 4.7-29.8 12.8-64 4.6-21.7 8.3-13.3 5.4-10 2.9-12.1 4-16.4 5.5-14.6 4.4-20 5.8-4.3 1.4-.5 1.4-1-1.5-1.8-1.9-.6-2.9-1.7-.6-5-5.7-1-5.3-5.2-6-19.2-15.8-13.3-8-11.2-3.8-5.8.5-6.2-1.8-4.2.5-4.5.9-4.7 3-17 5.2-7.4-1.3-5.6-6-8.3.5-9.3-.4-12.8-3-7.1-5.4-3.9-3.4-1.2-3.2-1.7-6.6-2.4-8-.8-16.2 5.5-15.6 1-18.8 14.2-9.4h8.9l12.3 11.2 5.3 5 9.6 15.5 8 8.6 20.9 7.1 10.3 1.3 9.8-.4 1.4-2.3 4.3-.2 1.5-4-.7-10.8-2.4-3.1v-9.3l-1.1-6.8 1.7-3.3 1-5 1.1-15 1.7-7 4.6-9.3 5.3-9.7 4.2-10.7.2-11.9 1.6-15.9 3.5-17.9 5.5-13 10.6-8.2 15-21.2.6-2.6-1-3.2.2-1.2.7-1.2-.2-.8.6-2 .2-2.4-1.4-5.2.2-.8-.9-1.6-.8-11.1-.6-.4-3.4 2.7-1.1-.3-1-1v-1.1l1.4-1.2v-.6l.6-.8.9-6.2 2-.3 2.3-.6-.3-.9-1.6-.6-1.2-2v-1.4l2.4-5.1-.9-.2v-.9l.2-1.8v-2h-.4l-.3-.7-1.2-.2-.4-.8v-1.2l1.2-1 1.4-.7-.1-.9-.6-.5-.2-1.8.4-1.9.9-2 1.3-1.9 3.1.7.5-1-1-.5 1-2.2h.6l.8-.7-.2-.7.6-1 .4-1.5.4-2.2-1.9-1 5.9-12 5-7 2.8-8 .3-2.6 8.4-8.2 1-.2-.6-1.7 1.4-1.7-1.5-1.5-1.7 1.7-7.9-7.5 1.5-2.3 6.8 4.3 3.8-7-10.4-11.5-6.6 6v2l-6 5.1-.1 1.6-.5 1-6.4 2.7-.6 2-15.3 6.8 2.3 6-7.8 7.1-5.4-5.8-.7.7.8 1-.4.4.4.4-9 8.5-6.6 5.8-1-.9-1.5 1.5.8 1-7.6 7.1 5.3 4.1-7.2 11.6-2.7-1.9-.8 1.2 2.4 2-5.6 9-9.8 14-16.3 10.3-1.8-.7-4.1-6.9-4.9-7-3.6-4.2-1.3-3.8-.1-2.7-2.4-4.4h-3.5l-6.3 7.1.2.2-.7.6-2.3-1.6-.4.3 2.2 2-.8.8 2.2 2.5-.5.3 1.4 1.9 9 6 4.5 3.4 2.4 2.6 1 3.1-1.4 1.2-1.4-1-2.5.3z"/><path d="m1323.6 2315 1.7 1.8-.4 2-1.1 2-1.8 2.8-2.7 3.9-1 1.6-.6 2.4-3.3 4.5-.9 1.2-.4-.4-1 1-.5 1-1 2.3.5 2.5-1 1.2-1.8 1.8-1.8-1.1-2 .4-1.5 1.5h-2l-2-2.2-1.4-.2v1.6l.5 1-2.8 3.3-1.4-3-1.7-1-3.5-3-1.2-.5-1.6-1.6-1.3 1.3 1.1 2.1.7.7.4 1-.2.8-2 2-.8.2-2.6-3-.8-.5-.6.5.4.4.1.3-.3.4-.6-.6-.2.3v.5l.7.8-.1.3.3.3-1.1 1.4-.2.3-.8-.3-2 2.1-1.1-.7-1.2-.9-1.3.8.7 1.2-.1.8-.7.7-.2.3.8 2-2.2 2-1-1.5-.8.5-1.8 1.5-.4-.6-.5-.7-3.2 2.9.4 1-.7.8-.7-.5-.7.5 1 1.5-.6.5-.2.2-2.3 1.6.2.3-1.5 1.2-.3-.3-2.3 1.7-1.7-3-1 .8.8 1.4.2.7-1.5 1-1.8-.5-.5.3-.5-.5-1.7.8-1.2 1.5-.4 2.2-3.1 1.7-.6-1-1.9-.7-1.8.1-.8.5h-1.3l-1-.6-.3-.4-.6-.2-1.8.3-1.5 1-.6 1-.9.3-1.3 1.4-1.7.5-1 .6-.8.3-4.7.7-.6-.3-.1-1.6-.5.7-.6.9-.6 1-.9.8-.8.4-1.6.2-2.3-.5h-1.4l-2.5-.3-1.8-.2h-1.4v2.4l-2-.1-.2-1.8-3 .1-.8-1.5-.4-1.2-1.2-1.5-4.4.3-1.2 1.2-.8.4.2.4-1.4.6-.5-1.3-.9.6-1 3-.4.3-2.2.4h-1l-1-.4-1.1-1.2-.8.3-.4.6-1.5.8h-.8l-.7.6-.7.4h-2.5l-.4-.3-.8-2.5-1.6-1.6-.9-.2-.5.6-1 .3-1-.4-.8-1-1-.6-.8-.3-2 .9-1 .9-.7 2.6-.7.8-1.8-.2-13.4-4.2h-1l-1.3-.2-1.2-.5-.2-.2-1-1.1-2.7-2.5-2.2-1.4-1.2-1.4-1.6-1-3.4-.7-2.3-2.2-5.7-2.8-5.8-.3-3.3.5-2-.2-1.4.3-2 .4-1.7.1-.4-.3-.4-.7-.8-.3-.7.4-.2.7-.5.5-.8.4-1-.6-.5-1-1.1-1.4-2-1-1.4-1.6-1.3-1.8-2-1.2-2-.5-1.1.4-1 1-1 1.4-.7.4-.3.5-.1.9-.2.7-.5.5-1.3.5-.4.7v1l-.4.8-1.2.6h-1.6l-1.8-.4-2-1-1-1.3-1-1.7-.8-.3h-.9l-.4.4-.5.5h-.7l-.4-.5-.9-1.3-1.1-2.2-4-.9-3-.8-4.4-3-4.4-1.8-4.1-1-3.4-1.7-3 .9-1.8-.1-3.2 2.3-1.7.7-5.6 2.3-5.7 3.4-5.6 4.9-2.2 3.8-3.2 3.8-4.3 4.6-4.6 3.3-5.7 3.6-4.5 1.9-5.8 1.5-5.6.8-4.9.4-3.6-.9-2.2-1.3-1.2-1.7-3.2-2.9-1.9-2.8-2-2.7-1.4-2.2-2-1.3-.5-1-1-1.2.2-.8.8-1.2 2.6-.2 2.6 1.5 2.4.8 2.2-.3 1.6-1 1.7-2 1.4-2.6 1.4-2.2 2-1.1 3-3 2.9-2.2 3.4-3.1 3.1-2 3.1-2.2 4.4-3.4.7-1.4.4-2.2.7-2.4.3-1.3-.2-1.3-.5-1.3-.7-1-1.5-.5-1.4-1.9-1.4-.5-1.6-1.9-2.4-1.8-3.6-1.8-1-1.2-2-1.2-1.5-.5-1.7-.3-.7.3-.9-.2-2-.9-2.7-1-2.3-1.2-2.2-.5-3.4-.6-1.4-.3-1.2.1-.8.7-.8.4-1.2.1-.9.6h-1.3l-.8-.6-1.6-.7-1.5-1.2-2.2-1.1-3.4-1.6-3.6-1.2-3.1-.8-3.3-.5-1.8-.5-1-.8-2.5-.9-2.4-.5-.4-.6-.2.4-2.4-1.5.6-1.1-.8-.8-1-.5-1.3-.3-.8.2-.3-.1-.4-.2.1-.9-.2-.8-.9-1-1.2-1-1.6-.8-2.5-.4-1-.3-1.6-.8-2-.5-2.2-.2-2.5-.6-3.1-1-3-.9-.5-.2-1.9-.8-.5-.2-.7-.2-1.6.2h-.8l-1-.6-1.3-2.1-1.1-.8-1-1.7-1.3-1.4-2.4-1.8-1.4-1.3-.5-1-.2-.5-.2-.7.3-1.3-.6-1.5-1.4-1.2-1.5-.8-.3-.4.1-.9-2.7-2.2-3.4-2.2-2-.2-1 .3-.4.2-.6.3-.4-.2-.4-.2.4-.7-.2-.7-4-4.2-1.7-1.8-2-1.4-2.4-.8-2.1-.4-2.3.2-.3.2-.8.2h-.7l-1.4-.8-.3-.7v-.6l.6-.4.1-.6-.2-1.2-.7-1.1-1.4-1-.7-.1-.5-.1-.1-.4-.3-.4-.2-1.3.3-1-1.7-1.9-1.6-1-1.4-1.3-2.6-1.3-3.5-1.6-1.8-.5-1.6-.1-2.1.1-1.7-1.4-.7-1 .4-1-3.4-4-6-6.5-27.1-23.7-14.9-24-13.8-14.7-9.4-9.3-2.4-3-2.6-4.3-3.2-3-1.4-1.4-2.2-.9-1-.5-3.4-3.1-2-2-2.4-.2-2.4.3-5 1.4-4 1.6-3.7 1.9-3 2.3-4.4 1.8-2.2 1.6-3 1.8-2.7 2-4.7 3.7-3 4-4.6 3.7-8.6 5.4v.8l.3 1.1v1.6l-.5.9-5.4 4.2-.9.6-.4-.4-.2-.6 4-2.9-.2-.4.9-.7.1.2.6-.8.1-1-.5-1-1.2-.4-2.4.4-3.2 1.5h-1.3l-2 .5-2.4-2.4-1.7.4-1.6 1.4-1 2.5 1.9 2.9v1l-.2 1.3-2.3 4.1-.4.7-1.2-.3v-.8l2.7-4.3-.7-.1h-1.4l-4 .4-2.3 2.1-1.4 1.5-3 3.1-1.3-1.4-.3.2-.3.2 2 2.8-.2.4-1-.5-1.7-.3-1.7.5.1.9-2.7 2.4h-1l-2.3 1.9h-.2l.5 2.3-.9 2-9.5 5.3-11.9 8-17.9 5.5-6.2 7.7.4.8-.1.2-1.6-.2-.9 1.7-4.5 12.2-3 8.6v1.5l-.2 1-1.9 2.5-2.7 1.5-2.5 4.4-.8.6-2.2-.2-1.7.2-2.7 1.2-.6.1-.8-.2.1.6-2.6.9-1-.7.3-.5-2.4-1.5.5-.7-2.6-1.4-.4.6-1.4-.9.4-.6-3.2-2.2-.9 1.7-4.2-3-.5-3.8H554l.2 2.6-3.2-3.7-2.3 1.8 2.3 2.6-1-.2-1-.7-1 1.2.3.5-.4.7-.3.9-.1.9.2 1 .6.5 2.5 1 8.7 3.9.6-.3.5.7.6.5h.4l6.6 2.6h.6l.6.3.4.8v.8l-.6.4-.6.3-1.9-.7-3.2-1.1-1.5.5h-.8l-.7.5-1.4 1v1.6l.1.8.4.8.3 1.3.4.7 1.6-1 .5 1 3.4-2.1.4.7 1-.7h.2l1.5 3-2.5.8-2.2 4.6-.7 6.5 3.8 3.6 1.2 2.7-1.6 4.3-13.5 12.4-15.8 9.3-11.2 5.8-4.2.9-2.1-1-5.7 8.7-.6 1-1.1.1-.5-.7.3-.8 4.4-6 1-3.2-5-2.1-6.2-1.2-8 .3-8 3.4-5.2-1.8-7.4-3-2.3.7-2.3 1.8-1 1 1 1.2 1 1.6-3.3.1-4.4 8.6-.1 2.1.8 2.6-.5 1.8-1.5 1.3-2.5 1.4-1.6 7.7.2 14.9 4.6 42.4-3 20.6h-11.1l-30.7-.9-51.3 23.2-11.1.5-14.5 4-3.9 4.6-1.4 3-1.7-.2-1.4-1.5-1.7.5h-1l-3.8-.5-3.2-.2-1.3-.3-2.2-1-2.7-.5-.7-.4-1-.7-1.7-2-2-3.2-1.7-2-.4-.8-.5-2.2-.2-3 .3-1.5.5-1.5 5.3-11 .8-1 3.4-1.5 2-1.9.5-.3-1.9-.2 4.2-2.5 2.2.1 2.1-.4 4.2-3 2.6-2.6 1-2.2-7.9-13-10.1-17.8-.9-1.1-.7-.7-3.6-2.4-3.4-3-4-3.9-8.7-9.5-2.8-2.7-3-2.6-3-2.3-3-2.2-14.2-8.9-9.1-5.3-6.7-3.6-2.7-1.5-9.4-4.8-9.6-4.6-30.3-14-12.8-5.8-13-5.6-6.4-2.7-9-3.4-26-8.2-16-4.7-7.1-2-7.2-1.6-7.3-1.5-36.5-6.6-7.3-1.6-7.2-1.7-3.8-1.1-3.6-1.6-3.3-2-3-2.5-1.4-1.4-2.2-3-.8-1.4-.7-1.6-.3-1.6-.1-1.7.1-1.3.4-1.2 1-2.1 1.6-1.8 3.6-3.5 1.1-1.3 2-2.8 2.4-3.9 1.5-3 14-27.9 7.7-5.2 2.4-.6 4.7-1 2.4-.6 1.5-.6 33.8-25.3 8.2-6 2.6-2 2.9-2.8 3.1-3.3 8.8-10.5 12.5-14.3 1.6-2.3 15.6-31 .5-1.8.1-2-.4-5.5-.1-4.1-.2-1.4-.5-1.6-6.5-14.3-.8-1-.6-.3-.6.2-1 1-.5.2-3-1-1.4-1-1-.1-2-.1-.6-.3-1-.7-2-2.2-1.4-1.1-.7-.3h-2.8l-.4-.2-1.7-1.5-2.4-1.2-1.1-.7-.8-1-.2-1.1.5-1.4v-.8l-.2-1.5v-.6l.3-.6.5-.4 1.5-1 .3-.4v-1.9l-.4-1.5 1.8-1.2.8.1.9 2.8 1.7 1.5 2.1-.9 1-1 .7-1.2-.6-1.3-1-1 .4-2.1 1-1.7 1.6-2.6.3-.9-.3-3 .4-1 .9-1 1.2-.9 3.4-1.8.2-.4.4-1.1.2-.5 1.2-.9 5.6-2.6 1.2-.3-.1 1.3-.8.2 1-.2 1.1.2 2 .7h1.4l.6-.2.9-1 .5-.3.7.1.5.4.6 1.6.5.4.7.1 3.2-.8h1l2 .6 1 .1 1-.2 1.5-.5 2.8-1.4 1.6-1.2.3-.5.4-1.2.3-.4 1.4-.7 5.5-1.3 3.1-1.8 3.8-1.3.9-1 1.6-.7 1.3-.1.9-.2h.8l2.3.8 1 .2h.8l2.6-.5.8-.3.6-.4.2-1.2 2.2-1.3 2-.3.8-1 .9.6.6-.2.8-2.1 1-.9 1.6-.1v1.6l1 1.4 1 .2h1.1l1 .2 5.4-.2.9-1-.4-.7v-.9l.4-.9 1.4-.1 2-.8 1.6 1 1.3 1h.8l1-.3.3-1 2.8-1.1 1.6-.2 2.3.1.9-1.1 1.2-1 1.8 1.4 1-1 1.4-.7 1.7 1.1 1.8-.8.1-2.5 1.5-.4 1.2 1.2 1.8-1 1.1-1.1 2.5.8.7.2 2.6-.6 2.6.4 2.5 1.6 1.2.1 1.2-.2 2.8-1v-.7l.4-.5h2.4l3 .4 4.6 1.1 2.8.2 5.7 2.2 3.5-.2 4.7-.4 2.2 1 2.2-.3 3.4.5 1.4.9 1.4.3 3.7 1.7.8-.3 1.1-.3 2.5-1 2-.6 1.6.3 1.6.5 5.2 4.5 6.5 2.3 2 1.3 1.3.3 6-.4 1.4.1 1.4.4.8.4 1.5 1.1 3.3 3.3 10.3 2.7 3.6 4.7 9.3 5.4 6.3 3.6 7.4 5 14.1 7 5.5 3.5 6.7 3.2.4.5.5 1 .4.5 1.7.8 3 1 6 2.2 4.3 2 13.3 7.6 4 1.6 13.6 8.7 9.5 5.3 10.2 5.1 11.8 4.8 22.8 7.2 3 4.3 7.6 3 .6.1.8-.3 1-.1 1 1.8 3.4 1 1.5.4 1.9.5.7-.2.8 1 1 1.1 1.2.1.6.3.9.1.3.3.7.1h2.3l.7.2 1.2-.2h.7l.2.5-.2.3.3.2h.3l.6-.3.8-.2h.6l2 .7.8 1 .8-.4h.8l.8 1.5 1 .2 1-.6 2 1.4 1.5.2 2.9.1 5.5 1 .5-.5 1 .2 1.1.2h1.6l1-.5.6.8 1.5.7h1l3.6.4.2.5 1.7.2 1-.8 1 .4 1.7.4 1 .1h.8l.4-.5.7-.3h1.8l4 .6 2.2-.5 3.8.2 2.2-1 2.8.3 3.3-.1 2.4-.8 2 .3 1.6-.3 1.4-.7.4-.8.9-.3h1l1.1.3 1 .1 1-.2 1.1-.2.8-1.2.7-.2.5-.4.5.1h.5l.4-.2.3-.7v-1h.4l.4.3.3-.1v-.5l1-1 .8-.4.7-.2 1 .1 1-.2 1-1.2 1.6-.7.8.3.8-.3.5-.4 1-1 2.2-.5 1.7-2 1.9-1.2h1.5l2.8-.9 3-2.2 2.5-.6 2.5-.1 2-.8.5-1.7 1.7-1.4 1.4.2 1.6 1 .6-.6-.7-1.1-.3-1 .3-.6.8-.2 1.2-.5 1.5-.6 1 .2 1-.5v-1.9l1-1 1.6-.9.7.6.5 1.1.7-.3.8-1-.4-2 2-1.7 1.4.3 3.3-2.6 1.4-.3.8.3.5-.3-.5-1.4.4-.7 1.7-.6 1.6-1.2.7-.7.6-.9-.5-.5-.8-.7v-.8l.2-.6-.1-.5v-.6l.6-.6.7-.8v-.2h-.2l-.3.3h-.7l-.7.4h-.3l-.1-.2.2-.3.4-.3 1-.7.5-.5.2-.3.4-.3.3.2.1.2.1.4.4-.3.2-.2v-.2l.3-.5h.8l1-.2 1.6.2.7.2h.7l.1-.5.5-.5.6-.8.9-.9.8-1 .5-.5 1.8-.3 1-.6 1.3-.3.6-1.1v-1.2l.6-1 .2-.8.5-.8.9-2 .6-1.1 1.1-1 .8-1 .6-.8.7-.9.5-1.6-.2-.7.8-1.6-.6-1.3-1.2-1.6-1-.8-1.7-.3-.5-.6.1-.8.3-.5 1-.8.8-.3h1l1 .2 2.6 2 1.4.7h.9l.8.1 1.1-.6 1.6-.9 1.3-.9 1.7-1.2 2.1-2.4 1.9-2.7 1.2-1.8.6-1.2.7-.4 1.1-.4.5-1v-1l.5-1-.3-1.3-1.3-.8-.4-.9-.2-.8.3-.7 1.7-.9.5-1.4 1.7-2.1 1.4-1.3 2-1.4 1.3-.2 1.4.2 2.7.5 6.2.5 2.9-.1 2.8-.3 2.8-.6 1.3-.5 1.6-.9.7-.5 1.8-2 .5-.4h.4l.6.5 2.5 5.6.6.6.8.5 1.2.1 4-3.4 1.6.4 2.6-.8 1.4-.8 2.5-1.4 2.4-.6.8-.4 3.7-2.6 7.6-4 4-2.6 2.3-1.1 4.8-2 3-1.8 2.1-1.5 6-5 15.1-11.4 3.4-3 3-3.4 1.4-1.9 1.6-3.2.7-2.2.3-2.5v-2.4l-1.1-2 .8-1.4-1-2.8-.2-2.4v-1.5l.9-1-.7-.7-1-1.2 1-2.3-.4-1.5.2-.9.6-1.2.8-1.1 2.5-2.5.7-1 .3-1-.1-.4-1.6-1.4-.1-.4v-.4l.6-1 .9-.8 1-.7 1.7-.7 1.5-.2.6.5.5.2.5-.1 1.2-.6.5-.5.2-1-.2-1-.4-.6-2.8-2.4-.5-.7-.2-.8.2-1 .5-1.3 1.2-1.7.7-1 1.6-.6.4.3 2.5-.6 2.7-1 1-.3.9.3 1-.4.9-.7.8.2.7.6-.3 1.3 1.1 1.5-.6 1.5v.2l.8-.1 3.3-1 1.5-1.7 2.1-1 1.3-.2 2.7-.7 1.7-.4 2.8.4 2.6 1.4 2.1 1.4 1.6 1.6 1.4 1-1.3 2.8 1.9 1v.5l-.4 1-.3.7-.4.5h-.6l-.4.3-.2.5v.8l.5.5.6.6.3.6v.3l.2.4-.4.6-.8-.2-.4.2-.2.2v.2h.5l.6.3v.5l-.6.3-1.4 2v2.9l.3 2.3-1 .8-1 1.2-.6 1.2v1.4l-.5 1.3-.3 1.3-1.6 2.5-.3 1.5-1.4 1-1.5 1.1-.8 1.6-.3 1.7-.6.7-1.2.8-.6 1.6-2.3 2.1-.6 1.2-1.2 1.7-1.7.6-3.4 2.7-3.3 2.5-1.6.5-1.5.4-2-.6-.7-.8-1.5-.6.3 1 .5.8v2l-.4 1-.5.5-1 .8-1.1.2-1-.3-1.5-.2-1.1.4-.4-.4.3-.9 1.5-2.7 1.1-1.4.4-1-.4-.8-2.8-1-2.7-1-1-.8-.8.5-.5 1-1.4 3.2-3.2 4.2-1.7 1.7-1 2.3-1.3 1.4-1 2.5-.7.8-2.7 1.7-4.8 3.8-2 1.4-3.7 2.1-1.3 1-1.2 1-1 1.5-.5 1.6-.2 1.8v1.8l.7 2.3.8 1.4.6.4 1 .8 1.3.7 1.5-.2 2.3-1 2.1-1 2.7.3 2.2-.7 2-.6 1.6-.7 1.5-1 3-2 1.2-1.4 1.1-1.4 1.5-3 .9-3.2.3-1.7.4-.7.4-1.4.3-2.2.6-2.8.9-3 .4-.4h.2l.4.3.2.4-.4 1.4-.3 3.1-.3 3.3.4 2.8.9 3.1 1 4 2.2 4.9 1.8 4.1 2.6 5 3.4 4.7 2.4 2.5 3.7 2.5 2.8 4 3.4 3.8 1 2.6 1.4 2 .5 2.6.1 1.5v2.2l-.1 5.3v4.1l-.5 1.7-1 2.1-1.8 2.3-2.2 2.5-2.6 1.9-3.4 2-4.5 1.4-1.8 1.2-1.2.4h-1.3l-2.1-.9-1.1-.6h-.8l-2.2.4-2.3.8-2.3 1.6-2.1 1.2-3 1.7-1.7 1-2.4 2.2-2.3 2-2.1 3.2-2.8.3-2.6-.2-1.8 1.2-2.7 3.4-2 2.2-1.8 3.5-.4 1.7-1.6 2.8-1.7 3.7-.6 2-.7 2.5-1 2.4-1.6 6.6-.4 8.7.6 3.2.9 3.9.8 3 .8 4 1.4 3.7 3 6.5 3.4 6.2 1.5 2.4 2.1 3.2 2.3 4 3.6 3.7 5.9 5.6 3.6 5 4.1 6.8 2.5 3.3.4.5 5.5 7.5 4.9 4.7 9.8 9.2 6.9 5.3L898 2227l3.1-.6h2.4l1 .6.5 1v1.6l4.3 2.9 3.8 2 1.4 1.4 1.3-.4 2.3.5 1.1 1.1v2.8l2.2 1.2 15 6.8 14.1 7.8 15.7 8-.2 1.7.8.8h1l3.1-2.5 1.4.4-.2 2.7 6.3 3.6 2.4 1.2 2.2.5 2 .1 2.3-4.6-2.6-1.4.9-1.2 6.4 2.8-.6 1.2-2.1-.8-2.2 4.8.2.2 4 2.7 6 2.3 1.8-4.2-1.6-.6v-.5l.2-.5 2.4 1 2.6.8v.7l-.4.3-1.5-.4h-.6l-.3 1 1.4 2 1.7 1.7 5.2 2.4 1.3-.3 1.1-.7 1 .3.3-.5-1.5-.7v-.4l.6-.9 1.4 1 2.4.7.5.4.3.4-.3.4-.5.2-1.3-.4-1.5 2.6 1.3.7 4.9 3 6.5 2.8 4.8 2 11.8 4.8 29.3 7.7 8 1.4 7.6 2 28.8.7 13.2.4 5-.1 1.6.1 1.2.7 3.4.3 13.7.3 6.9-.4 5.2-.1 4.3-.6 8.5-.4 4.9-.6 7.2-1.2 2.1-1 3.5-1.7 3.3-.2 2-1.2 4.3-.5 2-.7 2.2-.1 2.8-1 6.4-2.2 1.8.2 6.5-1.8 2-1.5 2.6-.8 2.8-2.2 7.2-6.7 6-4.7 2.3-1.4.8-1.3v-.1l1.5-1.5-.7-1.2v-1.4l.8-1.4 1.2-1 1.5-.5h1l9.1 5.8 8.7 5.2.3.2.2-.2 1.6 1 7.2 4 2 1.3 2.4 1.5 3.4 2.3 3 2 4 2.9.4-.4 8.6 5.3 10.6 8.2zM3951.9 840.8l2 .5 1 .7.5-.4 1.2-2 3.4-.5 1.2-.2 1-.2h2.7l1.5.5 2-.2 1.9.9-.4 1-.5.8-3.2-1.6-1.2 1.3h-2.3l-.7 1.4h-1.7l-1.6 1.5h-1l-1 1-2-.4h-1.3l-1.2.7-1 .4 1.3 1.1.8 1.6-1.2-.3-2.2-1.5h-2.5l.8 1.6-.5.5-2.5-1.6-1.1 1-2 1.6-2.5-.7-1.5-1-.8.2.2.4.9 1.4v1h-1.1l-.4 1 .6 1.4.6.8-1.7-.4-.4.7.5 1.4 1 .5 2.1.5 2.2.8-1.5 3-3.3 2.3h-3l-1.2-1.6-3.6.3-1.4.8-1.7.1-1.6 1.7h-1l-2.3 1.9-1.2-.5-2.2 1.8h-2l-.5 2-2.6.5-.8.6-.7 1-.8 3.7-1.7 2-1.2.4-.1 1-.6.4-2.5-.8-1.8-.1-.3 1.4-1.8-.1-.9 1.4-.4 1-.7 1 .8 1.3 1.3 1 .9 1.3 1.5.9 1 .5-.2.9-1.8.2h-1l-.4 1.4-.5.8-.1 1.4-1.4.4-1.8-1.6-1 .6-.5-.2-1.1.6-.7.5v1l.7 1.3.8-.4.5.1-.3 2.3h-.8l-.6-1-1-1.1h-1.5l-2.2-.5-2 1.5-1 2-.8 1.6.7 1.2.2 2.6 2.2-.2 1.5 1.8-.4 1.8-.5.1-1-.6-1.2 1-1 2.8 2.8 1.1 2.6.1 2.3 1.2 5.7-.3 2.1 3.6 2.1-.2 3.2 3.8 6-.1 1.2.9 1.9-.2 2.6 1.2.9 1.7.5 1.3 3.6.9h2l2-.5 3.4.5-.1 1.7-.8 1.7-.5 1.3-1 .6-5.6-2.3-.5 1.6.8 2.1 2.5 1.7 1.9-.8.5.5 1.1-.4 4.3.6.5 1 .5.7.4 1.4-3 1.5-1.7-.2-1-1-1 .2-1.7-.3.6 2 .7 1.1-1 2.6-1.8 1v2h5.5l1 1.1.9 2.2 2.1.8 2.2-2.7 3.4-2.5 6-1.6 2.7.3 2.4 1h2.6l4.9-1 1 .8-.7.6-2.2 1.3-1.8.6-1.3.1-1.2-.6-1.5.2-3 .8-1 1.3.8.6.9.2 3.7 1.2 4.6.7 1.3 2.5-.4.7-2 1.6-2.7 2-5 5-3.7 1.1-6.5-1.7h-1.6l-1.4 2 .2 1.5-.2 2.3.5 1.2 1.1 1-2.3 2-1.4 3.1-5.5 2.9h-5.6l-1.7 2-1.5 2-1.4 1.6-2.4 3.3-3.6.5-1.7 3.2 3.3 1.2v.6l-3.5 6-3.6 1.4h-2.2v1.7l1.8 4-.7 2.5-1.7 1.4-2.2.7-2.9 1.3-4.6-.1v2.4l-1.2 1.2.9 2.7 6.3-1.5 1.5 1-.2 2-1.3 1.1-1.9 1.2-.9 2.4.5 2-.6 3.4-4.6-1.1-3.8-2-.4-2 .1-2-2.2-2.1-.7-.4-.8.7.3 1.4v1.3h-.5l-1.2-2.4-.1 1-.4.3.5 1-.2.8-1.6.3-.7-2.1-1.4.2.3-2.1-4.2-4.3-4.5-.6-5.3.9-1.1.4-2.6 2.8-1.5-.4-3-2.8-4.2-.2-3.7.9-6.1 2.1-3-1.2-2.8-.2-3.8.7-3.5 1.4-4.7 2.5-7.2 1.6-6.1 3-9.8 4.4-7 3-4 1.8-16.6 4-14.6 1.6-11.7.8-2.3.5-2.1.9-4.2 2.3-3.2 1.3-3.5 1.2-11 2.4-5.4.9-5 1.3-7.7 1.8-5-.2-6.7-2.3-5.6-.6h-5.7l-3-1.6-4.2.4-7.9 2.3-1.6 1.9h-3.2l-3.6 2-5.3 3-2.8 3.3-2 3.3-8.7 5.4-12.1 8.4-7.2 4.2.6 2.8-.4 1.5-5 6.5-.5 3.2-1.7.5-3.4 3-4.5 3-1.6-1-2.2-.2-2.2 1.8-4.8.3-11.6 5.4-18.7 11-8.5 2.7-2.9-1.8-.5-1.5-.2-.8-1-.8-1.3 1-.7-.5.4-1.7-.7-1.6 2.5-1.2 2.9-.3 1.7 1 1.5.1-1.2-2-1.7-.9.4-.6 1.4.3.9-.7v-1.4l1.2-.7.1-1.4 1-1.4 2.4.2 1.5-2.2-2.7-1.6-.2-1.7 1.2-2 1.4-1.3 4.8-4.1 1.5-4.2 6.4-5.5 4.4-3 7.9-10.5.3-4.4-.1-5-1.8-6.5-.6-5.6.5-4.2.7-3.4 2-5.5 3.3-9 2.7-8.4 1.6-9v-5.3l-1-5.3-4-3.3-1.3-.7-1.2-1.2-.5-.4-2.7-1.9.3-1.5 1.8-5.4.6-6 1.8-.6 1.9-3.5 6-8.8 7.6-2.4 1-.2 4-.6 6.4-1 19.3-4.8 13.5-2.9 9 1.4 11.2-5.1.1-3.4 4.6-2.3 5.8-1.8 4 1.5 6.3-.5 17-4.7 18.8-10.3 5.8-3.2 1.6-4.1 1-4.7 4.8-9 6.3-10.2.6-6.7.2-7-3.5-3.5v-2.4l-.9-1.2-2.2-1.3-1.5-2.1-1.7-1.7 4.4-2 2-2.7.8-1.4v-1.3l-2.8-6.1-2.2-6.3 7.6 1.7 3.6-1.5 3.4-2.8v-4.6l.8-1 5.4-1.4 3.7 1.5 3.6 3 1.3 7.4v7.1l1.5 1.2 3.3.2 1.6-.8 5.2-2.4 5.4-1.4 7.2 1.7 6-.9 6-3.3 6.7-6.9 2.8-2.2-1.6-2.5.3-2.6 2.7.7 4.3-1.5 3.7-.5 1.7 1.3 1 1.7 4.3 4 2-1.9 1.3-3.4 2.8.4 2-1.8 2.4-1.5 4.3 1.4 2.2 2.5-.3 4.2 3.7-1 8.4-1.1 5.9-.7 1.2 3.2 4.5 8.3 1.2-1.2 1-.5h.5l.8-1 .1-.8 1-.2 1 .1 1-.3 1.8-1.7 2.5-1.2 1.3-.9 3-.7 2.5-.6 1.8-.2h2.1l1-.4 1.6-1.7 1.6-1.4 1.2-1.3 1.6-.8.8-1.3.5-.7 2.2-.4.5.6v.8l1.3.3.4.3.4.7 1 .7 1.7 2.4h2.1l1.2.3 1.5.6-.1.4 4.2.7 3.5.6 4.2.8 3.3-.1 4.2-.5 1.2-1.3 1.3-1.9 2.3-.7.6.6v1l.3.1.3-1 .8-1.1 1.2-.4h3.5l.5-.8.8-.3.6-.6.5.2.3-1 .6-.5 1 .2 1.9.6 1.4-.2zm-919.7 395.4 4.5 2 2.7.6 4.2-3.6 3-3.3 2.2-3 3.9-4.5 2.8-1.3 2.8-.7 3.7.7 6 2.5 2.8-2.7 2.6.2 1.2-.9 1 1.5 1.4-1.2-.8 3.5 1.4.2.3 2-2.2 5.3-.3 2.6 1.7 2-.7 4 1.9 4-.8 5.8.5 7.5-3.2 7.2-8.6 5.4-23 5.6-6.6 2.3-6.6 5.2-3.9 6.3-1 7.7.3 2 1.8 1.4.9 3.8-.3 3.6-1.7 3-11.8 7-10.3 2-10.2 6.3-4.2-3.2 1-4.7 3.7-3.3 2.1-6.2 2.4-3.6.6-4.4-1.8-4.8-1.7-4.4-6-4.5-4.3-4.4-5.4-3.6-7-3.5-6.2 1-1.8-2 3.1-5.4 4.9-4.4 3.3-4.4.8-1-4.4-8.6-.4-3.3-1.6-2.3-1-8.5 3.5-6.6 5.8-6.5 1-3.9 3.6-1.6 1.5 1.4 4.3.6 2.8 3.2-.2 2.5 5.2 3h8.3l11.3 3.5 9.7.4zm41.3 452.8 1.3-2-.7-2.5-1-2.5-.2-2 .2-2.4v-1.7l.2-1.7-.4-2.2-.7-1.4v-3.7l.7-2.6.8-1.2h.7l-.4-1 .4-1 .6-.6.9-.3.3-1.8 1-.8.7-1.7 1.2-3.7 1.9-1.6 1.8-2.8.7-2.4 1-.7.6-1.6 1.4-3.6 1.4-1.6 1.2-2.4.8-.5.5-2 1.5-1 1.2-2.2 1.2-3 1.6-1.6 1-1.7 1.5-1.9 1.5-1.3 1.4-.6.8-1.4 1.4-1.9 2-1.1 2-1.7 2.2-1.3 1-.5.6-1 1-.7 1.8-.5 1.8-1 2-1 4.8-1.5 1.8-.7 1.3-.2.7-.8-.9-.5.5-1h2l.6 1.5-.4 1.5-.5 1.4-.7.9.3 1.6 1 2.3-.3 1.6.4 3.5-.8 1.5-2.2 2.5-1 3.1-2.3 2.6-3.4 3-1.9 2.8-2.5 1.9-1.4 2.4-.3 1.7-.4 2.7-.3 2-1 1.7-.4 2-.5 1.3-1 2-.6 1.7-.9.4-.4 1.3-1.2.5-.8 4.7-.1 3.4-1.2 3.7-.5 1.5-.5.6-.7 4.3-1.1 4v3l-.4 3.8v4.5l-.3 2.7.3 1.6 1.3 1 .7 1 .1 1.7-1 1.2-.2 2-1 1.8-5.5.5-3.3-3.2-4.4-3-8-3.8-1.2-1.3-2 .6-2.8 1.1-5.5 4.4-1.4 1.5-1.8.5-1.8.2h-1.3l-.7-.6v-.8l1.6-.6 2.2-1.4 4.8-3.3zm8 441.8-1.9.3-2.5-.7-2.3-1-1.3 1.2-1.9.8-2.5 1-1.2 1-2 .8-.7 1-1.3-.3-1.7.5-1.4.5-.7.7v1.3l-.4 1-.8.6h-1.3l-1.4-.3-.4-.8 1.4-1.8 2.8-2.3 2.6-1.1 3.4-1.2 2.3-.8 1.6-1.3 3-1.4 2.8-2.7 2-3 2.8-6.3 1.4-5 .3-4.3-.2-1.6-.6-1.6 1.6-1 .8-1-.3-1.4 2.6-3.5 2.2-1.7 1 .1.8.7 1-.3 1.6-.4 1.7-.7.4 1.1 1.4.2 2.6 1.7 1.3.3 2.7 1.8 2.3 2.1 1.7.6 3.2-.5 2 .3 1.7-1.2 1.6.5.7 2.2-.6 1.4-1.8.2.4 3.6-.3 1.5.3 1 1.2 1.4 2.6.3 3.5.5 3.8 1.5 2.2 1.3h1.8l1.4.8 5.3-.3 5.3-1.6 3-2.4 4-3.8 1.7-.6h1.6l2-.8 2.2-.2.3-.7 2 .4 2.2 1.3 3.7.9 2.2 1.3 1.7.2.8-.7h.7l.8-.8 1.2.2 1-.2h1l1.5-.4 4.9-.5 1.2 1 .1.9 1 .6-.2.2-.6.3-.2.5-2 .3-1.7.3-2.1.6-.6 1v1.7l-.8.8-2.2 1-1.6 1.7-1.2.2h-1.2l-2.2-1.1-2.8.6-1.1 1.2-2.7.7-3.1-1.6-1.8.4-2.5-1.2-2.7 1.6-3.3-.6-1.6.3-2.2-.8-3.3-.4-4.4 1-1.8.7-3.8.4-3.8-1.8-4.8-.7-2.1 1.3-.7 2 .2 1-.5.5-1.3.4-1.5.8-4.9 1.7-7 2.2-10.3 1.8-5 1.2zM1141.2 2526l-1.1 6.3 2.9 2.7 3 4.2-.3.9-.9 3.3-3.1 3-2.5-.2-1.9-1-3.1-1.9-10.6-1.7-8-1.2-13.2-3.2-12.3-5-1.8-1.3-5-1-1.8-4.4-.2-3.2 3.3-5.4 3-3.8 3.2-3.8 2.5-4.2 2.3-2.4 6.7-1.7 8.2-.7 6.3.5 7.9 1.7 6.2 3 5.3 3.9 3.2 4.7 2.8 6.2zM2138 1007.7l-.6 1.5v2.9l.2 1.5-.3.7-1.2.3-1-.7-1.3-1-1-1-1.4-1-.3-1-.2-.3v-1.1l-.4-1.2v-1.2l-1-1-1.2-.3h-1.5l-1.6.4-1.8.2-1.3-.3-1.6-.7h-3.6l-1.2-.4-1.5.4-1.7-.2-1.3.7-.8.2-1 .4h-.5l-.6-.3-.6.1-.5-.2-.4-.6-.3-.8-.7-1-.6-.4-1-.8-.4-.6h-.7l-.3-.7-.2-.2-.2-.6.1-.6-.1-.6.1-.6.4-.5-.1-.6v-.5l.2-.6.7-.1h1l.4.3h.5l.5-.4.7-.3h.8l1 .3h.8l.4-.5.5-.3 1 .2h.9l.3.1.5-.3.5.3h.7l1 .5 1 .7h1l-.3-.4.4-.6.9.2 1.7.4 1.1-.8 1-.1 1.2-.5.8.6 1 .7.8.9h.7l.9.4.3.5v.1l.2.5h1l1.4-.3.8-1v-1.9l.7-.1h1l.5.5.7.1.9.5.9.3-.4-.3-.3-.2-.4-.2-.5-.8-.2-.4v-.5l.3-.3-.1-.3v-.7h.5l.6.2.7.1.3.2.2.3.3.1.4.1.7.4h.4l.3.4.5.3-.4-.5v-.2h.6l.2-.2h.3l.2.1h.1l-.3-.2-.4-.2-.3-.1v-.2l.2-.2h.2l.2.1.2.2.3.2h.2l-.1-.2-.2-.1v-.2h.1v-.1l-.1-.2v-.3l.3-.2h.4l.5.4.1.3.2.2h.2l.2-.1h.5l.2.4.4.1v-.4l.5-.4.4-.2h.5l.4.3.5.6.1.4-.2.2.3.4.1.4.4.4.3.2.4.5v.8l.1.4v.4l.2.3-.1.2-.2.2h-.6l-.3-.3v-.4h-.5l-.5.4-.4-.1-.3.3-.3.3-1-.2-.5.7.2.5-.3.5.1.5v.7l-.3.8-.4.8-.4 1.1-.7 1-.7.6h-.8l-.2.4.2.3.7.1-.2 1.2-.6.1zm782.4 296.3 1.5-2.4 2-.6 2.3.3.7 2.4 1 5-.9 5.2v5.5l-3.1 4.4-8.1 10.5-5.7 2.6-1.6-.6-1.7-1.7-.1-2 1-1-1-1.8.7-2.3-1.3-2.7.3-1.9-1-1.7 1-4.7 9-10.6zm-567.2-357 4.7-1.2 6 5.7.5 7.7-3 1.3.1 4-1.2 1.8-1.2 5.3-1 3-1.3-3-1.5-13.1.2-3.5-3-5.5zm748.3 1219.4 1.3-.7 1.3-.3 1 1.1.8 2 .2 1.5v1.3l-.8 1.6-.2 1.8-.4.5-1.4.1-2.9-.3-1.3-.8-.8-1.2-.5-1.9.4-.7.9-.6.2-1.3z"/></g></svg>